<?xml version="1.0" encoding="utf-8" ?>
<svg baseProfile="full" height="2000px" version="1.1" width="2000px" xmlns="http://www.w3.org/2000/svg" xmlns:ev="http://www.w3.org/2001/xml-events" xmlns:xlink="http://www.w3.org/1999/xlink"><defs><clipPath id="border_clip"><rect height="2000" width="2000" x="0" y="0" /></clipPath></defs><polyline clip-path="url(#border_clip)" fill="none" points="850.5,1779.922863405995 800.5,1779.922863405995 775.5,1736.621593216773 800.5,1693.3203230275512 775.5,1650.0190528383291 725.5,1650.0190528383291 700.5,1693.3203230275512 650.5,1693.3203230275512 625.5,1650.0190528383291 650.5,1606.7177826491074 700.5,1606.7177826491074 725.5,1563.4165124598853 700.5,1520.1152422706637 650.5,1520.1152422706637 625.5,1476.8139720814415 650.5,1433.5127018922196 625.5,1390.2114317029977 575.5,1390.2114317029977 550.5,1433.5127018922196 575.5,1476.8139720814415 550.4999999999999,1520.1152422706634 500.4999999999999,1520.1152422706634 475.4999999999999,1476.8139720814415 425.4999999999999,1476.8139720814415 400.4999999999999,1520.1152422706634 350.4999999999999,1520.1152422706634 325.4999999999999,1476.8139720814415 350.4999999999999,1433.5127018922194 400.4999999999999,1433.5127018922194 425.4999999999999,1390.2114317029975 400.4999999999999,1346.9101615137756 425.4999999999999,1303.6088913245537 475.4999999999999,1303.6088913245537 500.4999999999999,1346.9101615137756 550.4999999999999,1346.9101615137756 575.4999999999999,1303.6088913245537 550.4999999999999,1260.3076211353318 500.4999999999999,1260.3076211353318 475.4999999999999,1217.0063509461097 500.4999999999999,1173.7050807568878 550.4999999999999,1173.7050807568878 575.4999999999999,1130.403810567666 550.4999999999999,1087.102540378444" stroke="black" stroke-linecap="round" stroke-width="10" /><polyline clip-path="url(#border_clip)" fill="none" points="550.4999999999999,1087.102540378444 575.4999999999999,1043.8012701892221 625.4999999999999,1043.8012701892221 650.4999999999999,1087.102540378444 625.4999999999999,1130.403810567666 650.4999999999999,1173.7050807568878 700.4999999999999,1173.7050807568878 725.4999999999999,1130.403810567666 775.4999999999999,1130.403810567666 800.4999999999999,1173.7050807568878 850.4999999999999,1173.7050807568878 875.4999999999999,1130.403810567666 850.4999999999999,1087.102540378444 800.4999999999999,1087.102540378444 775.4999999999999,1043.8012701892221 800.4999999999999,1000.5000000000001 775.4999999999999,957.1987298107781 725.4999999999999,957.1987298107781 700.4999999999999,1000.5 650.4999999999999,1000.5 625.4999999999999,957.1987298107781 650.4999999999999,913.8974596215562 700.4999999999999,913.8974596215562 725.4999999999999,870.5961894323342 700.4999999999999,827.2949192431123 725.4999999999999,783.9936490538904 775.4999999999999,783.9936490538904 800.4999999999999,827.2949192431123 850.4999999999999,827.2949192431123 875.4999999999999,783.9936490538904 850.4999999999999,740.6923788646684 800.4999999999999,740.6923788646684 775.4999999999999,697.3911086754465 800.4999999999999,654.0898384862246 850.4999999999999,654.0898384862246 875.4999999999999,610.7885682970026 850.4999999999999,567.4872981077806 875.4999999999999,524.1860279185587 925.4999999999999,524.1860279185587 950.4999999999999,567.4872981077806 925.4999999999999,610.7885682970026 950.4999999999999,654.0898384862246 1000.4999999999999,654.0898384862246" stroke="black" stroke-linecap="round" stroke-width="10" /><polyline clip-path="url(#border_clip)" fill="none" points="1000.4999999999999,654.0898384862246 1025.5,697.3911086754465 1000.5,740.6923788646684 950.5,740.6923788646684 925.5,783.9936490538904 950.5,827.2949192431123 1000.5,827.2949192431123 1025.5,783.9936490538904 1075.5,783.9936490538904 1100.5,827.2949192431123 1075.5,870.5961894323343 1100.5,913.8974596215562 1150.5,913.8974596215562 1175.5,957.1987298107781 1150.5,1000.5 1100.5,1000.5000000000001 1075.5,957.1987298107781 1025.5,957.1987298107782 1000.5,1000.5000000000001 1025.5,1043.8012701892221 1000.5,1087.102540378444 950.5,1087.102540378444 925.5,1130.403810567666 950.5,1173.7050807568878 1000.5,1173.7050807568878 1025.5,1130.403810567666 1075.5,1130.403810567666 1100.5,1173.7050807568878 1150.5,1173.7050807568878 1175.5,1130.403810567666 1150.5,1087.102540378444 1175.5,1043.8012701892221 1225.5,1043.8012701892221 1250.5,1087.102540378444 1225.5,1130.403810567666 1250.5,1173.7050807568878 1300.5,1173.7050807568878 1325.5,1217.0063509461097 1300.5,1260.3076211353318 1250.5,1260.3076211353318 1225.5,1303.6088913245537 1250.5,1346.9101615137756 1300.5,1346.9101615137756" stroke="black" stroke-linecap="round" stroke-width="10" /><polyline clip-path="url(#border_clip)" fill="none" points="1300.5,1346.9101615137756 1325.5,1303.6088913245537 1375.5,1303.6088913245537 1400.5,1346.9101615137756 1375.5,1390.2114317029977 1400.5,1433.5127018922196 1450.5,1433.5127018922196 1475.5,1476.8139720814415 1450.5,1520.1152422706634 1400.5,1520.1152422706634 1375.5,1476.8139720814415 1325.5,1476.8139720814415 1300.5,1520.1152422706634 1250.5,1520.1152422706634 1225.5,1476.8139720814415 1250.5,1433.5127018922196 1225.5,1390.2114317029977 1175.5,1390.2114317029977 1150.5,1433.5127018922196 1175.5,1476.8139720814415 1150.5,1520.1152422706637 1100.5,1520.1152422706637 1075.5,1563.4165124598853 1100.5,1606.7177826491074 1150.5,1606.7177826491074 1175.5,1650.0190528383291 1150.5,1693.3203230275512 1100.5,1693.3203230275512 1075.5,1650.0190528383291 1025.5,1650.0190528383291 1000.5,1693.3203230275512 1025.5,1736.621593216773 1000.5,1779.922863405995 950.5,1779.922863405995 925.5,1823.2241335952167 950.5000000000001,1866.5254037844388 1000.5000000000001,1866.5254037844388 1025.5,1823.2241335952167 1075.5,1823.2241335952167 1100.5,1866.5254037844388 1150.5,1866.5254037844388 1175.5,1823.2241335952167 1150.5,1779.922863405995" stroke="black" stroke-linecap="round" stroke-width="10" /><polyline clip-path="url(#border_clip)" fill="none" points="1150.5,1779.922863405995 1175.5,1736.621593216773 1225.5,1736.621593216773 1250.5,1779.922863405995 1225.5,1823.2241335952167 1250.5,1866.5254037844388 1300.5,1866.5254037844388 1325.5,1823.2241335952167 1375.5,1823.2241335952167 1400.5,1866.5254037844388 1450.5,1866.5254037844388 1475.5,1823.2241335952167 1450.5,1779.922863405995 1400.5,1779.922863405995 1375.5,1736.621593216773 1400.5,1693.3203230275512 1450.5,1693.3203230275512 1475.5,1650.0190528383291 1450.5,1606.7177826491074 1475.5,1563.4165124598853 1525.5,1563.4165124598853 1550.5,1606.7177826491074 1525.5,1650.0190528383291 1550.5,1693.3203230275512 1600.5,1693.3203230275512 1625.5,1736.621593216773 1600.5,1779.922863405995 1550.5,1779.922863405995 1525.5,1823.2241335952167 1550.5,1866.5254037844388 1600.5,1866.5254037844388 1625.5,1823.2241335952167 1675.5,1823.2241335952167 1700.5,1866.5254037844388" stroke="black" stroke-linecap="round" stroke-width="10" /><polyline clip-path="url(#border_clip)" fill="none" points="100.5,1866.5254037844388 125.5,1823.2241335952167 175.5,1823.2241335952167 200.5,1866.5254037844388 250.5,1866.5254037844388 275.5,1823.2241335952167 250.5,1779.922863405995 200.5,1779.922863405995 175.5,1736.621593216773 200.5,1693.3203230275512 250.5,1693.3203230275512 275.5,1650.0190528383291 250.5,1606.7177826491074 275.5,1563.4165124598853 325.5,1563.4165124598853 350.5,1606.7177826491074 325.5,1650.0190528383291 350.5,1693.3203230275512 400.5,1693.3203230275512 425.5,1736.621593216773 400.5,1779.922863405995 350.5,1779.922863405995 325.5,1823.2241335952167 350.5,1866.5254037844388 400.5,1866.5254037844388 425.5,1823.2241335952167 475.5,1823.2241335952167 500.5,1866.5254037844388 550.5,1866.5254037844388 575.5,1823.2241335952167 550.5,1779.922863405995 575.5,1736.621593216773 625.5,1736.621593216773 650.5,1779.922863405995 625.5,1823.2241335952167 650.5,1866.5254037844388 700.5,1866.5254037844388 725.5,1823.2241335952167 775.5,1823.2241335952167 800.5,1866.5254037844388 850.5,1866.5254037844388 875.5,1823.2241335952167 850.5,1779.922863405995" stroke="black" stroke-linecap="round" stroke-width="10" /></svg>