<?xml version="1.0" encoding="utf-8" ?>
<svg baseProfile="full" height="1000px" version="1.1" width="1000px" xmlns="http://www.w3.org/2000/svg" xmlns:ev="http://www.w3.org/2001/xml-events" xmlns:xlink="http://www.w3.org/1999/xlink"><defs><clipPath id="border_clip"><rect height="1000" width="1000" x="0" y="0" /></clipPath></defs><polyline clip-path="url(#border_clip)" fill="none" points="450.5,750.5 400.5,750.5 400.50000000000006,700.5 450.50000000000006,700.5 450.50000000000006,650.5 500.50000000000006,650.5 500.50000000000006,700.5 450.50000000000006,700.5 450.50000000000006,750.5 500.50000000000006,750.5 500.50000000000006,800.5 550.5,800.5 550.5,750.5 600.5,750.5 600.5,800.5 550.5,800.5 550.5,850.5 600.5,850.5 600.5,900.5 550.5,900.5 550.5,950.5 500.5,950.5 500.5,900.5" stroke="black" stroke-linecap="round" stroke-width="10" /><polyline clip-path="url(#border_clip)" fill="none" points="500.5,500.5 550.5,500.5 550.5,450.5 500.5,450.5 500.5,400.5 450.5,400.5 450.5,450.5 400.5,450.5 400.5,400.5 350.5,400.5 350.5,450.5 400.5,450.5 400.5,500.5 350.5,500.5 350.5,550.5 300.5,550.5 300.5,500.5 250.5,500.5 250.5,550.5 300.5,550.5 300.5,600.5 350.5,600.5 350.5,550.5 400.5,550.5 400.5,600.5 350.5,600.5 350.5,650.5 400.5,650.5 400.5,700.5 350.5,700.5 350.5,750.5 300.5,750.5 300.5,700.5 250.5,700.5 250.5,750.5 300.5,750.5 300.5,800.5 350.5,800.5 350.5,750.5 400.5,750.5 400.5,800.5 450.5,800.5 450.5,750.5" stroke="black" stroke-linecap="round" stroke-width="10" /></svg>