<?xml version="1.0" encoding="utf-8" ?>
<svg baseProfile="full" height="1000" version="1.1" viewBox="-600.0 -2200.0 2800.0 3300.0" width="1000" xmlns="http://www.w3.org/2000/svg" xmlns:ev="http://www.w3.org/2001/xml-events" xmlns:xlink="http://www.w3.org/1999/xlink"><defs /><path d="M 0 0 L 50.0000 0.0000 A 50.0000 50.0000 0 0 0 100.0000 -50.0000 A 50.0000 50.0000 -90 0 0 50.0000 -100.0000 A 50.0000 50.0000 -180 0 1 0.0000 -150.0000 A 50.0000 50.0000 -90 0 0 -50.0000 -200.0000 A 50.0000 50.0000 -180 0 0 -100.0000 -150.0000 A 50.0000 50.0000 -270 0 1 -150.0000 -100.0000 A 50.0000 50.0000 -180 0 1 -200.0000 -150.0000 A 50.0000 50.0000 -90 0 0 -250.0000 -200.0000 A 50.0000 50.0000 -180 0 0 -300.0000 -150.0000 A 50.0000 50.0000 -270 0 0 -250.0000 -100.0000 A 50.0000 50.0000 -360 0 1 -200.0000 -50.0000 A 50.0000 50.0000 -270 0 1 -250.0000 0.0000 A 50.0000 50.0000 -180 0 0 -300.0000 50.0000 A 50.0000 50.0000 -270 0 1 -350.0000 100.0000 A 50.0000 50.0000 -180 0 1 -400.0000 50.0000 A 50.0000 50.0000 -90 0 0 -450.0000 -0.0000 A 50.0000 50.0000 -180 0 0 -500.0000 50.0000 A 50.0000 50.0000 -270 0 0 -450.0000 100.0000 A 50.0000 50.0000 -360 0 1 -400.0000 150.0000 A 50.0000 50.0000 -270 0 0 -350.0000 200.0000 A 50.0000 50.0000 -360 0 0 -300.0000 150.0000 A 50.0000 50.0000 -450 0 1 -250.0000 100.0000 A 50.0000 50.0000 -360 0 1 -200.0000 150.0000 A 50.0000 50.0000 -270 0 1 -250.0000 200.0000 A 50.0000 50.0000 -180 0 0 -300.0000 250.0000 A 50.0000 50.0000 -270 0 0 -250.0000 300.0000 A 50.0000 50.0000 -360 0 1 -200.0000 350.0000 A 50.0000 50.0000 -270 0 1 -250.0000 400.0000 A 50.0000 50.0000 -180 0 0 -300.0000 450.0000 A 50.0000 50.0000 -270 0 1 -350.0000 500.0000 A 50.0000 50.0000 -180 0 1 -400.0000 450.0000 A 50.0000 50.0000 -90 0 0 -450.0000 400.0000 A 50.0000 50.0000 -180 0 0 -500.0000 450.0000 A 50.0000 50.0000 -270 0 0 -450.0000 500.0000 A 50.0000 50.0000 -360 0 1 -400.0000 550.0000 A 50.0000 50.0000 -270 0 0 -350.0000 600.0000 A 50.0000 50.0000 -360 0 0 -300.0000 550.0000 A 50.0000 50.0000 -450 0 1 -250.0000 500.0000 A 50.0000 50.0000 -360 0 1 -200.0000 550.0000 A 50.0000 50.0000 -270 0 0 -150.0000 600.0000 A 50.0000 50.0000 -360 0 0 -100.0000 550.0000 A 50.0000 50.0000 -450 0 0 -150.0000 500.0000 A 50.0000 50.0000 -540 0 1 -200.0000 450.0000 A 50.0000 50.0000 -450 0 1 -150.0000 400.0000 A 50.0000 50.0000 -360 0 0 -100.0000 350.0000 A 50.0000 50.0000 -450 0 1 -50.0000 300.0000 A 50.0000 50.0000 -360 0 1 0.0000 350.0000 A 50.0000 50.0000 -270 0 1 -50.0000 400.0000 A 50.0000 50.0000 -180 0 0 -100.0000 450.0000 A 50.0000 50.0000 -270 0 0 -50.0000 500.0000 A 50.0000 50.0000 -360 0 1 0.0000 550.0000 A 50.0000 50.0000 -270 0 0 50.0000 600.0000 A 50.0000 50.0000 -360 0 0 100.0000 550.0000 A 50.0000 50.0000 -450 0 1 150.0000 500.0000 A 50.0000 50.0000 -360 0 1 200.0000 550.0000 A 50.0000 50.0000 -270 0 1 150.0000 600.0000 A 50.0000 50.0000 -180 0 0 100.0000 650.0000 A 50.0000 50.0000 -270 0 0 150.0000 700.0000 A 50.0000 50.0000 -360 0 1 200.0000 750.0000 A 50.0000 50.0000 -270 0 1 150.0000 800.0000 A 50.0000 50.0000 -180 0 0 100.0000 850.0000 A 50.0000 50.0000 -270 0 1 50.0000 900.0000 A 50.0000 50.0000 -180 0 1 0.0000 850.0000 A 50.0000 50.0000 -90 0 0 -50.0000 800.0000 A 50.0000 50.0000 -180 0 0 -100.0000 850.0000 A 50.0000 50.0000 -270 0 0 -50.0000 900.0000 A 50.0000 50.0000 -360 0 1 0.0000 950.0000 A 50.0000 50.0000 -270 0 0 50.0000 1000.0000 A 50.0000 50.0000 -360 0 0 100.0000 950.0000 A 50.0000 50.0000 -450 0 1 150.0000 900.0000 A 50.0000 50.0000 -360 0 1 200.0000 950.0000 A 50.0000 50.0000 -270 0 0 250.0000 1000.0000 A 50.0000 50.0000 -360 0 0 300.0000 950.0000 A 50.0000 50.0000 -450 0 0 250.0000 900.0000 A 50.0000 50.0000 -540 0 1 200.0000 850.0000 A 50.0000 50.0000 -450 0 1 250.0000 800.0000 A 50.0000 50.0000 -360 0 0 300.0000 750.0000 A 50.0000 50.0000 -450 0 1 350.0000 700.0000 A 50.0000 50.0000 -360 0 1 400.0000 750.0000 A 50.0000 50.0000 -270 0 0 450.0000 800.0000 A 50.0000 50.0000 -360 0 0 500.0000 750.0000 A 50.0000 50.0000 -450 0 0 450.0000 700.0000 A 50.0000 50.0000 -540 0 1 400.0000 650.0000 A 50.0000 50.0000 -450 0 0 350.0000 600.0000 A 50.0000 50.0000 -540 0 0 300.0000 650.0000 A 50.0000 50.0000 -630 0 1 250.0000 700.0000 A 50.0000 50.0000 -540 0 1 200.0000 650.0000 A 50.0000 50.0000 -450 0 1 250.0000 600.0000 A 50.0000 50.0000 -360 0 0 300.0000 550.0000 A 50.0000 50.0000 -450 0 0 250.0000 500.0000 A 50.0000 50.0000 -540 0 1 200.0000 450.0000 A 50.0000 50.0000 -450 0 1 250.0000 400.0000 A 50.0000 50.0000 -360 0 0 300.0000 350.0000 A 50.0000 50.0000 -450 0 1 350.0000 300.0000 A 50.0000 50.0000 -360 0 1 400.0000 350.0000 A 50.0000 50.0000 -270 0 1 350.0000 400.0000 A 50.0000 50.0000 -180 0 0 300.0000 450.0000 A 50.0000 50.0000 -270 0 0 350.0000 500.0000 A 50.0000 50.0000 -360 0 1 400.0000 550.0000 A 50.0000 50.0000 -270 0 0 450.0000 600.0000 A 50.0000 50.0000 -360 0 0 500.0000 550.0000 A 50.0000 50.0000 -450 0 1 550.0000 500.0000 A 50.0000 50.0000 -360 0 1 600.0000 550.0000 A 50.0000 50.0000 -270 0 0 650.0000 600.0000 A 50.0000 50.0000 -360 0 0 700.0000 550.0000 A 50.0000 50.0000 -450 0 0 650.0000 500.0000 A 50.0000 50.0000 -540 0 1 600.0000 450.0000 A 50.0000 50.0000 -450 0 1 650.0000 400.0000 A 50.0000 50.0000 -360 0 0 700.0000 350.0000 A 50.0000 50.0000 -450 0 1 750.0000 300.0000 A 50.0000 50.0000 -360 0 1 800.0000 350.0000 A 50.0000 50.0000 -270 0 1 750.0000 400.0000 A 50.0000 50.0000 -180 0 0 700.0000 450.0000 A 50.0000 50.0000 -270 0 0 750.0000 500.0000 A 50.0000 50.0000 -360 0 1 800.0000 550.0000 A 50.0000 50.0000 -270 0 0 850.0000 600.0000 A 50.0000 50.0000 -360 0 0 900.0000 550.0000 A 50.0000 50.0000 -450 0 1 950.0000 500.0000 A 50.0000 50.0000 -360 0 1 1000.0000 550.0000 A 50.0000 50.0000 -270 0 1 950.0000 600.0000 A 50.0000 50.0000 -180 0 0 900.0000 650.0000 A 50.0000 50.0000 -270 0 0 950.0000 700.0000 A 50.0000 50.0000 -360 0 1 1000.0000 750.0000 A 50.0000 50.0000 -270 0 1 950.0000 800.0000 A 50.0000 50.0000 -180 0 0 900.0000 850.0000 A 50.0000 50.0000 -270 0 1 850.0000 900.0000 A 50.0000 50.0000 -180 0 1 800.0000 850.0000 A 50.0000 50.0000 -90 0 0 750.0000 800.0000 A 50.0000 50.0000 -180 0 0 700.0000 850.0000 A 50.0000 50.0000 -270 0 0 750.0000 900.0000 A 50.0000 50.0000 -360 0 1 800.0000 950.0000 A 50.0000 50.0000 -270 0 0 850.0000 1000.0000 A 50.0000 50.0000 -360 0 0 900.0000 950.0000 A 50.0000 50.0000 -450 0 1 950.0000 900.0000 A 50.0000 50.0000 -360 0 1 1000.0000 950.0000 A 50.0000 50.0000 -270 0 0 1050.0000 1000.0000 A 50.0000 50.0000 -360 0 0 1100.0000 950.0000 A 50.0000 50.0000 -450 0 0 1050.0000 900.0000 A 50.0000 50.0000 -540 0 1 1000.0000 850.0000 A 50.0000 50.0000 -450 0 1 1050.0000 800.0000 A 50.0000 50.0000 -360 0 0 1100.0000 750.0000 A 50.0000 50.0000 -450 0 1 1150.0000 700.0000 A 50.0000 50.0000 -360 0 1 1200.0000 750.0000 A 50.0000 50.0000 -270 0 0 1250.0000 800.0000 A 50.0000 50.0000 -360 0 0 1300.0000 750.0000 A 50.0000 50.0000 -450 0 0 1250.0000 700.0000 A 50.0000 50.0000 -540 0 1 1200.0000 650.0000 A 50.0000 50.0000 -450 0 0 1150.0000 600.0000 A 50.0000 50.0000 -540 0 0 1100.0000 650.0000 A 50.0000 50.0000 -630 0 1 1050.0000 700.0000 A 50.0000 50.0000 -540 0 1 1000.0000 650.0000 A 50.0000 50.0000 -450 0 1 1050.0000 600.0000 A 50.0000 50.0000 -360 0 0 1100.0000 550.0000 A 50.0000 50.0000 -450 0 0 1050.0000 500.0000 A 50.0000 50.0000 -540 0 1 1000.0000 450.0000 A 50.0000 50.0000 -450 0 1 1050.0000 400.0000 A 50.0000 50.0000 -360 0 0 1100.0000 350.0000 A 50.0000 50.0000 -450 0 1 1150.0000 300.0000 A 50.0000 50.0000 -360 0 1 1200.0000 350.0000 A 50.0000 50.0000 -270 0 0 1250.0000 400.0000 A 50.0000 50.0000 -360 0 0 1300.0000 350.0000 A 50.0000 50.0000 -450 0 0 1250.0000 300.0000 A 50.0000 50.0000 -540 0 1 1200.0000 250.0000 A 50.0000 50.0000 -450 0 0 1150.0000 200.0000 A 50.0000 50.0000 -540 0 0 1100.0000 250.0000 A 50.0000 50.0000 -630 0 1 1050.0000 300.0000 A 50.0000 50.0000 -540 0 1 1000.0000 250.0000 A 50.0000 50.0000 -450 0 0 950.0000 200.0000 A 50.0000 50.0000 -540 0 0 900.0000 250.0000 A 50.0000 50.0000 -630 0 0 950.0000 300.0000 A 50.0000 50.0000 -720 0 1 1000.0000 350.0000 A 50.0000 50.0000 -630 0 1 950.0000 400.0000 A 50.0000 50.0000 -540 0 0 900.0000 450.0000 A 50.0000 50.0000 -630 0 1 850.0000 500.0000 A 50.0000 50.0000 -540 0 1 800.0000 450.0000 A 50.0000 50.0000 -450 0 1 850.0000 400.0000 A 50.0000 50.0000 -360 0 0 900.0000 350.0000 A 50.0000 50.0000 -450 0 0 850.0000 300.0000 A 50.0000 50.0000 -540 0 1 800.0000 250.0000 A 50.0000 50.0000 -450 0 0 750.0000 200.0000 A 50.0000 50.0000 -540 0 0 700.0000 250.0000 A 50.0000 50.0000 -630 0 1 650.0000 300.0000 A 50.0000 50.0000 -540 0 1 600.0000 250.0000 A 50.0000 50.0000 -450 0 1 650.0000 200.0000 A 50.0000 50.0000 -360 0 0 700.0000 150.0000 A 50.0000 50.0000 -450 0 0 650.0000 100.0000 A 50.0000 50.0000 -540 0 1 600.0000 50.0000 A 50.0000 50.0000 -450 0 1 650.0000 -0.0000 A 50.0000 50.0000 -360 0 0 700.0000 -50.0000 A 50.0000 50.0000 -450 0 1 750.0000 -100.0000 A 50.0000 50.0000 -360 0 1 800.0000 -50.0000 A 50.0000 50.0000 -270 0 1 750.0000 -0.0000 A 50.0000 50.0000 -180 0 0 700.0000 50.0000 A 50.0000 50.0000 -270 0 0 750.0000 100.0000 A 50.0000 50.0000 -360 0 1 800.0000 150.0000 A 50.0000 50.0000 -270 0 0 850.0000 200.0000 A 50.0000 50.0000 -360 0 0 900.0000 150.0000 A 50.0000 50.0000 -450 0 1 950.0000 100.0000 A 50.0000 50.0000 -360 0 1 1000.0000 150.0000 A 50.0000 50.0000 -270 0 0 1050.0000 200.0000 A 50.0000 50.0000 -360 0 0 1100.0000 150.0000 A 50.0000 50.0000 -450 0 0 1050.0000 100.0000 A 50.0000 50.0000 -540 0 1 1000.0000 50.0000 A 50.0000 50.0000 -450 0 1 1050.0000 -0.0000 A 50.0000 50.0000 -360 0 0 1100.0000 -50.0000 A 50.0000 50.0000 -450 0 1 1150.0000 -100.0000 A 50.0000 50.0000 -360 0 1 1200.0000 -50.0000 A 50.0000 50.0000 -270 0 0 1250.0000 -0.0000 A 50.0000 50.0000 -360 0 0 1300.0000 -50.0000 A 50.0000 50.0000 -450 0 0 1250.0000 -100.0000 A 50.0000 50.0000 -540 0 1 1200.0000 -150.0000 A 50.0000 50.0000 -450 0 0 1150.0000 -200.0000 A 50.0000 50.0000 -540 0 0 1100.0000 -150.0000 A 50.0000 50.0000 -630 0 1 1050.0000 -100.0000 A 50.0000 50.0000 -540 0 1 1000.0000 -150.0000 A 50.0000 50.0000 -450 0 1 1050.0000 -200.0000 A 50.0000 50.0000 -360 0 0 1100.0000 -250.0000 A 50.0000 50.0000 -450 0 0 1050.0000 -300.0000 A 50.0000 50.0000 -540 0 1 1000.0000 -350.0000 A 50.0000 50.0000 -450 0 1 1050.0000 -400.0000 A 50.0000 50.0000 -360 0 0 1100.0000 -450.0000 A 50.0000 50.0000 -450 0 1 1150.0000 -500.0000 A 50.0000 50.0000 -360 0 1 1200.0000 -450.0000 A 50.0000 50.0000 -270 0 1 1150.0000 -400.0000 A 50.0000 50.0000 -180 0 0 1100.0000 -350.0000 A 50.0000 50.0000 -270 0 0 1150.0000 -300.0000 A 50.0000 50.0000 -360 0 1 1200.0000 -250.0000 A 50.0000 50.0000 -270 0 0 1250.0000 -200.0000 A 50.0000 50.0000 -360 0 0 1300.0000 -250.0000 A 50.0000 50.0000 -450 0 1 1350.0000 -300.0000 A 50.0000 50.0000 -360 0 1 1400.0000 -250.0000 A 50.0000 50.0000 -270 0 0 1450.0000 -200.0000 A 50.0000 50.0000 -360 0 0 1500.0000 -250.0000 A 50.0000 50.0000 -450 0 0 1450.0000 -300.0000 A 50.0000 50.0000 -540 0 1 1400.0000 -350.0000 A 50.0000 50.0000 -450 0 1 1450.0000 -400.0000 A 50.0000 50.0000 -360 0 0 1500.0000 -450.0000 A 50.0000 50.0000 -450 0 1 1550.0000 -500.0000 A 50.0000 50.0000 -360 0 1 1600.0000 -450.0000 A 50.0000 50.0000 -270 0 1 1550.0000 -400.0000 A 50.0000 50.0000 -180 0 0 1500.0000 -350.0000 A 50.0000 50.0000 -270 0 0 1550.0000 -300.0000 A 50.0000 50.0000 -360 0 1 1600.0000 -250.0000 A 50.0000 50.0000 -270 0 0 1650.0000 -200.0000 A 50.0000 50.0000 -360 0 0 1700.0000 -250.0000 A 50.0000 50.0000 -450 0 1 1750.0000 -300.0000 A 50.0000 50.0000 -360 0 1 1800.0000 -250.0000 A 50.0000 50.0000 -270 0 1 1750.0000 -200.0000 A 50.0000 50.0000 -180 0 0 1700.0000 -150.0000 A 50.0000 50.0000 -270 0 0 1750.0000 -100.0000 A 50.0000 50.0000 -360 0 1 1800.0000 -50.0000 A 50.0000 50.0000 -270 0 1 1750.0000 -0.0000 A 50.0000 50.0000 -180 0 0 1700.0000 50.0000 A 50.0000 50.0000 -270 0 1 1650.0000 100.0000 A 50.0000 50.0000 -180 0 1 1600.0000 50.0000 A 50.0000 50.0000 -90 0 0 1550.0000 -0.0000 A 50.0000 50.0000 -180 0 0 1500.0000 50.0000 A 50.0000 50.0000 -270 0 0 1550.0000 100.0000 A 50.0000 50.0000 -360 0 1 1600.0000 150.0000 A 50.0000 50.0000 -270 0 0 1650.0000 200.0000 A 50.0000 50.0000 -360 0 0 1700.0000 150.0000 A 50.0000 50.0000 -450 0 1 1750.0000 100.0000 A 50.0000 50.0000 -360 0 1 1800.0000 150.0000 A 50.0000 50.0000 -270 0 0 1850.0000 200.0000 A 50.0000 50.0000 -360 0 0 1900.0000 150.0000 A 50.0000 50.0000 -450 0 0 1850.0000 100.0000 A 50.0000 50.0000 -540 0 1 1800.0000 50.0000 A 50.0000 50.0000 -450 0 1 1850.0000 -0.0000 A 50.0000 50.0000 -360 0 0 1900.0000 -50.0000 A 50.0000 50.0000 -450 0 1 1950.0000 -100.0000 A 50.0000 50.0000 -360 0 1 2000.0000 -50.0000 A 50.0000 50.0000 -270 0 0 2050.0000 -0.0000 A 50.0000 50.0000 -360 0 0 2100.0000 -50.0000 A 50.0000 50.0000 -450 0 0 2050.0000 -100.0000 A 50.0000 50.0000 -540 0 1 2000.0000 -150.0000 A 50.0000 50.0000 -450 0 0 1950.0000 -200.0000 A 50.0000 50.0000 -540 0 0 1900.0000 -150.0000 A 50.0000 50.0000 -630 0 1 1850.0000 -100.0000 A 50.0000 50.0000 -540 0 1 1800.0000 -150.0000 A 50.0000 50.0000 -450 0 1 1850.0000 -200.0000 A 50.0000 50.0000 -360 0 0 1900.0000 -250.0000 A 50.0000 50.0000 -450 0 0 1850.0000 -300.0000 A 50.0000 50.0000 -540 0 1 1800.0000 -350.0000 A 50.0000 50.0000 -450 0 1 1850.0000 -400.0000 A 50.0000 50.0000 -360 0 0 1900.0000 -450.0000 A 50.0000 50.0000 -450 0 1 1950.0000 -500.0000 A 50.0000 50.0000 -360 0 1 2000.0000 -450.0000 A 50.0000 50.0000 -270 0 0 2050.0000 -400.0000 A 50.0000 50.0000 -360 0 0 2100.0000 -450.0000 A 50.0000 50.0000 -450 0 0 2050.0000 -500.0000 A 50.0000 50.0000 -540 0 1 2000.0000 -550.0000 A 50.0000 50.0000 -450 0 0 1950.0000 -600.0000 A 50.0000 50.0000 -540 0 0 1900.0000 -550.0000 A 50.0000 50.0000 -630 0 1 1850.0000 -500.0000 A 50.0000 50.0000 -540 0 1 1800.0000 -550.0000 A 50.0000 50.0000 -450 0 0 1750.0000 -600.0000 A 50.0000 50.0000 -540 0 0 1700.0000 -550.0000 A 50.0000 50.0000 -630 0 0 1750.0000 -500.0000 A 50.0000 50.0000 -720 0 1 1800.0000 -450.0000 A 50.0000 50.0000 -630 0 1 1750.0000 -400.0000 A 50.0000 50.0000 -540 0 0 1700.0000 -350.0000 A 50.0000 50.0000 -630 0 1 1650.0000 -300.0000 A 50.0000 50.0000 -540 0 1 1600.0000 -350.0000 A 50.0000 50.0000 -450 0 1 1650.0000 -400.0000 A 50.0000 50.0000 -360 0 0 1700.0000 -450.0000 A 50.0000 50.0000 -450 0 0 1650.0000 -500.0000 A 50.0000 50.0000 -540 0 1 1600.0000 -550.0000 A 50.0000 50.0000 -450 0 0 1550.0000 -600.0000 A 50.0000 50.0000 -540 0 0 1500.0000 -550.0000 A 50.0000 50.0000 -630 0 1 1450.0000 -500.0000 A 50.0000 50.0000 -540 0 1 1400.0000 -550.0000 A 50.0000 50.0000 -450 0 1 1450.0000 -600.0000 A 50.0000 50.0000 -360 0 0 1500.0000 -650.0000 A 50.0000 50.0000 -450 0 0 1450.0000 -700.0000 A 50.0000 50.0000 -540 0 1 1400.0000 -750.0000 A 50.0000 50.0000 -450 0 1 1450.0000 -800.0000 A 50.0000 50.0000 -360 0 0 1500.0000 -850.0000 A 50.0000 50.0000 -450 0 1 1550.0000 -900.0000 A 50.0000 50.0000 -360 0 1 1600.0000 -850.0000 A 50.0000 50.0000 -270 0 0 1650.0000 -800.0000 A 50.0000 50.0000 -360 0 0 1700.0000 -850.0000 A 50.0000 50.0000 -450 0 0 1650.0000 -900.0000 A 50.0000 50.0000 -540 0 1 1600.0000 -950.0000 A 50.0000 50.0000 -450 0 0 1550.0000 -1000.0000 A 50.0000 50.0000 -540 0 0 1500.0000 -950.0000 A 50.0000 50.0000 -630 0 1 1450.0000 -900.0000 A 50.0000 50.0000 -540 0 1 1400.0000 -950.0000 A 50.0000 50.0000 -450 0 0 1350.0000 -1000.0000 A 50.0000 50.0000 -540 0 0 1300.0000 -950.0000 A 50.0000 50.0000 -630 0 0 1350.0000 -900.0000 A 50.0000 50.0000 -720 0 1 1400.0000 -850.0000 A 50.0000 50.0000 -630 0 1 1350.0000 -800.0000 A 50.0000 50.0000 -540 0 0 1300.0000 -750.0000 A 50.0000 50.0000 -630 0 1 1250.0000 -700.0000 A 50.0000 50.0000 -540 0 1 1200.0000 -750.0000 A 50.0000 50.0000 -450 0 0 1150.0000 -800.0000 A 50.0000 50.0000 -540 0 0 1100.0000 -750.0000 A 50.0000 50.0000 -630 0 0 1150.0000 -700.0000 A 50.0000 50.0000 -720 0 1 1200.0000 -650.0000 A 50.0000 50.0000 -630 0 0 1250.0000 -600.0000 A 50.0000 50.0000 -720 0 0 1300.0000 -650.0000 A 50.0000 50.0000 -810 0 1 1350.0000 -700.0000 A 50.0000 50.0000 -720 0 1 1400.0000 -650.0000 A 50.0000 50.0000 -630 0 1 1350.0000 -600.0000 A 50.0000 50.0000 -540 0 0 1300.0000 -550.0000 A 50.0000 50.0000 -630 0 0 1350.0000 -500.0000 A 50.0000 50.0000 -720 0 1 1400.0000 -450.0000 A 50.0000 50.0000 -630 0 1 1350.0000 -400.0000 A 50.0000 50.0000 -540 0 0 1300.0000 -350.0000 A 50.0000 50.0000 -630 0 1 1250.0000 -300.0000 A 50.0000 50.0000 -540 0 1 1200.0000 -350.0000 A 50.0000 50.0000 -450 0 1 1250.0000 -400.0000 A 50.0000 50.0000 -360 0 0 1300.0000 -450.0000 A 50.0000 50.0000 -450 0 0 1250.0000 -500.0000 A 50.0000 50.0000 -540 0 1 1200.0000 -550.0000 A 50.0000 50.0000 -450 0 0 1150.0000 -600.0000 A 50.0000 50.0000 -540 0 0 1100.0000 -550.0000 A 50.0000 50.0000 -630 0 1 1050.0000 -500.0000 A 50.0000 50.0000 -540 0 1 1000.0000 -550.0000 A 50.0000 50.0000 -450 0 0 950.0000 -600.0000 A 50.0000 50.0000 -540 0 0 900.0000 -550.0000 A 50.0000 50.0000 -630 0 0 950.0000 -500.0000 A 50.0000 50.0000 -720 0 1 1000.0000 -450.0000 A 50.0000 50.0000 -630 0 1 950.0000 -400.0000 A 50.0000 50.0000 -540 0 0 900.0000 -350.0000 A 50.0000 50.0000 -630 0 1 850.0000 -300.0000 A 50.0000 50.0000 -540 0 1 800.0000 -350.0000 A 50.0000 50.0000 -450 0 1 850.0000 -400.0000 A 50.0000 50.0000 -360 0 0 900.0000 -450.0000 A 50.0000 50.0000 -450 0 0 850.0000 -500.0000 A 50.0000 50.0000 -540 0 1 800.0000 -550.0000 A 50.0000 50.0000 -450 0 0 750.0000 -600.0000 A 50.0000 50.0000 -540 0 0 700.0000 -550.0000 A 50.0000 50.0000 -630 0 1 650.0000 -500.0000 A 50.0000 50.0000 -540 0 1 600.0000 -550.0000 A 50.0000 50.0000 -450 0 1 650.0000 -600.0000 A 50.0000 50.0000 -360 0 0 700.0000 -650.0000 A 50.0000 50.0000 -450 0 0 650.0000 -700.0000 A 50.0000 50.0000 -540 0 1 600.0000 -750.0000 A 50.0000 50.0000 -450 0 1 650.0000 -800.0000 A 50.0000 50.0000 -360 0 0 700.0000 -850.0000 A 50.0000 50.0000 -450 0 1 750.0000 -900.0000 A 50.0000 50.0000 -360 0 1 800.0000 -850.0000 A 50.0000 50.0000 -270 0 1 750.0000 -800.0000 A 50.0000 50.0000 -180 0 0 700.0000 -750.0000 A 50.0000 50.0000 -270 0 0 750.0000 -700.0000 A 50.0000 50.0000 -360 0 1 800.0000 -650.0000 A 50.0000 50.0000 -270 0 0 850.0000 -600.0000 A 50.0000 50.0000 -360 0 0 900.0000 -650.0000 A 50.0000 50.0000 -450 0 1 950.0000 -700.0000 A 50.0000 50.0000 -360 0 1 1000.0000 -650.0000 A 50.0000 50.0000 -270 0 0 1050.0000 -600.0000 A 50.0000 50.0000 -360 0 0 1100.0000 -650.0000 A 50.0000 50.0000 -450 0 0 1050.0000 -700.0000 A 50.0000 50.0000 -540 0 1 1000.0000 -750.0000 A 50.0000 50.0000 -450 0 1 1050.0000 -800.0000 A 50.0000 50.0000 -360 0 0 1100.0000 -850.0000 A 50.0000 50.0000 -450 0 1 1150.0000 -900.0000 A 50.0000 50.0000 -360 0 1 1200.0000 -850.0000 A 50.0000 50.0000 -270 0 0 1250.0000 -800.0000 A 50.0000 50.0000 -360 0 0 1300.0000 -850.0000 A 50.0000 50.0000 -450 0 0 1250.0000 -900.0000 A 50.0000 50.0000 -540 0 1 1200.0000 -950.0000 A 50.0000 50.0000 -450 0 0 1150.0000 -1000.0000 A 50.0000 50.0000 -540 0 0 1100.0000 -950.0000 A 50.0000 50.0000 -630 0 1 1050.0000 -900.0000 A 50.0000 50.0000 -540 0 1 1000.0000 -950.0000 A 50.0000 50.0000 -450 0 1 1050.0000 -1000.0000 A 50.0000 50.0000 -360 0 0 1100.0000 -1050.0000 A 50.0000 50.0000 -450 0 0 1050.0000 -1100.0000 A 50.0000 50.0000 -540 0 1 1000.0000 -1150.0000 A 50.0000 50.0000 -450 0 1 1050.0000 -1200.0000 A 50.0000 50.0000 -360 0 0 1100.0000 -1250.0000 A 50.0000 50.0000 -450 0 1 1150.0000 -1300.0000 A 50.0000 50.0000 -360 0 1 1200.0000 -1250.0000 A 50.0000 50.0000 -270 0 0 1250.0000 -1200.0000 A 50.0000 50.0000 -360 0 0 1300.0000 -1250.0000 A 50.0000 50.0000 -450 0 0 1250.0000 -1300.0000 A 50.0000 50.0000 -540 0 1 1200.0000 -1350.0000 A 50.0000 50.0000 -450 0 0 1150.0000 -1400.0000 A 50.0000 50.0000 -540 0 0 1100.0000 -1350.0000 A 50.0000 50.0000 -630 0 1 1050.0000 -1300.0000 A 50.0000 50.0000 -540 0 1 1000.0000 -1350.0000 A 50.0000 50.0000 -450 0 0 950.0000 -1400.0000 A 50.0000 50.0000 -540 0 0 900.0000 -1350.0000 A 50.0000 50.0000 -630 0 0 950.0000 -1300.0000 A 50.0000 50.0000 -720 0 1 1000.0000 -1250.0000 A 50.0000 50.0000 -630 0 1 950.0000 -1200.0000 A 50.0000 50.0000 -540 0 0 900.0000 -1150.0000 A 50.0000 50.0000 -630 0 1 850.0000 -1100.0000 A 50.0000 50.0000 -540 0 1 800.0000 -1150.0000 A 50.0000 50.0000 -450 0 1 850.0000 -1200.0000 A 50.0000 50.0000 -360 0 0 900.0000 -1250.0000 A 50.0000 50.0000 -450 0 0 850.0000 -1300.0000 A 50.0000 50.0000 -540 0 1 800.0000 -1350.0000 A 50.0000 50.0000 -450 0 0 750.0000 -1400.0000 A 50.0000 50.0000 -540 0 0 700.0000 -1350.0000 A 50.0000 50.0000 -630 0 1 650.0000 -1300.0000 A 50.0000 50.0000 -540 0 1 600.0000 -1350.0000 A 50.0000 50.0000 -450 0 1 650.0000 -1400.0000 A 50.0000 50.0000 -360 0 0 700.0000 -1450.0000 A 50.0000 50.0000 -450 0 0 650.0000 -1500.0000 A 50.0000 50.0000 -540 0 1 600.0000 -1550.0000 A 50.0000 50.0000 -450 0 1 650.0000 -1600.0000 A 50.0000 50.0000 -360 0 0 700.0000 -1650.0000 A 50.0000 50.0000 -450 0 1 750.0000 -1700.0000 A 50.0000 50.0000 -360 0 1 800.0000 -1650.0000 A 50.0000 50.0000 -270 0 1 750.0000 -1600.0000 A 50.0000 50.0000 -180 0 0 700.0000 -1550.0000 A 50.0000 50.0000 -270 0 0 750.0000 -1500.0000 A 50.0000 50.0000 -360 0 1 800.0000 -1450.0000 A 50.0000 50.0000 -270 0 0 850.0000 -1400.0000 A 50.0000 50.0000 -360 0 0 900.0000 -1450.0000 A 50.0000 50.0000 -450 0 1 950.0000 -1500.0000 A 50.0000 50.0000 -360 0 1 1000.0000 -1450.0000 A 50.0000 50.0000 -270 0 0 1050.0000 -1400.0000 A 50.0000 50.0000 -360 0 0 1100.0000 -1450.0000 A 50.0000 50.0000 -450 0 0 1050.0000 -1500.0000 A 50.0000 50.0000 -540 0 1 1000.0000 -1550.0000 A 50.0000 50.0000 -450 0 1 1050.0000 -1600.0000 A 50.0000 50.0000 -360 0 0 1100.0000 -1650.0000 A 50.0000 50.0000 -450 0 1 1150.0000 -1700.0000 A 50.0000 50.0000 -360 0 1 1200.0000 -1650.0000 A 50.0000 50.0000 -270 0 0 1250.0000 -1600.0000 A 50.0000 50.0000 -360 0 0 1300.0000 -1650.0000 A 50.0000 50.0000 -450 0 0 1250.0000 -1700.0000 A 50.0000 50.0000 -540 0 1 1200.0000 -1750.0000 A 50.0000 50.0000 -450 0 0 1150.0000 -1800.0000 A 50.0000 50.0000 -540 0 0 1100.0000 -1750.0000 A 50.0000 50.0000 -630 0 1 1050.0000 -1700.0000 A 50.0000 50.0000 -540 0 1 1000.0000 -1750.0000 A 50.0000 50.0000 -450 0 1 1050.0000 -1800.0000 A 50.0000 50.0000 -360 0 0 1100.0000 -1850.0000 A 50.0000 50.0000 -450 0 0 1050.0000 -1900.0000 A 50.0000 50.0000 -540 0 1 1000.0000 -1950.0000 A 50.0000 50.0000 -450 0 1 1050.0000 -2000.0000 A 50.0000 50.0000 -360 0 0 1100.0000 -2050.0000 A 50.0000 50.0000 -450 0 1 1150.0000 -2100.0000 A 50.0000 50.0000 -360 0 1 1200.0000 -2050.0000 A 50.0000 50.0000 -270 0 1 1150.0000 -2000.0000 A 50.0000 50.0000 -180 0 0 1100.0000 -1950.0000 A 50.0000 50.0000 -270 0 0 1150.0000 -1900.0000 A 50.0000 50.0000 -360 0 1 1200.0000 -1850.0000 A 50.0000 50.0000 -270 0 0 1250.0000 -1800.0000 A 50.0000 50.0000 -360 0 0 1300.0000 -1850.0000 A 50.0000 50.0000 -450 0 1 1350.0000 -1900.0000 A 50.0000 50.0000 -360 0 1 1400.0000 -1850.0000 A 50.0000 50.0000 -270 0 0 1450.0000 -1800.0000 A 50.0000 50.0000 -360 0 0 1500.0000 -1850.0000 A 50.0000 50.0000 -450 0 0 1450.0000 -1900.0000 A 50.0000 50.0000 -540 0 1 1400.0000 -1950.0000 A 50.0000 50.0000 -450 0 1 1450.0000 -2000.0000 A 50.0000 50.0000 -360 0 0 1500.0000 -2050.0000 A 50.0000 50.0000 -450 0 1 1550.0000 -2100.0000 A 50.0000 50.0000 -360 0 1 1600.0000 -2050.0000 A 50.0000 50.0000 -270 0 1 1550.0000 -2000.0000 A 50.0000 50.0000 -180 0 0 1500.0000 -1950.0000 A 50.0000 50.0000 -270 0 0 1550.0000 -1900.0000 A 50.0000 50.0000 -360 0 1 1600.0000 -1850.0000 A 50.0000 50.0000 -270 0 0 1650.0000 -1800.0000 A 50.0000 50.0000 -360 0 0 1700.0000 -1850.0000 A 50.0000 50.0000 -450 0 1 1750.0000 -1900.0000 A 50.0000 50.0000 -360 0 1 1800.0000 -1850.0000 A 50.0000 50.0000 -270 0 1 1750.0000 -1800.0000 A 50.0000 50.0000 -180 0 0 1700.0000 -1750.0000 A 50.0000 50.0000 -270 0 0 1750.0000 -1700.0000 A 50.0000 50.0000 -360 0 1 1800.0000 -1650.0000 A 50.0000 50.0000 -270 0 1 1750.0000 -1600.0000 A 50.0000 50.0000 -180 0 0 1700.0000 -1550.0000 A 50.0000 50.0000 -270 0 1 1650.0000 -1500.0000 A 50.0000 50.0000 -180 0 1 1600.0000 -1550.0000 L 1600.0000 -1600.0000" fill="none" stroke="black" stroke-linecap="round" stroke-linejoin="round" stroke-width="5" /></svg>