<?xml version="1.0" encoding="utf-8" ?>
<svg baseProfile="full" height="1000" version="1.1" viewBox="-100.0 -100.0 720.0 720.0" width="1000" xmlns="http://www.w3.org/2000/svg" xmlns:ev="http://www.w3.org/2001/xml-events" xmlns:xlink="http://www.w3.org/1999/xlink"><defs /><path d="M 0 0 L 10.0000 0.0000 L 20.0000 0.0000 L 30.0000 0.0000 A 10.0000 10.0000 0 0 1 40.0000 10.0000 A 10.0000 10.0000 90 0 1 30.0000 20.0000 L 20.0000 20.0000 L 10.0000 20.0000 A 10.0000 10.0000 180 0 0 0.0000 30.0000 A 10.0000 10.0000 90 0 0 10.0000 40.0000 L 20.0000 40.0000 L 30.0000 40.0000 L 40.0000 40.0000 L 50.0000 40.0000 L 60.0000 40.0000 L 70.0000 40.0000 L 80.0000 40.0000 L 90.0000 40.0000 A 10.0000 10.0000 0 0 0 100.0000 30.0000 A 10.0000 10.0000 -90 0 0 90.0000 20.0000 L 80.0000 20.0000 L 70.0000 20.0000 A 10.0000 10.0000 -180 0 1 60.0000 10.0000 A 10.0000 10.0000 -90 0 1 70.0000 0.0000 L 80.0000 0.0000 L 90.0000 0.0000 L 100.0000 0.0000 L 110.0000 0.0000 L 120.0000 0.0000 L 130.0000 0.0000 L 140.0000 0.0000 L 150.0000 0.0000 A 10.0000 10.0000 0 0 1 160.0000 10.0000 A 10.0000 10.0000 90 0 1 150.0000 20.0000 L 140.0000 20.0000 L 130.0000 20.0000 A 10.0000 10.0000 180 0 0 120.0000 30.0000 A 10.0000 10.0000 90 0 0 130.0000 40.0000 L 140.0000 40.0000 L 150.0000 40.0000 A 10.0000 10.0000 0 0 1 160.0000 50.0000 A 10.0000 10.0000 90 0 1 150.0000 60.0000 L 140.0000 60.0000 L 130.0000 60.0000 A 10.0000 10.0000 180 0 0 120.0000 70.0000 A 10.0000 10.0000 90 0 0 130.0000 80.0000 L 140.0000 80.0000 L 150.0000 80.0000 A 10.0000 10.0000 0 0 1 160.0000 90.0000 A 10.0000 10.0000 90 0 1 150.0000 100.0000 L 140.0000 100.0000 L 130.0000 100.0000 L 120.0000 100.0000 M 110.0000 100.0000 M 100.0000 100.0000 M 90.0000 100.0000 M 80.0000 100.0000 M 70.0000 100.0000 M 60.0000 100.0000  M 60.0000 90.0000 M 60.0000 80.0000  M 70.0000 80.0000 M 80.0000 80.0000 M 90.0000 80.0000 M 100.0000 80.0000  M 100.0000 70.0000 M 100.0000 60.0000  M 90.0000 60.0000 M 80.0000 60.0000 M 70.0000 60.0000 M 60.0000 60.0000 M 50.0000 60.0000 M 40.0000 60.0000 L 30.0000 60.0000 L 20.0000 60.0000 L 10.0000 60.0000 A 10.0000 10.0000 180 0 0 0.0000 70.0000 A 10.0000 10.0000 90 0 0 10.0000 80.0000 L 20.0000 80.0000 L 30.0000 80.0000 A 10.0000 10.0000 0 0 1 40.0000 90.0000 A 10.0000 10.0000 90 0 1 30.0000 100.0000 L 20.0000 100.0000 L 10.0000 100.0000 A 10.0000 10.0000 180 0 0 0.0000 110.0000 A 10.0000 10.0000 90 0 0 10.0000 120.0000 L 20.0000 120.0000 L 30.0000 120.0000 A 10.0000 10.0000 0 0 1 40.0000 130.0000 A 10.0000 10.0000 90 0 1 30.0000 140.0000 L 20.0000 140.0000 L 10.0000 140.0000 A 10.0000 10.0000 180 0 0 0.0000 150.0000 A 10.0000 10.0000 90 0 0 10.0000 160.0000 L 20.0000 160.0000 L 30.0000 160.0000 L 40.0000 160.0000 L 50.0000 160.0000 L 60.0000 160.0000 L 70.0000 160.0000 L 80.0000 160.0000 L 90.0000 160.0000 A 10.0000 10.0000 0 0 0 100.0000 150.0000 A 10.0000 10.0000 -90 0 0 90.0000 140.0000 L 80.0000 140.0000 L 70.0000 140.0000 A 10.0000 10.0000 -180 0 1 60.0000 130.0000 A 10.0000 10.0000 -90 0 1 70.0000 120.0000 L 80.0000 120.0000 L 90.0000 120.0000 L 100.0000 120.0000 L 110.0000 120.0000 L 120.0000 120.0000 L 130.0000 120.0000 L 140.0000 120.0000 L 150.0000 120.0000 A 10.0000 10.0000 0 0 1 160.0000 130.0000 A 10.0000 10.0000 90 0 1 150.0000 140.0000 L 140.0000 140.0000 L 130.0000 140.0000 A 10.0000 10.0000 180 0 0 120.0000 150.0000 A 10.0000 10.0000 90 0 0 130.0000 160.0000 L 140.0000 160.0000 L 150.0000 160.0000 L 160.0000 160.0000 L 170.0000 160.0000 L 180.0000 160.0000 L 190.0000 160.0000 L 200.0000 160.0000 L 210.0000 160.0000 A 10.0000 10.0000 0 0 0 220.0000 150.0000 A 10.0000 10.0000 -90 0 0 210.0000 140.0000 L 200.0000 140.0000 L 190.0000 140.0000 A 10.0000 10.0000 -180 0 1 180.0000 130.0000 A 10.0000 10.0000 -90 0 1 190.0000 120.0000 L 200.0000 120.0000 L 210.0000 120.0000 L 220.0000 120.0000 L 230.0000 120.0000 L 240.0000 120.0000 L 250.0000 120.0000 L 260.0000 120.0000 L 270.0000 120.0000 A 10.0000 10.0000 0 0 1 280.0000 130.0000 A 10.0000 10.0000 90 0 1 270.0000 140.0000 L 260.0000 140.0000 L 250.0000 140.0000 A 10.0000 10.0000 180 0 0 240.0000 150.0000 A 10.0000 10.0000 90 0 0 250.0000 160.0000 L 260.0000 160.0000 L 270.0000 160.0000 L 280.0000 160.0000 L 290.0000 160.0000 L 300.0000 160.0000 L 310.0000 160.0000 L 320.0000 160.0000 L 330.0000 160.0000 A 10.0000 10.0000 0 0 0 340.0000 150.0000 A 10.0000 10.0000 -90 0 0 330.0000 140.0000 L 320.0000 140.0000 L 310.0000 140.0000 A 10.0000 10.0000 -180 0 1 300.0000 130.0000 A 10.0000 10.0000 -90 0 1 310.0000 120.0000 L 320.0000 120.0000 L 330.0000 120.0000 A 10.0000 10.0000 0 0 0 340.0000 110.0000 A 10.0000 10.0000 -90 0 0 330.0000 100.0000 L 320.0000 100.0000 L 310.0000 100.0000 A 10.0000 10.0000 -180 0 1 300.0000 90.0000 A 10.0000 10.0000 -90 0 1 310.0000 80.0000 L 320.0000 80.0000 L 330.0000 80.0000 A 10.0000 10.0000 0 0 0 340.0000 70.0000 A 10.0000 10.0000 -90 0 0 330.0000 60.0000 L 320.0000 60.0000 L 310.0000 60.0000 L 300.0000 60.0000 M 290.0000 60.0000 M 280.0000 60.0000 M 270.0000 60.0000 M 260.0000 60.0000 M 250.0000 60.0000 M 240.0000 60.0000  M 240.0000 70.0000 M 240.0000 80.0000  M 250.0000 80.0000 M 260.0000 80.0000 M 270.0000 80.0000 M 280.0000 80.0000  M 280.0000 90.0000 M 280.0000 100.0000  M 270.0000 100.0000 M 260.0000 100.0000 M 250.0000 100.0000 M 240.0000 100.0000 M 230.0000 100.0000 M 220.0000 100.0000 L 210.0000 100.0000 L 200.0000 100.0000 L 190.0000 100.0000 A 10.0000 10.0000 -180 0 1 180.0000 90.0000 A 10.0000 10.0000 -90 0 1 190.0000 80.0000 L 200.0000 80.0000 L 210.0000 80.0000 A 10.0000 10.0000 0 0 0 220.0000 70.0000 A 10.0000 10.0000 -90 0 0 210.0000 60.0000 L 200.0000 60.0000 L 190.0000 60.0000 A 10.0000 10.0000 -180 0 1 180.0000 50.0000 A 10.0000 10.0000 -90 0 1 190.0000 40.0000 L 200.0000 40.0000 L 210.0000 40.0000 A 10.0000 10.0000 0 0 0 220.0000 30.0000 A 10.0000 10.0000 -90 0 0 210.0000 20.0000 L 200.0000 20.0000 L 190.0000 20.0000 A 10.0000 10.0000 -180 0 1 180.0000 10.0000 A 10.0000 10.0000 -90 0 1 190.0000 0.0000 L 200.0000 0.0000 L 210.0000 0.0000 L 220.0000 0.0000 L 230.0000 0.0000 L 240.0000 0.0000 L 250.0000 0.0000 L 260.0000 0.0000 L 270.0000 0.0000 A 10.0000 10.0000 0 0 1 280.0000 10.0000 A 10.0000 10.0000 90 0 1 270.0000 20.0000 L 260.0000 20.0000 L 250.0000 20.0000 A 10.0000 10.0000 180 0 0 240.0000 30.0000 A 10.0000 10.0000 90 0 0 250.0000 40.0000 L 260.0000 40.0000 L 270.0000 40.0000 L 280.0000 40.0000 L 290.0000 40.0000 L 300.0000 40.0000 L 310.0000 40.0000 L 320.0000 40.0000 L 330.0000 40.0000 A 10.0000 10.0000 0 0 0 340.0000 30.0000 A 10.0000 10.0000 -90 0 0 330.0000 20.0000 L 320.0000 20.0000 L 310.0000 20.0000 A 10.0000 10.0000 -180 0 1 300.0000 10.0000 A 10.0000 10.0000 -90 0 1 310.0000 0.0000 L 320.0000 0.0000 L 330.0000 0.0000 L 340.0000 0.0000 L 350.0000 0.0000 L 360.0000 0.0000 L 370.0000 0.0000 L 380.0000 0.0000 L 390.0000 0.0000 A 10.0000 10.0000 0 0 1 400.0000 10.0000 A 10.0000 10.0000 90 0 1 390.0000 20.0000 L 380.0000 20.0000 L 370.0000 20.0000 A 10.0000 10.0000 180 0 0 360.0000 30.0000 A 10.0000 10.0000 90 0 0 370.0000 40.0000 L 380.0000 40.0000 L 390.0000 40.0000 L 400.0000 40.0000 L 410.0000 40.0000 L 420.0000 40.0000 L 430.0000 40.0000 L 440.0000 40.0000 L 450.0000 40.0000 A 10.0000 10.0000 0 0 0 460.0000 30.0000 A 10.0000 10.0000 -90 0 0 450.0000 20.0000 L 440.0000 20.0000 L 430.0000 20.0000 A 10.0000 10.0000 -180 0 1 420.0000 10.0000 A 10.0000 10.0000 -90 0 1 430.0000 0.0000 L 440.0000 0.0000 L 450.0000 0.0000 L 460.0000 0.0000 L 470.0000 0.0000 L 480.0000 0.0000 L 490.0000 0.0000 L 500.0000 0.0000 L 510.0000 0.0000 A 10.0000 10.0000 0 0 1 520.0000 10.0000 A 10.0000 10.0000 90 0 1 510.0000 20.0000 L 500.0000 20.0000 L 490.0000 20.0000 A 10.0000 10.0000 180 0 0 480.0000 30.0000 A 10.0000 10.0000 90 0 0 490.0000 40.0000 L 500.0000 40.0000 L 510.0000 40.0000 A 10.0000 10.0000 0 0 1 520.0000 50.0000 A 10.0000 10.0000 90 0 1 510.0000 60.0000 L 500.0000 60.0000 L 490.0000 60.0000 A 10.0000 10.0000 180 0 0 480.0000 70.0000 A 10.0000 10.0000 90 0 0 490.0000 80.0000 L 500.0000 80.0000 L 510.0000 80.0000 A 10.0000 10.0000 0 0 1 520.0000 90.0000 A 10.0000 10.0000 90 0 1 510.0000 100.0000 L 500.0000 100.0000 L 490.0000 100.0000 L 480.0000 100.0000 M 470.0000 100.0000 M 460.0000 100.0000 M 450.0000 100.0000 M 440.0000 100.0000 M 430.0000 100.0000 M 420.0000 100.0000  M 420.0000 90.0000 M 420.0000 80.0000  M 430.0000 80.0000 M 440.0000 80.0000 M 450.0000 80.0000 M 460.0000 80.0000  M 460.0000 70.0000 M 460.0000 60.0000  M 450.0000 60.0000 M 440.0000 60.0000 M 430.0000 60.0000 M 420.0000 60.0000 M 410.0000 60.0000 M 400.0000 60.0000 L 390.0000 60.0000 L 380.0000 60.0000 L 370.0000 60.0000 A 10.0000 10.0000 180 0 0 360.0000 70.0000 A 10.0000 10.0000 90 0 0 370.0000 80.0000 L 380.0000 80.0000 L 390.0000 80.0000 A 10.0000 10.0000 0 0 1 400.0000 90.0000 A 10.0000 10.0000 90 0 1 390.0000 100.0000 L 380.0000 100.0000 L 370.0000 100.0000 A 10.0000 10.0000 180 0 0 360.0000 110.0000 A 10.0000 10.0000 90 0 0 370.0000 120.0000 L 380.0000 120.0000 L 390.0000 120.0000 A 10.0000 10.0000 0 0 1 400.0000 130.0000 A 10.0000 10.0000 90 0 1 390.0000 140.0000 L 380.0000 140.0000 L 370.0000 140.0000 A 10.0000 10.0000 180 0 0 360.0000 150.0000 A 10.0000 10.0000 90 0 0 370.0000 160.0000 L 380.0000 160.0000 L 390.0000 160.0000 L 400.0000 160.0000 L 410.0000 160.0000 L 420.0000 160.0000 L 430.0000 160.0000 L 440.0000 160.0000 L 450.0000 160.0000 A 10.0000 10.0000 0 0 0 460.0000 150.0000 A 10.0000 10.0000 -90 0 0 450.0000 140.0000 L 440.0000 140.0000 L 430.0000 140.0000 A 10.0000 10.0000 -180 0 1 420.0000 130.0000 A 10.0000 10.0000 -90 0 1 430.0000 120.0000 L 440.0000 120.0000 L 450.0000 120.0000 L 460.0000 120.0000 L 470.0000 120.0000 L 480.0000 120.0000 L 490.0000 120.0000 L 500.0000 120.0000 L 510.0000 120.0000 A 10.0000 10.0000 0 0 1 520.0000 130.0000 A 10.0000 10.0000 90 0 1 510.0000 140.0000 L 500.0000 140.0000 L 490.0000 140.0000 A 10.0000 10.0000 180 0 0 480.0000 150.0000 A 10.0000 10.0000 90 0 0 490.0000 160.0000 L 500.0000 160.0000 L 510.0000 160.0000 A 10.0000 10.0000 0 0 1 520.0000 170.0000 A 10.0000 10.0000 90 0 1 510.0000 180.0000 L 500.0000 180.0000 L 490.0000 180.0000 A 10.0000 10.0000 180 0 0 480.0000 190.0000 A 10.0000 10.0000 90 0 0 490.0000 200.0000 L 500.0000 200.0000 L 510.0000 200.0000 A 10.0000 10.0000 0 0 1 520.0000 210.0000 A 10.0000 10.0000 90 0 1 510.0000 220.0000 L 500.0000 220.0000 L 490.0000 220.0000 L 480.0000 220.0000 L 470.0000 220.0000 L 460.0000 220.0000 L 450.0000 220.0000 L 440.0000 220.0000 L 430.0000 220.0000 A 10.0000 10.0000 180 0 1 420.0000 210.0000 A 10.0000 10.0000 270 0 1 430.0000 200.0000 L 440.0000 200.0000 L 450.0000 200.0000 A 10.0000 10.0000 360 0 0 460.0000 190.0000 A 10.0000 10.0000 270 0 0 450.0000 180.0000 L 440.0000 180.0000 L 430.0000 180.0000 L 420.0000 180.0000 L 410.0000 180.0000 L 400.0000 180.0000 L 390.0000 180.0000 L 380.0000 180.0000 L 370.0000 180.0000 A 10.0000 10.0000 180 0 0 360.0000 190.0000 A 10.0000 10.0000 90 0 0 370.0000 200.0000 L 380.0000 200.0000 L 390.0000 200.0000 A 10.0000 10.0000 0 0 1 400.0000 210.0000 A 10.0000 10.0000 90 0 1 390.0000 220.0000 L 380.0000 220.0000 L 370.0000 220.0000 A 10.0000 10.0000 180 0 0 360.0000 230.0000 A 10.0000 10.0000 90 0 0 370.0000 240.0000 L 380.0000 240.0000 L 390.0000 240.0000 A 10.0000 10.0000 0 0 1 400.0000 250.0000 A 10.0000 10.0000 90 0 1 390.0000 260.0000 L 380.0000 260.0000 L 370.0000 260.0000 A 10.0000 10.0000 180 0 0 360.0000 270.0000 A 10.0000 10.0000 90 0 0 370.0000 280.0000 L 380.0000 280.0000 L 390.0000 280.0000 L 400.0000 280.0000 M 410.0000 280.0000 M 420.0000 280.0000 M 430.0000 280.0000 M 440.0000 280.0000 M 450.0000 280.0000 M 460.0000 280.0000  M 460.0000 270.0000 M 460.0000 260.0000  M 450.0000 260.0000 M 440.0000 260.0000 M 430.0000 260.0000 M 420.0000 260.0000  M 420.0000 250.0000 M 420.0000 240.0000  M 430.0000 240.0000 M 440.0000 240.0000 M 450.0000 240.0000 M 460.0000 240.0000 M 470.0000 240.0000 M 480.0000 240.0000 L 490.0000 240.0000 L 500.0000 240.0000 L 510.0000 240.0000 A 10.0000 10.0000 0 0 1 520.0000 250.0000 A 10.0000 10.0000 90 0 1 510.0000 260.0000 L 500.0000 260.0000 L 490.0000 260.0000 A 10.0000 10.0000 180 0 0 480.0000 270.0000 A 10.0000 10.0000 90 0 0 490.0000 280.0000 L 500.0000 280.0000 L 510.0000 280.0000 A 10.0000 10.0000 0 0 1 520.0000 290.0000 A 10.0000 10.0000 90 0 1 510.0000 300.0000 L 500.0000 300.0000 L 490.0000 300.0000 A 10.0000 10.0000 180 0 0 480.0000 310.0000 A 10.0000 10.0000 90 0 0 490.0000 320.0000 L 500.0000 320.0000 L 510.0000 320.0000 A 10.0000 10.0000 0 0 1 520.0000 330.0000 A 10.0000 10.0000 90 0 1 510.0000 340.0000 L 500.0000 340.0000 L 490.0000 340.0000 L 480.0000 340.0000 L 470.0000 340.0000 L 460.0000 340.0000 L 450.0000 340.0000 L 440.0000 340.0000 L 430.0000 340.0000 A 10.0000 10.0000 180 0 1 420.0000 330.0000 A 10.0000 10.0000 270 0 1 430.0000 320.0000 L 440.0000 320.0000 L 450.0000 320.0000 A 10.0000 10.0000 360 0 0 460.0000 310.0000 A 10.0000 10.0000 270 0 0 450.0000 300.0000 L 440.0000 300.0000 L 430.0000 300.0000 L 420.0000 300.0000 L 410.0000 300.0000 L 400.0000 300.0000 L 390.0000 300.0000 L 380.0000 300.0000 L 370.0000 300.0000 A 10.0000 10.0000 180 0 0 360.0000 310.0000 A 10.0000 10.0000 90 0 0 370.0000 320.0000 L 380.0000 320.0000 L 390.0000 320.0000 A 10.0000 10.0000 0 0 1 400.0000 330.0000 A 10.0000 10.0000 90 0 1 390.0000 340.0000 L 380.0000 340.0000 L 370.0000 340.0000 L 360.0000 340.0000 M 350.0000 340.0000 M 340.0000 340.0000 M 330.0000 340.0000 M 320.0000 340.0000 M 310.0000 340.0000 M 300.0000 340.0000  M 300.0000 330.0000 M 300.0000 320.0000  M 310.0000 320.0000 M 320.0000 320.0000 M 330.0000 320.0000 M 340.0000 320.0000  M 340.0000 310.0000 M 340.0000 300.0000  M 330.0000 300.0000 M 320.0000 300.0000 M 310.0000 300.0000 M 300.0000 300.0000 M 290.0000 300.0000 M 280.0000 300.0000 M 270.0000 300.0000 M 260.0000 300.0000 M 250.0000 300.0000 M 240.0000 300.0000  M 240.0000 310.0000 M 240.0000 320.0000  M 250.0000 320.0000 M 260.0000 320.0000 M 270.0000 320.0000 M 280.0000 320.0000  M 280.0000 330.0000 M 280.0000 340.0000  M 270.0000 340.0000 M 260.0000 340.0000 M 250.0000 340.0000 M 240.0000 340.0000 M 230.0000 340.0000 M 220.0000 340.0000 M 210.0000 340.0000 M 200.0000 340.0000 M 190.0000 340.0000 M 180.0000 340.0000  M 180.0000 330.0000 M 180.0000 320.0000  M 190.0000 320.0000 M 200.0000 320.0000 M 210.0000 320.0000 M 220.0000 320.0000  M 220.0000 310.0000 M 220.0000 300.0000  M 210.0000 300.0000 M 200.0000 300.0000 M 190.0000 300.0000 M 180.0000 300.0000  M 180.0000 290.0000 M 180.0000 280.0000  M 190.0000 280.0000 M 200.0000 280.0000 M 210.0000 280.0000 M 220.0000 280.0000  M 220.0000 270.0000 M 220.0000 260.0000  M 210.0000 260.0000 M 200.0000 260.0000 M 190.0000 260.0000 M 180.0000 260.0000  M 180.0000 250.0000 M 180.0000 240.0000  M 190.0000 240.0000 M 200.0000 240.0000 M 210.0000 240.0000 M 220.0000 240.0000 M 230.0000 240.0000 M 240.0000 240.0000 M 250.0000 240.0000 M 260.0000 240.0000 M 270.0000 240.0000 M 280.0000 240.0000  M 280.0000 250.0000 M 280.0000 260.0000  M 270.0000 260.0000 M 260.0000 260.0000 M 250.0000 260.0000 M 240.0000 260.0000  M 240.0000 270.0000 M 240.0000 280.0000  M 250.0000 280.0000 M 260.0000 280.0000 M 270.0000 280.0000 M 280.0000 280.0000 M 290.0000 280.0000 M 300.0000 280.0000 M 310.0000 280.0000 M 320.0000 280.0000 M 330.0000 280.0000 M 340.0000 280.0000  M 340.0000 270.0000 M 340.0000 260.0000  M 330.0000 260.0000 M 320.0000 260.0000 M 310.0000 260.0000 M 300.0000 260.0000  M 300.0000 250.0000 M 300.0000 240.0000  M 310.0000 240.0000 M 320.0000 240.0000 M 330.0000 240.0000 M 340.0000 240.0000  M 340.0000 230.0000 M 340.0000 220.0000  M 330.0000 220.0000 M 320.0000 220.0000 M 310.0000 220.0000 M 300.0000 220.0000  M 300.0000 210.0000 M 300.0000 200.0000  M 310.0000 200.0000 M 320.0000 200.0000 M 330.0000 200.0000 M 340.0000 200.0000  M 340.0000 190.0000 M 340.0000 180.0000  M 330.0000 180.0000 M 320.0000 180.0000 M 310.0000 180.0000 M 300.0000 180.0000 M 290.0000 180.0000 M 280.0000 180.0000 M 270.0000 180.0000 M 260.0000 180.0000 M 250.0000 180.0000 M 240.0000 180.0000  M 240.0000 190.0000 M 240.0000 200.0000  M 250.0000 200.0000 M 260.0000 200.0000 M 270.0000 200.0000 M 280.0000 200.0000  M 280.0000 210.0000 M 280.0000 220.0000  M 270.0000 220.0000 M 260.0000 220.0000 M 250.0000 220.0000 M 240.0000 220.0000 M 230.0000 220.0000 M 220.0000 220.0000 M 210.0000 220.0000 M 200.0000 220.0000 M 190.0000 220.0000 M 180.0000 220.0000  M 180.0000 210.0000 M 180.0000 200.0000  M 190.0000 200.0000 M 200.0000 200.0000 M 210.0000 200.0000 M 220.0000 200.0000  M 220.0000 190.0000 M 220.0000 180.0000  M 210.0000 180.0000 M 200.0000 180.0000 M 190.0000 180.0000 M 180.0000 180.0000 M 170.0000 180.0000 M 160.0000 180.0000 L 150.0000 180.0000 L 140.0000 180.0000 L 130.0000 180.0000 A 10.0000 10.0000 180 0 0 120.0000 190.0000 A 10.0000 10.0000 90 0 0 130.0000 200.0000 L 140.0000 200.0000 L 150.0000 200.0000 A 10.0000 10.0000 0 0 1 160.0000 210.0000 A 10.0000 10.0000 90 0 1 150.0000 220.0000 L 140.0000 220.0000 L 130.0000 220.0000 L 120.0000 220.0000 L 110.0000 220.0000 L 100.0000 220.0000 L 90.0000 220.0000 L 80.0000 220.0000 L 70.0000 220.0000 A 10.0000 10.0000 180 0 1 60.0000 210.0000 A 10.0000 10.0000 270 0 1 70.0000 200.0000 L 80.0000 200.0000 L 90.0000 200.0000 A 10.0000 10.0000 360 0 0 100.0000 190.0000 A 10.0000 10.0000 270 0 0 90.0000 180.0000 L 80.0000 180.0000 L 70.0000 180.0000 L 60.0000 180.0000 L 50.0000 180.0000 L 40.0000 180.0000 L 30.0000 180.0000 L 20.0000 180.0000 L 10.0000 180.0000 A 10.0000 10.0000 180 0 0 0.0000 190.0000 A 10.0000 10.0000 90 0 0 10.0000 200.0000 L 20.0000 200.0000 L 30.0000 200.0000 A 10.0000 10.0000 0 0 1 40.0000 210.0000 A 10.0000 10.0000 90 0 1 30.0000 220.0000 L 20.0000 220.0000 L 10.0000 220.0000 A 10.0000 10.0000 180 0 0 0.0000 230.0000 A 10.0000 10.0000 90 0 0 10.0000 240.0000 L 20.0000 240.0000 L 30.0000 240.0000 A 10.0000 10.0000 0 0 1 40.0000 250.0000 A 10.0000 10.0000 90 0 1 30.0000 260.0000 L 20.0000 260.0000 L 10.0000 260.0000 A 10.0000 10.0000 180 0 0 0.0000 270.0000 A 10.0000 10.0000 90 0 0 10.0000 280.0000 L 20.0000 280.0000 L 30.0000 280.0000 L 40.0000 280.0000 M 50.0000 280.0000 M 60.0000 280.0000 M 70.0000 280.0000 M 80.0000 280.0000 M 90.0000 280.0000 M 100.0000 280.0000  M 100.0000 270.0000 M 100.0000 260.0000  M 90.0000 260.0000 M 80.0000 260.0000 M 70.0000 260.0000 M 60.0000 260.0000  M 60.0000 250.0000 M 60.0000 240.0000  M 70.0000 240.0000 M 80.0000 240.0000 M 90.0000 240.0000 M 100.0000 240.0000 M 110.0000 240.0000 M 120.0000 240.0000 L 130.0000 240.0000 L 140.0000 240.0000 L 150.0000 240.0000 A 10.0000 10.0000 0 0 1 160.0000 250.0000 A 10.0000 10.0000 90 0 1 150.0000 260.0000 L 140.0000 260.0000 L 130.0000 260.0000 A 10.0000 10.0000 180 0 0 120.0000 270.0000 A 10.0000 10.0000 90 0 0 130.0000 280.0000 L 140.0000 280.0000 L 150.0000 280.0000 A 10.0000 10.0000 0 0 1 160.0000 290.0000 A 10.0000 10.0000 90 0 1 150.0000 300.0000 L 140.0000 300.0000 L 130.0000 300.0000 A 10.0000 10.0000 180 0 0 120.0000 310.0000 A 10.0000 10.0000 90 0 0 130.0000 320.0000 L 140.0000 320.0000 L 150.0000 320.0000 A 10.0000 10.0000 0 0 1 160.0000 330.0000 A 10.0000 10.0000 90 0 1 150.0000 340.0000 L 140.0000 340.0000 L 130.0000 340.0000 L 120.0000 340.0000 L 110.0000 340.0000 L 100.0000 340.0000 L 90.0000 340.0000 L 80.0000 340.0000 L 70.0000 340.0000 A 10.0000 10.0000 180 0 1 60.0000 330.0000 A 10.0000 10.0000 270 0 1 70.0000 320.0000 L 80.0000 320.0000 L 90.0000 320.0000 A 10.0000 10.0000 360 0 0 100.0000 310.0000 A 10.0000 10.0000 270 0 0 90.0000 300.0000 L 80.0000 300.0000 L 70.0000 300.0000 L 60.0000 300.0000 L 50.0000 300.0000 L 40.0000 300.0000 L 30.0000 300.0000 L 20.0000 300.0000 L 10.0000 300.0000 A 10.0000 10.0000 180 0 0 0.0000 310.0000 A 10.0000 10.0000 90 0 0 10.0000 320.0000 L 20.0000 320.0000 L 30.0000 320.0000 A 10.0000 10.0000 0 0 1 40.0000 330.0000 A 10.0000 10.0000 90 0 1 30.0000 340.0000 L 20.0000 340.0000 L 10.0000 340.0000 A 10.0000 10.0000 180 0 0 0.0000 350.0000 A 10.0000 10.0000 90 0 0 10.0000 360.0000 L 20.0000 360.0000 L 30.0000 360.0000 A 10.0000 10.0000 0 0 1 40.0000 370.0000 A 10.0000 10.0000 90 0 1 30.0000 380.0000 L 20.0000 380.0000 L 10.0000 380.0000 A 10.0000 10.0000 180 0 0 0.0000 390.0000 A 10.0000 10.0000 90 0 0 10.0000 400.0000 L 20.0000 400.0000 L 30.0000 400.0000 L 40.0000 400.0000 L 50.0000 400.0000 L 60.0000 400.0000 L 70.0000 400.0000 L 80.0000 400.0000 L 90.0000 400.0000 A 10.0000 10.0000 0 0 0 100.0000 390.0000 A 10.0000 10.0000 -90 0 0 90.0000 380.0000 L 80.0000 380.0000 L 70.0000 380.0000 A 10.0000 10.0000 -180 0 1 60.0000 370.0000 A 10.0000 10.0000 -90 0 1 70.0000 360.0000 L 80.0000 360.0000 L 90.0000 360.0000 L 100.0000 360.0000 L 110.0000 360.0000 L 120.0000 360.0000 L 130.0000 360.0000 L 140.0000 360.0000 L 150.0000 360.0000 A 10.0000 10.0000 0 0 1 160.0000 370.0000 A 10.0000 10.0000 90 0 1 150.0000 380.0000 L 140.0000 380.0000 L 130.0000 380.0000 A 10.0000 10.0000 180 0 0 120.0000 390.0000 A 10.0000 10.0000 90 0 0 130.0000 400.0000 L 140.0000 400.0000 L 150.0000 400.0000 A 10.0000 10.0000 0 0 1 160.0000 410.0000 A 10.0000 10.0000 90 0 1 150.0000 420.0000 L 140.0000 420.0000 L 130.0000 420.0000 A 10.0000 10.0000 180 0 0 120.0000 430.0000 A 10.0000 10.0000 90 0 0 130.0000 440.0000 L 140.0000 440.0000 L 150.0000 440.0000 A 10.0000 10.0000 0 0 1 160.0000 450.0000 A 10.0000 10.0000 90 0 1 150.0000 460.0000 L 140.0000 460.0000 L 130.0000 460.0000 L 120.0000 460.0000 M 110.0000 460.0000 M 100.0000 460.0000 M 90.0000 460.0000 M 80.0000 460.0000 M 70.0000 460.0000 M 60.0000 460.0000  M 60.0000 450.0000 M 60.0000 440.0000  M 70.0000 440.0000 M 80.0000 440.0000 M 90.0000 440.0000 M 100.0000 440.0000  M 100.0000 430.0000 M 100.0000 420.0000  M 90.0000 420.0000 M 80.0000 420.0000 M 70.0000 420.0000 M 60.0000 420.0000 M 50.0000 420.0000 M 40.0000 420.0000 L 30.0000 420.0000 L 20.0000 420.0000 L 10.0000 420.0000 A 10.0000 10.0000 180 0 0 0.0000 430.0000 A 10.0000 10.0000 90 0 0 10.0000 440.0000 L 20.0000 440.0000 L 30.0000 440.0000 A 10.0000 10.0000 0 0 1 40.0000 450.0000 A 10.0000 10.0000 90 0 1 30.0000 460.0000 L 20.0000 460.0000 L 10.0000 460.0000 A 10.0000 10.0000 180 0 0 0.0000 470.0000 A 10.0000 10.0000 90 0 0 10.0000 480.0000 L 20.0000 480.0000 L 30.0000 480.0000 A 10.0000 10.0000 0 0 1 40.0000 490.0000 A 10.0000 10.0000 90 0 1 30.0000 500.0000 L 20.0000 500.0000 L 10.0000 500.0000 A 10.0000 10.0000 180 0 0 0.0000 510.0000 A 10.0000 10.0000 90 0 0 10.0000 520.0000 L 20.0000 520.0000 L 30.0000 520.0000 L 40.0000 520.0000 L 50.0000 520.0000 L 60.0000 520.0000 L 70.0000 520.0000 L 80.0000 520.0000 L 90.0000 520.0000 A 10.0000 10.0000 0 0 0 100.0000 510.0000 A 10.0000 10.0000 -90 0 0 90.0000 500.0000 L 80.0000 500.0000 L 70.0000 500.0000 A 10.0000 10.0000 -180 0 1 60.0000 490.0000 A 10.0000 10.0000 -90 0 1 70.0000 480.0000 L 80.0000 480.0000 L 90.0000 480.0000 L 100.0000 480.0000 L 110.0000 480.0000 L 120.0000 480.0000 L 130.0000 480.0000 L 140.0000 480.0000 L 150.0000 480.0000 A 10.0000 10.0000 0 0 1 160.0000 490.0000 A 10.0000 10.0000 90 0 1 150.0000 500.0000 L 140.0000 500.0000 L 130.0000 500.0000 A 10.0000 10.0000 180 0 0 120.0000 510.0000 A 10.0000 10.0000 90 0 0 130.0000 520.0000 L 140.0000 520.0000 L 150.0000 520.0000 L 160.0000 520.0000 L 170.0000 520.0000 L 180.0000 520.0000 L 190.0000 520.0000 L 200.0000 520.0000 L 210.0000 520.0000 A 10.0000 10.0000 0 0 0 220.0000 510.0000 A 10.0000 10.0000 -90 0 0 210.0000 500.0000 L 200.0000 500.0000 L 190.0000 500.0000 A 10.0000 10.0000 -180 0 1 180.0000 490.0000 A 10.0000 10.0000 -90 0 1 190.0000 480.0000 L 200.0000 480.0000 L 210.0000 480.0000 L 220.0000 480.0000 L 230.0000 480.0000 L 240.0000 480.0000 L 250.0000 480.0000 L 260.0000 480.0000 L 270.0000 480.0000 A 10.0000 10.0000 0 0 1 280.0000 490.0000 A 10.0000 10.0000 90 0 1 270.0000 500.0000 L 260.0000 500.0000 L 250.0000 500.0000 A 10.0000 10.0000 180 0 0 240.0000 510.0000 A 10.0000 10.0000 90 0 0 250.0000 520.0000 L 260.0000 520.0000 L 270.0000 520.0000 L 280.0000 520.0000 L 290.0000 520.0000 L 300.0000 520.0000 L 310.0000 520.0000 L 320.0000 520.0000 L 330.0000 520.0000 A 10.0000 10.0000 0 0 0 340.0000 510.0000 A 10.0000 10.0000 -90 0 0 330.0000 500.0000 L 320.0000 500.0000 L 310.0000 500.0000 A 10.0000 10.0000 -180 0 1 300.0000 490.0000 A 10.0000 10.0000 -90 0 1 310.0000 480.0000 L 320.0000 480.0000 L 330.0000 480.0000 A 10.0000 10.0000 0 0 0 340.0000 470.0000 A 10.0000 10.0000 -90 0 0 330.0000 460.0000 L 320.0000 460.0000 L 310.0000 460.0000 A 10.0000 10.0000 -180 0 1 300.0000 450.0000 A 10.0000 10.0000 -90 0 1 310.0000 440.0000 L 320.0000 440.0000 L 330.0000 440.0000 A 10.0000 10.0000 0 0 0 340.0000 430.0000 A 10.0000 10.0000 -90 0 0 330.0000 420.0000 L 320.0000 420.0000 L 310.0000 420.0000 L 300.0000 420.0000 M 290.0000 420.0000 M 280.0000 420.0000 M 270.0000 420.0000 M 260.0000 420.0000 M 250.0000 420.0000 M 240.0000 420.0000  M 240.0000 430.0000 M 240.0000 440.0000  M 250.0000 440.0000 M 260.0000 440.0000 M 270.0000 440.0000 M 280.0000 440.0000  M 280.0000 450.0000 M 280.0000 460.0000  M 270.0000 460.0000 M 260.0000 460.0000 M 250.0000 460.0000 M 240.0000 460.0000 M 230.0000 460.0000 M 220.0000 460.0000 L 210.0000 460.0000 L 200.0000 460.0000 L 190.0000 460.0000 A 10.0000 10.0000 -180 0 1 180.0000 450.0000 A 10.0000 10.0000 -90 0 1 190.0000 440.0000 L 200.0000 440.0000 L 210.0000 440.0000 A 10.0000 10.0000 0 0 0 220.0000 430.0000 A 10.0000 10.0000 -90 0 0 210.0000 420.0000 L 200.0000 420.0000 L 190.0000 420.0000 A 10.0000 10.0000 -180 0 1 180.0000 410.0000 A 10.0000 10.0000 -90 0 1 190.0000 400.0000 L 200.0000 400.0000 L 210.0000 400.0000 A 10.0000 10.0000 0 0 0 220.0000 390.0000 A 10.0000 10.0000 -90 0 0 210.0000 380.0000 L 200.0000 380.0000 L 190.0000 380.0000 A 10.0000 10.0000 -180 0 1 180.0000 370.0000 A 10.0000 10.0000 -90 0 1 190.0000 360.0000 L 200.0000 360.0000 L 210.0000 360.0000 L 220.0000 360.0000 L 230.0000 360.0000 L 240.0000 360.0000 L 250.0000 360.0000 L 260.0000 360.0000 L 270.0000 360.0000 A 10.0000 10.0000 0 0 1 280.0000 370.0000 A 10.0000 10.0000 90 0 1 270.0000 380.0000 L 260.0000 380.0000 L 250.0000 380.0000 A 10.0000 10.0000 180 0 0 240.0000 390.0000 A 10.0000 10.0000 90 0 0 250.0000 400.0000 L 260.0000 400.0000 L 270.0000 400.0000 L 280.0000 400.0000 L 290.0000 400.0000 L 300.0000 400.0000 L 310.0000 400.0000 L 320.0000 400.0000 L 330.0000 400.0000 A 10.0000 10.0000 0 0 0 340.0000 390.0000 A 10.0000 10.0000 -90 0 0 330.0000 380.0000 L 320.0000 380.0000 L 310.0000 380.0000 A 10.0000 10.0000 -180 0 1 300.0000 370.0000 A 10.0000 10.0000 -90 0 1 310.0000 360.0000 L 320.0000 360.0000 L 330.0000 360.0000 L 340.0000 360.0000 L 350.0000 360.0000 L 360.0000 360.0000 L 370.0000 360.0000 L 380.0000 360.0000 L 390.0000 360.0000 A 10.0000 10.0000 0 0 1 400.0000 370.0000 A 10.0000 10.0000 90 0 1 390.0000 380.0000 L 380.0000 380.0000 L 370.0000 380.0000 A 10.0000 10.0000 180 0 0 360.0000 390.0000 A 10.0000 10.0000 90 0 0 370.0000 400.0000 L 380.0000 400.0000 L 390.0000 400.0000 L 400.0000 400.0000 L 410.0000 400.0000 L 420.0000 400.0000 L 430.0000 400.0000 L 440.0000 400.0000 L 450.0000 400.0000 A 10.0000 10.0000 0 0 0 460.0000 390.0000 A 10.0000 10.0000 -90 0 0 450.0000 380.0000 L 440.0000 380.0000 L 430.0000 380.0000 A 10.0000 10.0000 -180 0 1 420.0000 370.0000 A 10.0000 10.0000 -90 0 1 430.0000 360.0000 L 440.0000 360.0000 L 450.0000 360.0000 L 460.0000 360.0000 L 470.0000 360.0000 L 480.0000 360.0000 L 490.0000 360.0000 L 500.0000 360.0000 L 510.0000 360.0000 A 10.0000 10.0000 0 0 1 520.0000 370.0000 A 10.0000 10.0000 90 0 1 510.0000 380.0000 L 500.0000 380.0000 L 490.0000 380.0000 A 10.0000 10.0000 180 0 0 480.0000 390.0000 A 10.0000 10.0000 90 0 0 490.0000 400.0000 L 500.0000 400.0000 L 510.0000 400.0000 A 10.0000 10.0000 0 0 1 520.0000 410.0000 A 10.0000 10.0000 90 0 1 510.0000 420.0000 L 500.0000 420.0000 L 490.0000 420.0000 A 10.0000 10.0000 180 0 0 480.0000 430.0000 A 10.0000 10.0000 90 0 0 490.0000 440.0000 L 500.0000 440.0000 L 510.0000 440.0000 A 10.0000 10.0000 0 0 1 520.0000 450.0000 A 10.0000 10.0000 90 0 1 510.0000 460.0000 L 500.0000 460.0000 L 490.0000 460.0000 L 480.0000 460.0000 M 470.0000 460.0000 M 460.0000 460.0000 M 450.0000 460.0000 M 440.0000 460.0000 M 430.0000 460.0000 M 420.0000 460.0000  M 420.0000 450.0000 M 420.0000 440.0000  M 430.0000 440.0000 M 440.0000 440.0000 M 450.0000 440.0000 M 460.0000 440.0000  M 460.0000 430.0000 M 460.0000 420.0000  M 450.0000 420.0000 M 440.0000 420.0000 M 430.0000 420.0000 M 420.0000 420.0000 M 410.0000 420.0000 M 400.0000 420.0000 L 390.0000 420.0000 L 380.0000 420.0000 L 370.0000 420.0000 A 10.0000 10.0000 180 0 0 360.0000 430.0000 A 10.0000 10.0000 90 0 0 370.0000 440.0000 L 380.0000 440.0000 L 390.0000 440.0000 A 10.0000 10.0000 0 0 1 400.0000 450.0000 A 10.0000 10.0000 90 0 1 390.0000 460.0000 L 380.0000 460.0000 L 370.0000 460.0000 A 10.0000 10.0000 180 0 0 360.0000 470.0000 A 10.0000 10.0000 90 0 0 370.0000 480.0000 L 380.0000 480.0000 L 390.0000 480.0000 A 10.0000 10.0000 0 0 1 400.0000 490.0000 A 10.0000 10.0000 90 0 1 390.0000 500.0000 L 380.0000 500.0000 L 370.0000 500.0000 A 10.0000 10.0000 180 0 0 360.0000 510.0000 A 10.0000 10.0000 90 0 0 370.0000 520.0000 L 380.0000 520.0000 L 390.0000 520.0000 L 400.0000 520.0000 L 410.0000 520.0000 L 420.0000 520.0000 L 430.0000 520.0000 L 440.0000 520.0000 L 450.0000 520.0000 A 10.0000 10.0000 0 0 0 460.0000 510.0000 A 10.0000 10.0000 -90 0 0 450.0000 500.0000 L 440.0000 500.0000 L 430.0000 500.0000 A 10.0000 10.0000 -180 0 1 420.0000 490.0000 A 10.0000 10.0000 -90 0 1 430.0000 480.0000 L 440.0000 480.0000 L 450.0000 480.0000 L 460.0000 480.0000 L 470.0000 480.0000 L 480.0000 480.0000 L 490.0000 480.0000 L 500.0000 480.0000 L 510.0000 480.0000 A 10.0000 10.0000 0 0 1 520.0000 490.0000 A 10.0000 10.0000 90 0 1 510.0000 500.0000 L 500.0000 500.0000 L 490.0000 500.0000 A 10.0000 10.0000 180 0 0 480.0000 510.0000 A 10.0000 10.0000 90 0 0 490.0000 520.0000 L 500.0000 520.0000 L 510.0000 520.0000 L 520.0000 520.0000" fill="none" stroke="black" stroke-linecap="round" stroke-linejoin="round" stroke-width="3" /></svg>