<?xml version="1.0" encoding="utf-8" ?>
<svg baseProfile="full" height="1000px" version="1.1" width="1000px" xmlns="http://www.w3.org/2000/svg" xmlns:ev="http://www.w3.org/2001/xml-events" xmlns:xlink="http://www.w3.org/1999/xlink"><defs><clipPath id="border_clip"><rect height="1000" width="1000" x="0" y="0" /></clipPath></defs><polyline clip-path="url(#border_clip)" fill="none" points="261.26120467488704,114.32683432365081 260.49999999999994,110.49999999999994 261.26120467488704,106.67316567634907 263.42893218813447,103.42893218813452 266.6731656763491,101.26120467488715 270.49999999999994,100.5 280.49999999999994,100.5 290.49999999999994,100.5 300.49999999999994,100.5 310.49999999999994,100.5 320.49999999999994,100.5 330.49999999999994,100.5 340.49999999999994,100.5 350.49999999999994,100.5 354.3268343236508,101.26120467488715 357.5710678118654,103.42893218813452 359.73879532511285,106.67316567634913 360.49999999999994,110.5 359.73879532511285,114.32683432365087 357.5710678118654,117.57106781186542 354.3268343236508,119.73879532511279 350.49999999999994,120.49999999999994 340.49999999999994,120.49999999999994 330.49999999999994,120.49999999999994 326.6731656763491,121.26120467488704 323.42893218813447,123.42893218813441 321.26120467488704,126.67316567634896 320.49999999999994,130.49999999999983 321.26120467488704,134.3268343236507 323.42893218813447,137.5710678118653 326.673165676349,139.73879532511268 330.4999999999999,140.49999999999983 340.4999999999999,140.49999999999983 350.4999999999999,140.49999999999983 354.3268343236508,141.26120467488698 357.5710678118654,143.42893218813435 359.73879532511273,146.67316567634896 360.4999999999999,150.49999999999983 359.73879532511273,154.3268343236507 357.5710678118653,157.57106781186525 354.32683432365076,159.73879532511262 350.4999999999999,160.49999999999972 340.4999999999999,160.49999999999972" stroke="black" stroke-linecap="round" stroke-width="3" /><polyline clip-path="url(#border_clip)" fill="none" points="340.4999999999999,160.49999999999972 330.4999999999999,160.49999999999972 326.67316567634896,161.2612046748868 323.42893218813435,163.42893218813418 321.261204674887,166.67316567634873 320.49999999999983,170.4999999999996 321.2612046748869,174.32683432365047 323.42893218813435,177.57106781186508 326.6731656763489,179.73879532511245 330.4999999999998,180.4999999999996 340.4999999999998,180.4999999999996 350.4999999999998,180.4999999999996 354.3268343236507,181.26120467488676 357.5710678118653,183.42893218813413 359.7387953251126,186.67316567634873 360.4999999999998,190.4999999999996 359.7387953251126,194.32683432365047 357.5710678118652,197.57106781186502 354.32683432365064,199.7387953251124 350.4999999999998,200.4999999999995 340.4999999999998,200.4999999999995 330.4999999999998,200.4999999999995 320.4999999999998,200.4999999999995" stroke="black" stroke-linecap="round" stroke-width="3" /><polyline clip-path="url(#border_clip)" fill="none" points="220.49999999999926,240.4999999999991 210.49999999999926,240.49999999999903 206.6731656763484,241.26120467488613 203.42893218813379,243.4289321881335 201.26120467488636,246.67316567634808 200.4999999999992,250.49999999999898 201.2612046748863,254.32683432364988 203.42893218813367,257.57106781186445 206.67316567634822,259.7387953251118 210.4999999999991,260.499999999999 220.4999999999991,260.49999999999903 230.4999999999991,260.4999999999991 240.4999999999991,260.4999999999991 250.4999999999991,260.4999999999991 260.4999999999991,260.49999999999915 270.4999999999991,260.4999999999992 280.4999999999991,260.4999999999992 290.4999999999991,260.4999999999992 294.32683432365,259.7387953251121 297.57106781186457,257.57106781186474 299.73879532511194,254.32683432365016 300.4999999999991,250.49999999999926 299.738795325112,246.67316567634836 297.5710678118646,243.42893218813379 294.32683432365,241.26120467488636 290.49999999999915,240.4999999999992 280.49999999999915,240.49999999999915 270.49999999999915,240.4999999999991 266.6731656763483,239.73879532511194 263.4289321881337,237.5710678118645 261.2612046748863,234.3268343236499 260.4999999999992,230.49999999999903 261.26120467488636,226.67316567634816 263.42893218813373,223.42893218813361 266.6731656763483,221.26120467488624 270.4999999999992,220.49999999999915 280.4999999999992,220.4999999999992 290.4999999999992,220.49999999999926 300.4999999999992,220.49999999999932 310.4999999999992,220.49999999999937 320.4999999999992,220.49999999999943 330.4999999999992,220.4999999999995 340.4999999999992,220.49999999999955" stroke="black" stroke-linecap="round" stroke-width="3" /><polyline clip-path="url(#border_clip)" fill="none" points="340.4999999999992,220.49999999999955 350.4999999999992,220.4999999999996 354.32683432365013,221.26120467488676 357.5710678118647,223.42893218813418 359.73879532511205,226.6731656763488 360.4999999999992,230.49999999999966 359.73879532511205,234.32683432365053 357.5710678118646,237.57106781186508 354.32683432365,239.73879532511245 350.49999999999915,240.49999999999955 340.4999999999992,240.4999999999995 330.4999999999992,240.49999999999943 326.6731656763483,241.26120467488653 323.42893218813373,243.4289321881339 321.26120467488636,246.67316567634845 320.4999999999992,250.49999999999935 321.2612046748863,254.32683432365025 323.4289321881337,257.57106781186485 326.6731656763482,259.7387953251122 330.4999999999991,260.4999999999994 340.4999999999991,260.49999999999943 350.4999999999991,260.4999999999995 360.49999999999903,260.49999999999955 370.499999999999,260.4999999999996 380.499999999999,260.49999999999966 390.499999999999,260.4999999999997 400.499999999999,260.4999999999998 410.499999999999,260.49999999999983 414.32683432364985,259.73879532511273 417.5710678118644,257.5710678118653 419.7387953251118,254.3268343236508 420.499999999999,250.4999999999999 419.7387953251119,246.673165676349 417.5710678118645,243.4289321881344 414.3268343236499,241.26120467488698 410.49999999999903,240.49999999999983 400.4999999999991,240.49999999999977 390.4999999999991,240.49999999999972 386.6731656763482,239.73879532511256 383.4289321881337,237.57106781186513 381.26120467488624,234.32683432365053 380.49999999999915,230.49999999999966 381.2612046748863,226.6731656763488" stroke="black" stroke-linecap="round" stroke-width="3" /><polyline clip-path="url(#border_clip)" fill="none" points="381.2612046748863,226.6731656763488 383.42893218813373,223.42893218813424 386.6731656763483,221.26120467488687 390.4999999999992,220.49999999999977 400.49999999999915,220.49999999999983 410.4999999999991,220.4999999999999 420.4999999999991,220.49999999999994 430.4999999999991,220.5 440.49999999999903,220.50000000000006 450.499999999999,220.5000000000001 460.499999999999,220.50000000000017 470.499999999999,220.50000000000023 474.32683432364985,221.26120467488738 477.5710678118644,223.4289321881348 479.73879532511177,226.6731656763494 480.49999999999886,230.50000000000028 479.7387953251117,234.32683432365116 477.5710678118643,237.5710678118657 474.32683432364973,239.73879532511307 470.49999999999886,240.50000000000017 460.49999999999886,240.5000000000001 450.49999999999886,240.50000000000006 446.673165676348,241.26120467488715 443.42893218813344,243.42893218813452 441.261204674886,246.67316567634907 440.49999999999886,250.49999999999994 441.26120467488596,254.32683432365084 443.42893218813333,257.5710678118654 446.6731656763479,259.73879532511285 450.49999999999875,260.5 460.49999999999875,260.5 470.4999999999987,260.5000000000001 480.4999999999987,260.5000000000001 490.49999999999864,260.5000000000002 500.49999999999864,260.5000000000002 510.4999999999986,260.50000000000034 520.4999999999985,260.50000000000034 530.4999999999985,260.50000000000045 534.3268343236495,259.7387953251133 537.5710678118639,257.571067811866 539.7387953251114,254.3268343236514 540.4999999999985,250.50000000000054 539.7387953251115,246.67316567634964" stroke="black" stroke-linecap="round" stroke-width="3" /><polyline clip-path="url(#border_clip)" fill="none" points="539.7387953251115,246.67316567634964 537.571067811864,243.42893218813504 534.3268343236496,241.2612046748876 530.4999999999986,240.50000000000045 520.4999999999986,240.5000000000004 510.49999999999875,240.50000000000034 506.6731656763478,239.7387953251132 503.4289321881333,237.57106781186576 501.2612046748859,234.32683432365116 500.4999999999988,230.50000000000028 501.26120467488596,226.6731656763494 503.4289321881334,223.42893218813487 506.67316567634794,221.2612046748875 510.49999999999886,220.5000000000004 520.4999999999989,220.50000000000045 530.4999999999987,220.5000000000005 534.3268343236497,219.73879532511341 537.5710678118643,217.57106781186604 539.7387953251116,214.3268343236515 540.4999999999989,210.50000000000063 539.7387953251117,206.67316567634975 537.5710678118644,203.42893218813515 534.3268343236498,201.26120467488772 530.4999999999989,200.50000000000057 520.499999999999,200.5000000000005 510.499999999999,200.50000000000045 506.6731656763481,199.7387953251133 503.42893218813356,197.57106781186587 501.2612046748862,194.32683432365127 500.4999999999991,190.5000000000004 501.26120467488624,186.67316567634953 503.4289321881336,183.42893218813498 506.6731656763482,181.2612046748876 510.4999999999991,180.5000000000005 520.4999999999991,180.50000000000057 530.4999999999991,180.50000000000063 534.3268343236499,179.73879532511353 537.5710678118645,177.57106781186616 539.7387953251119,174.3268343236516 540.4999999999991,170.50000000000074 539.7387953251119,166.67316567634987 537.5710678118646,163.42893218813526 534.32683432365,161.26120467488784" stroke="black" stroke-linecap="round" stroke-width="3" /><polyline clip-path="url(#border_clip)" fill="none" points="534.32683432365,161.26120467488784 530.4999999999992,160.50000000000068 520.4999999999992,160.50000000000063 510.49999999999926,160.50000000000057 500.49999999999926,160.5000000000005" stroke="black" stroke-linecap="round" stroke-width="3" /><polyline clip-path="url(#border_clip)" fill="none" points="400.49999999999994,120.49999999999994 390.5,120.49999999999989 386.6731656763491,119.73879532511273 383.4289321881346,117.5710678118653 381.2612046748872,114.3268343236507 380.5000000000001,110.49999999999983 381.26120467488727,106.67316567634896 383.4289321881347,103.42893218813441 386.67316567634924,101.26120467488704 390.5000000000001,100.49999999999994 400.5000000000001,100.5 410.50000000000006,100.50000000000006 420.50000000000006,100.50000000000011 430.5,100.50000000000017 440.5,100.50000000000023 450.49999999999994,100.50000000000028 460.4999999999999,100.50000000000034 470.4999999999999,100.5000000000004 474.32683432365076,101.26120467488755 477.5710678118653,103.42893218813498 479.7387953251127,106.67316567634958 480.4999999999998,110.50000000000045 479.7387953251126,114.32683432365133 477.5710678118652,117.57106781186587 474.3268343236506,119.73879532511324 470.4999999999997,120.50000000000034 460.4999999999998,120.50000000000023 450.4999999999998,120.50000000000011 446.6731656763489,121.26120467488721 443.4289321881343,123.42893218813458 441.26120467488687,126.67316567634913 440.4999999999997,130.5 441.2612046748868,134.32683432365087 443.4289321881342,137.57106781186548 446.67316567634873,139.7387953251129 450.4999999999996,140.50000000000006 460.49999999999955,140.5000000000001 470.49999999999955,140.50000000000017 480.4999999999995,140.50000000000023 490.4999999999995,140.50000000000028 500.49999999999943,140.50000000000034 510.4999999999994,140.5000000000004 520.4999999999993,140.50000000000045" stroke="black" stroke-linecap="round" stroke-width="3" /><polyline clip-path="url(#border_clip)" fill="none" points="520.4999999999993,140.50000000000045 530.4999999999993,140.5000000000005 534.3268343236502,139.73879532511341 537.5710678118649,137.57106781186604 539.7387953251122,134.3268343236515 540.4999999999993,130.50000000000063 539.7387953251123,126.67316567634975 537.571067811865,123.42893218813515 534.3268343236504,121.26120467488772 530.4999999999995,120.50000000000057 520.4999999999995,120.50000000000051 510.49999999999955,120.50000000000045 506.6731656763487,119.7387953251133 503.4289321881341,117.57106781186587 501.26120467488676,114.32683432365127 500.49999999999966,110.5000000000004 501.26120467488687,106.67316567634953 503.42893218813424,103.42893218813498 506.67316567634884,101.26120467488761 510.4999999999997,100.50000000000051 520.4999999999997,100.50000000000063 530.4999999999997,100.50000000000074 540.4999999999997,100.50000000000085 550.4999999999995,100.50000000000097 560.4999999999995,100.50000000000108 570.4999999999995,100.5000000000012 580.4999999999995,100.50000000000131 590.4999999999994,100.50000000000142 594.3268343236504,101.26120467488857 597.5710678118649,103.428932188136 599.7387953251123,106.6731656763506 600.4999999999993,110.50000000000148 599.7387953251122,114.32683432365235 597.5710678118647,117.5710678118669 594.3268343236501,119.73879532511427 590.4999999999993,120.50000000000136 580.4999999999993,120.50000000000125 570.4999999999993,120.50000000000114 566.6731656763485,121.26120467488823 563.4289321881339,123.4289321881356 561.2612046748865,126.67316567635015 560.4999999999993,130.50000000000102 561.2612046748864,134.3268343236519" stroke="black" stroke-linecap="round" stroke-width="3" /><polyline clip-path="url(#border_clip)" fill="none" points="561.2612046748864,134.3268343236519 563.4289321881338,137.5710678118665 566.6731656763483,139.73879532511393 570.4999999999992,140.50000000000108 580.4999999999991,140.5000000000012 590.4999999999991,140.5000000000013 600.4999999999991,140.50000000000142 610.499999999999,140.50000000000153 620.499999999999,140.50000000000165 630.4999999999989,140.50000000000176 640.4999999999989,140.50000000000188 650.4999999999989,140.500000000002 654.3268343236498,139.7387953251149 657.5710678118644,137.57106781186752 659.7387953251118,134.32683432365297 660.4999999999989,130.5000000000021 659.7387953251118,126.67316567635123 657.5710678118645,123.42893218813663 654.3268343236499,121.2612046748892 650.4999999999991,120.50000000000205 640.4999999999991,120.50000000000193 630.4999999999991,120.50000000000182 626.6731656763483,119.73879532511467 623.4289321881337,117.57106781186724 621.2612046748864,114.32683432365263 620.4999999999992,110.50000000000176 621.2612046748864,106.67316567635089 623.4289321881338,103.42893218813634 626.6731656763484,101.26120467488897 630.4999999999993,100.50000000000188 640.4999999999993,100.50000000000199 650.4999999999993,100.5000000000021 660.4999999999992,100.50000000000222 670.4999999999992,100.50000000000233 680.4999999999992,100.50000000000244 690.4999999999991,100.50000000000256 700.4999999999991,100.50000000000267 710.4999999999991,100.50000000000279 714.32683432365,101.26120467488994 717.5710678118645,103.42893218813737 719.7387953251118,106.67316567635197 720.499999999999,110.50000000000284 719.7387953251118,114.32683432365371" stroke="black" stroke-linecap="round" stroke-width="3" /><polyline clip-path="url(#border_clip)" fill="none" points="719.7387953251118,114.32683432365371 717.5710678118644,117.57106781186826 714.3268343236498,119.73879532511563 710.4999999999989,120.50000000000273 700.4999999999989,120.50000000000261 690.4999999999989,120.5000000000025 686.673165676348,121.2612046748896 683.4289321881334,123.42893218813697 681.261204674886,126.67316567635152 680.4999999999989,130.5000000000024 681.2612046748859,134.32683432365326 683.4289321881333,137.57106781186786 686.6731656763478,139.7387953251153 690.4999999999986,140.50000000000244 700.4999999999986,140.50000000000256 710.4999999999986,140.50000000000267 714.3268343236496,141.26120467488983 717.571067811864,143.42893218813725 719.7387953251114,146.67316567635186 720.4999999999985,150.50000000000273 719.7387953251114,154.3268343236536 717.5710678118639,157.57106781186815 714.3268343236493,159.73879532511552 710.4999999999984,160.50000000000261 700.4999999999984,160.5000000000025 690.4999999999984,160.5000000000024 686.6731656763476,161.26120467488948 683.428932188133,163.42893218813686 681.2612046748856,166.6731656763514 680.4999999999984,170.50000000000227 681.2612046748854,174.32683432365315 683.4289321881329,177.57106781186775 686.6731656763474,179.73879532511518 690.4999999999982,180.50000000000233 700.4999999999982,180.50000000000244 710.4999999999982,180.50000000000256 714.3268343236491,181.2612046748897 717.5710678118636,183.42893218813714 719.7387953251109,186.67316567635174 720.4999999999981,190.50000000000261 719.7387953251109,194.3268343236535 717.5710678118635,197.57106781186803 714.3268343236489,199.7387953251154" stroke="black" stroke-linecap="round" stroke-width="3" /><polyline clip-path="url(#border_clip)" fill="none" points="714.3268343236489,199.7387953251154 710.499999999998,200.5000000000025 700.499999999998,200.5000000000024 690.499999999998,200.50000000000227 680.4999999999981,200.50000000000216" stroke="black" stroke-linecap="round" stroke-width="3" /><polyline clip-path="url(#border_clip)" fill="none" points="580.499999999998,240.50000000000097 570.499999999998,240.50000000000085 566.673165676347,241.26120467488795 563.4289321881324,243.42893218813526 561.2612046748851,246.6731656763498 560.4999999999978,250.50000000000068 561.261204674885,254.32683432365158 563.4289321881323,257.57106781186616 566.6731656763468,259.7387953251136 570.4999999999977,260.5000000000008 580.4999999999976,260.5000000000009 590.4999999999976,260.500000000001 600.4999999999975,260.50000000000114 610.4999999999975,260.50000000000125 620.4999999999974,260.50000000000136 630.4999999999974,260.5000000000015 640.4999999999973,260.5000000000016 650.4999999999973,260.5000000000017 654.3268343236482,259.73879532511455 657.5710678118628,257.57106781186724 659.7387953251102,254.3268343236527 660.4999999999974,250.50000000000182 659.7387953251102,246.67316567635092 657.5710678118629,243.42893218813634 654.3268343236484,241.26120467488892 650.4999999999975,240.50000000000176 640.4999999999975,240.50000000000165 630.4999999999976,240.50000000000153 626.6731656763468,239.73879532511438 623.4289321881322,237.57106781186695 621.2612046748849,234.32683432365235 620.4999999999977,230.50000000000148 621.261204674885,226.6731656763506 623.4289321881324,223.42893218813606 626.673165676347,221.26120467488875 630.4999999999978,220.50000000000165 640.4999999999978,220.50000000000176 650.4999999999977,220.50000000000188 660.4999999999977,220.500000000002 670.4999999999976,220.5000000000021 680.4999999999976,220.50000000000222 690.4999999999975,220.50000000000233 700.4999999999975,220.50000000000244" stroke="black" stroke-linecap="round" stroke-width="3" /><polyline clip-path="url(#border_clip)" fill="none" points="700.4999999999975,220.50000000000244 710.4999999999974,220.50000000000256 714.3268343236483,221.2612046748897 717.5710678118628,223.42893218813714 719.7387953251101,226.67316567635174 720.4999999999973,230.50000000000261 719.73879532511,234.3268343236535 717.5710678118626,237.57106781186803 714.326834323648,239.73879532511535 710.4999999999972,240.50000000000244 700.4999999999972,240.50000000000233 690.4999999999973,240.50000000000222 686.6731656763463,241.2612046748893 683.4289321881317,243.42893218813663 681.2612046748843,246.67316567635115 680.4999999999972,250.50000000000202 681.2612046748842,254.32683432365292 683.4289321881315,257.57106781186747 686.6731656763461,259.7387953251149 690.4999999999969,260.5000000000021 700.4999999999969,260.5000000000022 710.4999999999968,260.50000000000233 714.3268343236477,261.26120467488954 717.5710678118622,263.42893218813697 719.7387953251095,266.6731656763515 720.4999999999966,270.5000000000024 719.7387953251094,274.32683432365326 717.571067811862,277.5710678118678 714.3268343236475,279.7387953251151 710.4999999999966,280.50000000000216 700.4999999999966,280.50000000000205 690.4999999999967,280.50000000000193 686.6731656763459,281.261204674889 683.4289321881313,283.4289321881363 681.2612046748839,286.67316567635083 680.4999999999966,290.5000000000017 681.2612046748837,294.3268343236526 683.4289321881311,297.5710678118671 686.6731656763455,299.73879532511455 690.4999999999965,300.50000000000176 700.4999999999964,300.50000000000193 710.4999999999964,300.50000000000205 714.3268343236472,301.2612046748892" stroke="black" stroke-linecap="round" stroke-width="3" /><polyline clip-path="url(#border_clip)" fill="none" points="714.3268343236472,301.2612046748892 717.5710678118617,303.4289321881366 719.7387953251091,306.67316567635123 720.4999999999961,310.5000000000021 719.738795325109,314.326834323653 717.5710678118616,317.57106781186747 714.326834323647,319.73879532511484 710.4999999999961,320.50000000000193 700.4999999999961,320.50000000000176 690.4999999999961,320.5000000000016 680.4999999999962,320.5000000000015 670.4999999999964,320.50000000000136 660.4999999999964,320.5000000000012 650.4999999999964,320.500000000001 640.4999999999965,320.5000000000009 630.4999999999966,320.5000000000008 626.6731656763457,319.7387953251136 623.4289321881312,317.57106781186616 621.2612046748839,314.3268343236516 620.4999999999968,310.5000000000007 621.261204674884,306.67316567634987 623.4289321881314,303.4289321881353 626.673165676346,301.26120467488795 630.4999999999968,300.5000000000009 640.4999999999968,300.500000000001 650.4999999999967,300.5000000000012 654.3268343236476,299.7387953251141 657.5710678118621,297.5710678118668 659.7387953251095,294.3268343236523 660.4999999999968,290.50000000000136 659.7387953251098,286.67316567635055 657.5710678118623,283.42893218813595 654.3268343236479,281.2612046748885 650.499999999997,280.50000000000136 640.499999999997,280.5000000000012 630.4999999999972,280.500000000001 620.4999999999973,280.5000000000009 610.4999999999973,280.5000000000008 600.4999999999974,280.5000000000006 590.4999999999975,280.50000000000045 580.4999999999975,280.50000000000034 570.4999999999976,280.5000000000002 566.6731656763467,281.26120467488727" stroke="black" stroke-linecap="round" stroke-width="3" /><polyline clip-path="url(#border_clip)" fill="none" points="566.6731656763467,281.26120467488727 563.4289321881321,283.4289321881346 561.2612046748847,286.67316567634913 560.4999999999975,290.5 561.2612046748845,294.32683432365087 563.428932188132,297.5710678118654 566.6731656763465,299.73879532511285 570.4999999999973,300.50000000000006 580.4999999999973,300.5000000000002 590.4999999999972,300.50000000000034 594.326834323648,301.2612046748875 597.5710678118626,303.4289321881349 599.7387953251099,306.6731656763495 600.4999999999969,310.5000000000004 599.7387953251098,314.32683432365127 597.5710678118623,317.57106781186576 594.3268343236477,319.7387953251131 590.4999999999968,320.5000000000001 580.4999999999969,320.5 570.499999999997,320.4999999999999 566.6731656763461,321.2612046748869 563.4289321881315,323.42893218813424 561.2612046748841,326.67316567634873 560.4999999999969,330.4999999999996 561.261204674884,334.3268343236505 563.4289321881313,337.5710678118651 566.6731656763459,339.7387953251125 570.4999999999967,340.49999999999966 580.4999999999966,340.4999999999998 590.4999999999966,340.49999999999994 594.3268343236474,341.26120467488715 597.5710678118619,343.4289321881346 599.7387953251092,346.67316567634913 600.4999999999964,350.5 599.7387953251091,354.3268343236508 597.5710678118617,357.57106781186536 594.3268343236471,359.7387953251127 590.4999999999962,360.4999999999998 580.4999999999964,360.4999999999996 570.4999999999964,360.49999999999943 566.6731656763455,361.2612046748865 563.428932188131,363.42893218813384 561.2612046748835,366.6731656763484" stroke="black" stroke-linecap="round" stroke-width="3" /><polyline clip-path="url(#border_clip)" fill="none" points="561.2612046748835,366.6731656763484 560.4999999999964,370.4999999999992 561.2612046748834,374.3268343236501 563.4289321881307,377.5710678118647 566.6731656763452,379.7387953251121 570.4999999999961,380.49999999999926 580.499999999996,380.49999999999943 590.4999999999959,380.4999999999996 600.4999999999958,380.4999999999998" stroke="black" stroke-linecap="round" stroke-width="3" /><polyline clip-path="url(#border_clip)" fill="none" points="700.4999999999943,420.50000000000085 710.4999999999943,420.500000000001 714.3268343236451,421.2612046748882 717.5710678118596,423.4289321881356 719.7387953251069,426.6731656763502 720.499999999994,430.5000000000011 719.7387953251068,434.32683432365195 717.5710678118594,437.57106781186644 714.3268343236448,439.73879532511376 710.499999999994,440.50000000000085 700.4999999999941,440.5000000000007 690.4999999999941,440.5000000000005 680.4999999999942,440.50000000000034 670.4999999999943,440.50000000000017 660.4999999999943,440.5 650.4999999999944,440.49999999999983 640.4999999999945,440.49999999999966 630.4999999999947,440.4999999999995 626.6731656763437,439.7387953251123 623.4289321881292,437.57106781186485 621.2612046748819,434.32683432365025 620.4999999999949,430.4999999999994 621.261204674882,426.6731656763485 623.4289321881295,423.428932188134 626.6731656763441,421.2612046748867 630.499999999995,420.49999999999966 640.4999999999949,420.49999999999983 650.4999999999948,420.5 654.3268343236457,419.73879532511296 657.5710678118603,417.57106781186565 659.7387953251077,414.32683432365116 660.4999999999949,410.5000000000003 659.7387953251078,406.6731656763494 657.5710678118605,403.4289321881348 654.3268343236459,401.2612046748874 650.4999999999951,400.50000000000017 640.4999999999952,400.5 630.4999999999953,400.49999999999983 620.4999999999955,400.49999999999966 610.4999999999955,400.4999999999995 600.4999999999956,400.4999999999993 590.4999999999957,400.49999999999915 580.4999999999957,400.499999999999" stroke="black" stroke-linecap="round" stroke-width="3" /><polyline clip-path="url(#border_clip)" fill="none" points="580.4999999999957,400.499999999999 570.4999999999958,400.4999999999988 566.673165676345,401.2612046748859 563.4289321881304,403.4289321881332 561.261204674883,406.6731656763477 560.4999999999958,410.4999999999985 561.2612046748828,414.32683432364945 563.4289321881301,417.571067811864 566.6731656763446,419.7387953251114 570.4999999999955,420.49999999999864 580.4999999999955,420.4999999999988 590.4999999999953,420.499999999999 594.3268343236462,421.2612046748862 597.5710678118606,423.4289321881336 599.738795325108,426.67316567634816 600.499999999995,430.4999999999991 599.7387953251078,434.3268343236499 597.5710678118604,437.57106781186445 594.3268343236458,439.73879532511177 590.499999999995,440.4999999999988 580.499999999995,440.49999999999864 570.4999999999951,440.49999999999847 560.4999999999952,440.4999999999983" stroke="black" stroke-linecap="round" stroke-width="3" /><polyline clip-path="url(#border_clip)" fill="none" points="299.738795325113,294.32683432364615 300.5000000000002,290.4999999999953 299.7387953251132,286.6731656763444 297.5710678118659,283.4289321881298 294.3268343236514,281.2612046748824 290.5000000000005,280.4999999999952 280.50000000000057,280.499999999995 270.5000000000007,280.49999999999477 260.5000000000008,280.4999999999946 250.50000000000085,280.49999999999443 240.50000000000097,280.4999999999942 230.50000000000108,280.499999999994 220.5000000000012,280.4999999999938 210.5000000000013,280.49999999999363 206.67316567635044,281.2612046748807 203.42893218813583,283.428932188128 201.2612046748884,286.6731656763425 200.5000000000012,290.4999999999933 201.26120467488823,294.3268343236442 203.42893218813555,297.57106781185877 206.67316567635004,299.7387953251062 210.5000000000009,300.4999999999934 220.5000000000008,300.49999999999363 230.50000000000068,300.4999999999938 234.32683432365155,301.261204674881 237.57106781186604,303.42893218812844 239.73879532511336,306.67316567634305 240.5000000000004,310.49999999999386 239.7387953251132,314.32683432364473 237.57106781186576,317.5710678118593 234.32683432365116,319.7387953251066 230.50000000000028,320.49999999999363 220.5000000000004,320.4999999999934 210.5000000000005,320.4999999999932 206.67316567634964,321.2612046748802 203.42893218813504,323.42893218812753 201.2612046748876,326.6731656763421 200.5000000000004,330.49999999999295 201.26120467488744,334.32683432364377 203.42893218813475,337.57106781185837 206.67316567634924,339.7387953251058 210.5000000000001,340.49999999999307 220.5,340.49999999999324" stroke="black" stroke-linecap="round" stroke-width="3" /><polyline clip-path="url(#border_clip)" fill="none" points="220.5,340.49999999999324 230.4999999999999,340.4999999999934 234.32683432365076,341.2612046748807 237.57106781186525,343.4289321881281 239.73879532511256,346.6731656763427 240.4999999999996,350.4999999999935 239.7387953251124,354.3268343236444 237.57106781186496,357.57106781185894 234.32683432365036,359.73879532510625 230.4999999999995,360.4999999999933 220.4999999999996,360.49999999999307 210.49999999999972,360.49999999999284 206.67316567634884,361.2612046748799 203.42893218813424,363.4289321881272 201.2612046748868,366.67316567634174 200.4999999999996,370.4999999999926 201.26120467488664,374.3268343236434 203.42893218813396,377.57106781185803 206.67316567634845,379.73879532510546 210.49999999999932,380.49999999999267 220.4999999999992,380.4999999999929 230.4999999999991,380.49999999999307 240.49999999999898,380.4999999999933" stroke="black" stroke-linecap="round" stroke-width="3" /><polyline clip-path="url(#border_clip)" fill="none" points="340.49999999999727,420.49999999999477 350.49999999999716,420.499999999995 354.326834323648,421.2612046748822 357.57106781186246,423.42893218812964 359.7387953251098,426.67316567634424 360.4999999999968,430.4999999999951 359.73879532510966,434.3268343236459 357.57106781186224,437.5710678118605 354.32683432364763,439.73879532510773 350.4999999999967,440.4999999999948 340.4999999999968,440.4999999999946 330.49999999999693,440.4999999999944 320.499999999997,440.49999999999415 310.49999999999704,440.499999999994 300.49999999999716,440.49999999999375 290.49999999999727,440.4999999999935 280.4999999999973,440.4999999999933 270.4999999999974,440.4999999999931 266.67316567634657,439.7387953251059 263.4289321881321,437.5710678118584 261.26120467488477,434.3268343236439 260.4999999999977,430.49999999999295 261.26120467488494,426.67316567634214 263.4289321881324,423.42893218812765 266.673165676347,421.26120467488033 270.49999999999784,420.4999999999933 280.4999999999978,420.4999999999935 290.4999999999977,420.4999999999937 294.32683432364854,419.73879532510665 297.57106781186314,417.5710678118594 299.73879532511063,414.32683432364485 300.49999999999784,410.49999999999403 299.7387953251108,406.67316567634316 297.5710678118635,403.42893218812856 294.326834323649,401.2612046748811 290.4999999999982,400.4999999999939 280.49999999999824,400.4999999999937 270.4999999999983,400.49999999999346 260.4999999999984,400.4999999999933 250.4999999999985,400.49999999999307 240.49999999999858,400.49999999999284 230.4999999999987,400.4999999999926 220.4999999999988,400.4999999999924" stroke="black" stroke-linecap="round" stroke-width="3" /><polyline clip-path="url(#border_clip)" fill="none" points="220.4999999999988,400.4999999999924 210.49999999999892,400.4999999999922 206.67316567634805,401.26120467487925 203.42893218813344,403.4289321881265 201.26120467488602,406.67316567634106 200.4999999999988,410.49999999999187 201.26120467488585,414.32683432364274 203.42893218813316,417.57106781185735 206.67316567634765,419.7387953251048 210.49999999999852,420.499999999992 220.4999999999984,420.4999999999922 230.4999999999983,420.49999999999244 234.32683432364917,421.26120467487965 237.57106781186366,423.4289321881271 239.73879532511097,426.6731656763417 240.499999999998,430.49999999999255 239.7387953251108,434.32683432364337 237.57106781186337,437.57106781185786 234.32683432364877,439.7387953251052 230.4999999999979,440.4999999999922 220.499999999998,440.499999999992 210.49999999999812,440.49999999999176 206.67316567634725,441.2612046748788 203.42893218813265,443.4289321881261 201.26120467488522,446.6731656763406 200.499999999998,450.4999999999915 201.26120467488505,454.32683432364234 203.42893218813236,457.57106781185695 206.67316567634685,459.7387953251044 210.49999999999773,460.4999999999916 220.4999999999976,460.4999999999918 230.4999999999975,460.49999999999204 234.32683432364837,461.26120467487925 237.57106781186286,463.4289321881267 239.73879532511017,466.6731656763413 240.49999999999721,470.49999999999216 239.73879532511,474.32683432364297 237.57106781186258,477.5710678118575 234.32683432364797,479.7387953251048 230.4999999999971,480.4999999999918 220.49999999999721,480.4999999999916 210.49999999999733,480.49999999999136 206.67316567634646,481.2612046748784" stroke="black" stroke-linecap="round" stroke-width="3" /><polyline clip-path="url(#border_clip)" fill="none" points="206.67316567634646,481.2612046748784 203.42893218813185,483.4289321881257 201.26120467488443,486.6731656763402 200.49999999999721,490.4999999999911 201.26120467488425,494.32683432364195 203.42893218813157,497.57106781185655 206.67316567634606,499.738795325104 210.49999999999693,500.4999999999912 220.49999999999682,500.4999999999914 230.4999999999967,500.49999999999164 240.4999999999966,500.49999999999187 250.4999999999965,500.4999999999921 260.4999999999964,500.4999999999923 270.49999999999636,500.49999999999255 280.49999999999625,500.4999999999928 290.49999999999613,500.499999999993 294.32683432364706,499.73879532510597 297.57106781186167,497.57106781185865 299.7387953251091,494.32683432364416 300.4999999999963,490.4999999999933 299.73879532510927,486.6731656763424 297.571067811862,483.4289321881278 294.3268343236475,481.2612046748804 290.49999999999665,480.4999999999932 280.4999999999967,480.49999999999295 270.4999999999968,480.4999999999927 266.673165676346,479.7387953251055 263.4289321881315,477.5710678118581 261.2612046748842,474.3268343236435 260.49999999999716,470.4999999999926 261.26120467488437,466.6731656763418 263.42893218813185,463.4289321881273 266.67316567634646,461.26120467488 270.49999999999727,460.49999999999295 280.4999999999972,460.4999999999932 290.4999999999971,460.4999999999934 300.499999999997,460.49999999999363 310.4999999999969,460.49999999999386 320.49999999999676,460.4999999999941 330.49999999999665,460.4999999999943 340.49999999999653,460.49999999999454 350.4999999999964,460.49999999999477 354.3268343236473,461.261204674882" stroke="black" stroke-linecap="round" stroke-width="3" /><polyline clip-path="url(#border_clip)" fill="none" points="354.3268343236473,461.261204674882 357.5710678118618,463.4289321881294 359.73879532510904,466.673165676344 360.4999999999961,470.4999999999949 359.73879532510887,474.3268343236457 357.57106781186144,477.57106781186025 354.32683432364684,479.7387953251075 350.4999999999959,480.49999999999454 340.499999999996,480.4999999999943 330.49999999999613,480.4999999999941 326.67316567634526,481.2612046748811 323.42893218813066,483.4289321881284 321.2612046748832,486.6731656763429 320.499999999996,490.49999999999375 321.26120467488306,494.3268343236446 323.4289321881303,497.5710678118592 326.6731656763448,499.73879532510665 330.4999999999957,500.49999999999386 340.49999999999557,500.4999999999941 350.49999999999545,500.4999999999944 354.3268343236463,501.2612046748816 357.5710678118608,503.428932188129 359.7387953251081,506.6731656763436 360.4999999999951,510.4999999999945 359.73879532510796,514.3268343236454 357.5710678118605,517.5710678118598 354.32683432364587,519.7387953251072 350.499999999995,520.4999999999941 340.4999999999951,520.4999999999939 330.49999999999517,520.4999999999936 326.6731656763443,521.2612046748807 323.4289321881297,523.428932188128 321.26120467488226,526.6731656763425 320.499999999995,530.4999999999933 321.26120467488204,534.3268343236442 323.42893218812935,537.5710678118588 326.67316567634384,539.7387953251063 330.49999999999466,540.4999999999934 340.4999999999946,540.4999999999937 350.4999999999945,540.499999999994 354.32683432364536,541.2612046748811 357.57106781185985,543.4289321881286 359.7387953251071,546.6731656763432" stroke="black" stroke-linecap="round" stroke-width="3" /><polyline clip-path="url(#border_clip)" fill="none" points="359.7387953251071,546.6731656763432 360.49999999999415,550.4999999999941 359.73879532510693,554.3268343236449 357.5710678118595,557.5710678118594 354.3268343236449,559.7387953251067 350.499999999994,560.4999999999937 340.4999999999941,560.4999999999935 330.4999999999942,560.4999999999933 320.4999999999943,560.4999999999931" stroke="black" stroke-linecap="round" stroke-width="3" /><polyline clip-path="url(#border_clip)" fill="none" points="220.49999999999466,600.4999999999902 210.49999999999477,600.4999999999899 206.6731656763439,601.2612046748769 203.4289321881293,603.4289321881242 201.26120467488187,606.6731656763387 200.49999999999466,610.4999999999895 201.2612046748817,614.3268343236405 203.428932188129,617.5710678118551 206.6731656763435,619.7387953251025 210.49999999999432,620.4999999999898 220.4999999999942,620.49999999999 230.4999999999941,620.4999999999902 240.49999999999397,620.4999999999905 250.49999999999386,620.4999999999907 260.49999999999375,620.499999999991 270.49999999999363,620.4999999999912 280.4999999999935,620.4999999999915 290.4999999999934,620.4999999999918 294.3268343236443,619.7387953251048 297.5710678118589,617.5710678118575 299.73879532510637,614.326834323643 300.4999999999935,610.4999999999922 299.7387953251065,606.6731656763412 297.5710678118592,603.4289321881266 294.32683432364473,601.2612046748792 290.49999999999386,600.4999999999919 280.499999999994,600.4999999999917 270.4999999999941,600.4999999999915 266.6731656763433,599.7387953251042 263.4289321881288,597.5710678118568 261.26120467488147,594.3268343236422 260.49999999999443,590.4999999999912 261.2612046748817,586.6731656763404 263.4289321881291,583.4289321881259 266.67316567634373,581.2612046748786 270.4999999999946,580.4999999999916 280.4999999999945,580.4999999999919 290.4999999999944,580.4999999999922 300.49999999999426,580.4999999999924 310.49999999999415,580.4999999999927 320.49999999999403,580.499999999993 330.4999999999939,580.4999999999932 340.4999999999938,580.4999999999934" stroke="black" stroke-linecap="round" stroke-width="3" /><polyline clip-path="url(#border_clip)" fill="none" points="340.4999999999938,580.4999999999934 350.4999999999937,580.4999999999936 354.32683432364456,581.2612046748809 357.57106781185905,583.4289321881283 359.7387953251063,586.6731656763429 360.49999999999335,590.4999999999939 359.73879532510614,594.3268343236447 357.5710678118587,597.5710678118592 354.3268343236441,599.7387953251065 350.4999999999932,600.4999999999935 340.4999999999933,600.4999999999932 330.4999999999934,600.499999999993 326.6731656763426,601.26120467488 323.428932188128,603.4289321881273 321.2612046748805,606.6731656763418 320.4999999999933,610.4999999999926 321.26120467488033,614.3268343236434 323.4289321881276,617.571067811858 326.6731656763421,619.7387953251056 330.49999999999295,620.4999999999927 340.49999999999284,620.4999999999931 350.4999999999927,620.4999999999933 360.4999999999926,620.4999999999935 370.4999999999925,620.4999999999937 380.4999999999924,620.4999999999941 390.49999999999227,620.4999999999943 400.49999999999216,620.4999999999945 410.49999999999204,620.4999999999948 414.32683432364286,619.7387953251077 417.57106781185746,617.5710678118605 419.73879532510495,614.326834323646 420.49999999999216,610.4999999999952 419.7387953251051,606.6731656763443 417.57106781185786,603.4289321881297 414.32683432364337,601.2612046748823 410.49999999999255,600.499999999995 400.49999999999267,600.4999999999948 390.4999999999928,600.4999999999945 386.6731656763419,599.7387953251073 383.4289321881275,597.5710678118598 381.26120467488016,594.3268343236452 380.4999999999932,590.4999999999944 381.2612046748804,586.6731656763436" stroke="black" stroke-linecap="round" stroke-width="3" /><polyline clip-path="url(#border_clip)" fill="none" points="381.2612046748804,586.6731656763436 383.4289321881278,583.4289321881291 386.6731656763424,581.2612046748818 390.4999999999933,580.4999999999948 400.4999999999932,580.499999999995 410.49999999999307,580.4999999999953 420.49999999999295,580.4999999999956 430.49999999999284,580.4999999999959 440.4999999999927,580.4999999999961 450.4999999999926,580.4999999999964 460.4999999999925,580.4999999999967 470.4999999999924,580.4999999999969 474.3268343236432,581.2612046748842 477.5710678118577,583.4289321881316 479.738795325105,586.6731656763462 480.499999999992,590.499999999997 479.7387953251048,594.326834323648 477.57106781185735,597.5710678118623 474.32683432364274,599.7387953251097 470.49999999999187,600.4999999999967 460.499999999992,600.4999999999965 450.4999999999921,600.4999999999961 446.6731656763412,601.2612046748832 443.4289321881266,603.4289321881305 441.26120467487914,606.673165676345 440.4999999999919,610.4999999999958 441.26120467487897,614.3268343236466 443.4289321881262,617.5710678118612 446.6731656763407,619.7387953251086 450.49999999999153,620.4999999999959 460.4999999999914,620.4999999999961 470.4999999999913,620.4999999999965 480.4999999999912,620.4999999999967 490.4999999999911,620.499999999997 500.49999999999096,620.4999999999973 510.49999999999085,620.4999999999975 520.4999999999907,620.4999999999978 530.4999999999906,620.4999999999981 534.3268343236415,619.738795325111 537.5710678118561,617.5710678118637 539.7387953251035,614.3268343236493 540.4999999999907,610.4999999999984 539.7387953251038,606.6731656763476" stroke="black" stroke-linecap="round" stroke-width="3" /><polyline clip-path="url(#border_clip)" fill="none" points="539.7387953251038,606.6731656763476 537.5710678118564,603.428932188133 534.326834323642,601.2612046748856 530.4999999999911,600.4999999999983 520.4999999999912,600.4999999999981 510.49999999999136,600.4999999999977 506.67316567634055,599.7387953251106 503.42893218812605,597.5710678118631 501.26120467487874,594.3268343236485 500.49999999999176,590.4999999999976 501.26120467487897,586.6731656763468 503.42893218812645,583.4289321881323 506.673165676341,581.2612046748851 510.4999999999919,580.4999999999981 520.4999999999918,580.4999999999983 530.4999999999917,580.4999999999986 534.3268343236425,579.7387953251116 537.5710678118571,577.5710678118643 539.7387953251045,574.3268343236498 540.4999999999918,570.499999999999 539.7387953251048,566.6731656763482 537.5710678118576,563.4289321881336 534.3268343236431,561.261204674886 530.4999999999923,560.4999999999989 520.4999999999924,560.4999999999985 510.49999999999244,560.4999999999983 506.6731656763416,559.738795325111 503.42893218812713,557.5710678118636 501.2612046748799,554.326834323649 500.49999999999284,550.4999999999982 501.2612046748801,546.6731656763473 503.42893218812753,543.4289321881329 506.67316567634214,541.2612046748856 510.499999999993,540.4999999999985 520.4999999999928,540.4999999999989 530.4999999999927,540.4999999999991 534.3268343236437,539.738795325112 537.5710678118583,537.5710678118649 539.7387953251057,534.3268343236504 540.499999999993,530.4999999999995 539.7387953251059,526.6731656763486 537.5710678118586,523.428932188134 534.3268343236441,521.2612046748866" stroke="black" stroke-linecap="round" stroke-width="3" /><polyline clip-path="url(#border_clip)" fill="none" points="534.3268343236441,521.2612046748866 530.4999999999933,520.4999999999993 520.4999999999934,520.4999999999991 510.4999999999936,520.4999999999987 500.4999999999937,520.4999999999985" stroke="black" stroke-linecap="round" stroke-width="3" /><polyline clip-path="url(#border_clip)" fill="none" points="400.499999999996,480.4999999999963 390.4999999999962,480.499999999996 386.6731656763453,479.7387953251088 383.4289321881309,477.5710678118613 381.26120467488363,474.3268343236467 380.4999999999966,470.49999999999585 381.26120467488386,466.67316567634504 383.4289321881313,463.4289321881306 386.6731656763459,461.2612046748833 390.49999999999676,460.4999999999963 400.49999999999665,460.4999999999966 410.4999999999965,460.4999999999969 420.49999999999636,460.49999999999716 430.49999999999625,460.4999999999975 440.49999999999613,460.4999999999978 450.499999999996,460.49999999999807 460.49999999999585,460.4999999999984 470.49999999999574,460.4999999999987 474.32683432364655,461.2612046748859 477.57106781186104,463.4289321881334 479.7387953251083,466.673165676348 480.4999999999953,470.49999999999886 479.7387953251081,474.3268343236497 477.5710678118606,477.5710678118641 474.32683432364604,479.73879532511137 470.49999999999517,480.4999999999984 460.4999999999953,480.49999999999807 450.49999999999545,480.4999999999978 446.6731656763446,481.2612046748848 443.42893218813,483.4289321881321 441.2612046748825,486.6731656763465 440.4999999999953,490.4999999999973 441.26120467488226,494.3268343236482 443.4289321881295,497.5710678118628 446.673165676344,499.7387953251103 450.4999999999948,500.4999999999975 460.49999999999466,500.49999999999784 470.49999999999454,500.4999999999981 480.49999999999443,500.4999999999984 490.49999999999426,500.4999999999987 500.49999999999415,500.49999999999903 510.499999999994,500.4999999999993 520.4999999999939,500.4999999999996" stroke="black" stroke-linecap="round" stroke-width="3" /><polyline clip-path="url(#border_clip)" fill="none" points="520.4999999999939,500.4999999999996 530.4999999999937,500.49999999999994 534.3268343236446,499.7387953251129 537.5710678118592,497.57106781186565 539.7387953251066,494.3268343236512 540.4999999999939,490.50000000000034 539.7387953251068,486.6731656763495 537.5710678118596,483.4289321881349 534.3268343236451,481.26120467488744 530.4999999999943,480.5000000000002 520.4999999999944,480.4999999999999 510.4999999999946,480.4999999999996 506.6731656763438,479.73879532511233 503.4289321881293,477.5710678118649 501.26120467488204,474.3268343236503 500.49999999999505,470.49999999999943 501.26120467488226,466.6731656763486 503.42893218812975,463.4289321881341 506.67316567634435,461.26120467488687 510.4999999999952,460.4999999999999 520.499999999995,460.50000000000017 530.4999999999949,460.5000000000005 540.4999999999948,460.5000000000008 550.4999999999947,460.5000000000011 560.4999999999945,460.5000000000014 570.4999999999943,460.5000000000017 580.4999999999942,460.50000000000205 590.4999999999941,460.50000000000233 594.3268343236449,461.26120467488954 597.5710678118594,463.428932188137 599.7387953251066,466.67316567635163 600.4999999999936,470.5000000000025 599.7387953251064,474.3268343236533 597.5710678118589,477.57106781186775 594.3268343236443,479.738795325115 590.4999999999934,480.50000000000205 580.4999999999936,480.5000000000017 570.4999999999937,480.5000000000014 566.6731656763428,481.2612046748884 563.4289321881282,483.42893218813566 561.2612046748808,486.67316567635015 560.4999999999935,490.50000000000097 561.2612046748806,494.32683432365184" stroke="black" stroke-linecap="round" stroke-width="3" /><polyline clip-path="url(#border_clip)" fill="none" points="561.2612046748806,494.32683432365184 563.4289321881279,497.57106781186644 566.6731656763423,499.73879532511387 570.4999999999931,500.50000000000114 580.499999999993,500.5000000000014 590.4999999999928,500.50000000000176 600.4999999999927,500.50000000000205 610.4999999999925,500.50000000000233 620.4999999999924,500.5000000000027 630.4999999999923,500.50000000000296 640.499999999992,500.5000000000033 650.4999999999919,500.5000000000036 654.3268343236429,499.7387953251166 657.5710678118575,497.57106781186934 659.7387953251049,494.32683432365485 660.4999999999922,490.50000000000404 659.7387953251051,486.67316567635316 657.5710678118578,483.42893218813856 654.3268343236434,481.26120467489113 650.4999999999926,480.50000000000387 640.4999999999927,480.5000000000036 630.4999999999928,480.5000000000033 626.673165676342,479.73879532511603 623.4289321881276,477.57106781186855 621.2612046748803,474.326834323654 620.4999999999933,470.5000000000031 621.2612046748806,466.6731656763523 623.428932188128,463.4289321881378 626.6731656763426,461.26120467489056 630.4999999999935,460.5000000000036 640.4999999999934,460.50000000000387 650.4999999999932,460.5000000000042 660.4999999999931,460.5000000000045 670.499999999993,460.50000000000483 680.4999999999927,460.5000000000051 690.4999999999926,460.50000000000546 700.4999999999925,460.50000000000574 710.4999999999924,460.5000000000061 714.3268343236432,461.2612046748933 717.5710678118576,463.4289321881408 719.7387953251049,466.6731656763554 720.4999999999919,470.50000000000625 719.7387953251047,474.32683432365707" stroke="black" stroke-linecap="round" stroke-width="3" /><polyline clip-path="url(#border_clip)" fill="none" points="719.7387953251047,474.32683432365707 717.5710678118572,477.5710678118715 714.3268343236426,479.73879532511876 710.4999999999917,480.5000000000058 700.4999999999918,480.50000000000546 690.499999999992,480.5000000000051 686.6731656763411,481.26120467489216 683.4289321881265,483.4289321881394 681.2612046748791,486.67316567635385 680.4999999999918,490.50000000000466 681.2612046748789,494.32683432365553 683.4289321881262,497.57106781187014 686.6731656763407,499.73879532511756 690.4999999999914,500.50000000000483 700.4999999999912,500.5000000000051 710.4999999999911,500.50000000000546 714.3268343236418,501.2612046748927 717.5710678118563,503.42893218814015 719.7387953251036,506.67316567635476 720.4999999999907,510.5000000000056 719.7387953251034,514.3268343236564 717.571067811856,517.5710678118709 714.3268343236414,519.7387953251182 710.4999999999905,520.5000000000051 700.4999999999907,520.5000000000048 690.4999999999908,520.5000000000045 686.67316567634,521.2612046748915 683.4289321881254,523.4289321881388 681.2612046748778,526.6731656763532 680.4999999999907,530.500000000004 681.2612046748776,534.3268343236549 683.4289321881249,537.5710678118695 686.6731656763393,539.7387953251169 690.4999999999902,540.5000000000042 700.49999999999,540.5000000000045 710.4999999999898,540.5000000000048 714.3268343236407,541.261204674892 717.5710678118551,543.4289321881396 719.7387953251024,546.6731656763541 720.4999999999893,550.500000000005 719.738795325102,554.3268343236558 717.5710678118546,557.5710678118703 714.32683432364,559.7387953251175" stroke="black" stroke-linecap="round" stroke-width="3" /><polyline clip-path="url(#border_clip)" fill="none" points="714.32683432364,559.7387953251175 710.4999999999892,560.5000000000045 700.4999999999893,560.5000000000042 690.4999999999895,560.5000000000039 680.4999999999897,560.5000000000035" stroke="black" stroke-linecap="round" stroke-width="3" /><polyline clip-path="url(#border_clip)" fill="none" points="580.49999999999,600.4999999999995 570.4999999999901,600.4999999999992 566.6731656763393,601.2612046748862 563.4289321881247,603.4289321881334 561.2612046748771,606.6731656763479 560.49999999999,610.4999999999987 561.2612046748769,614.3268343236496 563.4289321881242,617.5710678118642 566.6731656763386,619.7387953251117 570.4999999999894,620.4999999999989 580.4999999999893,620.4999999999992 590.4999999999891,620.4999999999995 600.499999999989,620.4999999999999 610.4999999999889,620.5000000000002 620.4999999999886,620.5000000000006 630.4999999999885,620.5000000000009 640.4999999999884,620.5000000000013 650.4999999999882,620.5000000000016 654.3268343236391,619.7387953251146 657.5710678118537,617.5710678118674 659.7387953251011,614.3268343236529 660.4999999999884,610.500000000002 659.7387953251014,606.6731656763511 657.5710678118542,603.4289321881365 654.3268343236397,601.2612046748891 650.4999999999889,600.5000000000018 640.499999999989,600.5000000000015 630.4999999999892,600.5000000000011 626.6731656763384,599.738795325114 623.4289321881239,597.5710678118664 621.2612046748767,594.3268343236518 620.4999999999897,590.500000000001 621.2612046748769,586.6731656763502 623.4289321881243,583.4289321881357 626.673165676339,581.2612046748885 630.4999999999899,580.5000000000015 640.4999999999897,580.5000000000018 650.4999999999895,580.5000000000022 660.4999999999893,580.5000000000025 670.4999999999892,580.5000000000028 680.499999999989,580.5000000000032 690.4999999999889,580.5000000000035 700.4999999999886,580.5000000000039" stroke="black" stroke-linecap="round" stroke-width="3" /><polyline clip-path="url(#border_clip)" fill="none" points="700.4999999999886,580.5000000000039 710.4999999999885,580.5000000000042 714.3268343236393,581.2612046748915 717.5710678118537,583.428932188139 719.738795325101,586.6731656763536 720.499999999988,590.5000000000044 719.7387953251008,594.3268343236552 717.5710678118533,597.5710678118696 714.3268343236386,599.7387953251169 710.4999999999878,600.5000000000039 700.499999999988,600.5000000000035 690.4999999999882,600.5000000000032 686.6731656763372,601.2612046748902 683.4289321881226,603.4289321881374 681.2612046748752,606.6731656763519 680.499999999988,610.5000000000027 681.261204674875,614.3268343236535 683.4289321881222,617.5710678118681 686.6731656763367,619.7387953251157 690.4999999999875,620.500000000003 700.4999999999874,620.5000000000032 710.4999999999872,620.5000000000036 720.499999999987,620.5000000000039" stroke="black" stroke-linecap="round" stroke-width="3" /><polyline clip-path="url(#border_clip)" fill="none" points="200.5,100.5 210.5,100.5 220.5,100.5 230.5,100.5 234.32683432365087,101.26120467488715 237.57106781186548,103.42893218813452 239.73879532511285,106.67316567634913 240.5,110.5 239.73879532511285,114.32683432365087 237.57106781186548,117.57106781186542 234.32683432365087,119.73879532511279 230.5,120.49999999999994 220.5,120.49999999999994 210.5,120.49999999999994 206.67316567634913,121.2612046748871 203.42893218813452,123.42893218813447 201.26120467488715,126.67316567634902 200.5,130.4999999999999 201.26120467488715,134.32683432365076 203.42893218813452,137.57106781186536 206.67316567634907,139.73879532511273 210.49999999999994,140.4999999999999 220.49999999999994,140.4999999999999 230.49999999999994,140.4999999999999 240.49999999999994,140.4999999999999 250.49999999999994,140.4999999999999 260.49999999999994,140.4999999999999 270.49999999999994,140.4999999999999 280.49999999999994,140.4999999999999 290.49999999999994,140.4999999999999 294.3268343236508,139.73879532511273 297.5710678118654,137.57106781186536 299.73879532511285,134.32683432365081 300.49999999999994,130.49999999999994 299.73879532511285,126.67316567634907 297.5710678118654,123.42893218813447 294.3268343236508,121.2612046748871 290.49999999999994,120.49999999999994 280.49999999999994,120.49999999999994 270.49999999999994,120.49999999999994 266.6731656763491,119.73879532511279 263.42893218813447,117.57106781186542 261.26120467488704,114.32683432365081" stroke="black" stroke-linecap="round" stroke-width="3" /><polyline clip-path="url(#border_clip)" fill="none" points="240.4999999999999,160.4999999999995 230.4999999999999,160.4999999999995 220.4999999999999,160.4999999999995 210.4999999999999,160.4999999999995 206.67316567634902,161.26120467488659 203.4289321881344,163.42893218813396 201.26120467488704,166.6731656763485 200.4999999999999,170.49999999999937 201.26120467488698,174.32683432365025 203.42893218813435,177.57106781186485 206.6731656763489,179.73879532511222 210.49999999999977,180.49999999999937 220.49999999999977,180.49999999999937 230.49999999999977,180.49999999999937 234.32683432365064,181.26120467488653 237.5710678118652,183.4289321881339 239.73879532511256,186.6731656763485 240.49999999999966,190.49999999999937 239.7387953251125,194.32683432365025 237.57106781186508,197.5710678118648 234.32683432365047,199.73879532511216 230.4999999999996,200.49999999999926 220.4999999999996,200.4999999999992 210.4999999999996,200.49999999999915 206.67316567634873,201.26120467488624 203.42893218813413,203.42893218813361 201.2612046748867,206.67316567634816 200.49999999999955,210.49999999999903 201.26120467488664,214.3268343236499 203.428932188134,217.5710678118645 206.67316567634856,219.73879532511194 210.49999999999943,220.4999999999991 220.49999999999943,220.49999999999915 230.49999999999943,220.4999999999992 234.3268343236503,221.26120467488636 237.57106781186485,223.42893218813379 239.73879532511222,226.6731656763484 240.49999999999932,230.49999999999926 239.73879532511216,234.32683432365013 237.57106781186474,237.57106781186468 234.32683432365013,239.73879532511205 230.49999999999926,240.49999999999915 220.49999999999926,240.4999999999991" stroke="black" stroke-linecap="round" stroke-width="3" /><polyline clip-path="url(#border_clip)" fill="none" points="420.49999999999926,200.49999999999983 410.4999999999993,200.49999999999977 400.4999999999993,200.49999999999972 390.4999999999994,200.49999999999966 386.6731656763485,199.7387953251125 383.4289321881339,197.57106781186508 381.2612046748866,194.32683432365047 380.4999999999995,190.4999999999996 381.26120467488664,186.67316567634873 383.428932188134,183.42893218813418 386.6731656763486,181.2612046748868 390.4999999999995,180.49999999999972 400.4999999999995,180.49999999999977 410.49999999999943,180.49999999999983 414.32683432365036,179.73879532511273 417.5710678118649,177.57106781186536 419.73879532511233,174.32683432365081 420.4999999999995,170.49999999999994 419.7387953251124,166.67316567634907 417.571067811865,163.42893218813447 414.3268343236505,161.26120467488704 410.4999999999996,160.4999999999999 400.49999999999966,160.49999999999983 390.49999999999966,160.49999999999977 386.6731656763488,159.73879532511262 383.42893218813424,157.5710678118652 381.26120467488687,154.3268343236506 380.4999999999998,150.49999999999972 381.2612046748869,146.67316567634884 383.42893218813435,143.4289321881343 386.67316567634896,141.26120467488693 390.49999999999983,140.49999999999983 400.4999999999998,140.4999999999999 410.4999999999998,140.49999999999994 414.32683432365064,139.73879532511285 417.5710678118652,137.57106781186548 419.7387953251126,134.32683432365093 420.4999999999998,130.50000000000006 419.7387953251127,126.67316567634919 417.5710678118653,123.42893218813458 414.3268343236508,121.26120467488715 410.4999999999999,120.5 400.49999999999994,120.49999999999994" stroke="black" stroke-linecap="round" stroke-width="3" /><polyline clip-path="url(#border_clip)" fill="none" points="600.4999999999987,160.50000000000148 590.4999999999989,160.50000000000136 580.4999999999989,160.50000000000125 570.4999999999989,160.50000000000114 566.673165676348,161.26120467488823 563.4289321881334,163.4289321881356 561.261204674886,166.67316567635015 560.4999999999989,170.50000000000102 561.2612046748859,174.3268343236519 563.4289321881332,177.5710678118665 566.6731656763478,179.73879532511393 570.4999999999986,180.50000000000108 580.4999999999986,180.5000000000012 590.4999999999985,180.5000000000013 594.3268343236495,181.26120467488846 597.5710678118639,183.4289321881359 599.7387953251114,186.6731656763505 600.4999999999984,190.50000000000136 599.7387953251113,194.32683432365224 597.5710678118638,197.57106781186678 594.3268343236492,199.73879532511415 590.4999999999983,200.50000000000125 580.4999999999984,200.50000000000114 570.4999999999984,200.50000000000102 566.6731656763475,201.26120467488812 563.428932188133,203.4289321881355 561.2612046748856,206.67316567635004 560.4999999999984,210.5000000000009 561.2612046748854,214.32683432365178 563.4289321881328,217.57106781186639 566.6731656763473,219.7387953251138 570.4999999999982,220.50000000000097 580.4999999999982,220.50000000000108 590.4999999999981,220.5000000000012 594.3268343236489,221.26120467488835 597.5710678118635,223.42893218813578 599.7387953251108,226.67316567635038 600.499999999998,230.50000000000125 599.7387953251107,234.32683432365212 597.5710678118633,237.57106781186667 594.3268343236488,239.73879532511398 590.4999999999978,240.50000000000108 580.499999999998,240.50000000000097" stroke="black" stroke-linecap="round" stroke-width="3" /><polyline clip-path="url(#border_clip)" fill="none" points="680.4999999999958,340.5000000000013 690.4999999999957,340.5000000000015 700.4999999999956,340.5000000000016 710.4999999999955,340.5000000000017 714.3268343236464,341.2612046748889 717.5710678118609,343.42893218813634 719.7387953251082,346.6731656763509 720.4999999999952,350.5000000000018 719.7387953251081,354.32683432365263 717.5710678118606,357.5710678118671 714.326834323646,359.73879532511444 710.4999999999952,360.50000000000153 700.4999999999952,360.50000000000136 690.4999999999953,360.5000000000012 686.6731656763445,361.2612046748883 683.4289321881299,363.4289321881356 681.2612046748825,366.6731656763501 680.4999999999953,370.5000000000009 681.2612046748824,374.32683432365184 683.4289321881297,377.5710678118664 686.6731656763442,379.7387953251138 690.499999999995,380.500000000001 700.499999999995,380.50000000000114 710.4999999999949,380.5000000000013 714.3268343236457,381.2612046748885 717.5710678118603,383.42893218813595 719.7387953251075,386.67316567635055 720.4999999999947,390.50000000000136 719.7387953251075,394.32683432365224 717.5710678118601,397.5710678118668 714.3268343236455,399.7387953251141 710.4999999999945,400.50000000000114 700.4999999999947,400.500000000001 690.4999999999948,400.50000000000085 686.6731656763438,401.2612046748879 683.4289321881292,403.4289321881352 681.2612046748818,406.67316567634975 680.4999999999947,410.50000000000057 681.2612046748818,414.3268343236515 683.428932188129,417.57106781186604 686.6731656763436,419.7387953251135 690.4999999999944,420.5000000000007 700.4999999999943,420.50000000000085" stroke="black" stroke-linecap="round" stroke-width="3" /><polyline clip-path="url(#border_clip)" fill="none" points="360.49999999999983,280.4999999999963 350.4999999999999,280.49999999999613 340.5,280.49999999999596 330.5000000000001,280.4999999999958 326.6731656763492,281.26120467488283 323.42893218813464,283.42893218813015 321.2612046748872,286.6731656763447 320.5,290.49999999999557 321.2612046748871,294.3268343236464 323.4289321881344,297.571067811861 326.67316567634896,299.7387953251084 330.4999999999998,300.49999999999557 340.49999999999966,300.4999999999958 350.4999999999996,300.4999999999959 354.3268343236505,301.2612046748831 357.57106781186496,303.42893218813055 359.7387953251123,306.6731656763451 360.4999999999993,310.499999999996 359.73879532511216,314.32683432364684 357.57106781186474,317.5710678118613 354.32683432365013,319.73879532510864 350.4999999999993,320.49999999999574 340.4999999999994,320.49999999999557 330.49999999999943,320.4999999999954 320.49999999999955,320.4999999999952 310.49999999999966,320.49999999999505 300.4999999999997,320.4999999999949 290.4999999999998,320.4999999999947 280.4999999999999,320.49999999999454 270.5,320.4999999999944 266.67316567634913,319.73879532510716 263.4289321881346,317.57106781185973 261.26120467488727,314.3268343236452 260.5000000000002,310.4999999999943 261.26120467488744,306.6731656763435 263.42893218813487,303.42893218812895 266.6731656763494,301.26120467488164 270.50000000000034,300.4999999999946 280.5000000000002,300.49999999999477 290.5000000000001,300.499999999995 294.32683432365104,299.73879532510796 297.5710678118656,297.57106781186064 299.738795325113,294.32683432364615" stroke="black" stroke-linecap="round" stroke-width="3" /><polyline clip-path="url(#border_clip)" fill="none" points="320.4999999999991,340.4999999999952 330.499999999999,340.49999999999545 340.4999999999989,340.4999999999956 350.49999999999886,340.4999999999958 354.3268343236497,341.26120467488306 357.57106781186417,343.4289321881305 359.7387953251115,346.6731656763451 360.4999999999985,350.4999999999959 359.73879532511137,354.3268343236468 357.57106781186394,357.57106781186127 354.32683432364934,359.7387953251086 350.4999999999984,360.4999999999956 340.4999999999985,360.49999999999545 330.49999999999864,360.4999999999952 326.6731656763477,361.26120467488226 323.4289321881331,363.4289321881296 321.2612046748857,366.67316567634407 320.4999999999985,370.4999999999949 321.26120467488556,374.3268343236458 323.4289321881329,377.57106781186036 326.67316567634737,379.73879532510784 330.4999999999982,380.499999999995 340.49999999999807,380.4999999999952 350.499999999998,380.4999999999954 354.3268343236489,381.2612046748826 357.5710678118634,383.42893218813003 359.7387953251107,386.67316567634464 360.4999999999977,390.4999999999955 359.73879532511046,394.3268343236464 357.57106781186303,397.57106781186087 354.3268343236484,399.7387953251082 350.4999999999976,400.4999999999952 340.49999999999767,400.499999999995 330.4999999999977,400.49999999999477 326.6731656763469,401.2612046748818 323.4289321881323,403.4289321881291 321.2612046748849,406.6731656763436 320.4999999999976,410.49999999999443 321.26120467488465,414.32683432364536 323.42893218813197,417.5710678118599 326.67316567634646,419.7387953251074 330.4999999999973,420.49999999999454 340.49999999999727,420.49999999999477" stroke="black" stroke-linecap="round" stroke-width="3" /><polyline clip-path="url(#border_clip)" fill="none" points="240.49999999999625,520.4999999999915 230.49999999999636,520.4999999999912 220.49999999999648,520.499999999991 210.4999999999966,520.4999999999907 206.67316567634572,521.2612046748777 203.4289321881311,523.428932188125 201.2612046748837,526.6731656763395 200.49999999999648,530.4999999999903 201.26120467488352,534.3268343236413 203.42893218813083,537.5710678118559 206.67316567634532,539.7387953251033 210.49999999999613,540.4999999999906 220.49999999999602,540.4999999999908 230.4999999999959,540.499999999991 234.32683432364672,541.2612046748782 237.5710678118612,543.4289321881257 239.73879532510853,546.6731656763403 240.49999999999557,550.4999999999911 239.73879532510836,554.326834323642 237.57106781186093,557.5710678118564 234.32683432364632,559.7387953251038 230.49999999999545,560.4999999999908 220.49999999999557,560.4999999999906 210.49999999999568,560.4999999999903 206.6731656763448,561.2612046748774 203.4289321881302,563.4289321881246 201.26120467488278,566.6731656763391 200.49999999999557,570.49999999999 201.2612046748826,574.3268343236408 203.42893218812992,577.5710678118554 206.6731656763444,579.7387953251028 210.49999999999523,580.4999999999901 220.4999999999951,580.4999999999903 230.499999999995,580.4999999999907 234.3268343236458,581.2612046748778 237.5710678118603,583.4289321881253 239.73879532510762,586.6731656763399 240.49999999999466,590.4999999999908 239.73879532510745,594.3268343236416 237.57106781186002,597.5710678118561 234.32683432364541,599.7387953251034 230.49999999999454,600.4999999999905 220.49999999999466,600.4999999999902" stroke="black" stroke-linecap="round" stroke-width="3" /><polyline clip-path="url(#border_clip)" fill="none" points="420.4999999999935,560.4999999999958 410.49999999999363,560.4999999999956 400.49999999999375,560.4999999999952 390.49999999999386,560.499999999995 386.67316567634305,559.7387953251077 383.42893218812856,557.5710678118603 381.2612046748813,554.3268343236457 380.4999999999943,550.4999999999948 381.2612046748815,546.673165676344 383.428932188129,543.4289321881295 386.6731656763436,541.2612046748823 390.49999999999443,540.4999999999952 400.4999999999943,540.4999999999955 410.4999999999942,540.4999999999958 414.3268343236451,539.7387953251088 417.5710678118597,537.5710678118616 419.73879532510716,534.3268343236471 420.4999999999944,530.4999999999962 419.73879532510733,526.6731656763453 417.5710678118601,523.4289321881307 414.3268343236456,521.2612046748833 410.49999999999477,520.499999999996 400.4999999999949,520.4999999999958 390.499999999995,520.4999999999955 386.6731656763442,519.7387953251083 383.4289321881297,517.5710678118608 381.26120467488244,514.3268343236462 380.49999999999545,510.49999999999534 381.26120467488266,506.6731656763445 383.42893218813015,503.42893218813003 386.67316567634475,501.2612046748828 390.49999999999557,500.49999999999574 400.49999999999545,500.499999999996 410.49999999999534,500.4999999999963 414.3268343236462,499.7387953251093 417.5710678118608,497.57106781186206 419.7387953251083,494.3268343236476 420.4999999999955,490.49999999999676 419.7387953251085,486.6731656763459 417.5710678118612,483.4289321881313 414.3268343236467,481.26120467488386 410.4999999999959,480.4999999999966 400.499999999996,480.4999999999963" stroke="black" stroke-linecap="round" stroke-width="3" /><polyline clip-path="url(#border_clip)" fill="none" points="600.4999999999923,520.5000000000016 590.4999999999925,520.5000000000013 580.4999999999926,520.5000000000009 570.4999999999927,520.5000000000006 566.6731656763419,521.2612046748876 563.4289321881273,523.4289321881348 561.2612046748799,526.6731656763493 560.4999999999926,530.5000000000001 561.2612046748795,534.3268343236509 563.4289321881269,537.5710678118655 566.6731656763413,539.738795325113 570.499999999992,540.5000000000002 580.4999999999919,540.5000000000006 590.4999999999918,540.5000000000009 594.3268343236426,541.2612046748882 597.571067811857,543.4289321881356 599.7387953251043,546.6731656763502 600.4999999999914,550.500000000001 599.7387953251041,554.3268343236518 597.5710678118566,557.5710678118663 594.326834323642,559.7387953251135 590.4999999999911,560.5000000000006 580.4999999999912,560.5000000000002 570.4999999999915,560.4999999999999 566.6731656763405,561.2612046748869 563.4289321881259,563.4289321881341 561.2612046748785,566.6731656763486 560.4999999999912,570.4999999999994 561.2612046748783,574.3268343236502 563.4289321881255,577.5710678118649 566.67316567634,579.7387953251123 570.4999999999908,580.4999999999995 580.4999999999907,580.4999999999999 590.4999999999905,580.5000000000002 594.3268343236413,581.2612046748875 597.5710678118558,583.4289321881349 599.738795325103,586.6731656763495 600.49999999999,590.5000000000005 599.7387953251027,594.3268343236513 597.5710678118553,597.5710678118656 594.3268343236407,599.738795325113 590.4999999999898,600.4999999999999 580.49999999999,600.4999999999995" stroke="black" stroke-linecap="round" stroke-width="3" /></svg>