<?xml version="1.0" encoding="utf-8" ?>
<svg baseProfile="full" height="1000px" version="1.1" width="1000px" xmlns="http://www.w3.org/2000/svg" xmlns:ev="http://www.w3.org/2001/xml-events" xmlns:xlink="http://www.w3.org/1999/xlink"><defs><clipPath id="border_clip"><rect height="1000" width="1000" x="0" y="0" /></clipPath></defs><polyline clip-path="url(#border_clip)" fill="none" points="240.50000000000017,483.179491924311 245.5000000000002,474.5192378864666 235.50000000000017,474.51923788646656 230.50000000000017,483.1794919243109 225.50000000000017,474.51923788646656 230.50000000000017,465.8589838486222 240.50000000000017,465.8589838486222 245.5000000000002,457.1987298107778 240.50000000000023,448.5384757729334 250.50000000000023,448.53847577293345 255.50000000000023,457.1987298107778 260.5000000000002,448.53847577293345 255.50000000000028,439.878221735089 245.50000000000028,439.878221735089 240.50000000000028,431.2179676972446 245.5000000000003,422.55771365940024 235.50000000000028,422.5577136594002 230.50000000000028,431.2179676972446 225.50000000000028,422.5577136594002 230.50000000000028,413.8974596215558 240.50000000000028,413.8974596215558 245.5000000000003,405.23720558371144 240.50000000000034,396.576951545867 245.50000000000037,387.91669750802265 250.50000000000037,396.5769515458671 255.5000000000004,387.9166975080227 260.5000000000004,396.5769515458671 255.50000000000037,405.23720558371144 260.50000000000034,413.89745962155587 255.5000000000003,422.55771365940024 260.5000000000003,431.2179676972446 265.50000000000034,422.55771365940024 270.5000000000003,431.21796769724466 275.50000000000034,422.5577136594003 270.50000000000034,413.89745962155587 275.50000000000034,405.2372055837115 270.5000000000004,396.5769515458671 275.50000000000045,387.9166975080227 280.50000000000045,396.57695154586713 285.50000000000045,387.9166975080227 290.50000000000045,396.57695154586713 285.50000000000045,405.2372055837115 290.5000000000004,413.89745962155587" stroke="black" stroke-linecap="round" stroke-width="3" /><polyline clip-path="url(#border_clip)" fill="none" points="290.5000000000004,413.89745962155587 285.50000000000034,422.5577136594003 295.50000000000034,422.5577136594003 300.5000000000004,413.8974596215559 305.5000000000004,422.5577136594003 300.50000000000034,431.2179676972447 290.50000000000034,431.21796769724466 285.50000000000034,439.878221735089 290.50000000000034,448.53847577293345 280.50000000000034,448.53847577293345 275.50000000000034,439.878221735089 270.5000000000003,448.53847577293345 275.5000000000002,457.1987298107778 285.5000000000002,457.1987298107778 290.5000000000002,465.85898384862224 285.5000000000002,474.5192378864666 295.5000000000002,474.51923788646667 300.5000000000002,465.8589838486223 305.5000000000002,474.51923788646667 300.5000000000002,483.17949192431104 290.5000000000002,483.17949192431104 285.50000000000017,491.8397459621554 275.50000000000017,491.8397459621554 270.5000000000001,500.4999999999998 280.5000000000001,500.4999999999998 275.5000000000001,509.1602540378442 285.5000000000001,509.1602540378442 290.5000000000001,500.49999999999983 300.5000000000001,500.49999999999983 305.50000000000017,491.83974596215546 310.50000000000017,500.4999999999999 305.5000000000001,509.16025403784425 315.5000000000001,509.16025403784425 320.50000000000017,500.4999999999999 315.5000000000002,491.8397459621555 320.5000000000002,483.1794919243111 315.5000000000002,474.5192378864667 320.5000000000003,465.8589838486223 325.5000000000003,474.5192378864667 330.50000000000034,465.85898384862236 335.50000000000034,474.5192378864667 330.5000000000003,483.17949192431115 335.5000000000003,491.8397459621555" stroke="black" stroke-linecap="round" stroke-width="3" /><polyline clip-path="url(#border_clip)" fill="none" points="335.5000000000003,491.8397459621555 330.5000000000002,500.4999999999999 340.5000000000002,500.49999999999994 345.5000000000003,491.8397459621556 350.5000000000003,500.49999999999994 345.5000000000002,509.1602540378443 335.5000000000002,509.1602540378443 330.5000000000002,517.8205080756887 320.5000000000002,517.8205080756887 325.5000000000002,526.480762113533 335.5000000000002,526.4807621135332 330.50000000000017,535.1410161513775 320.50000000000017,535.1410161513775 315.50000000000017,526.480762113533 305.50000000000017,526.480762113533 300.5000000000001,535.1410161513775 295.5000000000001,526.480762113533 300.50000000000017,517.8205080756886 290.50000000000017,517.8205080756886 285.5000000000001,526.480762113533 290.5000000000001,535.1410161513775 285.5000000000001,543.8012701892218 275.5000000000001,543.8012701892218 280.5000000000001,552.4615242270662 290.5000000000001,552.4615242270662 285.50000000000006,561.1217782649106 275.50000000000006,561.1217782649106 270.50000000000006,552.4615242270662 260.50000000000006,552.4615242270662 255.50000000000003,561.1217782649105 250.50000000000003,552.4615242270662 255.50000000000006,543.8012701892218 245.50000000000006,543.8012701892218 240.50000000000006,552.4615242270661 245.50000000000006,561.1217782649105 240.50000000000006,569.7820323027549 230.50000000000006,569.7820323027549 225.50000000000006,578.4422863405994 235.50000000000006,578.4422863405994 230.50000000000006,587.1025403784437 240.50000000000006,587.1025403784437 245.50000000000009,578.4422863405994 255.50000000000009,578.4422863405994" stroke="black" stroke-linecap="round" stroke-width="3" /><polyline clip-path="url(#border_clip)" fill="none" points="255.50000000000009,578.4422863405994 260.5000000000001,569.7820323027549 270.5000000000001,569.7820323027549 265.5000000000001,578.4422863405994 275.5000000000001,578.4422863405994 270.50000000000006,587.1025403784438 260.50000000000006,587.1025403784438 255.50000000000003,595.7627944162881 245.50000000000003,595.7627944162881 240.5,604.4230484541325 250.5,604.4230484541325 245.49999999999997,613.0833024919768 255.49999999999997,613.083302491977 260.5,604.4230484541325 270.5,604.4230484541325 275.5,595.7627944162882 280.5,604.4230484541325 275.5,613.083302491977 285.5,613.083302491977 290.5,604.4230484541325 285.50000000000006,595.7627944162882 290.5000000000001,587.1025403784438 300.5000000000001,587.1025403784438 295.5000000000001,578.4422863405994 285.5000000000001,578.4422863405994 290.5000000000001,569.7820323027549 300.5000000000001,569.7820323027549 305.5000000000001,578.4422863405994 315.5000000000001,578.4422863405994 320.50000000000017,569.782032302755 325.50000000000017,578.4422863405994 320.5000000000001,587.1025403784438 330.5000000000001,587.1025403784438 335.50000000000017,578.4422863405995 330.5000000000002,569.782032302755 335.5000000000002,561.1217782649106 330.5000000000002,552.4615242270662 335.5000000000003,543.8012701892219 340.5000000000003,552.4615242270663 345.50000000000034,543.8012701892219 350.50000000000034,552.4615242270663 345.5000000000003,561.1217782649106 350.5000000000003,569.782032302755" stroke="black" stroke-linecap="round" stroke-width="3" /><polyline clip-path="url(#border_clip)" fill="none" points="350.5000000000003,569.782032302755 345.5000000000002,578.4422863405995 355.5000000000002,578.4422863405995 360.5000000000003,569.782032302755 365.5000000000003,578.4422863405995 360.5000000000002,587.1025403784439 350.5000000000002,587.1025403784438 345.5000000000002,595.7627944162882 335.5000000000002,595.7627944162882 330.5000000000002,604.4230484541326 340.5000000000002,604.4230484541326 335.50000000000017,613.083302491977 345.50000000000017,613.0833024919771 350.5000000000002,604.4230484541326 360.5000000000002,604.4230484541326 365.5000000000002,595.7627944162882 370.5000000000002,604.4230484541326 365.5000000000002,613.0833024919771 375.5000000000002,613.0833024919771 380.5000000000002,604.4230484541326 375.5000000000002,595.7627944162882 380.5000000000003,587.1025403784439 375.5000000000003,578.4422863405995 385.5000000000003,578.4422863405995 390.5000000000003,587.1025403784439 395.5000000000003,578.4422863405995 390.50000000000034,569.7820323027552 380.50000000000034,569.782032302755 375.50000000000034,561.1217782649106 380.50000000000034,552.4615242270663 370.50000000000034,552.4615242270663 365.50000000000034,561.1217782649106 360.50000000000034,552.4615242270662 365.50000000000034,543.8012701892219 375.50000000000034,543.8012701892219 380.5000000000004,535.1410161513775 375.5000000000004,526.4807621135332 385.50000000000045,526.4807621135332 390.5000000000004,535.1410161513776 395.50000000000045,526.4807621135332 390.50000000000045,517.8205080756887 380.50000000000045,517.8205080756887 375.50000000000045,509.1602540378443" stroke="black" stroke-linecap="round" stroke-width="3" /><polyline clip-path="url(#border_clip)" fill="none" points="375.50000000000045,509.1602540378443 365.50000000000045,509.1602540378443 360.50000000000045,500.4999999999999 370.50000000000045,500.49999999999994 365.5000000000005,491.8397459621555 375.5000000000005,491.8397459621555 380.5000000000005,500.49999999999994 390.5000000000005,500.49999999999994 395.5000000000005,509.16025403784437 400.5000000000005,500.5 395.50000000000057,491.8397459621556 405.50000000000057,491.8397459621556 410.5000000000005,500.5 405.5000000000005,509.16025403784437 410.5000000000005,517.8205080756887 405.50000000000045,526.4807621135332 410.50000000000045,535.1410161513776 415.5000000000005,526.4807621135332 420.50000000000045,535.1410161513776 425.5000000000005,526.4807621135332 420.5000000000005,517.8205080756888 425.50000000000057,509.1602540378444 420.50000000000057,500.5 430.50000000000057,500.50000000000006 435.50000000000057,509.1602540378444 440.50000000000057,500.50000000000006 435.50000000000057,491.83974596215563 425.50000000000057,491.83974596215563 420.5000000000006,483.1794919243112 410.50000000000057,483.1794919243112 415.5000000000006,474.51923788646684 425.5000000000006,474.51923788646684 420.5000000000006,465.8589838486224 410.5000000000006,465.8589838486224 405.50000000000057,474.5192378864668 395.50000000000057,474.5192378864668 390.5000000000006,465.85898384862236 385.50000000000057,474.5192378864667 390.50000000000057,483.17949192431115 380.50000000000057,483.17949192431115 375.50000000000057,474.5192378864667 380.5000000000006,465.85898384862236 375.5000000000006,457.19872981077793" stroke="black" stroke-linecap="round" stroke-width="3" /><polyline clip-path="url(#border_clip)" fill="none" points="375.5000000000006,457.19872981077793 380.5000000000007,448.53847577293357 370.5000000000007,448.5384757729335 365.5000000000006,457.1987298107779 360.5000000000007,448.5384757729335 365.5000000000007,439.87822173508914 375.5000000000007,439.87822173508914 380.50000000000074,431.2179676972447 390.50000000000074,431.2179676972448 395.5000000000008,422.5577136594004 385.50000000000074,422.55771365940035 390.5000000000008,413.897459621556 380.5000000000008,413.897459621556 375.50000000000074,422.55771365940035 365.50000000000074,422.5577136594003 360.5000000000007,431.2179676972447 355.50000000000074,422.5577136594003 360.5000000000008,413.89745962155587 350.50000000000074,413.89745962155587 345.5000000000007,422.55771365940024 350.5000000000007,431.21796769724466 345.5000000000007,439.878221735089 350.5000000000006,448.53847577293345 345.50000000000057,457.1987298107778 340.5000000000006,448.53847577293345 335.50000000000057,457.1987298107778 330.5000000000006,448.5384757729334 335.5000000000007,439.878221735089 330.5000000000007,431.2179676972446 335.5000000000007,422.55771365940024 325.5000000000007,422.5577136594002 320.5000000000007,431.2179676972446 315.5000000000007,422.5577136594002 320.5000000000007,413.89745962155575 330.50000000000074,413.8974596215558 335.5000000000008,405.23720558371144 345.5000000000008,405.23720558371144 340.5000000000008,396.576951545867 330.5000000000008,396.576951545867 335.5000000000008,387.91669750802265 345.50000000000085,387.91669750802265 350.50000000000085,396.5769515458671 360.50000000000085,396.57695154586713" stroke="black" stroke-linecap="round" stroke-width="3" /><polyline clip-path="url(#border_clip)" fill="none" points="360.50000000000085,396.57695154586713 365.5000000000009,387.9166975080227 370.5000000000009,396.57695154586713 365.50000000000085,405.23720558371156 375.50000000000085,405.23720558371156 380.5000000000009,396.5769515458672 375.5000000000009,387.91669750802276 380.5000000000009,379.2564434701784 390.50000000000097,379.2564434701784 385.50000000000097,370.596189432334 375.50000000000097,370.596189432334 380.50000000000097,361.93593539448955 390.500000000001,361.9359353944896 395.50000000000097,370.596189432334 405.500000000001,370.59618943233403 410.50000000000097,379.25644347017845 420.500000000001,379.25644347017845 415.500000000001,370.5961894323341 425.500000000001,370.5961894323341 420.500000000001,361.93593539448966 410.500000000001,361.93593539448966 405.500000000001,353.27568135664524 395.500000000001,353.27568135664524 400.500000000001,344.6154273188008 410.5000000000011,344.6154273188008 405.5000000000011,335.95517328095644 395.5000000000011,335.9551732809564 390.500000000001,344.6154273188008 380.500000000001,344.6154273188008 375.500000000001,353.2756813566452 365.50000000000097,353.2756813566451 370.500000000001,344.61542731880076 360.50000000000097,344.6154273188007 365.500000000001,335.95517328095633 375.500000000001,335.9551732809564 380.500000000001,327.29491924311196 390.500000000001,327.29491924311196 385.5000000000011,318.6346652052676 375.500000000001,318.63466520526754 380.5000000000011,309.97441116742317 390.5000000000011,309.9744111674232 395.5000000000011,318.6346652052676 405.5000000000011,318.63466520526765" stroke="black" stroke-linecap="round" stroke-width="3" /><polyline clip-path="url(#border_clip)" fill="none" points="405.5000000000011,318.63466520526765 410.5000000000011,327.294919243112 415.50000000000114,318.63466520526765 410.50000000000114,309.9744111674232 420.50000000000114,309.9744111674232 425.50000000000114,318.63466520526765 420.5000000000011,327.2949192431121 425.5000000000011,335.95517328095644 435.5000000000011,335.9551732809565 430.5000000000011,344.61542731880087 420.500000000001,344.6154273188008 425.500000000001,353.27568135664524 435.500000000001,353.27568135664524 440.5000000000011,344.61542731880087 450.5000000000011,344.6154273188009 455.5000000000011,353.2756813566453 460.50000000000114,344.6154273188009 455.50000000000114,335.9551732809565 465.50000000000114,335.9551732809565 470.50000000000114,344.6154273188009 465.5000000000011,353.27568135664535 470.5000000000011,361.9359353944897 480.5000000000011,361.9359353944898 475.5000000000011,370.59618943233414 465.5000000000011,370.5961894323341 470.500000000001,379.2564434701785 480.5000000000011,379.25644347017857 485.5000000000011,370.5961894323342 495.5000000000011,370.5961894323342 500.5000000000011,379.2564434701786 510.5000000000011,379.2564434701786 505.50000000000114,370.5961894323342 515.5000000000011,370.59618943233426 510.50000000000114,361.93593539448983 500.50000000000114,361.9359353944898 495.50000000000114,353.27568135664535 485.50000000000114,353.27568135664535 480.50000000000114,344.6154273188009 490.5000000000012,344.6154273188009 485.5000000000012,335.9551732809565 495.5000000000012,335.95517328095656 500.5000000000012,344.6154273188009 510.5000000000012,344.615427318801" stroke="black" stroke-linecap="round" stroke-width="3" /><polyline clip-path="url(#border_clip)" fill="none" points="510.5000000000012,344.615427318801 515.5000000000011,353.27568135664535 525.5000000000013,353.2756813566454 520.5000000000013,344.615427318801 530.5000000000013,344.61542731880104 525.5000000000013,335.9551732809566 515.5000000000013,335.95517328095656 510.50000000000125,327.29491924311213 500.50000000000125,327.2949192431121 505.50000000000125,318.6346652052677 515.5000000000013,318.63466520526777 510.5000000000013,309.97441116742334 500.5000000000013,309.9744111674233 495.50000000000125,318.63466520526765 485.50000000000125,318.63466520526765 480.50000000000125,309.9744111674232 475.50000000000125,318.6346652052676 480.5000000000012,327.294919243112 470.5000000000012,327.29491924311196 465.5000000000012,318.63466520526754 470.50000000000125,309.97441116742317 465.50000000000125,301.31415712957875 455.50000000000125,301.3141571295787 460.50000000000125,292.6539030917343 470.5000000000013,292.6539030917344 465.5000000000013,283.99364905388995 455.5000000000013,283.9936490538899 450.50000000000125,292.65390309173426 440.50000000000125,292.65390309173426 435.5000000000012,301.31415712957863 425.5000000000012,301.3141571295786 430.50000000000125,292.6539030917342 420.5000000000012,292.65390309173415 425.50000000000125,283.9936490538898 435.50000000000125,283.99364905388984 440.50000000000125,275.3333950160454 450.5000000000013,275.3333950160454 445.5000000000013,266.673140978201 435.5000000000013,266.673140978201 440.50000000000136,258.01288694035657 450.50000000000136,258.0128869403566 455.50000000000136,266.67314097820105 465.50000000000136,266.6731409782011" stroke="black" stroke-linecap="round" stroke-width="3" /><polyline clip-path="url(#border_clip)" fill="none" points="465.50000000000136,266.6731409782011 470.50000000000136,275.3333950160455 480.50000000000136,275.33339501604553 475.50000000000136,266.6731409782011 485.50000000000136,266.6731409782011 480.5000000000014,258.0128869403567 470.50000000000136,258.0128869403567 465.5000000000014,249.35263290251223 455.5000000000014,249.3526329025122 460.5000000000014,240.69237886466783 470.5000000000014,240.69237886466783 465.5000000000015,232.0321248268234 455.5000000000015,232.03212482682335 450.5000000000014,240.69237886466772 440.5000000000014,240.69237886466766 435.50000000000136,249.35263290251203 430.50000000000136,240.6923788646676 435.5000000000014,232.03212482682324 425.50000000000136,232.03212482682318 420.50000000000136,240.69237886466755 425.50000000000136,249.35263290251197 420.5000000000013,258.01288694035634 410.5000000000013,258.01288694035634 415.50000000000125,266.67314097820076 425.50000000000125,266.67314097820076 420.50000000000125,275.33339501604513 410.50000000000125,275.3333950160451 405.50000000000125,266.67314097820065 395.50000000000125,266.67314097820065 390.5000000000012,275.333395016045 385.50000000000125,266.6731409782006 390.50000000000125,258.0128869403562 380.50000000000125,258.01288694035617 375.5000000000012,266.67314097820054 380.5000000000012,275.33339501604496 375.50000000000114,283.9936490538893 365.50000000000114,283.99364905388927 370.50000000000114,292.6539030917337 380.50000000000114,292.65390309173375 375.5000000000011,301.3141571295781 365.5000000000011,301.3141571295781 360.50000000000114,292.6539030917337 350.5000000000011,292.65390309173364" stroke="black" stroke-linecap="round" stroke-width="3" /><polyline clip-path="url(#border_clip)" fill="none" points="350.5000000000011,292.65390309173364 345.500000000001,301.314157129578 335.500000000001,301.314157129578 340.500000000001,292.6539030917336 330.500000000001,292.6539030917336 335.500000000001,283.99364905388916 345.5000000000011,283.99364905388916 350.50000000000114,275.3333950160448 360.50000000000114,275.33339501604485 365.50000000000114,266.6731409782004 355.50000000000114,266.6731409782004 360.50000000000114,258.012886940356 350.50000000000114,258.012886940356 345.50000000000114,266.67314097820037 335.5000000000011,266.6731409782003 330.500000000001,275.33339501604473 320.500000000001,275.33339501604473 325.500000000001,266.6731409782003 315.500000000001,266.6731409782003 320.500000000001,258.0128869403559 330.5000000000011,258.0128869403559 335.50000000000114,249.35263290251152 345.50000000000114,249.35263290251154 340.50000000000114,240.69237886466715 330.50000000000114,240.6923788646671 335.50000000000114,232.03212482682272 345.5000000000012,232.03212482682272 350.50000000000114,240.69237886466715 360.5000000000012,240.69237886466715 365.50000000000125,232.03212482682278 370.5000000000012,240.6923788646672 365.50000000000114,249.3526329025116 375.5000000000012,249.35263290251163 380.5000000000012,240.69237886466726 375.50000000000125,232.03212482682284 380.50000000000125,223.37187078897847 390.50000000000125,223.37187078897847 385.50000000000125,214.71161675113404 375.50000000000125,214.711616751134 380.5000000000013,206.05136271328962 390.5000000000013,206.05136271328962 395.5000000000013,214.71161675113404 405.5000000000013,214.71161675113404" stroke="black" stroke-linecap="round" stroke-width="3" /><polyline clip-path="url(#border_clip)" fill="none" points="405.5000000000013,214.71161675113404 410.5000000000013,223.37187078897847 420.5000000000013,223.37187078897847 415.5000000000013,214.71161675113404 425.50000000000136,214.71161675113404 420.50000000000136,206.05136271328962 410.50000000000136,206.05136271328956 405.50000000000136,197.39110867544514 395.50000000000136,197.39110867544508 400.50000000000136,188.73085463760071 410.50000000000136,188.73085463760071 405.50000000000136,180.0706005997563 395.50000000000136,180.07060059975623 390.50000000000136,188.7308546376006 380.50000000000136,188.73085463760054 375.5000000000013,197.3911086754449 365.5000000000013,197.39110867544485 370.50000000000136,188.7308546376005 360.5000000000013,188.73085463760043 365.50000000000136,180.07060059975606 375.50000000000136,180.07060059975606 380.50000000000136,171.4103465619117 390.50000000000136,171.4103465619117 385.5000000000014,162.75009252406727 375.50000000000136,162.7500925240672 380.5000000000014,154.08983848622285 390.5000000000014,154.08983848622285 395.5000000000014,162.75009252406727 405.5000000000014,162.75009252406727 410.5000000000014,171.4103465619117 415.5000000000015,162.75009252406733 410.5000000000015,154.0898384862229 420.5000000000015,154.0898384862229 425.5000000000015,162.75009252406733 420.5000000000014,171.4103465619117 425.5000000000014,180.07060059975612 435.5000000000014,180.07060059975612 430.5000000000014,188.7308546376005 420.50000000000136,188.7308546376005 425.50000000000136,197.3911086754449 435.50000000000136,197.3911086754449 440.5000000000014,188.73085463760054 450.5000000000014,188.73085463760054" stroke="black" stroke-linecap="round" stroke-width="3" /><polyline clip-path="url(#border_clip)" fill="none" points="450.5000000000014,188.73085463760054 455.5000000000014,197.39110867544497 460.5000000000015,188.7308546376006 455.5000000000015,180.07060059975618 465.5000000000015,180.07060059975618 470.5000000000015,188.7308546376006 465.5000000000014,197.39110867544497 470.5000000000014,206.0513627132894 465.5000000000014,214.71161675113376 470.50000000000136,223.37187078897819 475.5000000000014,214.71161675113382 480.5000000000014,223.37187078897824 485.5000000000014,214.71161675113387 480.5000000000015,206.05136271328945 485.5000000000015,197.39110867544508 480.5000000000015,188.73085463760066 490.50000000000153,188.73085463760066 495.5000000000015,197.39110867544508 500.50000000000153,188.73085463760071 495.50000000000153,180.0706005997563 485.50000000000153,180.07060059975623 480.50000000000153,171.4103465619118 470.50000000000153,171.41034656191175 465.50000000000153,162.75009252406733 475.5000000000016,162.75009252406733 470.5000000000016,154.0898384862229 480.5000000000016,154.0898384862229 485.5000000000016,162.75009252406733 495.5000000000016,162.75009252406733 500.5000000000016,171.41034656191175 505.5000000000016,162.75009252406738 500.50000000000165,154.08983848622296 510.50000000000165,154.08983848622296 515.5000000000016,162.75009252406738 510.5000000000016,171.41034656191175 515.5000000000016,180.07060059975618 510.5000000000016,188.73085463760054 520.5000000000016,188.73085463760054 525.5000000000016,180.07060059975618 530.5000000000016,188.7308546376006 525.5000000000016,197.39110867544497 515.5000000000016,197.39110867544497 510.50000000000153,206.05136271328934" stroke="black" stroke-linecap="round" stroke-width="3" /><polyline clip-path="url(#border_clip)" fill="none" points="510.50000000000153,206.05136271328934 515.5000000000015,214.71161675113376 505.5000000000015,214.71161675113376 500.50000000000153,206.05136271328934 495.5000000000015,214.7116167511337 500.5000000000015,223.37187078897813 510.5000000000015,223.37187078897813 515.5000000000015,232.03212482682255 525.5000000000015,232.03212482682255 520.5000000000015,240.69237886466692 510.5000000000014,240.69237886466692 515.5000000000015,249.35263290251135 525.5000000000015,249.35263290251137 530.5000000000015,240.69237886466698 540.5000000000015,240.69237886466698 545.5000000000015,232.0321248268226 555.5000000000015,232.0321248268226 550.5000000000015,240.69237886466698 560.5000000000015,240.69237886466698 555.5000000000015,249.35263290251137 545.5000000000015,249.35263290251135 540.5000000000015,258.01288694035577 530.5000000000015,258.0128869403557 535.5000000000014,266.67314097820014 545.5000000000015,266.6731409782002 540.5000000000014,275.33339501604456 530.5000000000014,275.3333950160445 525.5000000000014,266.67314097820014 515.5000000000014,266.6731409782001 510.50000000000136,258.0128869403557 500.50000000000136,258.01288694035566 505.50000000000136,266.6731409782001 495.50000000000136,266.6731409782001 500.5000000000013,275.33339501604445 510.50000000000136,275.3333950160445 515.5000000000014,283.9936490538889 525.5000000000014,283.99364905388893 520.5000000000014,292.6539030917333 510.5000000000013,292.65390309173324 515.5000000000013,301.31415712957767 525.5000000000014,301.31415712957767 530.5000000000014,292.6539030917333 540.5000000000014,292.65390309173335" stroke="black" stroke-linecap="round" stroke-width="3" /><polyline clip-path="url(#border_clip)" fill="none" points="540.5000000000014,292.65390309173335 545.5000000000014,283.99364905388893 550.5000000000014,292.65390309173335 545.5000000000014,301.3141571295778 555.5000000000014,301.3141571295778 560.5000000000014,292.65390309173335 555.5000000000014,283.99364905388893 560.5000000000015,275.33339501604456 570.5000000000015,275.3333950160446 565.5000000000015,266.6731409782002 555.5000000000015,266.67314097820014 560.5000000000015,258.01288694035577 570.5000000000015,258.01288694035577 575.5000000000015,266.6731409782002 585.5000000000015,266.6731409782002 590.5000000000015,258.0128869403558 595.5000000000015,266.67314097820025 590.5000000000015,275.3333950160446 600.5000000000015,275.3333950160447 605.5000000000015,266.6731409782003 600.5000000000016,258.0128869403559 605.5000000000016,249.35263290251146 600.5000000000016,240.69237886466703 605.5000000000016,232.03212482682267 610.5000000000016,240.6923788646671 615.5000000000016,232.03212482682272 620.5000000000016,240.69237886466715 615.5000000000016,249.35263290251154 620.5000000000016,258.01288694035594 615.5000000000016,266.6731409782003 625.5000000000016,266.67314097820037 630.5000000000016,258.012886940356 635.5000000000016,266.67314097820037 630.5000000000016,275.33339501604473 620.5000000000015,275.33339501604473 615.5000000000015,283.99364905388916 605.5000000000015,283.9936490538891 600.5000000000015,292.65390309173347 610.5000000000015,292.6539030917335 605.5000000000015,301.3141571295779 615.5000000000015,301.31415712957795 620.5000000000015,292.6539030917336 630.5000000000015,292.6539030917336" stroke="black" stroke-linecap="round" stroke-width="3" /><polyline clip-path="url(#border_clip)" fill="none" points="630.5000000000015,292.6539030917336 635.5000000000015,283.99364905388916 640.5000000000015,292.6539030917336 635.5000000000015,301.314157129578 645.5000000000015,301.314157129578 650.5000000000015,292.6539030917336 645.5000000000016,283.99364905388916 650.5000000000016,275.3333950160448 645.5000000000016,266.67314097820037 655.5000000000016,266.6731409782004 660.5000000000016,275.3333950160448 665.5000000000016,266.6731409782004 660.5000000000016,258.012886940356 650.5000000000016,258.01288694035594 645.5000000000016,249.35263290251152 650.5000000000016,240.69237886466715 640.5000000000016,240.6923788646671 635.5000000000016,249.35263290251146 630.5000000000016,240.69237886466703 635.5000000000017,232.03212482682267 645.5000000000017,232.03212482682267 650.5000000000017,223.3718707889783 660.5000000000018,223.3718707889783 655.5000000000018,214.71161675113387 645.5000000000018,214.71161675113382 650.5000000000018,206.05136271328945 660.5000000000018,206.05136271328945 665.5000000000018,214.71161675113387 675.5000000000018,214.71161675113387 680.5000000000018,223.3718707889783 690.5000000000018,223.3718707889783 685.5000000000018,214.71161675113387 695.5000000000018,214.71161675113387 690.5000000000019,206.05136271328945 680.5000000000018,206.0513627132894 675.5000000000019,197.39110867544497 665.5000000000018,197.3911086754449 670.5000000000019,188.73085463760054 680.5000000000019,188.73085463760054 675.5000000000019,180.07060059975612 665.5000000000019,180.07060059975606 660.5000000000019,188.73085463760043 650.5000000000018,188.73085463760037" stroke="black" stroke-linecap="round" stroke-width="3" /><polyline clip-path="url(#border_clip)" fill="none" points="650.5000000000018,188.73085463760037 645.5000000000018,197.39110867544474 635.5000000000018,197.39110867544468 640.5000000000018,188.73085463760032 630.5000000000018,188.73085463760026 635.5000000000018,180.0706005997559 645.5000000000018,180.0706005997559 650.5000000000019,171.41034656191152 660.5000000000019,171.41034656191152 655.5000000000019,162.7500925240671 645.5000000000019,162.75009252406704 650.5000000000019,154.08983848622267 660.500000000002,154.08983848622267 665.5000000000019,162.7500925240671 675.500000000002,162.7500925240671 680.5000000000019,171.41034656191152 685.500000000002,162.75009252406716 680.500000000002,154.08983848622273 690.500000000002,154.08983848622273 695.500000000002,162.75009252406716 690.500000000002,171.41034656191152 695.5000000000019,180.07060059975595 705.500000000002,180.07060059975595 700.5000000000019,188.73085463760032 690.5000000000019,188.73085463760032 695.5000000000019,197.39110867544474 705.5000000000019,197.39110867544474 710.5000000000019,188.73085463760037 720.500000000002,188.73085463760037 725.500000000002,180.070600599756 730.500000000002,188.73085463760043 725.5000000000019,197.3911086754448 735.500000000002,197.3911086754448 740.500000000002,188.73085463760043 735.500000000002,180.070600599756 740.500000000002,171.41034656191164 750.500000000002,171.41034656191164 745.5000000000022,162.7500925240672 735.500000000002,162.75009252406716 740.5000000000022,154.0898384862228 750.5000000000022,154.0898384862228 755.5000000000022,162.7500925240672 765.5000000000022,162.7500925240672" stroke="black" stroke-linecap="round" stroke-width="3" /><polyline clip-path="url(#border_clip)" fill="none" points="765.5000000000022,162.7500925240672 770.5000000000023,154.08983848622285 780.5000000000023,154.08983848622285 775.5000000000023,162.7500925240672 785.5000000000023,162.7500925240672 780.5000000000023,171.41034656191158 770.5000000000023,171.41034656191158 765.5000000000023,180.07060059975595 755.5000000000023,180.07060059975595 750.5000000000022,188.73085463760032 760.5000000000023,188.73085463760032 755.5000000000022,197.39110867544468 765.5000000000023,197.39110867544468 770.5000000000023,188.73085463760032 780.5000000000023,188.73085463760032 785.5000000000023,180.07060059975595 795.5000000000023,180.07060059975595 790.5000000000023,188.73085463760032 800.5000000000023,188.73085463760032 795.5000000000023,197.39110867544468 785.5000000000023,197.39110867544468 780.5000000000023,206.05136271328905 770.5000000000023,206.05136271328905 775.5000000000023,214.71161675113348 785.5000000000023,214.71161675113348 780.5000000000023,223.37187078897784 770.5000000000023,223.37187078897784 765.5000000000023,214.71161675113342 755.5000000000023,214.71161675113342 750.5000000000023,223.3718707889778 745.5000000000023,214.71161675113336 750.5000000000023,206.051362713289 740.5000000000023,206.051362713289 735.5000000000023,214.71161675113336 740.5000000000023,223.3718707889778 735.5000000000023,232.03212482682216 725.5000000000023,232.03212482682216 730.5000000000022,240.69237886466658 740.5000000000023,240.69237886466658 735.5000000000022,249.35263290251098 725.5000000000022,249.35263290251095 720.5000000000022,240.69237886466652 710.5000000000022,240.69237886466652" stroke="black" stroke-linecap="round" stroke-width="3" /><polyline clip-path="url(#border_clip)" fill="none" points="710.5000000000022,240.69237886466652 705.5000000000022,249.35263290251092 700.5000000000022,240.69237886466652 705.5000000000022,232.03212482682216 695.5000000000022,232.03212482682216 690.5000000000022,240.69237886466652 695.500000000002,249.35263290251095 690.500000000002,258.0128869403553 680.500000000002,258.0128869403553 675.500000000002,266.67314097819974 685.500000000002,266.67314097819974 680.500000000002,275.33339501604416 690.500000000002,275.33339501604416 695.500000000002,266.67314097819974 705.500000000002,266.6731409781998 710.5000000000022,258.01288694035543 720.5000000000022,258.01288694035543 715.5000000000022,266.67314097819985 725.5000000000022,266.67314097819985 720.5000000000022,275.3333950160443 710.500000000002,275.3333950160442 705.500000000002,283.9936490538886 695.500000000002,283.9936490538886 690.500000000002,292.653903091733 700.500000000002,292.653903091733 695.500000000002,301.31415712957744 705.500000000002,301.31415712957744 710.500000000002,292.653903091733 720.500000000002,292.65390309173307 725.5000000000022,283.9936490538887 730.500000000002,292.65390309173307 725.500000000002,301.31415712957744 735.500000000002,301.3141571295775 740.5000000000022,292.6539030917331 735.5000000000022,283.9936490538887 740.5000000000022,275.3333950160443 750.5000000000023,275.3333950160443 745.5000000000023,266.67314097819985 735.5000000000023,266.67314097819985 740.5000000000023,258.01288694035543 750.5000000000023,258.0128869403555 755.5000000000023,266.6731409781999 765.5000000000023,266.67314097819997" stroke="black" stroke-linecap="round" stroke-width="3" /><polyline clip-path="url(#border_clip)" fill="none" points="765.5000000000023,266.67314097819997 770.5000000000023,258.01288694035554 775.5000000000023,266.67314097819997 770.5000000000023,275.3333950160444 780.5000000000023,275.3333950160444 785.5000000000024,266.67314097819997 780.5000000000024,258.01288694035554 785.5000000000025,249.35263290251117 795.5000000000025,249.3526329025112 790.5000000000025,240.6923788646668 780.5000000000025,240.69237886466675 785.5000000000025,232.03212482682238 795.5000000000025,232.03212482682238 800.5000000000025,240.6923788646668 810.5000000000025,240.6923788646668 815.5000000000025,232.03212482682244 825.5000000000025,232.03212482682244 820.5000000000025,240.6923788646668 830.5000000000025,240.6923788646668 825.5000000000025,249.3526329025112 815.5000000000025,249.35263290251117 810.5000000000025,258.01288694035554 800.5000000000025,258.01288694035554 795.5000000000025,266.67314097819997 805.5000000000025,266.67314097819997 800.5000000000025,275.3333950160444 810.5000000000025,275.3333950160444 815.5000000000026,266.67314097819997 825.5000000000026,266.6731409782 830.5000000000027,258.01288694035566 840.5000000000027,258.01288694035566 835.5000000000027,266.6731409782001 845.5000000000027,266.6731409782001 840.5000000000027,275.3333950160445 830.5000000000027,275.33339501604445 825.5000000000027,283.9936490538888 815.5000000000027,283.9936490538888 820.5000000000027,292.65390309173324 830.5000000000027,292.65390309173324 825.5000000000027,301.31415712957767 815.5000000000027,301.31415712957767 810.5000000000027,292.65390309173324 800.5000000000027,292.65390309173324" stroke="black" stroke-linecap="round" stroke-width="3" /><polyline clip-path="url(#border_clip)" fill="none" points="800.5000000000027,292.65390309173324 795.5000000000027,301.3141571295776 790.5000000000027,292.65390309173324 795.5000000000027,283.9936490538888 785.5000000000027,283.9936490538888 780.5000000000027,292.6539030917332 785.5000000000027,301.3141571295776 780.5000000000027,309.974411167422 770.5000000000027,309.974411167422 775.5000000000027,318.6346652052664 785.5000000000027,318.6346652052664 780.5000000000027,327.2949192431108 770.5000000000027,327.2949192431108 765.5000000000027,318.6346652052664 755.5000000000027,318.6346652052664 750.5000000000027,309.974411167422 740.5000000000027,309.974411167422 745.5000000000026,318.63466520526634 735.5000000000026,318.6346652052663 740.5000000000026,327.2949192431107 750.5000000000026,327.2949192431107 755.5000000000026,335.95517328095514 765.5000000000026,335.95517328095514 760.5000000000026,344.61542731879956 750.5000000000026,344.61542731879956 755.5000000000026,353.27568135664393 765.5000000000026,353.275681356644 770.5000000000027,344.61542731879956 780.5000000000027,344.61542731879956 785.5000000000027,335.9551732809552 795.5000000000027,335.95517328095525 790.5000000000027,344.6154273187996 800.5000000000027,344.6154273187997 795.5000000000027,353.27568135664404 785.5000000000027,353.275681356644 780.5000000000027,361.9359353944884 770.5000000000027,361.9359353944884 775.5000000000027,370.5961894323328 785.5000000000027,370.59618943233284 780.5000000000027,379.2564434701772 770.5000000000027,379.25644347017715 765.5000000000027,370.5961894323327 755.5000000000027,370.5961894323327" stroke="black" stroke-linecap="round" stroke-width="3" /><polyline clip-path="url(#border_clip)" fill="none" points="755.5000000000027,370.5961894323327 750.5000000000027,361.9359353944883 745.5000000000027,370.5961894323327 750.5000000000027,379.25644347017715 740.5000000000027,379.2564434701771 735.5000000000027,370.5961894323327 740.5000000000027,361.9359353944883 735.5000000000027,353.2756813566439 725.5000000000027,353.2756813566439 730.5000000000027,344.61542731879945 740.5000000000027,344.6154273187995 735.5000000000027,335.95517328095514 725.5000000000027,335.9551732809551 720.5000000000027,344.61542731879945 710.5000000000027,344.61542731879945 705.5000000000026,353.2756813566439 700.5000000000026,344.61542731879945 705.5000000000027,335.955173280955 695.5000000000027,335.955173280955 690.5000000000026,344.61542731879945 695.5000000000026,353.2756813566438 690.5000000000026,361.9359353944882 695.5000000000025,370.5961894323326 690.5000000000025,379.256443470177 685.5000000000025,370.5961894323326 680.5000000000025,379.256443470177 675.5000000000025,370.59618943233255 680.5000000000025,361.9359353944882 675.5000000000025,353.27568135664376 680.5000000000025,344.61542731879933 670.5000000000025,344.61542731879933 665.5000000000025,353.27568135664376 660.5000000000025,344.61542731879933 665.5000000000025,335.9551732809549 675.5000000000025,335.95517328095497 680.5000000000026,327.2949192431106 690.5000000000026,327.2949192431106 695.5000000000026,318.6346652052662 685.5000000000026,318.6346652052662 690.5000000000026,309.97441116742175 680.5000000000026,309.97441116742175 675.5000000000026,318.6346652052662 665.5000000000025,318.6346652052661" stroke="black" stroke-linecap="round" stroke-width="3" /><polyline clip-path="url(#border_clip)" fill="none" points="665.5000000000025,318.6346652052661 660.5000000000025,327.2949192431105 655.5000000000025,318.6346652052661 660.5000000000025,309.97441116742175 650.5000000000025,309.9744111674217 645.5000000000025,318.63466520526606 650.5000000000025,327.2949192431105 645.5000000000025,335.9551732809549 650.5000000000025,344.6154273187993 640.5000000000025,344.6154273187992 635.5000000000025,335.95517328095485 630.5000000000024,344.6154273187992 635.5000000000024,353.27568135664364 645.5000000000024,353.27568135664364 650.5000000000024,361.93593539448807 645.5000000000023,370.5961894323325 655.5000000000023,370.5961894323325 660.5000000000024,361.93593539448807 665.5000000000023,370.5961894323325 660.5000000000023,379.25644347017686 650.5000000000023,379.25644347017686 645.5000000000023,387.91669750802123 650.5000000000023,396.57695154586565 640.5000000000023,396.5769515458656 635.5000000000023,387.91669750802123 630.5000000000022,396.5769515458656 635.5000000000022,405.23720558370997 645.5000000000022,405.23720558371 650.5000000000022,413.89745962155445 660.5000000000022,413.89745962155445 665.5000000000022,422.55771365939887 655.500000000002,422.5577136593988 660.500000000002,431.21796769724324 650.500000000002,431.21796769724324 645.500000000002,422.5577136593988 635.500000000002,422.5577136593988 630.500000000002,413.8974596215544 625.500000000002,422.55771365939876 630.500000000002,431.2179676972432 620.5000000000019,431.2179676972431 615.500000000002,422.5577136593987 620.500000000002,413.89745962155433 615.500000000002,405.2372055837099" stroke="black" stroke-linecap="round" stroke-width="3" /><polyline clip-path="url(#border_clip)" fill="none" points="615.500000000002,405.2372055837099 620.500000000002,396.57695154586554 615.500000000002,387.9166975080211 610.500000000002,396.57695154586554 605.500000000002,387.9166975080211 600.500000000002,396.5769515458655 605.500000000002,405.2372055837099 600.500000000002,413.8974596215543 605.5000000000019,422.5577136593987 595.5000000000019,422.55771365939864 590.5000000000019,413.8974596215543 585.5000000000019,422.55771365939864 590.5000000000019,431.217967697243 600.5000000000019,431.21796769724307 605.5000000000019,439.8782217350875 615.5000000000019,439.8782217350875 610.5000000000019,448.53847577293186 600.5000000000019,448.53847577293186 605.5000000000019,457.1987298107763 615.5000000000019,457.1987298107763 620.5000000000019,448.5384757729319 630.5000000000019,448.538475772932 635.5000000000019,457.19872981077634 640.5000000000019,448.538475772932 635.5000000000019,439.87822173508755 645.500000000002,439.8782217350876 650.5000000000019,448.53847577293203 645.5000000000019,457.1987298107764 650.5000000000019,465.8589838486208 645.5000000000018,474.5192378864652 655.5000000000018,474.51923788646525 660.5000000000019,465.8589838486208 665.5000000000018,474.51923788646525 660.5000000000018,483.1794919243096 650.5000000000018,483.1794919243096 645.5000000000018,491.839745962154 635.5000000000018,491.839745962154 630.5000000000017,500.49999999999835 640.5000000000018,500.4999999999984 635.5000000000017,509.1602540378428 645.5000000000018,509.1602540378428 650.5000000000018,500.4999999999984 660.5000000000018,500.49999999999847" stroke="black" stroke-linecap="round" stroke-width="3" /><polyline clip-path="url(#border_clip)" fill="none" points="660.5000000000018,500.49999999999847 665.5000000000018,491.83974596215404 670.5000000000018,500.49999999999847 665.5000000000018,509.16025403784283 675.5000000000018,509.1602540378429 680.5000000000018,500.4999999999985 675.5000000000018,491.8397459621541 680.5000000000019,483.1794919243097 675.5000000000019,474.5192378864653 680.5000000000019,465.85898384862094 685.5000000000019,474.5192378864653 690.5000000000019,465.85898384862094 695.5000000000019,474.51923788646536 690.5000000000019,483.17949192430973 695.5000000000018,491.83974596215415 690.5000000000018,500.4999999999985 700.5000000000018,500.4999999999986 705.5000000000019,491.83974596215415 710.5000000000018,500.4999999999986 705.5000000000018,509.16025403784295 695.5000000000018,509.16025403784295 690.5000000000018,517.8205080756874 680.5000000000018,517.8205080756873 685.5000000000017,526.4807621135317 695.5000000000018,526.4807621135318 690.5000000000017,535.1410161513761 680.5000000000017,535.1410161513761 675.5000000000017,526.4807621135317 665.5000000000017,526.4807621135317 660.5000000000017,535.1410161513761 655.5000000000017,526.4807621135317 660.5000000000017,517.8205080756873 650.5000000000017,517.8205080756873 645.5000000000017,526.4807621135317 650.5000000000016,535.141016151376 645.5000000000016,543.8012701892204 650.5000000000016,552.4615242270648 640.5000000000016,552.4615242270648 635.5000000000016,543.8012701892204 630.5000000000016,552.4615242270647 635.5000000000016,561.1217782649092 645.5000000000016,561.1217782649093 650.5000000000015,569.7820323027536" stroke="black" stroke-linecap="round" stroke-width="3" /><polyline clip-path="url(#border_clip)" fill="none" points="650.5000000000015,569.7820323027536 645.5000000000015,578.442286340598 655.5000000000015,578.442286340598 660.5000000000015,569.7820323027537 665.5000000000015,578.4422863405981 660.5000000000015,587.1025403784424 650.5000000000014,587.1025403784424 645.5000000000014,595.7627944162869 650.5000000000014,604.4230484541313 645.5000000000014,613.0833024919756 640.5000000000014,604.4230484541312 635.5000000000014,613.0833024919756 630.5000000000014,604.4230484541312 635.5000000000014,595.7627944162867 630.5000000000014,587.1025403784423 635.5000000000014,578.442286340598 630.5000000000014,569.7820323027536 625.5000000000014,578.442286340598 620.5000000000014,569.7820323027536 615.5000000000014,578.4422863405979 620.5000000000014,587.1025403784423 615.5000000000013,595.7627944162867 620.5000000000013,604.4230484541312 615.5000000000013,613.0833024919755 610.5000000000013,604.423048454131 605.5000000000013,613.0833024919755 600.5000000000013,604.423048454131 605.5000000000013,595.7627944162866 600.5000000000013,587.1025403784423 605.5000000000014,578.4422863405979 595.5000000000013,578.4422863405979 590.5000000000013,587.1025403784422 585.5000000000013,578.4422863405978 590.5000000000014,569.7820323027535 600.5000000000014,569.7820323027535 605.5000000000014,561.121778264909 600.5000000000014,552.4615242270646 610.5000000000014,552.4615242270647 615.5000000000014,561.121778264909 620.5000000000014,552.4615242270647 615.5000000000014,543.8012701892203 605.5000000000014,543.8012701892203 600.5000000000014,535.1410161513759" stroke="black" stroke-linecap="round" stroke-width="3" /><polyline clip-path="url(#border_clip)" fill="none" points="600.5000000000014,535.1410161513759 590.5000000000014,535.1410161513759 595.5000000000014,526.4807621135315 605.5000000000015,526.4807621135315 600.5000000000015,517.820508075687 590.5000000000015,517.820508075687 585.5000000000014,526.4807621135315 575.5000000000014,526.4807621135313 570.5000000000014,517.820508075687 565.5000000000014,526.4807621135313 570.5000000000014,535.1410161513758 560.5000000000014,535.1410161513758 555.5000000000014,526.4807621135313 560.5000000000014,517.8205080756869 555.5000000000014,509.16025403784255 545.5000000000014,509.16025403784255 540.5000000000014,500.4999999999981 550.5000000000014,500.4999999999981 545.5000000000015,491.83974596215376 555.5000000000015,491.83974596215376 560.5000000000015,500.4999999999982 570.5000000000015,500.4999999999982 575.5000000000015,491.8397459621538 585.5000000000015,491.8397459621538 580.5000000000015,500.4999999999982 575.5000000000015,509.1602540378426 585.5000000000015,509.1602540378426 590.5000000000015,500.49999999999824 600.5000000000015,500.49999999999824 605.5000000000015,509.16025403784266 615.5000000000015,509.16025403784266 610.5000000000015,500.49999999999824 620.5000000000015,500.4999999999983 615.5000000000016,491.83974596215387 605.5000000000015,491.83974596215387 600.5000000000016,483.17949192430945 590.5000000000015,483.1794919243094 595.5000000000016,474.519237886465 605.5000000000016,474.519237886465 600.5000000000016,465.8589838486206 590.5000000000016,465.8589838486206 585.5000000000016,474.519237886465 575.5000000000015,474.51923788646496" stroke="black" stroke-linecap="round" stroke-width="3" /><polyline clip-path="url(#border_clip)" fill="none" points="575.5000000000015,474.51923788646496 570.5000000000016,465.85898384862054 565.5000000000015,474.51923788646496 570.5000000000015,483.17949192430933 560.5000000000015,483.17949192430933 555.5000000000015,474.5192378864649 560.5000000000015,465.85898384862054 555.5000000000015,457.1987298107761 560.5000000000016,448.53847577293175 550.5000000000016,448.53847577293175 545.5000000000015,457.1987298107761 540.5000000000015,448.5384757729317 545.5000000000016,439.8782217350873 555.5000000000016,439.8782217350873 560.5000000000016,431.2179676972429 555.5000000000016,422.55771365939853 565.5000000000016,422.55771365939853 570.5000000000016,431.21796769724295 575.5000000000016,422.55771365939853 570.5000000000016,413.89745962155416 560.5000000000016,413.8974596215541 555.5000000000016,405.2372055837097 560.5000000000016,396.5769515458653 555.5000000000017,387.9166975080209 550.5000000000016,396.5769515458653 545.5000000000016,387.9166975080209 540.5000000000016,396.57695154586526 545.5000000000016,405.2372055837097 540.5000000000016,413.89745962155405 545.5000000000016,422.5577136593985 540.5000000000015,431.21796769724284 535.5000000000016,422.5577136593984 530.5000000000015,431.2179676972428 525.5000000000015,422.5577136593984 530.5000000000016,413.897459621554 525.5000000000016,405.2372055837096 530.5000000000016,396.5769515458652 525.5000000000016,387.9166975080208 520.5000000000016,396.5769515458652 515.5000000000016,387.9166975080208 510.50000000000153,396.57695154586514 515.5000000000015,405.23720558370957 510.5000000000015,413.89745962155393" stroke="black" stroke-linecap="round" stroke-width="3" /><polyline clip-path="url(#border_clip)" fill="none" points="510.5000000000015,413.89745962155393 515.5000000000015,422.55771365939836 505.5000000000015,422.5577136593983 500.5000000000015,413.89745962155393 495.5000000000015,422.5577136593983 500.5000000000014,431.2179676972427 510.5000000000015,431.2179676972427 515.5000000000015,439.87822173508715 510.5000000000014,448.5384757729315 520.5000000000015,448.5384757729316 525.5000000000015,439.8782217350872 530.5000000000015,448.5384757729316 525.5000000000014,457.198729810776 515.5000000000014,457.19872981077594 510.50000000000136,465.85898384862037 515.5000000000014,474.51923788646474 505.50000000000136,474.51923788646474 500.50000000000136,465.8589838486203 495.5000000000013,474.51923788646474 500.5000000000013,483.1794919243091 510.5000000000013,483.17949192430916 515.5000000000014,491.8397459621536 525.5000000000014,491.8397459621536 530.5000000000014,500.499999999998 520.5000000000013,500.499999999998 525.5000000000013,509.1602540378424 515.5000000000013,509.1602540378424 510.5000000000013,500.49999999999795 500.50000000000125,500.49999999999795 495.50000000000125,491.83974596215353 490.50000000000125,500.4999999999979 495.50000000000125,509.1602540378423 485.5000000000012,509.1602540378423 480.50000000000125,500.4999999999979 485.50000000000125,491.83974596215353 480.50000000000125,483.1794919243091 485.5000000000013,474.5192378864647 480.5000000000013,465.8589838486203 475.50000000000125,474.5192378864647 470.5000000000013,465.85898384862026 465.50000000000125,474.5192378864647 470.50000000000125,483.17949192430905 465.5000000000012,491.8397459621535" stroke="black" stroke-linecap="round" stroke-width="3" /><polyline clip-path="url(#border_clip)" fill="none" points="465.5000000000012,491.8397459621535 470.5000000000012,500.4999999999979 460.5000000000012,500.49999999999784 455.5000000000012,491.8397459621534 450.50000000000114,500.49999999999784 455.50000000000114,509.16025403784226 465.50000000000114,509.16025403784226 470.50000000000114,517.8205080756867 480.50000000000114,517.8205080756867 475.50000000000114,526.4807621135311 465.50000000000114,526.4807621135311 470.50000000000114,535.1410161513754 480.50000000000114,535.1410161513755 485.50000000000114,526.4807621135311 495.5000000000012,526.4807621135311 500.50000000000114,535.1410161513755 505.5000000000012,526.4807621135312 500.5000000000012,517.8205080756868 510.50000000000125,517.8205080756868 515.5000000000013,526.4807621135312 510.5000000000012,535.1410161513757 515.5000000000011,543.80127018922 510.50000000000114,552.4615242270644 520.5000000000011,552.4615242270644 525.5000000000011,543.8012701892201 530.5000000000011,552.4615242270645 525.5000000000011,561.1217782649088 515.5000000000011,561.1217782649088 510.5000000000011,569.7820323027532 500.5000000000011,569.7820323027531 495.500000000001,578.4422863405975 505.5000000000011,578.4422863405975 500.500000000001,587.102540378442 510.500000000001,587.102540378442 515.5000000000011,578.4422863405977 525.5000000000011,578.4422863405977 530.5000000000011,569.7820323027532 535.5000000000011,578.4422863405977 530.5000000000011,587.1025403784421 540.5000000000011,587.1025403784421 545.5000000000011,578.4422863405978 540.5000000000011,569.7820323027534 545.5000000000011,561.1217782649089" stroke="black" stroke-linecap="round" stroke-width="3" /><polyline clip-path="url(#border_clip)" fill="none" points="545.5000000000011,561.1217782649089 540.5000000000013,552.4615242270645 545.5000000000013,543.8012701892201 550.5000000000013,552.4615242270645 555.5000000000013,543.8012701892201 560.5000000000013,552.4615242270645 555.5000000000013,561.1217782649089 560.5000000000013,569.7820323027534 555.5000000000011,578.4422863405978 565.5000000000013,578.4422863405978 570.5000000000013,569.7820323027534 575.5000000000013,578.4422863405978 570.5000000000011,587.1025403784422 560.5000000000011,587.1025403784422 555.5000000000011,595.7627944162866 545.5000000000011,595.7627944162865 550.5000000000011,604.4230484541309 560.5000000000011,604.423048454131 555.5000000000011,613.0833024919754 545.500000000001,613.0833024919754 540.500000000001,604.4230484541309 530.500000000001,604.4230484541309 525.500000000001,613.0833024919754 520.500000000001,604.4230484541309 525.500000000001,595.7627944162865 515.500000000001,595.7627944162865 510.50000000000097,604.4230484541308 515.500000000001,613.0833024919752 510.50000000000097,621.7435565298197 500.5000000000009,621.7435565298197 505.5000000000009,630.4038105676641 515.5000000000009,630.4038105676641 510.5000000000009,639.0640646055085 500.50000000000085,639.0640646055085 495.5000000000009,630.4038105676641 485.50000000000085,630.403810567664 480.50000000000085,621.7435565298196 470.50000000000085,621.7435565298196 475.50000000000085,630.403810567664 465.5000000000008,630.403810567664 470.5000000000008,639.0640646055084 480.5000000000008,639.0640646055084 485.5000000000008,647.7243186433528" stroke="black" stroke-linecap="round" stroke-width="3" /><polyline clip-path="url(#border_clip)" fill="none" points="485.5000000000008,647.7243186433528 495.50000000000085,647.7243186433528 490.5000000000008,656.3845726811973 480.5000000000008,656.3845726811973 485.50000000000074,665.0448267190417 495.5000000000008,665.0448267190417 500.5000000000008,656.3845726811973 510.50000000000085,656.3845726811974 515.5000000000009,647.724318643353 525.5000000000009,647.724318643353 520.5000000000009,656.3845726811974 530.5000000000009,656.3845726811974 525.5000000000009,665.0448267190418 515.5000000000008,665.0448267190418 510.5000000000008,673.7050807568861 500.5000000000008,673.7050807568861 505.5000000000008,682.3653347947305 515.5000000000008,682.3653347947305 510.50000000000074,691.025588832575 500.50000000000074,691.025588832575 495.50000000000074,682.3653347947305 485.50000000000074,682.3653347947304 480.50000000000074,673.705080756886 475.5000000000007,682.3653347947304 480.5000000000007,691.0255888325748 470.5000000000006,691.0255888325748 465.5000000000007,682.3653347947304 470.5000000000007,673.705080756886 465.5000000000007,665.0448267190416 455.5000000000007,665.0448267190416 460.5000000000007,656.3845726811971 470.50000000000074,656.3845726811971 465.50000000000074,647.7243186433527 455.5000000000007,647.7243186433527 450.5000000000007,656.3845726811971 440.5000000000006,656.3845726811971 435.5000000000006,665.0448267190416 430.5000000000006,656.3845726811971 435.5000000000007,647.7243186433527 425.5000000000006,647.7243186433527 420.50000000000057,656.384572681197 425.50000000000057,665.0448267190415 420.50000000000057,673.7050807568859" stroke="black" stroke-linecap="round" stroke-width="3" /><polyline clip-path="url(#border_clip)" fill="none" points="420.50000000000057,673.7050807568859 425.5000000000005,682.3653347947303 420.50000000000045,691.0255888325747 415.5000000000005,682.3653347947303 410.50000000000045,691.0255888325746 405.50000000000045,682.3653347947302 410.5000000000005,673.7050807568859 405.5000000000005,665.0448267190415 410.50000000000057,656.384572681197 400.5000000000005,656.384572681197 395.50000000000045,665.0448267190413 390.5000000000005,656.3845726811969 395.5000000000005,647.7243186433526 405.50000000000057,647.7243186433526 410.50000000000057,639.0640646055082 420.5000000000006,639.0640646055083 425.5000000000006,630.4038105676639 415.5000000000006,630.4038105676639 420.5000000000006,621.7435565298194 410.5000000000006,621.7435565298194 405.50000000000057,630.4038105676638 395.50000000000057,630.4038105676638 390.5000000000005,639.0640646055082 385.50000000000057,630.4038105676638 390.50000000000057,621.7435565298193 380.50000000000057,621.7435565298193 375.5000000000005,630.4038105676636 380.5000000000005,639.0640646055081 375.50000000000045,647.7243186433525 380.50000000000045,656.3845726811969 370.50000000000045,656.3845726811969 365.50000000000045,647.7243186433525 360.5000000000004,656.3845726811969 365.5000000000004,665.0448267190413 375.50000000000045,665.0448267190413 380.5000000000004,673.7050807568858 375.50000000000034,682.3653347947302 385.5000000000004,682.3653347947302 390.50000000000045,673.7050807568858 395.50000000000045,682.3653347947302 390.5000000000004,691.0255888325746 380.50000000000034,691.0255888325746 375.50000000000034,699.685842870419" stroke="black" stroke-linecap="round" stroke-width="3" /><polyline clip-path="url(#border_clip)" fill="none" points="375.50000000000034,699.685842870419 365.50000000000034,699.6858428704189 370.50000000000034,708.3460969082633 380.50000000000034,708.3460969082635 375.50000000000034,717.0063509461078 365.5000000000003,717.0063509461078 360.5000000000003,708.3460969082633 350.5000000000002,708.3460969082633 345.5000000000002,717.0063509461077 340.5000000000002,708.3460969082632 345.5000000000002,699.6858428704189 335.5000000000002,699.6858428704188 330.5000000000002,708.3460969082632 335.5000000000002,717.0063509461077 330.50000000000017,725.6666049839521 320.5000000000001,725.6666049839521 315.5000000000001,734.3268590217965 325.5000000000001,734.3268590217965 320.5000000000001,742.9871130596409 330.5000000000001,742.9871130596409 335.50000000000017,734.3268590217965 345.5000000000002,734.3268590217965 350.5000000000002,725.6666049839521 360.5000000000002,725.6666049839522 355.5000000000002,734.3268590217965 365.5000000000002,734.3268590217966 360.5000000000002,742.9871130596409 350.5000000000002,742.9871130596409 345.50000000000017,751.6473670974854 335.5000000000001,751.6473670974854 330.5000000000001,760.3076211353298 340.5000000000001,760.3076211353298 335.5000000000001,768.9678751731741 345.5000000000001,768.9678751731742 350.50000000000017,760.3076211353298 360.5000000000002,760.3076211353298 365.5000000000002,751.6473670974855 370.5000000000002,760.3076211353298 365.5000000000002,768.9678751731742 375.5000000000002,768.9678751731742 380.5000000000003,760.3076211353299 375.5000000000003,751.6473670974855 380.50000000000034,742.987113059641" stroke="black" stroke-linecap="round" stroke-width="3" /><polyline clip-path="url(#border_clip)" fill="none" points="380.50000000000034,742.987113059641 390.50000000000034,742.9871130596412 385.50000000000034,734.3268590217967 375.50000000000034,734.3268590217966 380.5000000000004,725.6666049839523 390.5000000000004,725.6666049839523 395.5000000000004,734.3268590217967 405.50000000000045,734.3268590217967 410.50000000000045,725.6666049839523 415.50000000000045,734.3268590217967 410.5000000000004,742.9871130596412 420.50000000000045,742.9871130596412 425.50000000000045,734.3268590217967 420.5000000000005,725.6666049839523 425.50000000000057,717.006350946108 435.50000000000057,717.006350946108 430.50000000000057,708.3460969082636 420.50000000000057,708.3460969082636 425.50000000000057,699.6858428704192 435.5000000000006,699.6858428704192 440.5000000000006,708.3460969082636 450.5000000000006,708.3460969082637 455.5000000000007,699.6858428704193 465.5000000000007,699.6858428704193 460.5000000000007,708.3460969082637 470.5000000000007,708.3460969082637 465.5000000000007,717.0063509461081 455.5000000000006,717.0063509461081 450.50000000000057,725.6666049839524 440.50000000000057,725.6666049839524 435.5000000000005,734.3268590217968 445.50000000000057,734.3268590217968 440.5000000000005,742.9871130596413 450.5000000000005,742.9871130596413 455.50000000000057,734.3268590217968 465.50000000000057,734.326859021797 470.5000000000006,725.6666049839525 480.5000000000007,725.6666049839525 475.5000000000006,734.326859021797 485.5000000000007,734.326859021797 480.5000000000006,742.9871130596414 470.50000000000057,742.9871130596414 465.50000000000057,751.6473670974857" stroke="black" stroke-linecap="round" stroke-width="3" /><polyline clip-path="url(#border_clip)" fill="none" points="465.50000000000057,751.6473670974857 455.5000000000005,751.6473670974857 460.5000000000005,760.3076211353301 470.5000000000005,760.3076211353302 465.5000000000005,768.9678751731745 455.50000000000045,768.9678751731744 450.50000000000045,760.30762113533 440.50000000000045,760.30762113533 435.5000000000004,768.9678751731744 430.5000000000004,760.30762113533 435.50000000000045,751.6473670974856 425.50000000000045,751.6473670974856 420.5000000000004,760.3076211353299 425.50000000000034,768.9678751731743 420.50000000000034,777.6281292110186 410.5000000000003,777.6281292110186 415.5000000000003,786.288383248863 425.50000000000034,786.288383248863 420.5000000000003,794.9486372867075 410.5000000000002,794.9486372867075 405.5000000000002,786.288383248863 395.5000000000002,786.2883832488629 390.50000000000017,794.9486372867073 385.5000000000002,786.2883832488628 390.5000000000002,777.6281292110185 380.5000000000002,777.6281292110184 375.50000000000017,786.2883832488628 380.50000000000017,794.9486372867073 375.5000000000001,803.6088913245517 365.5000000000001,803.6088913245516 360.50000000000006,812.2691453623959 370.5000000000001,812.269145362396 365.50000000000006,820.9293994002403 375.5000000000001,820.9293994002404 380.5000000000001,812.2691453623961 390.50000000000017,812.2691453623961 395.5000000000002,803.6088913245517 405.5000000000002,803.6088913245518 400.50000000000017,812.2691453623961 410.5000000000002,812.2691453623962 405.50000000000017,820.9293994002405 395.5000000000001,820.9293994002405 390.5000000000001,829.589653438085" stroke="black" stroke-linecap="round" stroke-width="3" /><polyline clip-path="url(#border_clip)" fill="none" points="390.5000000000001,829.589653438085 380.50000000000006,829.5896534380848 375.5,838.2499074759291 385.50000000000006,838.2499074759293 380.5,846.9101615137736 390.50000000000006,846.9101615137737 395.5000000000001,838.2499074759294 405.5000000000001,838.2499074759294 410.50000000000017,829.589653438085 415.5000000000001,838.2499074759294 410.5000000000001,846.9101615137738 420.5000000000001,846.9101615137738 425.50000000000017,838.2499074759295 420.50000000000017,829.5896534380851 425.5000000000002,820.9293994002408 435.5000000000002,820.9293994002408 430.5000000000003,812.2691453623963 420.5000000000002,812.2691453623963 425.5000000000003,803.6088913245519 435.50000000000034,803.6088913245519 440.5000000000003,812.2691453623963 450.50000000000034,812.2691453623964 455.50000000000034,803.6088913245521 460.50000000000034,812.2691453623966 455.50000000000034,820.9293994002409 465.50000000000034,820.929399400241 470.5000000000004,812.2691453623966 465.5000000000004,803.6088913245521 470.50000000000045,794.9486372867077 465.50000000000045,786.2883832488633 470.5000000000005,777.628129211019 475.5000000000005,786.2883832488634 480.5000000000005,777.6281292110191 485.5000000000005,786.2883832488635 480.50000000000045,794.9486372867078 485.50000000000045,803.6088913245522 480.50000000000045,812.2691453623966 490.50000000000045,812.2691453623967 495.5000000000005,803.6088913245524 500.50000000000045,812.2691453623968 495.50000000000045,820.9293994002411 485.5000000000004,820.929399400241 480.5000000000004,829.5896534380854" stroke="black" stroke-linecap="round" stroke-width="3" /><polyline clip-path="url(#border_clip)" fill="none" points="480.5000000000004,829.5896534380854 470.50000000000034,829.5896534380854 465.5000000000003,838.2499074759297 475.50000000000034,838.2499074759298 470.5000000000003,846.9101615137741 480.50000000000034,846.9101615137743 485.50000000000034,838.2499074759298 495.5000000000004,838.2499074759298 500.50000000000045,829.5896534380855 505.5000000000004,838.24990747593 500.5000000000004,846.9101615137743 510.5000000000004,846.9101615137744 515.5000000000005,838.2499074759301 510.50000000000045,829.5896534380856 515.5000000000005,820.9293994002412 510.5000000000005,812.2691453623968 520.5000000000006,812.2691453623968 525.5000000000006,820.9293994002412 530.5000000000006,812.2691453623969 525.5000000000006,803.6088913245525 515.5000000000006,803.6088913245524 510.50000000000057,794.9486372867079 515.5000000000007,786.2883832488636 505.5000000000006,786.2883832488635 500.50000000000057,794.9486372867079 495.50000000000057,786.2883832488635 500.5000000000006,777.6281292110191 510.5000000000007,777.6281292110192 515.5000000000007,768.9678751731749 525.5000000000007,768.9678751731749 520.5000000000008,760.3076211353305 510.50000000000074,760.3076211353305 515.5000000000008,751.647367097486 525.5000000000008,751.647367097486 530.5000000000008,760.3076211353305 540.5000000000008,760.3076211353305 545.5000000000008,768.9678751731749 555.5000000000008,768.967875173175 550.5000000000008,760.3076211353306 560.5000000000009,760.3076211353307 555.5000000000009,751.6473670974863 545.5000000000009,751.6473670974862 540.5000000000009,742.9871130596417" stroke="black" stroke-linecap="round" stroke-width="3" /><polyline clip-path="url(#border_clip)" fill="none" points="540.5000000000009,742.9871130596417 530.5000000000008,742.9871130596417 535.5000000000009,734.3268590217973 545.5000000000009,734.3268590217974 540.5000000000009,725.666604983953 530.5000000000009,725.6666049839529 525.5000000000009,734.3268590217973 515.5000000000008,734.3268590217973 510.5000000000008,742.9871130596416 500.50000000000074,742.9871130596416 505.5000000000008,734.3268590217972 495.5000000000008,734.3268590217972 500.50000000000085,725.6666049839528 510.50000000000085,725.6666049839529 515.5000000000009,717.0063509461085 525.5000000000009,717.0063509461085 520.5000000000009,708.346096908264 510.5000000000009,708.346096908264 515.5000000000009,699.6858428704196 525.500000000001,699.6858428704197 530.500000000001,708.3460969082641 540.500000000001,708.3460969082641 545.500000000001,717.0063509461086 550.500000000001,708.3460969082641 545.500000000001,699.6858428704197 555.5000000000011,699.6858428704197 560.500000000001,708.3460969082641 555.500000000001,717.0063509461086 560.500000000001,725.666604983953 570.500000000001,725.666604983953 565.500000000001,734.3268590217974 555.5000000000009,734.3268590217974 560.5000000000009,742.9871130596418 570.500000000001,742.9871130596418 575.500000000001,734.3268590217974 585.500000000001,734.3268590217974 590.5000000000011,725.6666049839531 595.5000000000011,734.3268590217975 590.500000000001,742.9871130596418 600.500000000001,742.987113059642 605.5000000000011,734.3268590217975 600.5000000000011,725.6666049839531 605.5000000000011,717.0063509461087" stroke="black" stroke-linecap="round" stroke-width="3" /><polyline clip-path="url(#border_clip)" fill="none" points="605.5000000000011,717.0063509461087 600.5000000000011,708.3460969082643 605.5000000000013,699.68584287042 610.5000000000013,708.3460969082644 615.5000000000013,699.68584287042 620.5000000000013,708.3460969082644 615.5000000000011,717.0063509461088 620.5000000000011,725.6666049839532 615.5000000000011,734.3268590217975 625.5000000000011,734.3268590217976 630.5000000000013,725.6666049839532 635.5000000000011,734.3268590217976 630.5000000000011,742.9871130596421 620.5000000000011,742.987113059642 615.5000000000011,751.6473670974864 605.500000000001,751.6473670974864 600.500000000001,760.3076211353307 610.500000000001,760.3076211353308 605.500000000001,768.9678751731751 615.500000000001,768.9678751731752 620.5000000000011,760.3076211353309 630.5000000000011,760.3076211353309 635.5000000000011,751.6473670974865 640.5000000000011,760.3076211353309 635.5000000000011,768.9678751731753 645.5000000000011,768.9678751731753 650.5000000000011,760.307621135331 645.5000000000013,751.6473670974866 650.5000000000013,742.9871130596422 645.5000000000014,734.3268590217978 655.5000000000014,734.3268590217979 660.5000000000014,742.9871130596423 665.5000000000014,734.3268590217979 660.5000000000014,725.6666049839534 650.5000000000014,725.6666049839534 645.5000000000014,717.006350946109 650.5000000000015,708.3460969082646 640.5000000000014,708.3460969082646 635.5000000000014,717.0063509461089 630.5000000000014,708.3460969082645 635.5000000000015,699.6858428704202 645.5000000000015,699.6858428704202 650.5000000000016,691.0255888325757" stroke="black" stroke-linecap="round" stroke-width="3" /><polyline clip-path="url(#border_clip)" fill="none" points="650.5000000000016,691.0255888325757 645.5000000000016,682.3653347947313 655.5000000000016,682.3653347947313 660.5000000000016,691.0255888325757 665.5000000000016,682.3653347947313 660.5000000000016,673.7050807568869 650.5000000000016,673.7050807568869 645.5000000000016,665.0448267190425 650.5000000000017,656.384572681198 640.5000000000017,656.384572681198 635.5000000000016,665.0448267190425 630.5000000000016,656.384572681198 635.5000000000017,647.7243186433536 645.5000000000017,647.7243186433536 650.5000000000018,639.0640646055093 645.5000000000018,630.4038105676649 650.5000000000018,621.7435565298205 655.5000000000018,630.4038105676649 660.5000000000019,621.7435565298205 665.5000000000018,630.4038105676649 660.5000000000018,639.0640646055093 665.5000000000018,647.7243186433537 660.5000000000018,656.3845726811982 665.5000000000018,665.0448267190426 670.5000000000018,656.3845726811982 675.5000000000018,665.0448267190426 680.5000000000018,656.3845726811982 675.5000000000019,647.7243186433537 680.5000000000019,639.0640646055094 675.500000000002,630.403810567665 680.500000000002,621.7435565298206 685.500000000002,630.403810567665 690.500000000002,621.7435565298206 695.500000000002,630.403810567665 690.500000000002,639.0640646055094 695.500000000002,647.7243186433539 690.5000000000019,656.3845726811983 700.500000000002,656.3845726811983 705.500000000002,647.7243186433539 710.500000000002,656.3845726811983 705.500000000002,665.0448267190427 695.500000000002,665.0448267190427 690.5000000000019,673.705080756887" stroke="black" stroke-linecap="round" stroke-width="3" /><polyline clip-path="url(#border_clip)" fill="none" points="690.5000000000019,673.705080756887 695.5000000000019,682.3653347947314 685.5000000000019,682.3653347947314 680.5000000000019,673.705080756887 675.5000000000018,682.3653347947314 680.5000000000018,691.0255888325759 690.5000000000019,691.0255888325759 695.5000000000018,699.6858428704203 690.5000000000018,708.3460969082647 700.5000000000018,708.3460969082647 705.5000000000019,699.6858428704203 710.5000000000019,708.3460969082647 705.5000000000019,717.0063509461091 695.5000000000018,717.0063509461091 690.5000000000018,725.6666049839534 680.5000000000018,725.6666049839534 675.5000000000018,734.3268590217979 685.5000000000018,734.3268590217979 680.5000000000018,742.9871130596423 690.5000000000018,742.9871130596423 695.5000000000018,734.3268590217979 705.5000000000019,734.326859021798 710.5000000000019,725.6666049839536 715.5000000000019,734.326859021798 710.5000000000019,742.9871130596424 720.5000000000019,742.9871130596424 725.500000000002,734.326859021798 720.500000000002,725.6666049839536 725.500000000002,717.0063509461093 720.500000000002,708.3460969082648 725.5000000000022,699.6858428704204 730.5000000000022,708.3460969082648 735.5000000000022,699.6858428704204 740.5000000000022,708.3460969082648 735.5000000000022,717.0063509461093 740.500000000002,725.6666049839537 735.500000000002,734.3268590217981 745.500000000002,734.3268590217981 750.5000000000022,725.6666049839537 755.5000000000022,734.3268590217981 750.5000000000022,742.9871130596425 740.500000000002,742.9871130596425 735.500000000002,751.6473670974868" stroke="black" stroke-linecap="round" stroke-width="3" /><polyline clip-path="url(#border_clip)" fill="none" points="735.500000000002,751.6473670974868 725.500000000002,751.6473670974868 730.500000000002,760.3076211353313 740.500000000002,760.3076211353314 735.500000000002,768.9678751731757 725.500000000002,768.9678751731756 720.500000000002,760.3076211353311 710.500000000002,760.3076211353311 705.5000000000019,768.9678751731756 700.5000000000019,760.3076211353311 705.500000000002,751.6473670974867 695.5000000000019,751.6473670974867 690.5000000000019,760.307621135331 695.5000000000019,768.9678751731755 690.5000000000019,777.6281292110198 680.5000000000018,777.6281292110198 685.5000000000018,786.2883832488642 695.5000000000019,786.2883832488642 690.5000000000018,794.9486372867086 680.5000000000018,794.9486372867086 675.5000000000018,786.2883832488642 665.5000000000018,786.2883832488641 660.5000000000018,794.9486372867084 655.5000000000018,786.288383248864 660.5000000000018,777.6281292110197 650.5000000000018,777.6281292110195 645.5000000000018,786.288383248864 650.5000000000018,794.9486372867084 645.5000000000017,803.6088913245528 635.5000000000017,803.6088913245527 630.5000000000017,812.269145362397 640.5000000000017,812.2691453623971 635.5000000000017,820.9293994002414 645.5000000000017,820.9293994002416 650.5000000000018,812.2691453623972 660.5000000000018,812.2691453623972 665.5000000000018,803.6088913245528 675.5000000000018,803.6088913245529 670.5000000000018,812.2691453623972 680.5000000000018,812.2691453623974 675.5000000000018,820.9293994002417 665.5000000000018,820.9293994002417 660.5000000000018,829.5896534380861" stroke="black" stroke-linecap="round" stroke-width="3" /><polyline clip-path="url(#border_clip)" fill="none" points="660.5000000000018,829.5896534380861 650.5000000000018,829.589653438086 645.5000000000017,838.2499074759303 655.5000000000018,838.2499074759304 650.5000000000017,846.9101615137747 660.5000000000018,846.9101615137748 665.5000000000018,838.2499074759305 675.5000000000018,838.2499074759305 680.5000000000019,829.5896534380861 685.5000000000018,838.2499074759305 680.5000000000018,846.9101615137749 690.5000000000018,846.9101615137749 695.5000000000019,838.2499074759306 690.5000000000019,829.5896534380862 695.500000000002,820.9293994002419 705.500000000002,820.9293994002419 700.500000000002,812.2691453623975 690.500000000002,812.2691453623975 695.500000000002,803.608891324553 705.5000000000022,803.608891324553 710.500000000002,812.2691453623975 720.5000000000022,812.2691453623976 725.5000000000022,803.6088913245533 730.5000000000022,812.2691453623977 725.5000000000022,820.929399400242 735.5000000000022,820.9293994002421 740.5000000000023,812.2691453623977 735.5000000000023,803.6088913245533 740.5000000000023,794.9486372867088 735.5000000000023,786.2883832488644 740.5000000000024,777.6281292110201 745.5000000000024,786.2883832488645 750.5000000000024,777.6281292110202 755.5000000000024,786.2883832488646 750.5000000000024,794.948637286709 755.5000000000023,803.6088913245534 750.5000000000023,812.2691453623977 760.5000000000023,812.2691453623978 765.5000000000024,803.6088913245535 770.5000000000024,812.2691453623979 765.5000000000023,820.9293994002422 755.5000000000023,820.9293994002421 750.5000000000023,829.5896534380865" stroke="black" stroke-linecap="round" stroke-width="3" /><polyline clip-path="url(#border_clip)" fill="none" points="750.5000000000023,829.5896534380865 740.5000000000023,829.5896534380865 735.5000000000023,838.2499074759309 745.5000000000023,838.249907475931 740.5000000000023,846.9101615137753 750.5000000000023,846.9101615137754 755.5000000000023,838.249907475931 765.5000000000023,838.249907475931 770.5000000000024,829.5896534380867 775.5000000000024,838.2499074759311 770.5000000000023,846.9101615137754 780.5000000000023,846.9101615137755 785.5000000000024,838.2499074759312 780.5000000000024,829.5896534380868 785.5000000000025,820.9293994002423 780.5000000000025,812.2691453623979 790.5000000000025,812.2691453623979 795.5000000000025,820.9293994002423 800.5000000000025,812.269145362398 795.5000000000025,803.6088913245536 785.5000000000025,803.6088913245535 780.5000000000025,794.9486372867091 785.5000000000025,786.2883832488648 775.5000000000025,786.2883832488646 770.5000000000025,794.9486372867091 765.5000000000025,786.2883832488646 770.5000000000025,777.6281292110202 780.5000000000025,777.6281292110203 785.5000000000026,768.967875173176 780.5000000000026,760.3076211353316 790.5000000000026,760.3076211353316 795.5000000000026,768.967875173176 800.5000000000027,760.3076211353316 795.5000000000027,751.6473670974872 785.5000000000027,751.6473670974872 780.5000000000027,742.9871130596428 770.5000000000027,742.9871130596428 765.5000000000027,734.3268590217983 775.5000000000027,734.3268590217983 770.5000000000027,725.6666049839539 780.5000000000027,725.6666049839539 785.5000000000027,734.3268590217983 795.5000000000027,734.3268590217984" stroke="black" stroke-linecap="round" stroke-width="3" /><polyline clip-path="url(#border_clip)" fill="none" points="795.5000000000027,734.3268590217984 800.5000000000027,742.9871130596429 805.5000000000027,734.3268590217984 800.5000000000027,725.666604983954 810.5000000000027,725.666604983954 815.5000000000027,734.3268590217984 810.5000000000027,742.9871130596429 815.5000000000027,751.6473670974873 810.5000000000026,760.3076211353316 815.5000000000026,768.967875173176 820.5000000000027,760.3076211353317 825.5000000000027,768.9678751731761 830.5000000000027,760.3076211353318 825.5000000000027,751.6473670974874 830.5000000000027,742.987113059643 825.5000000000027,734.3268590217986 835.5000000000027,734.3268590217986 840.5000000000027,742.987113059643 845.5000000000028,734.3268590217986 840.5000000000028,725.6666049839541 830.5000000000028,725.6666049839541 825.5000000000028,717.0063509461097 815.5000000000028,717.0063509461097 820.500000000003,708.3460969082653 830.500000000003,708.3460969082653 825.500000000003,699.6858428704209 815.500000000003,699.6858428704209 810.5000000000028,708.3460969082653 800.5000000000028,708.3460969082653 795.5000000000028,699.6858428704209 790.5000000000027,708.3460969082652 795.5000000000027,717.0063509461096 785.5000000000027,717.0063509461096 780.5000000000027,708.3460969082652 785.5000000000027,699.6858428704207 780.5000000000027,691.0255888325763 785.5000000000028,682.365334794732 775.5000000000027,682.3653347947319 770.5000000000027,691.0255888325763 765.5000000000027,682.3653347947319 770.5000000000027,673.7050807568875 780.5000000000028,673.7050807568876 785.500000000003,665.0448267190432" stroke="black" stroke-linecap="round" stroke-width="3" /><polyline clip-path="url(#border_clip)" fill="none" points="785.500000000003,665.0448267190432 795.500000000003,665.0448267190432 800.500000000003,656.3845726811987 790.500000000003,656.3845726811987 795.500000000003,647.7243186433543 785.500000000003,647.7243186433543 780.500000000003,656.3845726811987 770.5000000000028,656.3845726811987 765.5000000000027,665.044826719043 760.5000000000027,656.3845726811986 765.5000000000028,647.7243186433543 755.5000000000028,647.7243186433542 750.5000000000027,656.3845726811986 755.5000000000027,665.044826719043 750.5000000000027,673.7050807568875 755.5000000000026,682.3653347947319 750.5000000000026,691.0255888325762 745.5000000000026,682.3653347947318 740.5000000000025,691.0255888325762 735.5000000000025,682.3653347947318 740.5000000000026,673.7050807568874 735.5000000000026,665.0448267190429 740.5000000000026,656.3845726811986 730.5000000000026,656.3845726811985 725.5000000000025,665.0448267190429 720.5000000000025,656.3845726811985 725.5000000000026,647.7243186433541 735.5000000000026,647.7243186433542 740.5000000000027,639.0640646055098 750.5000000000027,639.0640646055098 745.5000000000027,630.4038105676653 735.5000000000027,630.4038105676653 740.5000000000027,621.7435565298209 750.5000000000027,621.743556529821 755.5000000000027,630.4038105676655 765.5000000000028,630.4038105676655 770.500000000003,621.743556529821 775.500000000003,630.4038105676655 770.5000000000028,639.0640646055099 780.500000000003,639.0640646055099 785.500000000003,630.4038105676655 780.500000000003,621.743556529821 785.500000000003,613.0833024919766" stroke="black" stroke-linecap="round" stroke-width="3" /><polyline clip-path="url(#border_clip)" fill="none" points="785.500000000003,613.0833024919766 795.5000000000031,613.0833024919767 790.5000000000031,604.4230484541322 780.500000000003,604.4230484541322 785.5000000000031,595.7627944162878 795.5000000000032,595.7627944162879 800.5000000000032,604.4230484541323 810.5000000000032,604.4230484541323 815.5000000000032,613.0833024919767 825.5000000000032,613.0833024919767 820.5000000000032,604.4230484541323 830.5000000000033,604.4230484541323 825.5000000000033,595.7627944162879 815.5000000000032,595.7627944162879 810.5000000000032,587.1025403784435 800.5000000000032,587.1025403784433 805.5000000000032,578.442286340599 815.5000000000033,578.442286340599 810.5000000000033,569.7820323027546 800.5000000000032,569.7820323027545 795.5000000000032,578.4422863405989 785.5000000000032,578.4422863405989 780.5000000000031,587.1025403784433 770.500000000003,587.1025403784433 775.5000000000031,578.4422863405989 765.500000000003,578.4422863405989 770.5000000000031,569.7820323027545 780.5000000000032,569.7820323027545 785.5000000000032,561.1217782649101 795.5000000000032,561.1217782649101 790.5000000000032,552.4615242270656 780.5000000000032,552.4615242270656 785.5000000000032,543.8012701892212 795.5000000000033,543.8012701892212 800.5000000000033,552.4615242270658 810.5000000000034,552.4615242270658 815.5000000000034,561.1217782649102 820.5000000000034,552.4615242270658 815.5000000000034,543.8012701892213 825.5000000000034,543.8012701892213 830.5000000000034,552.4615242270658 825.5000000000034,561.1217782649102 830.5000000000034,569.7820323027546" stroke="black" stroke-linecap="round" stroke-width="3" /><polyline clip-path="url(#border_clip)" fill="none" points="830.5000000000034,569.7820323027546 840.5000000000034,569.7820323027547 835.5000000000034,578.442286340599 825.5000000000034,578.442286340599 830.5000000000034,587.1025403784435 840.5000000000034,587.1025403784435 845.5000000000034,578.4422863405991 855.5000000000035,578.4422863405991 860.5000000000035,587.1025403784436 865.5000000000036,578.4422863405991 860.5000000000036,569.7820323027547 870.5000000000036,569.7820323027547 875.5000000000036,578.4422863405991 870.5000000000036,587.1025403784436 875.5000000000036,595.762794416288 885.5000000000036,595.7627944162881 880.5000000000036,604.4230484541324 870.5000000000035,604.4230484541324 875.5000000000035,613.0833024919768 885.5000000000036,613.0833024919768 890.5000000000036,604.4230484541325 900.5000000000036,604.4230484541325 905.5000000000036,613.083302491977 915.5000000000038,613.083302491977 910.5000000000038,604.4230484541325 920.5000000000039,604.4230484541326 915.5000000000039,595.7627944162881 905.5000000000038,595.7627944162881 900.5000000000038,587.1025403784437 890.5000000000036,587.1025403784436 885.5000000000036,578.4422863405991 895.5000000000038,578.4422863405993 890.5000000000038,569.7820323027547 900.5000000000039,569.7820323027548 905.5000000000039,578.4422863405993 915.5000000000039,578.4422863405993 920.5000000000039,587.1025403784437 930.5000000000039,587.1025403784438 925.5000000000039,578.4422863405993 935.500000000004,578.4422863405994 930.500000000004,569.7820323027549 920.5000000000039,569.7820323027548 915.5000000000039,561.1217782649104" stroke="black" stroke-linecap="round" stroke-width="3" /><polyline clip-path="url(#border_clip)" fill="none" points="915.5000000000039,561.1217782649104 905.5000000000039,561.1217782649104 910.5000000000039,552.461524227066 920.500000000004,552.461524227066 915.500000000004,543.8012701892216 905.5000000000039,543.8012701892216 900.5000000000039,552.461524227066 890.5000000000039,552.4615242270659 885.5000000000039,543.8012701892214 880.5000000000038,552.4615242270659 885.5000000000038,561.1217782649103 875.5000000000036,561.1217782649103 870.5000000000036,552.4615242270658 875.5000000000038,543.8012701892214 870.5000000000038,535.141016151377 860.5000000000036,535.1410161513769 865.5000000000038,526.4807621135325 875.5000000000039,526.4807621135326 870.5000000000039,517.8205080756882 860.5000000000038,517.820508075688 855.5000000000036,526.4807621135325 845.5000000000036,526.4807621135325 840.5000000000036,535.1410161513768 830.5000000000035,535.1410161513768 835.5000000000036,526.4807621135324 825.5000000000035,526.4807621135324 830.5000000000036,517.8205080756879 840.5000000000036,517.8205080756879 845.5000000000036,509.1602540378436 855.5000000000038,509.16025403784363 850.5000000000038,500.4999999999992 840.5000000000036,500.49999999999915 845.5000000000038,491.8397459621547 855.5000000000039,491.8397459621548 860.5000000000039,500.4999999999992 870.5000000000039,500.49999999999926 875.5000000000039,509.1602540378437 885.5000000000039,509.16025403784374 880.5000000000039,500.4999999999993 890.500000000004,500.4999999999993 885.500000000004,491.8397459621549 875.5000000000039,491.83974596215484 870.5000000000039,483.1794919243104" stroke="black" stroke-linecap="round" stroke-width="3" /><polyline clip-path="url(#border_clip)" fill="none" points="870.5000000000039,483.1794919243104 860.5000000000039,483.17949192431035 865.5000000000039,474.519237886466 875.500000000004,474.519237886466 870.500000000004,465.85898384862156 860.5000000000039,465.8589838486215 855.5000000000039,474.51923788646593 845.5000000000039,474.5192378864659 840.5000000000038,483.1794919243103 835.5000000000038,474.5192378864658 840.5000000000039,465.85898384862145 830.5000000000038,465.8589838486214 825.5000000000036,474.5192378864658 830.5000000000036,483.17949192431024 825.5000000000036,491.8397459621546 815.5000000000036,491.8397459621546 820.5000000000036,500.49999999999903 830.5000000000036,500.4999999999991 825.5000000000036,509.16025403784346 815.5000000000035,509.16025403784346 810.5000000000035,500.499999999999 800.5000000000034,500.499999999999 795.5000000000034,509.16025403784334 790.5000000000034,500.4999999999989 795.5000000000034,491.8397459621545 785.5000000000034,491.8397459621545 780.5000000000034,500.49999999999886 785.5000000000034,509.1602540378433 780.5000000000033,517.8205080756877 770.5000000000032,517.8205080756877 775.5000000000032,526.4807621135321 785.5000000000033,526.4807621135321 780.5000000000032,535.1410161513766 770.5000000000032,535.1410161513766 765.5000000000032,526.480762113532 755.5000000000032,526.480762113532 750.5000000000031,535.1410161513764 740.5000000000031,535.1410161513763 745.5000000000032,526.480762113532 735.5000000000031,526.4807621135319 740.5000000000032,517.8205080756875 750.5000000000032,517.8205080756876 755.5000000000032,509.1602540378432" stroke="black" stroke-linecap="round" stroke-width="3" /><polyline clip-path="url(#border_clip)" fill="none" points="755.5000000000032,509.1602540378432 765.5000000000033,509.16025403784323 770.5000000000034,500.4999999999988 760.5000000000033,500.49999999999875 765.5000000000034,491.8397459621544 755.5000000000033,491.8397459621543 750.5000000000032,500.49999999999875 740.5000000000032,500.4999999999987 735.5000000000032,509.16025403784306 725.5000000000031,509.16025403784306 730.5000000000032,500.49999999999864 720.5000000000031,500.4999999999986 725.5000000000032,491.83974596215415 735.5000000000032,491.8397459621542 740.5000000000032,483.1794919243098 750.5000000000033,483.17949192430984 745.5000000000033,474.5192378864654 735.5000000000032,474.51923788646536 740.5000000000033,465.85898384862094 750.5000000000034,465.858983848621 755.5000000000034,474.5192378864654 765.5000000000034,474.5192378864655 770.5000000000034,465.85898384862105 775.5000000000034,474.51923788646553 770.5000000000034,483.1794919243099 780.5000000000034,483.17949192430996 785.5000000000035,474.51923788646553 780.5000000000035,465.8589838486211 785.5000000000036,457.1987298107767 795.5000000000036,457.19872981077674 790.5000000000036,448.53847577293226 780.5000000000036,448.53847577293226 785.5000000000036,439.87822173508783 795.5000000000036,439.8782217350879 800.5000000000036,448.5384757729323 810.5000000000038,448.5384757729324 815.5000000000038,457.1987298107768 825.5000000000039,457.19872981077685 820.5000000000039,448.53847577293243 830.5000000000039,448.53847577293243 825.5000000000039,439.878221735088 815.5000000000039,439.87822173508795 810.5000000000039,431.21796769724347" stroke="black" stroke-linecap="round" stroke-width="3" /><polyline clip-path="url(#border_clip)" fill="none" points="810.5000000000039,431.21796769724347 800.5000000000038,431.21796769724347 805.5000000000039,422.55771365939904 815.5000000000039,422.5577136593991 810.5000000000039,413.8974596215546 800.5000000000039,413.8974596215546 795.5000000000038,422.557713659399 785.5000000000036,422.5577136593989 780.5000000000036,431.21796769724335 770.5000000000036,431.21796769724335 775.5000000000036,422.5577136593989 765.5000000000036,422.55771365939887 770.5000000000036,413.89745962155445 780.5000000000036,413.8974596215545 785.5000000000038,405.2372055837101 795.5000000000039,405.23720558371014 790.5000000000039,396.57695154586565 780.5000000000038,396.57695154586565 785.5000000000039,387.91669750802123 795.5000000000039,387.9166975080213 800.5000000000039,396.5769515458657 810.5000000000039,396.57695154586577 815.5000000000039,405.2372055837102 820.500000000004,396.5769515458658 815.500000000004,387.91669750802134 825.5000000000041,387.9166975080214 830.5000000000041,396.5769515458659 825.500000000004,405.23720558371025 830.500000000004,413.89745962155473 840.5000000000041,413.89745962155473 835.500000000004,422.55771365939916 825.5000000000039,422.55771365939916 830.5000000000039,431.2179676972436 840.500000000004,431.21796769724364 845.5000000000041,422.5577136593992 855.5000000000041,422.55771365939927 860.5000000000041,431.2179676972437 865.5000000000041,422.5577136593993 860.5000000000041,413.89745962155484 870.5000000000042,413.8974596215549 875.5000000000042,422.5577136593993 870.5000000000041,431.21796769724375 875.5000000000041,439.87822173508823" stroke="black" stroke-linecap="round" stroke-width="3" /><polyline clip-path="url(#border_clip)" fill="none" points="875.5000000000041,439.87822173508823 870.5000000000041,448.53847577293266 875.5000000000041,457.1987298107771 880.5000000000041,448.53847577293266 885.5000000000041,457.19872981077714 890.5000000000042,448.5384757729327 885.5000000000042,439.87822173508823 890.5000000000043,431.2179676972438 885.5000000000043,422.5577136593994 895.5000000000043,422.5577136593994 900.5000000000043,431.21796769724386 905.5000000000043,422.55771365939944 900.5000000000043,413.89745962155496 890.5000000000043,413.89745962155496 885.5000000000043,405.2372055837105 875.5000000000043,405.2372055837104 870.5000000000043,396.576951545866 880.5000000000043,396.576951545866 875.5000000000043,387.91669750802157 885.5000000000043,387.91669750802157 890.5000000000043,396.57695154586605 900.5000000000044,396.5769515458661 905.5000000000044,405.23720558371053 910.5000000000045,396.5769515458661 905.5000000000045,387.9166975080217 915.5000000000045,387.9166975080217 920.5000000000045,396.57695154586617 915.5000000000045,405.2372055837106 920.5000000000045,413.8974596215551 915.5000000000044,422.5577136593995 925.5000000000045,422.55771365939955 930.5000000000045,413.89745962155513 935.5000000000045,422.5577136593996 930.5000000000045,431.21796769724403 920.5000000000044,431.217967697244 915.5000000000043,439.8782217350884 920.5000000000043,448.5384757729329 910.5000000000043,448.5384757729328 905.5000000000043,439.87822173508835 900.5000000000043,448.53847577293277 905.5000000000043,457.19872981077725 915.5000000000043,457.19872981077725 920.5000000000043,465.85898384862173" stroke="black" stroke-linecap="round" stroke-width="3" /><polyline clip-path="url(#border_clip)" fill="none" points="920.5000000000043,465.85898384862173 930.5000000000043,465.8589838486218 925.5000000000043,474.5192378864662 915.5000000000043,474.51923788646616 920.5000000000043,483.17949192431064 930.5000000000043,483.17949192431064 935.5000000000043,474.51923788646627 945.5000000000044,474.51923788646627 950.5000000000045,465.85898384862185 960.5000000000045,465.8589838486219 955.5000000000045,474.5192378864663 965.5000000000045,474.5192378864664 960.5000000000045,483.1794919243108 950.5000000000044,483.17949192431075 945.5000000000043,491.8397459621552 935.5000000000043,491.8397459621551 940.5000000000043,500.4999999999996 950.5000000000043,500.49999999999966 945.5000000000043,509.1602540378441 935.5000000000043,509.160254037844 930.5000000000043,500.49999999999955 920.5000000000042,500.49999999999955 915.5000000000042,491.83974596215506 905.5000000000041,491.839745962155 910.5000000000041,500.4999999999995 900.5000000000041,500.49999999999943 905.5000000000041,509.1602540378439 915.5000000000041,509.16025403784397 920.5000000000041,517.8205080756884 930.5000000000042,517.8205080756885 925.5000000000041,526.4807621135328 915.5000000000041,526.4807621135328 920.5000000000041,535.1410161513772 930.5000000000041,535.1410161513774 935.5000000000042,526.4807621135329 945.5000000000043,526.4807621135329 950.5000000000043,517.8205080756885 955.5000000000043,526.480762113533 950.5000000000043,535.1410161513775 960.5000000000043,535.1410161513775 965.5000000000043,526.480762113533 960.5000000000043,517.8205080756886 965.5000000000044,509.1602540378442" stroke="black" stroke-linecap="round" stroke-width="3" /><polyline clip-path="url(#border_clip)" fill="none" points="965.5000000000044,509.1602540378442 975.5000000000045,509.1602540378442 970.5000000000045,500.4999999999998 960.5000000000044,500.4999999999997 965.5000000000045,491.8397459621553 975.5000000000045,491.83974596215535 980.5000000000045,500.4999999999998" stroke="black" stroke-linecap="round" stroke-width="3" /><polyline clip-path="url(#border_clip)" fill="none" points="180.5,500.4999999999996 185.5,491.83974596215523 190.5,500.4999999999996 185.5,509.16025403784397 195.5,509.160254037844 200.5,500.49999999999966 195.5,491.83974596215523 200.5,483.17949192431087 195.5,474.5192378864665 200.5,465.8589838486221 205.5,474.5192378864665 210.5,465.85898384862213 215.5,474.5192378864665 210.5,483.17949192431087 215.5,491.8397459621553 210.5,500.49999999999966 220.5,500.49999999999966 225.5,491.8397459621553 230.5,500.4999999999997 225.5,509.1602540378441 215.5,509.1602540378441 210.5,517.8205080756884 200.5,517.8205080756884 195.5,526.4807621135328 205.5,526.4807621135328 200.5,535.1410161513772 210.5,535.1410161513772 215.5,526.4807621135328 225.5,526.4807621135329 230.5,517.8205080756885 235.5,526.4807621135329 230.5,535.1410161513772 240.5,535.1410161513774 245.50000000000003,526.4807621135329 240.50000000000006,517.8205080756885 245.50000000000009,509.16025403784414 240.5000000000001,500.4999999999998 250.5000000000001,500.4999999999998 255.5000000000001,509.1602540378442 260.5000000000001,500.4999999999998 255.50000000000017,491.8397459621554 245.50000000000017,491.83974596215535 240.50000000000017,483.179491924311" stroke="black" stroke-linecap="round" stroke-width="3" /></svg>