<?xml version="1.0" encoding="utf-8" ?>
<svg baseProfile="full" height="2000px" version="1.1" width="2000px" xmlns="http://www.w3.org/2000/svg" xmlns:ev="http://www.w3.org/2001/xml-events" xmlns:xlink="http://www.w3.org/1999/xlink"><defs><clipPath id="border_clip"><rect height="2000" width="2000" x="0" y="0" /></clipPath></defs><polyline clip-path="url(#border_clip)" fill="none" points="640.5,931.217967697245 620.5,896.5769515458674 600.5,931.2179676972448 620.5,965.8589838486224 580.5,965.8589838486224 560.5,931.2179676972448 580.5,896.5769515458674 560.5,861.9359353944898 580.5,827.2949192431122 540.5,827.2949192431122 520.5,861.9359353944898 500.5,827.2949192431122 520.5,792.6539030917347 560.5,792.6539030917347 580.5,758.0128869403571 620.5,758.0128869403571 640.5,723.3718707889795 600.5,723.3718707889795 620.5,688.7308546376021 580.5,688.7308546376021 560.5,723.3718707889795 520.5,723.3718707889795 500.5,758.0128869403571 480.5,723.3718707889795 500.5,688.7308546376021 460.5,688.7308546376021 440.5,723.3718707889795 460.5,758.0128869403571 440.5,792.6539030917346 460.5,827.2949192431122 440.5,861.9359353944897 420.5,827.2949192431122 400.5,861.9359353944897 380.5,827.2949192431122 400.5,792.6539030917346 380.5,758.012886940357 400.5,723.3718707889795 360.5,723.3718707889794 340.5,758.012886940357 320.5,723.3718707889793 340.5,688.7308546376019 380.5,688.7308546376019 400.5,654.0898384862244" stroke="black" stroke-linecap="round" stroke-width="10" /><polyline clip-path="url(#border_clip)" fill="none" points="400.5,654.0898384862244 440.5,654.0898384862244 420.5,619.4488223348467 380.5,619.4488223348467 400.5,584.8078061834692 440.5,584.8078061834692 460.5,619.4488223348467 500.5,619.4488223348467 520.5,584.8078061834692 540.5,619.4488223348468 520.5,654.0898384862244 560.5,654.0898384862244 580.5,619.4488223348469 560.5,584.8078061834692 580.5,550.1667900320917 560.5,515.5257738807142 600.5,515.5257738807142 620.5,550.1667900320917 640.5,515.5257738807142 620.5,480.88475772933657 580.5,480.88475772933657 560.5,446.243741577959 580.5,411.6027254265814 540.5,411.6027254265814 520.5,446.243741577959 500.49999999999994,411.6027254265814 520.5,376.9617092752038 560.5,376.9617092752038 580.5,342.32069312382623 560.5,307.67967697244865 580.5,273.03866082107106 600.5,307.67967697244865 620.5,273.03866082107106 640.5,307.67967697244865 620.5,342.32069312382623 640.5,376.9617092752038 620.5,411.6027254265814 640.5,446.243741577959 660.5,411.6027254265814 680.5,446.243741577959 700.5,411.6027254265814 680.5,376.9617092752038 700.5,342.32069312382623" stroke="black" stroke-linecap="round" stroke-width="10" /><polyline clip-path="url(#border_clip)" fill="none" points="700.5,342.32069312382623 680.5,307.67967697244865 700.5,273.03866082107106 720.5,307.67967697244865 740.5,273.03866082107106 760.5,307.67967697244865 740.5,342.32069312382623 760.5,376.9617092752038 740.5,411.6027254265814 780.5,411.6027254265814 800.5,376.9617092752038 820.5,411.6027254265814 800.5,446.243741577959 760.5,446.243741577959 740.5,480.88475772933657 760.5,515.5257738807142 720.5,515.5257738807142 700.5,480.88475772933657 680.5,515.5257738807142 700.5,550.1667900320917 740.5,550.1667900320917 760.5,584.8078061834693 800.5,584.8078061834693 780.5,619.4488223348469 740.5,619.4488223348469 760.5,654.0898384862245 800.5,654.0898384862245 820.5,619.4488223348469 860.5,619.4488223348469 880.5,654.0898384862245 900.5,619.4488223348469 880.5,584.8078061834693 920.5,584.8078061834693 940.5,619.4488223348469 920.5,654.0898384862245 940.5,688.7308546376021 980.5000000000001,688.7308546376021 1000.5000000000001,723.3718707889797 960.5,723.3718707889797 980.5000000000001,758.0128869403572 940.5,758.0128869403572 920.5,723.3718707889797 880.5,723.3718707889797" stroke="black" stroke-linecap="round" stroke-width="10" /><polyline clip-path="url(#border_clip)" fill="none" points="880.5,723.3718707889797 860.5,758.0128869403572 820.5,758.0128869403572 840.5,723.3718707889797 860.5,688.7308546376021 820.5,688.7308546376021 800.5,723.3718707889797 760.5,723.3718707889797 740.5,688.7308546376021 700.5,688.7308546376021 720.5,723.3718707889797 680.5,723.3718707889797 700.5,758.0128869403572 740.5,758.0128869403572 760.5,792.6539030917347 800.5,792.6539030917347 780.5,827.2949192431123 740.5,827.2949192431123 760.5,861.9359353944899 800.5,861.9359353944899 820.5,827.2949192431123 860.5,827.2949192431123 880.5,861.9359353944899 900.5000000000001,827.2949192431123 880.5000000000001,792.6539030917347 920.5000000000001,792.6539030917347 940.5000000000001,827.2949192431123 920.5000000000001,861.9359353944899 940.5000000000001,896.5769515458675 920.5000000000001,931.2179676972451 960.5000000000001,931.2179676972451 980.5000000000001,896.5769515458675 1000.5000000000001,931.2179676972451 980.5000000000001,965.8589838486225 940.5000000000001,965.8589838486225 920.5000000000001,1000.5000000000001 940.5000000000001,1035.1410161513777 900.5000000000001,1035.1410161513777 880.5000000000001,1000.5000000000001 860.5000000000001,1035.1410161513777 880.5000000000001,1069.7820323027554 920.5000000000001,1069.7820323027554 940.5000000000001,1104.4230484541329" stroke="black" stroke-linecap="round" stroke-width="10" /><polyline clip-path="url(#border_clip)" fill="none" points="940.5000000000001,1104.4230484541329 920.5000000000001,1139.0640646055103 940.5000000000001,1173.705080756888 960.5000000000001,1139.0640646055103 980.5000000000001,1173.705080756888 1000.5000000000001,1139.0640646055103 980.5000000000001,1104.4230484541329 1000.5000000000002,1069.7820323027552 980.5000000000002,1035.1410161513777 1000.5000000000002,1000.5000000000001 1020.5000000000002,1035.1410161513777 1040.5000000000002,1000.5000000000001 1060.5000000000002,1035.1410161513777 1040.5000000000002,1069.7820323027554 1060.5000000000002,1104.4230484541329 1040.5000000000002,1139.0640646055103 1060.5000000000002,1173.705080756888 1080.5000000000002,1139.0640646055103 1100.5000000000002,1173.705080756888 1120.5000000000002,1139.0640646055103 1100.5000000000002,1104.4230484541329 1120.5000000000002,1069.7820323027552 1100.5000000000002,1035.1410161513777 1140.5000000000005,1035.1410161513777 1160.5000000000005,1069.7820323027552 1180.5000000000005,1035.1410161513777 1160.5000000000005,1000.5000000000001 1120.5000000000005,1000.5000000000001 1100.5000000000005,965.8589838486225 1120.5000000000005,931.2179676972451 1080.5000000000005,931.217967697245 1060.5000000000002,965.8589838486225 1040.5000000000005,931.217967697245 1060.5000000000005,896.5769515458674 1100.5000000000005,896.5769515458674 1120.5000000000005,861.9359353944899 1100.5000000000005,827.2949192431122 1140.5000000000005,827.2949192431122 1160.5000000000005,861.9359353944898 1180.5000000000005,827.2949192431122 1160.5000000000005,792.6539030917347 1120.5000000000005,792.6539030917346 1100.5000000000005,758.012886940357" stroke="black" stroke-linecap="round" stroke-width="10" /><polyline clip-path="url(#border_clip)" fill="none" points="1100.5000000000005,758.012886940357 1060.5000000000005,758.012886940357 1040.5000000000005,723.3718707889795 1080.5000000000005,723.3718707889795 1060.5000000000005,688.7308546376019 1100.5000000000005,688.7308546376019 1120.5000000000005,723.3718707889795 1160.5000000000005,723.3718707889795 1180.5000000000005,758.012886940357 1200.5000000000005,723.3718707889795 1180.5000000000005,688.7308546376019 1220.5000000000005,688.7308546376019 1240.5000000000005,723.3718707889795 1220.5000000000005,758.012886940357 1240.5000000000005,792.6539030917346 1220.5000000000005,827.2949192431122 1240.5000000000005,861.9359353944897 1260.5000000000005,827.2949192431122 1280.5000000000005,861.9359353944897 1300.5000000000005,827.2949192431122 1280.5000000000005,792.6539030917346 1300.5000000000005,758.012886940357 1280.5000000000005,723.3718707889795 1320.5000000000005,723.3718707889795 1340.5000000000005,758.012886940357 1360.5000000000005,723.3718707889795 1340.5000000000005,688.7308546376019 1300.5000000000005,688.7308546376019 1280.5000000000005,654.0898384862244 1240.5000000000005,654.0898384862244 1260.5000000000005,619.4488223348468 1300.5000000000005,619.4488223348468 1280.5000000000005,584.8078061834692 1240.5000000000005,584.8078061834692 1220.5000000000005,619.4488223348467 1180.5000000000005,619.4488223348467 1160.5000000000005,584.8078061834692 1140.5000000000005,619.4488223348467 1160.5000000000005,654.0898384862243 1120.5000000000005,654.0898384862243 1100.5000000000005,619.4488223348467 1120.5000000000005,584.8078061834691 1100.5000000000005,550.1667900320915" stroke="black" stroke-linecap="round" stroke-width="10" /><polyline clip-path="url(#border_clip)" fill="none" points="1100.5000000000005,550.1667900320915 1120.5000000000005,515.5257738807139 1080.5000000000005,515.5257738807139 1060.5000000000005,550.1667900320915 1040.5000000000005,515.5257738807138 1060.5000000000005,480.88475772933634 1100.5000000000005,480.88475772933634 1120.5000000000005,446.24374157795876 1160.5000000000005,446.24374157795876 1180.5000000000005,411.6027254265812 1140.5000000000005,411.6027254265812 1160.5000000000005,376.9617092752036 1120.5000000000005,376.9617092752036 1100.5000000000005,411.6027254265812 1060.5000000000005,411.6027254265812 1040.5000000000005,446.24374157795876 1020.5000000000003,411.6027254265812 1040.5000000000005,376.9617092752036 1000.5000000000003,376.9617092752036 980.5000000000003,411.6027254265812 1000.5000000000003,446.24374157795876 980.5000000000003,480.88475772933634 1000.5000000000002,515.5257738807139 980.5000000000002,550.1667900320915 960.5000000000002,515.5257738807138 940.5000000000002,550.1667900320914 920.5000000000002,515.5257738807138 940.5000000000002,480.88475772933623 920.5000000000002,446.24374157795864 940.5000000000002,411.60272542658106 900.5000000000002,411.60272542658106 880.5000000000002,446.24374157795864 860.5000000000002,411.60272542658106 880.5000000000002,376.9617092752035 920.5000000000002,376.9617092752035 940.5000000000002,342.3206931238259 980.5000000000002,342.3206931238259 960.5000000000002,307.6796769724483 920.5000000000002,307.6796769724483 940.5000000000002,273.0386608210707 980.5000000000002,273.0386608210707 1000.5000000000003,307.6796769724483 1040.5000000000002,307.6796769724483" stroke="black" stroke-linecap="round" stroke-width="10" /><polyline clip-path="url(#border_clip)" fill="none" points="1040.5000000000002,307.6796769724483 1060.5000000000002,273.0386608210707 1080.5000000000005,307.6796769724483 1060.5000000000002,342.3206931238259 1100.5000000000005,342.3206931238259 1120.5000000000005,307.6796769724483 1100.5000000000005,273.0386608210707" stroke="black" stroke-linecap="round" stroke-width="10" /><polyline clip-path="url(#border_clip)" fill="none" points="580.5,1173.7050807568878 560.5,1139.0640646055103 600.5,1139.0640646055103 620.5,1173.7050807568878 640.5,1139.0640646055103 620.5,1104.4230484541329 580.5,1104.4230484541329 560.5,1069.7820323027552 520.5,1069.7820323027552 500.5,1035.1410161513777 540.5,1035.1410161513777 520.5,1000.5000000000001 560.5,1000.5000000000001 580.5,1035.1410161513777 620.5,1035.1410161513777 640.5,1069.7820323027552 660.5,1035.1410161513777 640.5,1000.5000000000001 680.5,1000.5000000000001 700.5,1035.1410161513777 680.5,1069.7820323027552 700.5,1104.4230484541326 680.5,1139.0640646055103 700.5,1173.7050807568878 720.5,1139.0640646055103 740.5,1173.7050807568878 760.5,1139.0640646055103 740.5,1104.4230484541326 760.5,1069.7820323027552 740.5,1035.1410161513777 780.5,1035.1410161513777 800.5,1069.7820323027552 820.5,1035.1410161513777 800.5,1000.5000000000001 760.5,1000.5 740.5,965.8589838486225 700.5,965.8589838486225 720.5,931.217967697245 760.5,931.217967697245 740.5,896.5769515458674 700.5,896.5769515458674 680.5,931.217967697245 640.5,931.217967697245" stroke="black" stroke-linecap="round" stroke-width="10" /></svg>