<?xml version="1.0" encoding="utf-8" ?>
<svg baseProfile="full" height="1000" version="1.1" viewBox="-100.0 -446.4101615137754 1000.0 892.8203230275509" width="1000" xmlns="http://www.w3.org/2000/svg" xmlns:ev="http://www.w3.org/2001/xml-events" xmlns:xlink="http://www.w3.org/1999/xlink"><defs /><path d="M 0 0  L 5.0000 -8.6603   L 10.0000 0.0000  L 5.0000 8.6603   L 15.0000 8.6603  L 20.0000 0.0000  L 15.0000 -8.6603  L 20.0000 -17.3205  L 15.0000 -25.9808  L 20.0000 -34.6410   L 25.0000 -25.9808   L 30.0000 -34.6410   L 35.0000 -25.9808  L 30.0000 -17.3205  L 35.0000 -8.6603  L 30.0000 0.0000   L 40.0000 0.0000  L 45.0000 -8.6603   L 50.0000 0.0000  L 45.0000 8.6603  L 35.0000 8.6603  L 30.0000 17.3205  L 20.0000 17.3205  L 15.0000 25.9808   L 25.0000 25.9808   L 20.0000 34.6410   L 30.0000 34.6410  L 35.0000 25.9808  L 45.0000 25.9808  L 50.0000 17.3205   L 55.0000 25.9808  L 50.0000 34.6410   L 60.0000 34.6410  L 65.0000 25.9808  L 60.0000 17.3205  L 65.0000 8.6603  L 60.0000 0.0000   L 70.0000 0.0000  L 75.0000 8.6603   L 80.0000 0.0000  L 75.0000 -8.6603  L 65.0000 -8.6603  L 60.0000 -17.3205  L 65.0000 -25.9808   L 55.0000 -25.9808  L 50.0000 -17.3205   L 45.0000 -25.9808  L 50.0000 -34.6410  L 60.0000 -34.6410  L 65.0000 -43.3013  L 60.0000 -51.9615   L 70.0000 -51.9615  L 75.0000 -43.3013   L 80.0000 -51.9615  L 75.0000 -60.6218  L 65.0000 -60.6218  L 60.0000 -69.2820  L 65.0000 -77.9423   L 55.0000 -77.9423  L 50.0000 -69.2820   L 45.0000 -77.9423  L 50.0000 -86.6025  L 60.0000 -86.6025  L 65.0000 -95.2628  L 60.0000 -103.9230  L 65.0000 -112.5833   L 70.0000 -103.9230   L 75.0000 -112.5833   L 80.0000 -103.9230  L 75.0000 -95.2628  L 80.0000 -86.6025  L 75.0000 -77.9423  L 80.0000 -69.2820   L 85.0000 -77.9423   L 90.0000 -69.2820   L 95.0000 -77.9423  L 90.0000 -86.6025  L 95.0000 -95.2628  L 90.0000 -103.9230  L 95.0000 -112.5833   L 100.0000 -103.9230   L 105.0000 -112.5833   L 110.0000 -103.9230  L 105.0000 -95.2628  L 110.0000 -86.6025  L 105.0000 -77.9423   L 115.0000 -77.9423  L 120.0000 -86.6025   L 125.0000 -77.9423  L 120.0000 -69.2820  L 110.0000 -69.2820  L 105.0000 -60.6218  L 110.0000 -51.9615   L 100.0000 -51.9615  L 95.0000 -60.6218   L 90.0000 -51.9615  L 95.0000 -43.3013  L 105.0000 -43.3013  L 110.0000 -34.6410  L 105.0000 -25.9808   L 115.0000 -25.9808  L 120.0000 -34.6410   L 125.0000 -25.9808  L 120.0000 -17.3205  L 110.0000 -17.3205  L 105.0000 -8.6603  L 95.0000 -8.6603  L 90.0000 0.0000   L 100.0000 0.0000   L 95.0000 8.6603   L 105.0000 8.6603  L 110.0000 0.0000  L 120.0000 0.0000  L 125.0000 -8.6603   L 130.0000 0.0000  L 125.0000 8.6603   L 135.0000 8.6603  L 140.0000 0.0000  L 135.0000 -8.6603  L 140.0000 -17.3205  L 135.0000 -25.9808  L 140.0000 -34.6410   L 145.0000 -25.9808   L 150.0000 -34.6410   L 155.0000 -25.9808  L 150.0000 -17.3205  L 155.0000 -8.6603  L 150.0000 0.0000   L 160.0000 0.0000  L 165.0000 -8.6603   L 170.0000 0.0000  L 165.0000 8.6603  L 155.0000 8.6603  L 150.0000 17.3205  L 140.0000 17.3205   L 145.0000 25.9808  L 155.0000 25.9808   L 150.0000 34.6410  L 140.0000 34.6410  L 135.0000 25.9808  L 125.0000 25.9808  L 120.0000 34.6410   L 115.0000 25.9808  L 120.0000 17.3205   L 110.0000 17.3205  L 105.0000 25.9808  L 110.0000 34.6410  L 105.0000 43.3013  L 95.0000 43.3013   L 100.0000 51.9615  L 110.0000 51.9615   L 105.0000 60.6218  L 95.0000 60.6218  L 90.0000 51.9615  L 80.0000 51.9615  L 75.0000 60.6218   L 70.0000 51.9615  L 75.0000 43.3013   L 65.0000 43.3013  L 60.0000 51.9615  L 65.0000 60.6218  L 60.0000 69.2820  L 50.0000 69.2820  L 45.0000 77.9423   L 55.0000 77.9423   L 50.0000 86.6025   L 60.0000 86.6025  L 65.0000 77.9423  L 75.0000 77.9423  L 80.0000 69.2820  L 90.0000 69.2820   L 85.0000 77.9423   L 95.0000 77.9423   L 90.0000 86.6025  L 80.0000 86.6025  L 75.0000 95.2628  L 65.0000 95.2628  L 60.0000 103.9230   L 70.0000 103.9230   L 65.0000 112.5833   L 75.0000 112.5833  L 80.0000 103.9230  L 90.0000 103.9230  L 95.0000 95.2628   L 100.0000 103.9230  L 95.0000 112.5833   L 105.0000 112.5833  L 110.0000 103.9230  L 105.0000 95.2628  L 110.0000 86.6025  L 120.0000 86.6025   L 115.0000 77.9423  L 105.0000 77.9423   L 110.0000 69.2820  L 120.0000 69.2820  L 125.0000 77.9423  L 135.0000 77.9423  L 140.0000 69.2820   L 145.0000 77.9423  L 140.0000 86.6025   L 150.0000 86.6025  L 155.0000 77.9423  L 150.0000 69.2820  L 155.0000 60.6218  L 150.0000 51.9615  L 155.0000 43.3013   L 160.0000 51.9615   L 165.0000 43.3013   L 170.0000 51.9615  L 165.0000 60.6218  L 170.0000 69.2820  L 165.0000 77.9423   L 175.0000 77.9423  L 180.0000 69.2820   L 185.0000 77.9423  L 180.0000 86.6025  L 170.0000 86.6025  L 165.0000 95.2628  L 155.0000 95.2628  L 150.0000 103.9230   L 160.0000 103.9230   L 155.0000 112.5833   L 165.0000 112.5833  L 170.0000 103.9230  L 180.0000 103.9230  L 185.0000 95.2628   L 190.0000 103.9230  L 185.0000 112.5833   L 195.0000 112.5833  L 200.0000 103.9230  L 195.0000 95.2628  L 200.0000 86.6025  L 195.0000 77.9423   L 205.0000 77.9423  L 210.0000 86.6025   L 215.0000 77.9423  L 210.0000 69.2820  L 200.0000 69.2820  L 195.0000 60.6218  L 200.0000 51.9615   L 190.0000 51.9615  L 185.0000 60.6218   L 180.0000 51.9615  L 185.0000 43.3013  L 195.0000 43.3013  L 200.0000 34.6410  L 195.0000 25.9808   L 205.0000 25.9808  L 210.0000 34.6410   L 215.0000 25.9808  L 210.0000 17.3205  L 200.0000 17.3205  L 195.0000 8.6603  L 185.0000 8.6603  L 180.0000 0.0000   L 190.0000 0.0000   L 185.0000 -8.6603   L 195.0000 -8.6603  L 200.0000 0.0000  L 210.0000 0.0000  L 215.0000 8.6603   L 220.0000 0.0000  L 215.0000 -8.6603   L 225.0000 -8.6603  L 230.0000 0.0000  L 225.0000 8.6603  L 230.0000 17.3205  L 225.0000 25.9808  L 230.0000 34.6410   L 235.0000 25.9808   L 240.0000 34.6410   L 245.0000 25.9808  L 240.0000 17.3205  L 245.0000 8.6603  L 240.0000 0.0000   L 250.0000 0.0000  L 255.0000 8.6603   L 260.0000 0.0000  L 255.0000 -8.6603  L 245.0000 -8.6603  L 240.0000 -17.3205  L 230.0000 -17.3205   L 235.0000 -25.9808  L 245.0000 -25.9808   L 240.0000 -34.6410  L 230.0000 -34.6410  L 225.0000 -25.9808  L 215.0000 -25.9808  L 210.0000 -34.6410   L 205.0000 -25.9808  L 210.0000 -17.3205   L 200.0000 -17.3205  L 195.0000 -25.9808  L 200.0000 -34.6410  L 195.0000 -43.3013  L 200.0000 -51.9615   L 190.0000 -51.9615  L 185.0000 -43.3013   L 180.0000 -51.9615  L 185.0000 -60.6218  L 195.0000 -60.6218  L 200.0000 -69.2820  L 210.0000 -69.2820  L 215.0000 -77.9423   L 205.0000 -77.9423   L 210.0000 -86.6025   L 200.0000 -86.6025  L 195.0000 -77.9423  L 185.0000 -77.9423  L 180.0000 -69.2820   L 175.0000 -77.9423  L 180.0000 -86.6025   L 170.0000 -86.6025  L 165.0000 -77.9423  L 170.0000 -69.2820  L 165.0000 -60.6218  L 170.0000 -51.9615  L 165.0000 -43.3013   L 160.0000 -51.9615   L 155.0000 -43.3013   L 150.0000 -51.9615  L 155.0000 -60.6218  L 150.0000 -69.2820  L 155.0000 -77.9423   L 145.0000 -77.9423  L 140.0000 -69.2820   L 135.0000 -77.9423  L 140.0000 -86.6025  L 150.0000 -86.6025  L 155.0000 -95.2628  L 165.0000 -95.2628   L 160.0000 -103.9230  L 150.0000 -103.9230   L 155.0000 -112.5833  L 165.0000 -112.5833  L 170.0000 -103.9230  L 180.0000 -103.9230  L 185.0000 -112.5833   L 190.0000 -103.9230  L 185.0000 -95.2628   L 195.0000 -95.2628  L 200.0000 -103.9230  L 195.0000 -112.5833  L 200.0000 -121.2436  L 210.0000 -121.2436   L 205.0000 -129.9038  L 195.0000 -129.9038   L 200.0000 -138.5641  L 210.0000 -138.5641  L 215.0000 -129.9038  L 225.0000 -129.9038  L 230.0000 -121.2436  L 240.0000 -121.2436   L 235.0000 -129.9038   L 245.0000 -129.9038   L 240.0000 -138.5641  L 230.0000 -138.5641  L 225.0000 -147.2243  L 215.0000 -147.2243   L 220.0000 -155.8846  L 230.0000 -155.8846   L 225.0000 -164.5448  L 215.0000 -164.5448  L 210.0000 -155.8846  L 200.0000 -155.8846  L 195.0000 -147.2243  L 185.0000 -147.2243   L 190.0000 -155.8846   L 180.0000 -155.8846   L 185.0000 -164.5448  L 195.0000 -164.5448  L 200.0000 -173.2051  L 210.0000 -173.2051   L 205.0000 -181.8653  L 195.0000 -181.8653   L 200.0000 -190.5256  L 210.0000 -190.5256  L 215.0000 -181.8653  L 225.0000 -181.8653  L 230.0000 -173.2051   L 235.0000 -181.8653  L 230.0000 -190.5256   L 240.0000 -190.5256  L 245.0000 -181.8653  L 240.0000 -173.2051  L 245.0000 -164.5448  L 255.0000 -164.5448   L 250.0000 -155.8846  L 240.0000 -155.8846   L 245.0000 -147.2243  L 255.0000 -147.2243  L 260.0000 -155.8846  L 270.0000 -155.8846  L 275.0000 -147.2243   L 280.0000 -155.8846  L 275.0000 -164.5448   L 285.0000 -164.5448  L 290.0000 -155.8846  L 285.0000 -147.2243  L 290.0000 -138.5641  L 300.0000 -138.5641   L 295.0000 -129.9038  L 285.0000 -129.9038   L 290.0000 -121.2436  L 300.0000 -121.2436  L 305.0000 -129.9038  L 315.0000 -129.9038  L 320.0000 -121.2436  L 330.0000 -121.2436   L 325.0000 -129.9038   L 335.0000 -129.9038   L 330.0000 -138.5641  L 320.0000 -138.5641  L 315.0000 -147.2243  L 305.0000 -147.2243  L 300.0000 -155.8846   L 310.0000 -155.8846   L 305.0000 -164.5448   L 315.0000 -164.5448  L 320.0000 -155.8846  L 330.0000 -155.8846  L 335.0000 -147.2243  L 345.0000 -147.2243   L 340.0000 -155.8846   L 350.0000 -155.8846   L 345.0000 -164.5448  L 335.0000 -164.5448  L 330.0000 -173.2051  L 320.0000 -173.2051   L 325.0000 -181.8653  L 335.0000 -181.8653   L 330.0000 -190.5256  L 320.0000 -190.5256  L 315.0000 -181.8653  L 305.0000 -181.8653  L 300.0000 -190.5256   L 295.0000 -181.8653  L 300.0000 -173.2051   L 290.0000 -173.2051  L 285.0000 -181.8653  L 290.0000 -190.5256  L 285.0000 -199.1858  L 275.0000 -199.1858   L 280.0000 -207.8461  L 290.0000 -207.8461   L 285.0000 -216.5064  L 275.0000 -216.5064  L 270.0000 -207.8461  L 260.0000 -207.8461  L 255.0000 -199.1858  L 245.0000 -199.1858   L 250.0000 -207.8461   L 240.0000 -207.8461   L 245.0000 -216.5064  L 255.0000 -216.5064  L 260.0000 -225.1666  L 270.0000 -225.1666   L 265.0000 -233.8269  L 255.0000 -233.8269   L 260.0000 -242.4871  L 270.0000 -242.4871  L 275.0000 -233.8269  L 285.0000 -233.8269  L 290.0000 -225.1666  L 300.0000 -225.1666   L 295.0000 -233.8269   L 305.0000 -233.8269   L 300.0000 -242.4871  L 290.0000 -242.4871  L 285.0000 -251.1474  L 275.0000 -251.1474   L 280.0000 -259.8076  L 290.0000 -259.8076   L 285.0000 -268.4679  L 275.0000 -268.4679  L 270.0000 -259.8076  L 260.0000 -259.8076  L 255.0000 -251.1474   L 250.0000 -259.8076  L 255.0000 -268.4679   L 245.0000 -268.4679  L 240.0000 -259.8076  L 245.0000 -251.1474  L 240.0000 -242.4871  L 230.0000 -242.4871   L 235.0000 -233.8269  L 245.0000 -233.8269   L 240.0000 -225.1666  L 230.0000 -225.1666  L 225.0000 -233.8269  L 215.0000 -233.8269  L 210.0000 -225.1666   L 205.0000 -233.8269  L 210.0000 -242.4871   L 200.0000 -242.4871  L 195.0000 -233.8269  L 200.0000 -225.1666  L 195.0000 -216.5064  L 185.0000 -216.5064   L 190.0000 -207.8461  L 200.0000 -207.8461   L 195.0000 -199.1858  L 185.0000 -199.1858  L 180.0000 -207.8461  L 170.0000 -207.8461  L 165.0000 -199.1858  L 155.0000 -199.1858   L 160.0000 -207.8461   L 150.0000 -207.8461   L 155.0000 -216.5064  L 165.0000 -216.5064  L 170.0000 -225.1666  L 180.0000 -225.1666  L 185.0000 -233.8269   L 175.0000 -233.8269   L 180.0000 -242.4871   L 170.0000 -242.4871  L 165.0000 -233.8269  L 155.0000 -233.8269  L 150.0000 -225.1666  L 140.0000 -225.1666   L 145.0000 -233.8269   L 135.0000 -233.8269   L 140.0000 -242.4871  L 150.0000 -242.4871  L 155.0000 -251.1474  L 165.0000 -251.1474   L 160.0000 -259.8076  L 150.0000 -259.8076   L 155.0000 -268.4679  L 165.0000 -268.4679  L 170.0000 -259.8076  L 180.0000 -259.8076  L 185.0000 -268.4679   L 190.0000 -259.8076  L 185.0000 -251.1474   L 195.0000 -251.1474  L 200.0000 -259.8076  L 195.0000 -268.4679  L 200.0000 -277.1281  L 210.0000 -277.1281   L 205.0000 -285.7884  L 195.0000 -285.7884   L 200.0000 -294.4486  L 210.0000 -294.4486  L 215.0000 -285.7884  L 225.0000 -285.7884  L 230.0000 -277.1281  L 240.0000 -277.1281   L 235.0000 -285.7884   L 245.0000 -285.7884   L 240.0000 -294.4486  L 230.0000 -294.4486  L 225.0000 -303.1089  L 215.0000 -303.1089   L 220.0000 -311.7691  L 230.0000 -311.7691   L 225.0000 -320.4294  L 215.0000 -320.4294  L 210.0000 -311.7691  L 200.0000 -311.7691  L 195.0000 -303.1089  L 185.0000 -303.1089   L 190.0000 -311.7691   L 180.0000 -311.7691   L 185.0000 -320.4294  L 195.0000 -320.4294  L 200.0000 -329.0897  L 210.0000 -329.0897   L 205.0000 -337.7499  L 195.0000 -337.7499   L 200.0000 -346.4102  L 210.0000 -346.4102  L 215.0000 -337.7499  L 225.0000 -337.7499  L 230.0000 -329.0897   L 235.0000 -337.7499  L 230.0000 -346.4102   L 240.0000 -346.4102  L 245.0000 -337.7499  L 240.0000 -329.0897  L 245.0000 -320.4294  L 255.0000 -320.4294   L 250.0000 -311.7691  L 240.0000 -311.7691   L 245.0000 -303.1089  L 255.0000 -303.1089  L 260.0000 -311.7691  L 270.0000 -311.7691  L 275.0000 -303.1089   L 280.0000 -311.7691  L 275.0000 -320.4294   L 285.0000 -320.4294  L 290.0000 -311.7691  L 285.0000 -303.1089  L 290.0000 -294.4486  L 285.0000 -285.7884  L 290.0000 -277.1281   L 295.0000 -285.7884   L 300.0000 -277.1281   L 305.0000 -285.7884  L 300.0000 -294.4486  L 305.0000 -303.1089  L 300.0000 -311.7691   L 310.0000 -311.7691  L 315.0000 -303.1089   L 320.0000 -311.7691  L 315.0000 -320.4294  L 305.0000 -320.4294  L 300.0000 -329.0897  L 290.0000 -329.0897  L 285.0000 -337.7499   L 295.0000 -337.7499   L 290.0000 -346.4102   L 300.0000 -346.4102  L 305.0000 -337.7499  L 315.0000 -337.7499  L 320.0000 -329.0897   L 325.0000 -337.7499  L 320.0000 -346.4102   L 330.0000 -346.4102  L 335.0000 -337.7499  L 330.0000 -329.0897  L 335.0000 -320.4294  L 330.0000 -311.7691   L 340.0000 -311.7691  L 345.0000 -320.4294   L 350.0000 -311.7691  L 345.0000 -303.1089  L 335.0000 -303.1089  L 330.0000 -294.4486  L 335.0000 -285.7884   L 325.0000 -285.7884  L 320.0000 -294.4486   L 315.0000 -285.7884  L 320.0000 -277.1281  L 330.0000 -277.1281  L 335.0000 -268.4679  L 345.0000 -268.4679   L 340.0000 -259.8076  L 330.0000 -259.8076   L 335.0000 -251.1474  L 345.0000 -251.1474  L 350.0000 -259.8076  L 360.0000 -259.8076  L 365.0000 -268.4679  L 375.0000 -268.4679   L 370.0000 -259.8076   L 380.0000 -259.8076   L 375.0000 -251.1474  L 365.0000 -251.1474  L 360.0000 -242.4871  L 350.0000 -242.4871   L 355.0000 -233.8269  L 365.0000 -233.8269   L 360.0000 -225.1666  L 350.0000 -225.1666  L 345.0000 -233.8269  L 335.0000 -233.8269  L 330.0000 -242.4871  L 320.0000 -242.4871   L 325.0000 -233.8269   L 315.0000 -233.8269   L 320.0000 -225.1666  L 330.0000 -225.1666  L 335.0000 -216.5064  L 345.0000 -216.5064   L 340.0000 -207.8461  L 330.0000 -207.8461   L 335.0000 -199.1858  L 345.0000 -199.1858  L 350.0000 -207.8461  L 360.0000 -207.8461  L 365.0000 -216.5064   L 370.0000 -207.8461  L 365.0000 -199.1858   L 375.0000 -199.1858  L 380.0000 -207.8461  L 375.0000 -216.5064  L 380.0000 -225.1666  L 390.0000 -225.1666   L 385.0000 -233.8269  L 375.0000 -233.8269   L 380.0000 -242.4871  L 390.0000 -242.4871  L 395.0000 -233.8269  L 405.0000 -233.8269  L 410.0000 -242.4871   L 415.0000 -233.8269  L 410.0000 -225.1666   L 420.0000 -225.1666  L 425.0000 -233.8269  L 420.0000 -242.4871  L 425.0000 -251.1474  L 420.0000 -259.8076  L 425.0000 -268.4679   L 430.0000 -259.8076   L 435.0000 -268.4679   L 440.0000 -259.8076  L 435.0000 -251.1474  L 440.0000 -242.4871  L 435.0000 -233.8269   L 445.0000 -233.8269  L 450.0000 -242.4871   L 455.0000 -233.8269  L 450.0000 -225.1666  L 440.0000 -225.1666  L 435.0000 -216.5064  L 425.0000 -216.5064  L 420.0000 -207.8461   L 430.0000 -207.8461   L 425.0000 -199.1858   L 435.0000 -199.1858  L 440.0000 -207.8461  L 450.0000 -207.8461  L 455.0000 -216.5064   L 460.0000 -207.8461  L 455.0000 -199.1858   L 465.0000 -199.1858  L 470.0000 -207.8461  L 465.0000 -216.5064  L 470.0000 -225.1666  L 465.0000 -233.8269   L 475.0000 -233.8269  L 480.0000 -225.1666   L 485.0000 -233.8269  L 480.0000 -242.4871  L 470.0000 -242.4871  L 465.0000 -251.1474  L 470.0000 -259.8076   L 460.0000 -259.8076  L 455.0000 -251.1474   L 450.0000 -259.8076  L 455.0000 -268.4679  L 465.0000 -268.4679  L 470.0000 -277.1281  L 480.0000 -277.1281   L 475.0000 -285.7884  L 465.0000 -285.7884   L 470.0000 -294.4486  L 480.0000 -294.4486  L 485.0000 -285.7884  L 495.0000 -285.7884  L 500.0000 -277.1281  L 510.0000 -277.1281   L 505.0000 -285.7884   L 515.0000 -285.7884   L 510.0000 -294.4486  L 500.0000 -294.4486  L 495.0000 -303.1089  L 485.0000 -303.1089   L 490.0000 -311.7691  L 500.0000 -311.7691   L 495.0000 -320.4294  L 485.0000 -320.4294  L 480.0000 -311.7691  L 470.0000 -311.7691  L 465.0000 -303.1089  L 455.0000 -303.1089   L 460.0000 -311.7691   L 450.0000 -311.7691   L 455.0000 -320.4294  L 465.0000 -320.4294  L 470.0000 -329.0897  L 480.0000 -329.0897   L 475.0000 -337.7499  L 465.0000 -337.7499   L 470.0000 -346.4102  L 480.0000 -346.4102  L 485.0000 -337.7499  L 495.0000 -337.7499  L 500.0000 -329.0897   L 505.0000 -337.7499  L 500.0000 -346.4102   L 510.0000 -346.4102  L 515.0000 -337.7499  L 510.0000 -329.0897  L 515.0000 -320.4294  L 525.0000 -320.4294   L 520.0000 -311.7691  L 510.0000 -311.7691   L 515.0000 -303.1089  L 525.0000 -303.1089  L 530.0000 -311.7691  L 540.0000 -311.7691  L 545.0000 -320.4294   L 550.0000 -311.7691  L 545.0000 -303.1089   L 555.0000 -303.1089  L 560.0000 -311.7691  L 555.0000 -320.4294  L 560.0000 -329.0897  L 570.0000 -329.0897   L 565.0000 -337.7499  L 555.0000 -337.7499   L 560.0000 -346.4102  L 570.0000 -346.4102  L 575.0000 -337.7499  L 585.0000 -337.7499  L 590.0000 -346.4102  L 600.0000 -346.4102   L 595.0000 -337.7499   L 605.0000 -337.7499   L 600.0000 -329.0897  L 590.0000 -329.0897  L 585.0000 -320.4294  L 575.0000 -320.4294  L 570.0000 -311.7691   L 580.0000 -311.7691   L 575.0000 -303.1089   L 585.0000 -303.1089  L 590.0000 -311.7691  L 600.0000 -311.7691  L 605.0000 -320.4294  L 615.0000 -320.4294   L 610.0000 -311.7691   L 620.0000 -311.7691   L 615.0000 -303.1089  L 605.0000 -303.1089  L 600.0000 -294.4486  L 590.0000 -294.4486   L 595.0000 -285.7884  L 605.0000 -285.7884   L 600.0000 -277.1281  L 590.0000 -277.1281  L 585.0000 -285.7884  L 575.0000 -285.7884  L 570.0000 -277.1281   L 565.0000 -285.7884  L 570.0000 -294.4486   L 560.0000 -294.4486  L 555.0000 -285.7884  L 560.0000 -277.1281  L 555.0000 -268.4679  L 545.0000 -268.4679   L 550.0000 -259.8076  L 560.0000 -259.8076   L 555.0000 -251.1474  L 545.0000 -251.1474  L 540.0000 -259.8076  L 530.0000 -259.8076  L 525.0000 -251.1474   L 520.0000 -259.8076  L 525.0000 -268.4679   L 515.0000 -268.4679  L 510.0000 -259.8076  L 515.0000 -251.1474  L 510.0000 -242.4871  L 500.0000 -242.4871  L 495.0000 -233.8269   L 505.0000 -233.8269   L 500.0000 -225.1666   L 510.0000 -225.1666  L 515.0000 -233.8269  L 525.0000 -233.8269  L 530.0000 -242.4871  L 540.0000 -242.4871   L 535.0000 -233.8269   L 545.0000 -233.8269   L 540.0000 -225.1666  L 530.0000 -225.1666  L 525.0000 -216.5064  L 515.0000 -216.5064  L 510.0000 -207.8461   L 520.0000 -207.8461   L 515.0000 -199.1858   L 525.0000 -199.1858  L 530.0000 -207.8461  L 540.0000 -207.8461  L 545.0000 -216.5064   L 550.0000 -207.8461  L 545.0000 -199.1858   L 555.0000 -199.1858  L 560.0000 -207.8461  L 555.0000 -216.5064  L 560.0000 -225.1666  L 570.0000 -225.1666   L 565.0000 -233.8269  L 555.0000 -233.8269   L 560.0000 -242.4871  L 570.0000 -242.4871  L 575.0000 -233.8269  L 585.0000 -233.8269  L 590.0000 -242.4871   L 595.0000 -233.8269  L 590.0000 -225.1666   L 600.0000 -225.1666  L 605.0000 -233.8269  L 600.0000 -242.4871  L 605.0000 -251.1474  L 615.0000 -251.1474   L 610.0000 -259.8076  L 600.0000 -259.8076   L 605.0000 -268.4679  L 615.0000 -268.4679  L 620.0000 -259.8076  L 630.0000 -259.8076  L 635.0000 -268.4679  L 645.0000 -268.4679   L 640.0000 -259.8076   L 650.0000 -259.8076   L 645.0000 -251.1474  L 635.0000 -251.1474  L 630.0000 -242.4871  L 620.0000 -242.4871  L 615.0000 -233.8269   L 625.0000 -233.8269   L 620.0000 -225.1666   L 630.0000 -225.1666  L 635.0000 -233.8269  L 645.0000 -233.8269  L 650.0000 -242.4871  L 660.0000 -242.4871   L 655.0000 -233.8269   L 665.0000 -233.8269   L 660.0000 -225.1666  L 650.0000 -225.1666  L 645.0000 -216.5064  L 635.0000 -216.5064   L 640.0000 -207.8461  L 650.0000 -207.8461   L 645.0000 -199.1858  L 635.0000 -199.1858  L 630.0000 -207.8461  L 620.0000 -207.8461  L 615.0000 -199.1858   L 610.0000 -207.8461  L 615.0000 -216.5064   L 605.0000 -216.5064  L 600.0000 -207.8461  L 605.0000 -199.1858  L 600.0000 -190.5256  L 590.0000 -190.5256   L 595.0000 -181.8653  L 605.0000 -181.8653   L 600.0000 -173.2051  L 590.0000 -173.2051  L 585.0000 -181.8653  L 575.0000 -181.8653  L 570.0000 -190.5256  L 560.0000 -190.5256   L 565.0000 -181.8653   L 555.0000 -181.8653   L 560.0000 -173.2051  L 570.0000 -173.2051  L 575.0000 -164.5448  L 585.0000 -164.5448   L 580.0000 -155.8846  L 570.0000 -155.8846   L 575.0000 -147.2243  L 585.0000 -147.2243  L 590.0000 -155.8846  L 600.0000 -155.8846  L 605.0000 -164.5448  L 615.0000 -164.5448   L 610.0000 -155.8846   L 620.0000 -155.8846   L 615.0000 -147.2243  L 605.0000 -147.2243  L 600.0000 -138.5641  L 590.0000 -138.5641   L 595.0000 -129.9038  L 605.0000 -129.9038   L 600.0000 -121.2436  L 590.0000 -121.2436  L 585.0000 -129.9038  L 575.0000 -129.9038  L 570.0000 -138.5641   L 565.0000 -129.9038  L 570.0000 -121.2436   L 560.0000 -121.2436  L 555.0000 -129.9038  L 560.0000 -138.5641  L 555.0000 -147.2243  L 545.0000 -147.2243   L 550.0000 -155.8846  L 560.0000 -155.8846   L 555.0000 -164.5448  L 545.0000 -164.5448  L 540.0000 -155.8846  L 530.0000 -155.8846  L 525.0000 -147.2243   L 520.0000 -155.8846  L 525.0000 -164.5448   L 515.0000 -164.5448  L 510.0000 -155.8846  L 515.0000 -147.2243  L 510.0000 -138.5641  L 515.0000 -129.9038  L 510.0000 -121.2436   L 505.0000 -129.9038   L 500.0000 -121.2436   L 495.0000 -129.9038  L 500.0000 -138.5641  L 495.0000 -147.2243  L 500.0000 -155.8846   L 490.0000 -155.8846  L 485.0000 -147.2243   L 480.0000 -155.8846  L 485.0000 -164.5448  L 495.0000 -164.5448  L 500.0000 -173.2051  L 510.0000 -173.2051  L 515.0000 -181.8653   L 505.0000 -181.8653   L 510.0000 -190.5256   L 500.0000 -190.5256  L 495.0000 -181.8653  L 485.0000 -181.8653  L 480.0000 -173.2051   L 475.0000 -181.8653  L 480.0000 -190.5256   L 470.0000 -190.5256  L 465.0000 -181.8653  L 470.0000 -173.2051  L 465.0000 -164.5448  L 470.0000 -155.8846   L 460.0000 -155.8846  L 455.0000 -164.5448   L 450.0000 -155.8846  L 455.0000 -147.2243  L 465.0000 -147.2243  L 470.0000 -138.5641  L 465.0000 -129.9038   L 475.0000 -129.9038  L 480.0000 -138.5641   L 485.0000 -129.9038  L 480.0000 -121.2436  L 470.0000 -121.2436  L 465.0000 -112.5833  L 470.0000 -103.9230   L 460.0000 -103.9230  L 455.0000 -112.5833   L 450.0000 -103.9230  L 455.0000 -95.2628  L 465.0000 -95.2628  L 470.0000 -86.6025  L 480.0000 -86.6025  L 485.0000 -77.9423   L 475.0000 -77.9423   L 480.0000 -69.2820   L 470.0000 -69.2820  L 465.0000 -77.9423  L 455.0000 -77.9423  L 450.0000 -86.6025   L 445.0000 -77.9423  L 450.0000 -69.2820   L 440.0000 -69.2820  L 435.0000 -77.9423  L 440.0000 -86.6025  L 435.0000 -95.2628  L 440.0000 -103.9230  L 435.0000 -112.5833   L 430.0000 -103.9230   L 425.0000 -112.5833   L 420.0000 -103.9230  L 425.0000 -95.2628  L 420.0000 -86.6025  L 425.0000 -77.9423   L 415.0000 -77.9423  L 410.0000 -86.6025   L 405.0000 -77.9423  L 410.0000 -69.2820  L 420.0000 -69.2820  L 425.0000 -60.6218  L 435.0000 -60.6218   L 430.0000 -51.9615  L 420.0000 -51.9615   L 425.0000 -43.3013  L 435.0000 -43.3013  L 440.0000 -51.9615  L 450.0000 -51.9615  L 455.0000 -43.3013   L 460.0000 -51.9615  L 455.0000 -60.6218   L 465.0000 -60.6218  L 470.0000 -51.9615  L 465.0000 -43.3013  L 470.0000 -34.6410  L 465.0000 -25.9808   L 475.0000 -25.9808  L 480.0000 -34.6410   L 485.0000 -25.9808  L 480.0000 -17.3205  L 470.0000 -17.3205  L 465.0000 -8.6603  L 455.0000 -8.6603  L 450.0000 0.0000   L 460.0000 0.0000   L 455.0000 8.6603   L 465.0000 8.6603  L 470.0000 0.0000  L 480.0000 0.0000  L 485.0000 -8.6603   L 490.0000 0.0000  L 485.0000 8.6603   L 495.0000 8.6603  L 500.0000 0.0000  L 495.0000 -8.6603  L 500.0000 -17.3205  L 495.0000 -25.9808  L 500.0000 -34.6410   L 505.0000 -25.9808   L 510.0000 -34.6410   L 515.0000 -25.9808  L 510.0000 -17.3205  L 515.0000 -8.6603  L 510.0000 0.0000   L 520.0000 0.0000  L 525.0000 -8.6603   L 530.0000 0.0000  L 525.0000 8.6603  L 515.0000 8.6603  L 510.0000 17.3205  L 500.0000 17.3205   L 505.0000 25.9808  L 515.0000 25.9808   L 510.0000 34.6410  L 500.0000 34.6410  L 495.0000 25.9808  L 485.0000 25.9808  L 480.0000 34.6410   L 475.0000 25.9808  L 480.0000 17.3205   L 470.0000 17.3205  L 465.0000 25.9808  L 470.0000 34.6410  L 465.0000 43.3013  L 470.0000 51.9615   L 460.0000 51.9615  L 455.0000 43.3013   L 450.0000 51.9615  L 455.0000 60.6218  L 465.0000 60.6218  L 470.0000 69.2820  L 465.0000 77.9423   L 475.0000 77.9423  L 480.0000 69.2820   L 485.0000 77.9423  L 480.0000 86.6025  L 470.0000 86.6025  L 465.0000 95.2628  L 470.0000 103.9230  L 465.0000 112.5833   L 460.0000 103.9230   L 455.0000 112.5833   L 450.0000 103.9230  L 455.0000 95.2628  L 450.0000 86.6025  L 455.0000 77.9423  L 450.0000 69.2820   L 445.0000 77.9423   L 440.0000 69.2820   L 435.0000 77.9423  L 440.0000 86.6025  L 435.0000 95.2628  L 440.0000 103.9230  L 435.0000 112.5833   L 430.0000 103.9230   L 425.0000 112.5833   L 420.0000 103.9230  L 425.0000 95.2628  L 420.0000 86.6025  L 425.0000 77.9423   L 415.0000 77.9423  L 410.0000 86.6025   L 405.0000 77.9423  L 410.0000 69.2820  L 420.0000 69.2820  L 425.0000 60.6218  L 420.0000 51.9615   L 430.0000 51.9615  L 435.0000 60.6218   L 440.0000 51.9615  L 435.0000 43.3013  L 425.0000 43.3013  L 420.0000 34.6410  L 410.0000 34.6410   L 415.0000 25.9808  L 425.0000 25.9808   L 420.0000 17.3205  L 410.0000 17.3205  L 405.0000 25.9808  L 395.0000 25.9808  L 390.0000 17.3205   L 385.0000 25.9808  L 390.0000 34.6410   L 380.0000 34.6410  L 375.0000 25.9808  L 380.0000 17.3205  L 375.0000 8.6603  L 365.0000 8.6603  L 360.0000 0.0000   L 370.0000 0.0000   L 365.0000 -8.6603   L 375.0000 -8.6603  L 380.0000 0.0000  L 390.0000 0.0000  L 395.0000 -8.6603  L 405.0000 -8.6603   L 400.0000 0.0000 L 395.0000 8.6603   L 405.0000 8.6603  L 410.0000 0.0000  L 420.0000 0.0000  L 425.0000 8.6603  L 435.0000 8.6603   L 430.0000 0.0000   L 440.0000 0.0000   L 435.0000 -8.6603  L 425.0000 -8.6603  L 420.0000 -17.3205  L 410.0000 -17.3205   L 415.0000 -25.9808  L 425.0000 -25.9808   L 420.0000 -34.6410  L 410.0000 -34.6410  L 405.0000 -25.9808  L 395.0000 -25.9808  L 390.0000 -34.6410   L 385.0000 -25.9808  L 390.0000 -17.3205   L 380.0000 -17.3205  L 375.0000 -25.9808  L 380.0000 -34.6410  L 375.0000 -43.3013  L 380.0000 -51.9615   L 370.0000 -51.9615  L 365.0000 -43.3013   L 360.0000 -51.9615  L 365.0000 -60.6218  L 375.0000 -60.6218  L 380.0000 -69.2820  L 375.0000 -77.9423   L 385.0000 -77.9423  L 390.0000 -69.2820   L 395.0000 -77.9423  L 390.0000 -86.6025  L 380.0000 -86.6025  L 375.0000 -95.2628  L 380.0000 -103.9230  L 375.0000 -112.5833   L 370.0000 -103.9230   L 365.0000 -112.5833   L 360.0000 -103.9230  L 365.0000 -95.2628  L 360.0000 -86.6025  L 365.0000 -77.9423  L 360.0000 -69.2820   L 355.0000 -77.9423   L 350.0000 -69.2820   L 345.0000 -77.9423  L 350.0000 -86.6025  L 345.0000 -95.2628  L 350.0000 -103.9230  L 345.0000 -112.5833   L 340.0000 -103.9230   L 335.0000 -112.5833   L 330.0000 -103.9230  L 335.0000 -95.2628  L 330.0000 -86.6025  L 335.0000 -77.9423   L 325.0000 -77.9423  L 320.0000 -86.6025   L 315.0000 -77.9423  L 320.0000 -69.2820  L 330.0000 -69.2820  L 335.0000 -60.6218  L 330.0000 -51.9615   L 340.0000 -51.9615  L 345.0000 -60.6218   L 350.0000 -51.9615  L 345.0000 -43.3013  L 335.0000 -43.3013  L 330.0000 -34.6410  L 335.0000 -25.9808   L 325.0000 -25.9808  L 320.0000 -34.6410   L 315.0000 -25.9808  L 320.0000 -17.3205  L 330.0000 -17.3205  L 335.0000 -8.6603  L 345.0000 -8.6603  L 350.0000 0.0000   L 340.0000 0.0000   L 345.0000 8.6603   L 335.0000 8.6603  L 330.0000 0.0000  L 320.0000 0.0000  L 315.0000 -8.6603   L 310.0000 0.0000  L 315.0000 8.6603   L 305.0000 8.6603  L 300.0000 0.0000  L 305.0000 -8.6603  L 300.0000 -17.3205  L 305.0000 -25.9808  L 300.0000 -34.6410   L 295.0000 -25.9808   L 290.0000 -34.6410   L 285.0000 -25.9808  L 290.0000 -17.3205  L 285.0000 -8.6603  L 290.0000 0.0000   L 280.0000 0.0000  L 275.0000 -8.6603   L 270.0000 0.0000  L 275.0000 8.6603  L 285.0000 8.6603  L 290.0000 17.3205  L 300.0000 17.3205   L 295.0000 25.9808  L 285.0000 25.9808   L 290.0000 34.6410  L 300.0000 34.6410  L 305.0000 25.9808  L 315.0000 25.9808  L 320.0000 34.6410   L 325.0000 25.9808  L 320.0000 17.3205   L 330.0000 17.3205  L 335.0000 25.9808  L 330.0000 34.6410  L 335.0000 43.3013  L 330.0000 51.9615   L 340.0000 51.9615  L 345.0000 43.3013   L 350.0000 51.9615  L 345.0000 60.6218  L 335.0000 60.6218  L 330.0000 69.2820  L 320.0000 69.2820  L 315.0000 77.9423   L 325.0000 77.9423   L 320.0000 86.6025   L 330.0000 86.6025  L 335.0000 77.9423  L 345.0000 77.9423  L 350.0000 69.2820   L 355.0000 77.9423  L 350.0000 86.6025   L 360.0000 86.6025  L 365.0000 77.9423  L 360.0000 69.2820  L 365.0000 60.6218  L 360.0000 51.9615  L 365.0000 43.3013   L 370.0000 51.9615   L 375.0000 43.3013   L 380.0000 51.9615  L 375.0000 60.6218  L 380.0000 69.2820  L 375.0000 77.9423   L 385.0000 77.9423  L 390.0000 69.2820   L 395.0000 77.9423  L 390.0000 86.6025  L 380.0000 86.6025  L 375.0000 95.2628  L 365.0000 95.2628   L 370.0000 103.9230  L 380.0000 103.9230   L 375.0000 112.5833  L 365.0000 112.5833  L 360.0000 103.9230  L 350.0000 103.9230  L 345.0000 112.5833   L 340.0000 103.9230  L 345.0000 95.2628   L 335.0000 95.2628  L 330.0000 103.9230  L 335.0000 112.5833  L 330.0000 121.2436  L 320.0000 121.2436   L 325.0000 129.9038  L 335.0000 129.9038   L 330.0000 138.5641  L 320.0000 138.5641  L 315.0000 129.9038  L 305.0000 129.9038  L 300.0000 121.2436  L 290.0000 121.2436   L 295.0000 129.9038   L 285.0000 129.9038   L 290.0000 138.5641  L 300.0000 138.5641  L 305.0000 147.2243  L 315.0000 147.2243   L 310.0000 155.8846  L 300.0000 155.8846   L 305.0000 164.5448  L 315.0000 164.5448  L 320.0000 155.8846  L 330.0000 155.8846  L 335.0000 147.2243  L 345.0000 147.2243   L 340.0000 155.8846   L 350.0000 155.8846   L 345.0000 164.5448  L 335.0000 164.5448  L 330.0000 173.2051  L 320.0000 173.2051   L 325.0000 181.8653  L 335.0000 181.8653   L 330.0000 190.5256  L 320.0000 190.5256  L 315.0000 181.8653  L 305.0000 181.8653  L 300.0000 173.2051   L 295.0000 181.8653  L 300.0000 190.5256   L 290.0000 190.5256  L 285.0000 181.8653  L 290.0000 173.2051  L 285.0000 164.5448  L 275.0000 164.5448   L 280.0000 155.8846  L 290.0000 155.8846   L 285.0000 147.2243  L 275.0000 147.2243  L 270.0000 155.8846  L 260.0000 155.8846  L 255.0000 164.5448   L 250.0000 155.8846  L 255.0000 147.2243   L 245.0000 147.2243  L 240.0000 155.8846  L 245.0000 164.5448  L 240.0000 173.2051  L 245.0000 181.8653  L 240.0000 190.5256   L 235.0000 181.8653   L 230.0000 190.5256   L 225.0000 181.8653  L 230.0000 173.2051  L 225.0000 164.5448  L 230.0000 155.8846   L 220.0000 155.8846  L 215.0000 164.5448   L 210.0000 155.8846  L 215.0000 147.2243  L 225.0000 147.2243  L 230.0000 138.5641  L 240.0000 138.5641  L 245.0000 129.9038   L 235.0000 129.9038   L 240.0000 121.2436   L 230.0000 121.2436  L 225.0000 129.9038  L 215.0000 129.9038  L 210.0000 138.5641   L 205.0000 129.9038  L 210.0000 121.2436   L 200.0000 121.2436  L 195.0000 129.9038  L 200.0000 138.5641  L 195.0000 147.2243  L 200.0000 155.8846   L 190.0000 155.8846  L 185.0000 147.2243   L 180.0000 155.8846  L 185.0000 164.5448  L 195.0000 164.5448  L 200.0000 173.2051  L 195.0000 181.8653   L 205.0000 181.8653  L 210.0000 173.2051   L 215.0000 181.8653  L 210.0000 190.5256  L 200.0000 190.5256  L 195.0000 199.1858  L 185.0000 199.1858   L 190.0000 207.8461  L 200.0000 207.8461   L 195.0000 216.5064  L 185.0000 216.5064  L 180.0000 207.8461  L 170.0000 207.8461  L 165.0000 216.5064   L 160.0000 207.8461  L 165.0000 199.1858   L 155.0000 199.1858  L 150.0000 207.8461  L 155.0000 216.5064  L 150.0000 225.1666  L 140.0000 225.1666  L 135.0000 233.8269   L 145.0000 233.8269   L 140.0000 242.4871   L 150.0000 242.4871  L 155.0000 233.8269  L 165.0000 233.8269  L 170.0000 225.1666  L 180.0000 225.1666   L 175.0000 233.8269   L 185.0000 233.8269   L 180.0000 242.4871  L 170.0000 242.4871  L 165.0000 251.1474  L 155.0000 251.1474  L 150.0000 259.8076   L 160.0000 259.8076   L 155.0000 268.4679   L 165.0000 268.4679  L 170.0000 259.8076  L 180.0000 259.8076  L 185.0000 251.1474   L 190.0000 259.8076  L 185.0000 268.4679   L 195.0000 268.4679  L 200.0000 259.8076  L 195.0000 251.1474  L 200.0000 242.4871  L 210.0000 242.4871   L 205.0000 233.8269  L 195.0000 233.8269   L 200.0000 225.1666  L 210.0000 225.1666  L 215.0000 233.8269  L 225.0000 233.8269  L 230.0000 225.1666   L 235.0000 233.8269  L 230.0000 242.4871   L 240.0000 242.4871  L 245.0000 233.8269  L 240.0000 225.1666  L 245.0000 216.5064  L 255.0000 216.5064   L 250.0000 207.8461  L 240.0000 207.8461   L 245.0000 199.1858  L 255.0000 199.1858  L 260.0000 207.8461  L 270.0000 207.8461  L 275.0000 199.1858  L 285.0000 199.1858   L 280.0000 207.8461   L 290.0000 207.8461   L 285.0000 216.5064  L 275.0000 216.5064  L 270.0000 225.1666  L 260.0000 225.1666  L 255.0000 233.8269   L 265.0000 233.8269   L 260.0000 242.4871   L 270.0000 242.4871  L 275.0000 233.8269  L 285.0000 233.8269  L 290.0000 225.1666  L 300.0000 225.1666   L 295.0000 233.8269   L 305.0000 233.8269   L 300.0000 242.4871  L 290.0000 242.4871  L 285.0000 251.1474  L 275.0000 251.1474   L 280.0000 259.8076  L 290.0000 259.8076   L 285.0000 268.4679  L 275.0000 268.4679  L 270.0000 259.8076  L 260.0000 259.8076  L 255.0000 268.4679   L 250.0000 259.8076  L 255.0000 251.1474   L 245.0000 251.1474  L 240.0000 259.8076  L 245.0000 268.4679  L 240.0000 277.1281  L 230.0000 277.1281   L 235.0000 285.7884  L 245.0000 285.7884   L 240.0000 294.4486  L 230.0000 294.4486  L 225.0000 285.7884  L 215.0000 285.7884  L 210.0000 294.4486   L 205.0000 285.7884  L 210.0000 277.1281   L 200.0000 277.1281  L 195.0000 285.7884  L 200.0000 294.4486  L 195.0000 303.1089  L 185.0000 303.1089  L 180.0000 311.7691   L 190.0000 311.7691   L 185.0000 320.4294   L 195.0000 320.4294  L 200.0000 311.7691  L 210.0000 311.7691  L 215.0000 303.1089  L 225.0000 303.1089   L 220.0000 311.7691   L 230.0000 311.7691   L 225.0000 320.4294  L 215.0000 320.4294  L 210.0000 329.0897  L 200.0000 329.0897  L 195.0000 337.7499   L 205.0000 337.7499   L 200.0000 346.4102   L 210.0000 346.4102  L 215.0000 337.7499  L 225.0000 337.7499  L 230.0000 329.0897   L 235.0000 337.7499  L 230.0000 346.4102   L 240.0000 346.4102  L 245.0000 337.7499  L 240.0000 329.0897  L 245.0000 320.4294  L 255.0000 320.4294   L 250.0000 311.7691  L 240.0000 311.7691   L 245.0000 303.1089  L 255.0000 303.1089  L 260.0000 311.7691  L 270.0000 311.7691  L 275.0000 303.1089   L 280.0000 311.7691  L 275.0000 320.4294   L 285.0000 320.4294  L 290.0000 311.7691  L 285.0000 303.1089  L 290.0000 294.4486  L 285.0000 285.7884  L 290.0000 277.1281   L 295.0000 285.7884   L 300.0000 277.1281   L 305.0000 285.7884  L 300.0000 294.4486  L 305.0000 303.1089  L 300.0000 311.7691   L 310.0000 311.7691  L 315.0000 303.1089   L 320.0000 311.7691  L 315.0000 320.4294  L 305.0000 320.4294  L 300.0000 329.0897  L 290.0000 329.0897  L 285.0000 337.7499   L 295.0000 337.7499   L 290.0000 346.4102   L 300.0000 346.4102  L 305.0000 337.7499  L 315.0000 337.7499  L 320.0000 329.0897   L 325.0000 337.7499  L 320.0000 346.4102   L 330.0000 346.4102  L 335.0000 337.7499  L 330.0000 329.0897  L 335.0000 320.4294  L 330.0000 311.7691   L 340.0000 311.7691  L 345.0000 320.4294   L 350.0000 311.7691  L 345.0000 303.1089  L 335.0000 303.1089  L 330.0000 294.4486  L 335.0000 285.7884   L 325.0000 285.7884  L 320.0000 294.4486   L 315.0000 285.7884  L 320.0000 277.1281  L 330.0000 277.1281  L 335.0000 268.4679  L 345.0000 268.4679   L 340.0000 259.8076  L 330.0000 259.8076   L 335.0000 251.1474  L 345.0000 251.1474  L 350.0000 259.8076  L 360.0000 259.8076  L 365.0000 268.4679  L 375.0000 268.4679   L 370.0000 259.8076   L 380.0000 259.8076   L 375.0000 251.1474  L 365.0000 251.1474  L 360.0000 242.4871  L 350.0000 242.4871   L 355.0000 233.8269  L 365.0000 233.8269   L 360.0000 225.1666  L 350.0000 225.1666  L 345.0000 233.8269  L 335.0000 233.8269  L 330.0000 242.4871  L 320.0000 242.4871   L 325.0000 233.8269   L 315.0000 233.8269   L 320.0000 225.1666  L 330.0000 225.1666  L 335.0000 216.5064  L 345.0000 216.5064   L 340.0000 207.8461  L 330.0000 207.8461   L 335.0000 199.1858  L 345.0000 199.1858  L 350.0000 207.8461  L 360.0000 207.8461  L 365.0000 216.5064   L 370.0000 207.8461  L 365.0000 199.1858   L 375.0000 199.1858  L 380.0000 207.8461  L 375.0000 216.5064  L 380.0000 225.1666  L 390.0000 225.1666   L 385.0000 233.8269  L 375.0000 233.8269   L 380.0000 242.4871  L 390.0000 242.4871  L 395.0000 233.8269  L 405.0000 233.8269  L 410.0000 225.1666   L 415.0000 233.8269  L 410.0000 242.4871   L 420.0000 242.4871  L 425.0000 233.8269  L 420.0000 225.1666  L 425.0000 216.5064  L 420.0000 207.8461  L 425.0000 199.1858   L 430.0000 207.8461   L 435.0000 199.1858   L 440.0000 207.8461  L 435.0000 216.5064  L 440.0000 225.1666  L 435.0000 233.8269   L 445.0000 233.8269  L 450.0000 225.1666   L 455.0000 233.8269  L 450.0000 242.4871  L 440.0000 242.4871  L 435.0000 251.1474  L 425.0000 251.1474  L 420.0000 259.8076   L 430.0000 259.8076   L 425.0000 268.4679   L 435.0000 268.4679  L 440.0000 259.8076  L 450.0000 259.8076  L 455.0000 251.1474   L 460.0000 259.8076  L 455.0000 268.4679   L 465.0000 268.4679  L 470.0000 259.8076  L 465.0000 251.1474  L 470.0000 242.4871  L 465.0000 233.8269   L 475.0000 233.8269  L 480.0000 242.4871   L 485.0000 233.8269  L 480.0000 225.1666  L 470.0000 225.1666  L 465.0000 216.5064  L 470.0000 207.8461   L 460.0000 207.8461  L 455.0000 216.5064   L 450.0000 207.8461  L 455.0000 199.1858  L 465.0000 199.1858  L 470.0000 190.5256  L 465.0000 181.8653   L 475.0000 181.8653  L 480.0000 190.5256   L 485.0000 181.8653  L 480.0000 173.2051  L 470.0000 173.2051  L 465.0000 164.5448  L 470.0000 155.8846   L 460.0000 155.8846  L 455.0000 164.5448   L 450.0000 155.8846  L 455.0000 147.2243  L 465.0000 147.2243  L 470.0000 138.5641  L 465.0000 129.9038  L 470.0000 121.2436   L 475.0000 129.9038   L 480.0000 121.2436   L 485.0000 129.9038  L 480.0000 138.5641  L 485.0000 147.2243  L 480.0000 155.8846  L 485.0000 164.5448   L 490.0000 155.8846   L 495.0000 164.5448   L 500.0000 155.8846  L 495.0000 147.2243  L 500.0000 138.5641  L 495.0000 129.9038  L 500.0000 121.2436   L 505.0000 129.9038   L 510.0000 121.2436   L 515.0000 129.9038  L 510.0000 138.5641  L 515.0000 147.2243  L 510.0000 155.8846   L 520.0000 155.8846  L 525.0000 147.2243   L 530.0000 155.8846  L 525.0000 164.5448  L 515.0000 164.5448  L 510.0000 173.2051  L 515.0000 181.8653   L 505.0000 181.8653  L 500.0000 173.2051   L 495.0000 181.8653  L 500.0000 190.5256  L 510.0000 190.5256  L 515.0000 199.1858  L 510.0000 207.8461   L 520.0000 207.8461  L 525.0000 199.1858   L 530.0000 207.8461  L 525.0000 216.5064  L 515.0000 216.5064  L 510.0000 225.1666  L 500.0000 225.1666  L 495.0000 233.8269   L 505.0000 233.8269   L 500.0000 242.4871   L 510.0000 242.4871  L 515.0000 233.8269  L 525.0000 233.8269  L 530.0000 225.1666   L 535.0000 233.8269  L 530.0000 242.4871   L 540.0000 242.4871  L 545.0000 233.8269  L 540.0000 225.1666  L 545.0000 216.5064  L 540.0000 207.8461  L 545.0000 199.1858   L 550.0000 207.8461   L 555.0000 199.1858   L 560.0000 207.8461  L 555.0000 216.5064  L 560.0000 225.1666  L 555.0000 233.8269   L 565.0000 233.8269  L 570.0000 225.1666   L 575.0000 233.8269  L 570.0000 242.4871  L 560.0000 242.4871  L 555.0000 251.1474  L 545.0000 251.1474   L 550.0000 259.8076  L 560.0000 259.8076   L 555.0000 268.4679  L 545.0000 268.4679  L 540.0000 259.8076  L 530.0000 259.8076  L 525.0000 268.4679   L 520.0000 259.8076  L 525.0000 251.1474   L 515.0000 251.1474  L 510.0000 259.8076  L 515.0000 268.4679  L 510.0000 277.1281  L 500.0000 277.1281   L 505.0000 285.7884  L 515.0000 285.7884   L 510.0000 294.4486  L 500.0000 294.4486  L 495.0000 285.7884  L 485.0000 285.7884  L 480.0000 294.4486   L 475.0000 285.7884  L 480.0000 277.1281   L 470.0000 277.1281  L 465.0000 285.7884  L 470.0000 294.4486  L 465.0000 303.1089  L 455.0000 303.1089  L 450.0000 311.7691   L 460.0000 311.7691   L 455.0000 320.4294   L 465.0000 320.4294  L 470.0000 311.7691  L 480.0000 311.7691  L 485.0000 303.1089  L 495.0000 303.1089   L 490.0000 311.7691   L 500.0000 311.7691   L 495.0000 320.4294  L 485.0000 320.4294  L 480.0000 329.0897  L 470.0000 329.0897  L 465.0000 337.7499   L 475.0000 337.7499   L 470.0000 346.4102   L 480.0000 346.4102  L 485.0000 337.7499  L 495.0000 337.7499  L 500.0000 329.0897   L 505.0000 337.7499  L 500.0000 346.4102   L 510.0000 346.4102  L 515.0000 337.7499  L 510.0000 329.0897  L 515.0000 320.4294  L 525.0000 320.4294   L 520.0000 311.7691  L 510.0000 311.7691   L 515.0000 303.1089  L 525.0000 303.1089  L 530.0000 311.7691  L 540.0000 311.7691  L 545.0000 303.1089   L 550.0000 311.7691  L 545.0000 320.4294   L 555.0000 320.4294  L 560.0000 311.7691  L 555.0000 303.1089  L 560.0000 294.4486  L 555.0000 285.7884  L 560.0000 277.1281   L 565.0000 285.7884   L 570.0000 277.1281   L 575.0000 285.7884  L 570.0000 294.4486  L 575.0000 303.1089  L 570.0000 311.7691   L 580.0000 311.7691  L 585.0000 303.1089   L 590.0000 311.7691  L 585.0000 320.4294  L 575.0000 320.4294  L 570.0000 329.0897  L 560.0000 329.0897  L 555.0000 337.7499   L 565.0000 337.7499   L 560.0000 346.4102   L 570.0000 346.4102  L 575.0000 337.7499  L 585.0000 337.7499  L 590.0000 329.0897   L 595.0000 337.7499  L 590.0000 346.4102   L 600.0000 346.4102  L 605.0000 337.7499  L 600.0000 329.0897  L 605.0000 320.4294  L 600.0000 311.7691   L 610.0000 311.7691  L 615.0000 320.4294   L 620.0000 311.7691  L 615.0000 303.1089  L 605.0000 303.1089  L 600.0000 294.4486  L 605.0000 285.7884   L 595.0000 285.7884  L 590.0000 294.4486   L 585.0000 285.7884  L 590.0000 277.1281  L 600.0000 277.1281  L 605.0000 268.4679  L 600.0000 259.8076   L 610.0000 259.8076  L 615.0000 268.4679   L 620.0000 259.8076  L 615.0000 251.1474  L 605.0000 251.1474  L 600.0000 242.4871  L 590.0000 242.4871  L 585.0000 233.8269   L 595.0000 233.8269   L 590.0000 225.1666   L 600.0000 225.1666  L 605.0000 233.8269  L 615.0000 233.8269  L 620.0000 242.4871   L 625.0000 233.8269  L 620.0000 225.1666   L 630.0000 225.1666  L 635.0000 233.8269  L 630.0000 242.4871  L 635.0000 251.1474  L 630.0000 259.8076  L 635.0000 268.4679   L 640.0000 259.8076   L 645.0000 268.4679   L 650.0000 259.8076  L 645.0000 251.1474  L 650.0000 242.4871  L 645.0000 233.8269   L 655.0000 233.8269  L 660.0000 242.4871   L 665.0000 233.8269  L 660.0000 225.1666  L 650.0000 225.1666  L 645.0000 216.5064  L 635.0000 216.5064   L 640.0000 207.8461  L 650.0000 207.8461   L 645.0000 199.1858  L 635.0000 199.1858  L 630.0000 207.8461  L 620.0000 207.8461  L 615.0000 199.1858   L 610.0000 207.8461  L 615.0000 216.5064   L 605.0000 216.5064  L 600.0000 207.8461  L 605.0000 199.1858  L 600.0000 190.5256  L 605.0000 181.8653   L 595.0000 181.8653  L 590.0000 190.5256   L 585.0000 181.8653  L 590.0000 173.2051  L 600.0000 173.2051  L 605.0000 164.5448  L 615.0000 164.5448  L 620.0000 155.8846   L 610.0000 155.8846   L 615.0000 147.2243   L 605.0000 147.2243  L 600.0000 155.8846  L 590.0000 155.8846  L 585.0000 164.5448   L 580.0000 155.8846  L 585.0000 147.2243   L 575.0000 147.2243  L 570.0000 155.8846  L 575.0000 164.5448  L 570.0000 173.2051  L 575.0000 181.8653  L 570.0000 190.5256   L 565.0000 181.8653   L 560.0000 190.5256   L 555.0000 181.8653  L 560.0000 173.2051  L 555.0000 164.5448  L 560.0000 155.8846   L 550.0000 155.8846  L 545.0000 164.5448   L 540.0000 155.8846  L 545.0000 147.2243  L 555.0000 147.2243  L 560.0000 138.5641  L 570.0000 138.5641   L 565.0000 129.9038  L 555.0000 129.9038   L 560.0000 121.2436  L 570.0000 121.2436  L 575.0000 129.9038  L 585.0000 129.9038  L 590.0000 121.2436   L 595.0000 129.9038  L 590.0000 138.5641   L 600.0000 138.5641  L 605.0000 129.9038  L 600.0000 121.2436  L 605.0000 112.5833  L 615.0000 112.5833   L 610.0000 103.9230  L 600.0000 103.9230   L 605.0000 95.2628  L 615.0000 95.2628  L 620.0000 103.9230  L 630.0000 103.9230  L 635.0000 112.5833  L 645.0000 112.5833   L 640.0000 103.9230   L 650.0000 103.9230   L 645.0000 95.2628  L 635.0000 95.2628  L 630.0000 86.6025  L 620.0000 86.6025   L 625.0000 77.9423  L 635.0000 77.9423   L 630.0000 69.2820  L 620.0000 69.2820  L 615.0000 77.9423  L 605.0000 77.9423  L 600.0000 86.6025  L 590.0000 86.6025   L 595.0000 77.9423   L 585.0000 77.9423   L 590.0000 69.2820  L 600.0000 69.2820  L 605.0000 60.6218  L 615.0000 60.6218   L 610.0000 51.9615  L 600.0000 51.9615   L 605.0000 43.3013  L 615.0000 43.3013  L 620.0000 51.9615  L 630.0000 51.9615  L 635.0000 60.6218   L 640.0000 51.9615  L 635.0000 43.3013   L 645.0000 43.3013  L 650.0000 51.9615  L 645.0000 60.6218  L 650.0000 69.2820  L 660.0000 69.2820   L 655.0000 77.9423  L 645.0000 77.9423   L 650.0000 86.6025  L 660.0000 86.6025  L 665.0000 77.9423  L 675.0000 77.9423  L 680.0000 86.6025   L 685.0000 77.9423  L 680.0000 69.2820   L 690.0000 69.2820  L 695.0000 77.9423  L 690.0000 86.6025  L 695.0000 95.2628  L 705.0000 95.2628   L 700.0000 103.9230  L 690.0000 103.9230   L 695.0000 112.5833  L 705.0000 112.5833  L 710.0000 103.9230  L 720.0000 103.9230  L 725.0000 112.5833  L 735.0000 112.5833   L 730.0000 103.9230   L 740.0000 103.9230   L 735.0000 95.2628  L 725.0000 95.2628  L 720.0000 86.6025  L 710.0000 86.6025  L 705.0000 77.9423   L 715.0000 77.9423   L 710.0000 69.2820   L 720.0000 69.2820  L 725.0000 77.9423  L 735.0000 77.9423  L 740.0000 86.6025  L 750.0000 86.6025   L 745.0000 77.9423   L 755.0000 77.9423   L 750.0000 69.2820  L 740.0000 69.2820  L 735.0000 60.6218  L 725.0000 60.6218   L 730.0000 51.9615  L 740.0000 51.9615   L 735.0000 43.3013  L 725.0000 43.3013  L 720.0000 51.9615  L 710.0000 51.9615  L 705.0000 43.3013   L 700.0000 51.9615  L 705.0000 60.6218   L 695.0000 60.6218  L 690.0000 51.9615  L 695.0000 43.3013  L 690.0000 34.6410  L 680.0000 34.6410   L 685.0000 25.9808  L 695.0000 25.9808   L 690.0000 17.3205  L 680.0000 17.3205  L 675.0000 25.9808  L 665.0000 25.9808  L 660.0000 34.6410  L 650.0000 34.6410   L 655.0000 25.9808   L 645.0000 25.9808   L 650.0000 17.3205  L 660.0000 17.3205  L 665.0000 8.6603  L 675.0000 8.6603   L 670.0000 0.0000  L 660.0000 0.0000   L 665.0000 -8.6603  L 675.0000 -8.6603  L 680.0000 0.0000  L 690.0000 0.0000  L 695.0000 8.6603  L 705.0000 8.6603   L 700.0000 0.0000   L 710.0000 0.0000   L 705.0000 -8.6603  L 695.0000 -8.6603  L 690.0000 -17.3205  L 680.0000 -17.3205   L 685.0000 -25.9808  L 695.0000 -25.9808   L 690.0000 -34.6410  L 680.0000 -34.6410  L 675.0000 -25.9808  L 665.0000 -25.9808  L 660.0000 -17.3205   L 655.0000 -25.9808  L 660.0000 -34.6410   L 650.0000 -34.6410  L 645.0000 -25.9808  L 650.0000 -17.3205  L 645.0000 -8.6603  L 635.0000 -8.6603   L 640.0000 0.0000  L 650.0000 0.0000   L 645.0000 8.6603  L 635.0000 8.6603  L 630.0000 0.0000  L 620.0000 0.0000  L 615.0000 8.6603   L 610.0000 0.0000  L 615.0000 -8.6603   L 605.0000 -8.6603  L 600.0000 0.0000  L 605.0000 8.6603  L 600.0000 17.3205  L 590.0000 17.3205   L 595.0000 25.9808  L 605.0000 25.9808   L 600.0000 34.6410  L 590.0000 34.6410  L 585.0000 25.9808  L 575.0000 25.9808  L 570.0000 34.6410  L 560.0000 34.6410   L 565.0000 25.9808   L 555.0000 25.9808   L 560.0000 17.3205  L 570.0000 17.3205  L 575.0000 8.6603  L 585.0000 8.6603  L 590.0000 0.0000   L 580.0000 0.0000   L 585.0000 -8.6603   L 575.0000 -8.6603  L 570.0000 0.0000  L 560.0000 0.0000  L 555.0000 8.6603  L 545.0000 8.6603   L 550.0000 0.0000   L 540.0000 0.0000   L 545.0000 -8.6603  L 555.0000 -8.6603  L 560.0000 -17.3205  L 570.0000 -17.3205   L 565.0000 -25.9808  L 555.0000 -25.9808   L 560.0000 -34.6410  L 570.0000 -34.6410  L 575.0000 -25.9808  L 585.0000 -25.9808  L 590.0000 -34.6410   L 595.0000 -25.9808  L 590.0000 -17.3205   L 600.0000 -17.3205  L 605.0000 -25.9808  L 600.0000 -34.6410  L 605.0000 -43.3013  L 615.0000 -43.3013   L 610.0000 -51.9615  L 600.0000 -51.9615   L 605.0000 -60.6218  L 615.0000 -60.6218  L 620.0000 -51.9615  L 630.0000 -51.9615  L 635.0000 -43.3013  L 645.0000 -43.3013   L 640.0000 -51.9615   L 650.0000 -51.9615   L 645.0000 -60.6218  L 635.0000 -60.6218  L 630.0000 -69.2820  L 620.0000 -69.2820   L 625.0000 -77.9423  L 635.0000 -77.9423   L 630.0000 -86.6025  L 620.0000 -86.6025  L 615.0000 -77.9423  L 605.0000 -77.9423  L 600.0000 -69.2820  L 590.0000 -69.2820   L 595.0000 -77.9423   L 585.0000 -77.9423   L 590.0000 -86.6025  L 600.0000 -86.6025  L 605.0000 -95.2628  L 615.0000 -95.2628   L 610.0000 -103.9230  L 600.0000 -103.9230   L 605.0000 -112.5833  L 615.0000 -112.5833  L 620.0000 -103.9230  L 630.0000 -103.9230  L 635.0000 -95.2628   L 640.0000 -103.9230  L 635.0000 -112.5833   L 645.0000 -112.5833  L 650.0000 -103.9230  L 645.0000 -95.2628  L 650.0000 -86.6025  L 660.0000 -86.6025   L 655.0000 -77.9423  L 645.0000 -77.9423   L 650.0000 -69.2820  L 660.0000 -69.2820  L 665.0000 -77.9423  L 675.0000 -77.9423  L 680.0000 -69.2820   L 685.0000 -77.9423  L 680.0000 -86.6025   L 690.0000 -86.6025  L 695.0000 -77.9423  L 690.0000 -69.2820  L 695.0000 -60.6218  L 690.0000 -51.9615  L 695.0000 -43.3013   L 700.0000 -51.9615   L 705.0000 -43.3013   L 710.0000 -51.9615  L 705.0000 -60.6218  L 710.0000 -69.2820  L 705.0000 -77.9423   L 715.0000 -77.9423  L 720.0000 -69.2820   L 725.0000 -77.9423  L 720.0000 -86.6025  L 710.0000 -86.6025  L 705.0000 -95.2628  L 695.0000 -95.2628  L 690.0000 -103.9230   L 700.0000 -103.9230   L 695.0000 -112.5833   L 705.0000 -112.5833  L 710.0000 -103.9230  L 720.0000 -103.9230  L 725.0000 -95.2628   L 730.0000 -103.9230  L 725.0000 -112.5833   L 735.0000 -112.5833  L 740.0000 -103.9230  L 735.0000 -95.2628  L 740.0000 -86.6025  L 735.0000 -77.9423   L 745.0000 -77.9423  L 750.0000 -86.6025   L 755.0000 -77.9423  L 750.0000 -69.2820  L 740.0000 -69.2820  L 735.0000 -60.6218  L 740.0000 -51.9615   L 730.0000 -51.9615  L 725.0000 -60.6218   L 720.0000 -51.9615  L 725.0000 -43.3013  L 735.0000 -43.3013  L 740.0000 -34.6410  L 750.0000 -34.6410   L 745.0000 -25.9808  L 735.0000 -25.9808   L 740.0000 -17.3205  L 750.0000 -17.3205  L 755.0000 -25.9808  L 765.0000 -25.9808  L 770.0000 -34.6410  L 780.0000 -34.6410   L 775.0000 -25.9808   L 785.0000 -25.9808   L 780.0000 -17.3205  L 770.0000 -17.3205  L 765.0000 -8.6603  L 755.0000 -8.6603   L 760.0000 0.0000  L 770.0000 0.0000   L 765.0000 8.6603  L 755.0000 8.6603  L 750.0000 0.0000  L 740.0000 0.0000  L 735.0000 -8.6603  L 725.0000 -8.6603   L 730.0000 0.0000   L 720.0000 0.0000   L 725.0000 8.6603  L 735.0000 8.6603  L 740.0000 17.3205  L 750.0000 17.3205   L 745.0000 25.9808  L 735.0000 25.9808   L 740.0000 34.6410  L 750.0000 34.6410  L 755.0000 25.9808  L 765.0000 25.9808  L 770.0000 17.3205   L 775.0000 25.9808  L 770.0000 34.6410   L 780.0000 34.6410  L 785.0000 25.9808  L 780.0000 17.3205  L 785.0000 8.6603  L 795.0000 8.6603   L 790.0000 0.0000  L 780.0000 0.0000   L 785.0000 -8.6603  L 795.0000 -8.6603  L 800.0000 0.0000 " fill="none" stroke="black" stroke-linecap="round" stroke-linejoin="round" stroke-width="3" /></svg>