<?xml version="1.0" encoding="utf-8" ?>
<svg baseProfile="full" height="1000" version="1.1" viewBox="-100.0 -212.583302491977 460.0 425.16660498395413" width="1000" xmlns="http://www.w3.org/2000/svg" xmlns:ev="http://www.w3.org/2001/xml-events" xmlns:xlink="http://www.w3.org/1999/xlink"><defs /><path d="M 0 0  L 5.0000 -8.6603   L 10.0000 0.0000  L 5.0000 8.6603   L 15.0000 8.6603  L 20.0000 0.0000  L 15.0000 -8.6603  L 20.0000 -17.3205  L 15.0000 -25.9808  L 20.0000 -34.6410   L 25.0000 -25.9808   L 30.0000 -34.6410   L 35.0000 -25.9808  L 30.0000 -17.3205  L 35.0000 -8.6603  L 30.0000 0.0000   L 40.0000 0.0000  L 45.0000 -8.6603   L 50.0000 0.0000  L 45.0000 8.6603  L 35.0000 8.6603  L 30.0000 17.3205  L 20.0000 17.3205  L 15.0000 25.9808   L 25.0000 25.9808   L 20.0000 34.6410   L 30.0000 34.6410  L 35.0000 25.9808  L 45.0000 25.9808  L 50.0000 17.3205   L 55.0000 25.9808  L 50.0000 34.6410   L 60.0000 34.6410  L 65.0000 25.9808  L 60.0000 17.3205  L 65.0000 8.6603  L 60.0000 0.0000   L 70.0000 0.0000  L 75.0000 8.6603   L 80.0000 0.0000  L 75.0000 -8.6603  L 65.0000 -8.6603  L 60.0000 -17.3205  L 65.0000 -25.9808   L 55.0000 -25.9808  L 50.0000 -17.3205   L 45.0000 -25.9808  L 50.0000 -34.6410  L 60.0000 -34.6410  L 65.0000 -43.3013  L 75.0000 -43.3013   L 70.0000 -51.9615  L 60.0000 -51.9615   L 65.0000 -60.6218  L 75.0000 -60.6218  L 80.0000 -51.9615  L 90.0000 -51.9615  L 95.0000 -43.3013  L 105.0000 -43.3013   L 100.0000 -51.9615   L 110.0000 -51.9615   L 105.0000 -60.6218  L 95.0000 -60.6218  L 90.0000 -69.2820  L 80.0000 -69.2820   L 85.0000 -77.9423  L 95.0000 -77.9423   L 90.0000 -86.6025  L 80.0000 -86.6025  L 75.0000 -77.9423  L 65.0000 -77.9423  L 60.0000 -69.2820  L 50.0000 -69.2820   L 55.0000 -77.9423   L 45.0000 -77.9423   L 50.0000 -86.6025  L 60.0000 -86.6025  L 65.0000 -95.2628  L 75.0000 -95.2628   L 70.0000 -103.9230  L 60.0000 -103.9230   L 65.0000 -112.5833  L 75.0000 -112.5833  L 80.0000 -103.9230  L 90.0000 -103.9230  L 95.0000 -95.2628   L 100.0000 -103.9230  L 95.0000 -112.5833   L 105.0000 -112.5833  L 110.0000 -103.9230  L 105.0000 -95.2628  L 110.0000 -86.6025  L 120.0000 -86.6025   L 115.0000 -77.9423  L 105.0000 -77.9423   L 110.0000 -69.2820  L 120.0000 -69.2820  L 125.0000 -77.9423  L 135.0000 -77.9423  L 140.0000 -86.6025   L 145.0000 -77.9423  L 140.0000 -69.2820   L 150.0000 -69.2820  L 155.0000 -77.9423  L 150.0000 -86.6025  L 155.0000 -95.2628  L 165.0000 -95.2628   L 160.0000 -103.9230  L 150.0000 -103.9230   L 155.0000 -112.5833  L 165.0000 -112.5833  L 170.0000 -103.9230  L 180.0000 -103.9230  L 185.0000 -112.5833  L 195.0000 -112.5833   L 190.0000 -103.9230   L 200.0000 -103.9230   L 195.0000 -95.2628  L 185.0000 -95.2628  L 180.0000 -86.6025  L 170.0000 -86.6025  L 165.0000 -77.9423   L 175.0000 -77.9423   L 170.0000 -69.2820   L 180.0000 -69.2820  L 185.0000 -77.9423  L 195.0000 -77.9423  L 200.0000 -86.6025  L 210.0000 -86.6025   L 205.0000 -77.9423   L 215.0000 -77.9423   L 210.0000 -69.2820  L 200.0000 -69.2820  L 195.0000 -60.6218  L 185.0000 -60.6218   L 190.0000 -51.9615  L 200.0000 -51.9615   L 195.0000 -43.3013  L 185.0000 -43.3013  L 180.0000 -51.9615  L 170.0000 -51.9615  L 165.0000 -43.3013   L 160.0000 -51.9615  L 165.0000 -60.6218   L 155.0000 -60.6218  L 150.0000 -51.9615  L 155.0000 -43.3013  L 150.0000 -34.6410  L 155.0000 -25.9808   L 145.0000 -25.9808  L 140.0000 -34.6410   L 135.0000 -25.9808  L 140.0000 -17.3205  L 150.0000 -17.3205  L 155.0000 -8.6603  L 150.0000 0.0000   L 160.0000 0.0000  L 165.0000 -8.6603   L 170.0000 0.0000  L 165.0000 8.6603  L 155.0000 8.6603  L 150.0000 17.3205  L 155.0000 25.9808  L 150.0000 34.6410   L 145.0000 25.9808   L 140.0000 34.6410   L 135.0000 25.9808  L 140.0000 17.3205  L 135.0000 8.6603  L 125.0000 8.6603  L 120.0000 0.0000   L 130.0000 0.0000 L 140.0000 0.0000   L 135.0000 -8.6603  L 125.0000 -8.6603  L 120.0000 -17.3205  L 125.0000 -25.9808  L 120.0000 -34.6410   L 115.0000 -25.9808   L 110.0000 -34.6410   L 105.0000 -25.9808  L 110.0000 -17.3205  L 105.0000 -8.6603  L 110.0000 0.0000   L 100.0000 0.0000  L 95.0000 -8.6603   L 90.0000 0.0000  L 95.0000 8.6603  L 105.0000 8.6603  L 110.0000 17.3205  L 105.0000 25.9808   L 115.0000 25.9808  L 120.0000 17.3205   L 125.0000 25.9808  L 120.0000 34.6410  L 110.0000 34.6410  L 105.0000 43.3013  L 95.0000 43.3013   L 100.0000 51.9615  L 110.0000 51.9615   L 105.0000 60.6218  L 95.0000 60.6218  L 90.0000 51.9615  L 80.0000 51.9615  L 75.0000 60.6218   L 70.0000 51.9615  L 75.0000 43.3013   L 65.0000 43.3013  L 60.0000 51.9615  L 65.0000 60.6218  L 60.0000 69.2820  L 50.0000 69.2820  L 45.0000 77.9423   L 55.0000 77.9423   L 50.0000 86.6025   L 60.0000 86.6025  L 65.0000 77.9423  L 75.0000 77.9423  L 80.0000 69.2820  L 90.0000 69.2820   L 85.0000 77.9423   L 95.0000 77.9423   L 90.0000 86.6025  L 80.0000 86.6025  L 75.0000 95.2628  L 65.0000 95.2628  L 60.0000 103.9230   L 70.0000 103.9230   L 65.0000 112.5833   L 75.0000 112.5833  L 80.0000 103.9230  L 90.0000 103.9230  L 95.0000 95.2628   L 100.0000 103.9230  L 95.0000 112.5833   L 105.0000 112.5833  L 110.0000 103.9230  L 105.0000 95.2628  L 110.0000 86.6025  L 120.0000 86.6025   L 115.0000 77.9423  L 105.0000 77.9423   L 110.0000 69.2820  L 120.0000 69.2820  L 125.0000 77.9423  L 135.0000 77.9423  L 140.0000 69.2820   L 145.0000 77.9423  L 140.0000 86.6025   L 150.0000 86.6025  L 155.0000 77.9423  L 150.0000 69.2820  L 155.0000 60.6218  L 150.0000 51.9615  L 155.0000 43.3013   L 160.0000 51.9615   L 165.0000 43.3013   L 170.0000 51.9615  L 165.0000 60.6218  L 170.0000 69.2820  L 165.0000 77.9423   L 175.0000 77.9423  L 180.0000 69.2820   L 185.0000 77.9423  L 180.0000 86.6025  L 170.0000 86.6025  L 165.0000 95.2628  L 155.0000 95.2628  L 150.0000 103.9230   L 160.0000 103.9230   L 155.0000 112.5833   L 165.0000 112.5833  L 170.0000 103.9230  L 180.0000 103.9230  L 185.0000 95.2628   L 190.0000 103.9230  L 185.0000 112.5833   L 195.0000 112.5833  L 200.0000 103.9230  L 195.0000 95.2628  L 200.0000 86.6025  L 195.0000 77.9423   L 205.0000 77.9423  L 210.0000 86.6025   L 215.0000 77.9423  L 210.0000 69.2820  L 200.0000 69.2820  L 195.0000 60.6218  L 200.0000 51.9615   L 190.0000 51.9615  L 185.0000 60.6218   L 180.0000 51.9615  L 185.0000 43.3013  L 195.0000 43.3013  L 200.0000 34.6410  L 210.0000 34.6410   L 205.0000 25.9808  L 195.0000 25.9808   L 200.0000 17.3205  L 210.0000 17.3205  L 215.0000 25.9808  L 225.0000 25.9808  L 230.0000 34.6410  L 240.0000 34.6410   L 235.0000 25.9808   L 245.0000 25.9808   L 240.0000 17.3205  L 230.0000 17.3205  L 225.0000 8.6603  L 215.0000 8.6603   L 220.0000 0.0000  L 230.0000 0.0000   L 225.0000 -8.6603  L 215.0000 -8.6603  L 210.0000 0.0000  L 200.0000 0.0000  L 195.0000 8.6603  L 185.0000 8.6603   L 190.0000 0.0000   L 180.0000 0.0000   L 185.0000 -8.6603  L 195.0000 -8.6603  L 200.0000 -17.3205  L 210.0000 -17.3205   L 205.0000 -25.9808  L 195.0000 -25.9808   L 200.0000 -34.6410  L 210.0000 -34.6410  L 215.0000 -25.9808  L 225.0000 -25.9808  L 230.0000 -17.3205   L 235.0000 -25.9808  L 230.0000 -34.6410   L 240.0000 -34.6410  L 245.0000 -25.9808  L 240.0000 -17.3205  L 245.0000 -8.6603  L 255.0000 -8.6603   L 250.0000 0.0000  L 240.0000 0.0000   L 245.0000 8.6603  L 255.0000 8.6603  L 260.0000 0.0000 " fill="none" stroke="black" stroke-linecap="round" stroke-linejoin="round" stroke-width="3" /></svg>