<?xml version="1.0" encoding="utf-8" ?>
<svg baseProfile="full" height="1000" version="1.1" viewBox="-100.0 -720.0 820.0 820.0" width="1000" xmlns="http://www.w3.org/2000/svg" xmlns:ev="http://www.w3.org/2001/xml-events" xmlns:xlink="http://www.w3.org/1999/xlink"><defs /><path d="M 0 0  L 0.0000 -10.0000 A 10.0000 10.0000 -90 0 1 10.0000 -20.0000 A 10.0000 10.0000 0 0 1 20.0000 -10.0000 A 10.0000 10.0000 90 0 0 30.0000 -0.0000 L 40.0000 -0.0000 L 50.0000 -0.0000 A 10.0000 10.0000 0 0 0 60.0000 -10.0000 A 10.0000 10.0000 -90 0 0 50.0000 -20.0000 A 10.0000 10.0000 -180 0 1 40.0000 -30.0000 A 10.0000 10.0000 -90 0 1 50.0000 -40.0000 A 10.0000 10.0000 0 0 0 60.0000 -50.0000 A 10.0000 10.0000 -90 0 0 50.0000 -60.0000 L 40.0000 -60.0000 L 30.0000 -60.0000 A 10.0000 10.0000 -180 0 0 20.0000 -50.0000 A 10.0000 10.0000 -270 0 1 10.0000 -40.0000 A 10.0000 10.0000 -180 0 1 -0.0000 -50.0000 L -0.0000 -60.0000 L -0.0000 -70.0000 A 10.0000 10.0000 -90 0 1 10.0000 -80.0000 A 10.0000 10.0000 0 0 0 20.0000 -90.0000 A 10.0000 10.0000 -90 0 0 10.0000 -100.0000 A 10.0000 10.0000 -180 0 1 0.0000 -110.0000 L 0.0000 -120.0000 L 0.0000 -130.0000 A 10.0000 10.0000 -90 0 1 10.0000 -140.0000 A 10.0000 10.0000 0 0 1 20.0000 -130.0000 A 10.0000 10.0000 90 0 0 30.0000 -120.0000 A 10.0000 10.0000 0 0 0 40.0000 -130.0000 A 10.0000 10.0000 -90 0 1 50.0000 -140.0000 A 10.0000 10.0000 0 0 1 60.0000 -130.0000 L 60.0000 -120.0000 L 60.0000 -110.0000 A 10.0000 10.0000 90 0 1 50.0000 -100.0000 A 10.0000 10.0000 180 0 0 40.0000 -90.0000 A 10.0000 10.0000 90 0 0 50.0000 -80.0000 L 60.0000 -80.0000 L 70.0000 -80.0000 L 80.0000 -80.0000 L 90.0000 -80.0000 A 10.0000 10.0000 0 0 0 100.0000 -90.0000 A 10.0000 10.0000 -90 0 0 90.0000 -100.0000 A 10.0000 10.0000 -180 0 1 80.0000 -110.0000 L 80.0000 -120.0000 L 80.0000 -130.0000 A 10.0000 10.0000 -90 0 1 90.0000 -140.0000 A 10.0000 10.0000 0 0 1 100.0000 -130.0000 A 10.0000 10.0000 90 0 0 110.0000 -120.0000 A 10.0000 10.0000 0 0 0 120.0000 -130.0000 A 10.0000 10.0000 -90 0 1 130.0000 -140.0000 A 10.0000 10.0000 0 0 1 140.0000 -130.0000 L 140.0000 -120.0000 L 140.0000 -110.0000 A 10.0000 10.0000 90 0 1 130.0000 -100.0000 A 10.0000 10.0000 180 0 0 120.0000 -90.0000 A 10.0000 10.0000 90 0 0 130.0000 -80.0000 A 10.0000 10.0000 0 0 1 140.0000 -70.0000 L 140.0000 -60.0000 L 140.0000 -50.0000 A 10.0000 10.0000 90 0 1 130.0000 -40.0000 A 10.0000 10.0000 180 0 1 120.0000 -50.0000 A 10.0000 10.0000 270 0 0 110.0000 -60.0000 L 100.0000 -60.0000 L 90.0000 -60.0000 A 10.0000 10.0000 180 0 0 80.0000 -50.0000 A 10.0000 10.0000 90 0 0 90.0000 -40.0000 A 10.0000 10.0000 0 0 1 100.0000 -30.0000 A 10.0000 10.0000 90 0 1 90.0000 -20.0000 A 10.0000 10.0000 180 0 0 80.0000 -10.0000 A 10.0000 10.0000 90 0 0 90.0000 -0.0000 L 100.0000 -0.0000 L 110.0000 -0.0000 A 10.0000 10.0000 0 0 0 120.0000 -10.0000 A 10.0000 10.0000 -90 0 1 130.0000 -20.0000 A 10.0000 10.0000 0 0 1 140.0000 -10.0000 A 10.0000 10.0000 90 0 0 150.0000 -0.0000 L 160.0000 -0.0000 L 170.0000 -0.0000 A 10.0000 10.0000 0 0 0 180.0000 -10.0000 A 10.0000 10.0000 -90 0 0 170.0000 -20.0000 A 10.0000 10.0000 -180 0 1 160.0000 -30.0000 L 160.0000 -40.0000 L 160.0000 -50.0000 A 10.0000 10.0000 -90 0 1 170.0000 -60.0000 A 10.0000 10.0000 0 0 1 180.0000 -50.0000 A 10.0000 10.0000 90 0 0 190.0000 -40.0000 A 10.0000 10.0000 0 0 0 200.0000 -50.0000 A 10.0000 10.0000 -90 0 1 210.0000 -60.0000 A 10.0000 10.0000 0 0 1 220.0000 -50.0000 L 220.0000 -40.0000 L 220.0000 -30.0000 A 10.0000 10.0000 90 0 1 210.0000 -20.0000 A 10.0000 10.0000 180 0 0 200.0000 -10.0000 A 10.0000 10.0000 90 0 0 210.0000 -0.0000 L 220.0000 -0.0000 L 230.0000 -0.0000 A 10.0000 10.0000 0 0 0 240.0000 -10.0000 A 10.0000 10.0000 -90 0 1 250.0000 -20.0000 A 10.0000 10.0000 0 0 1 260.0000 -10.0000 A 10.0000 10.0000 90 0 0 270.0000 -0.0000 L 280.0000 -0.0000 L 290.0000 -0.0000 A 10.0000 10.0000 0 0 0 300.0000 -10.0000 A 10.0000 10.0000 -90 0 0 290.0000 -20.0000 A 10.0000 10.0000 -180 0 1 280.0000 -30.0000 A 10.0000 10.0000 -90 0 1 290.0000 -40.0000 A 10.0000 10.0000 0 0 0 300.0000 -50.0000 A 10.0000 10.0000 -90 0 0 290.0000 -60.0000 L 280.0000 -60.0000 L 270.0000 -60.0000 A 10.0000 10.0000 -180 0 0 260.0000 -50.0000 A 10.0000 10.0000 -270 0 1 250.0000 -40.0000 A 10.0000 10.0000 -180 0 1 240.0000 -50.0000 L 240.0000 -60.0000 L 240.0000 -70.0000 L 240.0000 -80.0000 L 240.0000 -90.0000 A 10.0000 10.0000 -90 0 1 250.0000 -100.0000 A 10.0000 10.0000 0 0 1 260.0000 -90.0000 A 10.0000 10.0000 90 0 0 270.0000 -80.0000 L 280.0000 -80.0000 L 290.0000 -80.0000 A 10.0000 10.0000 0 0 0 300.0000 -90.0000 A 10.0000 10.0000 -90 0 0 290.0000 -100.0000 A 10.0000 10.0000 -180 0 1 280.0000 -110.0000 A 10.0000 10.0000 -90 0 1 290.0000 -120.0000 A 10.0000 10.0000 0 0 0 300.0000 -130.0000 A 10.0000 10.0000 -90 0 0 290.0000 -140.0000 L 280.0000 -140.0000 L 270.0000 -140.0000 A 10.0000 10.0000 -180 0 0 260.0000 -130.0000 A 10.0000 10.0000 -270 0 1 250.0000 -120.0000 A 10.0000 10.0000 -180 0 1 240.0000 -130.0000 A 10.0000 10.0000 -90 0 0 230.0000 -140.0000 L 220.0000 -140.0000 L 210.0000 -140.0000 A 10.0000 10.0000 -180 0 0 200.0000 -130.0000 A 10.0000 10.0000 -270 0 0 210.0000 -120.0000 A 10.0000 10.0000 -360 0 1 220.0000 -110.0000 L 220.0000 -100.0000 L 220.0000 -90.0000 A 10.0000 10.0000 -270 0 1 210.0000 -80.0000 A 10.0000 10.0000 -180 0 1 200.0000 -90.0000 A 10.0000 10.0000 -90 0 0 190.0000 -100.0000 A 10.0000 10.0000 -180 0 0 180.0000 -90.0000 A 10.0000 10.0000 -270 0 1 170.0000 -80.0000 A 10.0000 10.0000 -180 0 1 160.0000 -90.0000 L 160.0000 -100.0000 L 160.0000 -110.0000 A 10.0000 10.0000 -90 0 1 170.0000 -120.0000 A 10.0000 10.0000 0 0 0 180.0000 -130.0000 A 10.0000 10.0000 -90 0 0 170.0000 -140.0000 A 10.0000 10.0000 -180 0 1 160.0000 -150.0000 A 10.0000 10.0000 -90 0 1 170.0000 -160.0000 A 10.0000 10.0000 0 0 0 180.0000 -170.0000 A 10.0000 10.0000 -90 0 0 170.0000 -180.0000 A 10.0000 10.0000 -180 0 1 160.0000 -190.0000 L 160.0000 -200.0000 L 160.0000 -210.0000 A 10.0000 10.0000 -90 0 1 170.0000 -220.0000 A 10.0000 10.0000 0 0 1 180.0000 -210.0000 A 10.0000 10.0000 90 0 0 190.0000 -200.0000 A 10.0000 10.0000 0 0 0 200.0000 -210.0000 A 10.0000 10.0000 -90 0 1 210.0000 -220.0000 A 10.0000 10.0000 0 0 1 220.0000 -210.0000 L 220.0000 -200.0000 L 220.0000 -190.0000 A 10.0000 10.0000 90 0 1 210.0000 -180.0000 A 10.0000 10.0000 180 0 0 200.0000 -170.0000 A 10.0000 10.0000 90 0 0 210.0000 -160.0000 L 220.0000 -160.0000 L 230.0000 -160.0000 A 10.0000 10.0000 0 0 0 240.0000 -170.0000 A 10.0000 10.0000 -90 0 1 250.0000 -180.0000 A 10.0000 10.0000 0 0 1 260.0000 -170.0000 A 10.0000 10.0000 90 0 0 270.0000 -160.0000 L 280.0000 -160.0000 L 290.0000 -160.0000 A 10.0000 10.0000 0 0 0 300.0000 -170.0000 A 10.0000 10.0000 -90 0 0 290.0000 -180.0000 A 10.0000 10.0000 -180 0 1 280.0000 -190.0000 A 10.0000 10.0000 -90 0 1 290.0000 -200.0000 A 10.0000 10.0000 0 0 0 300.0000 -210.0000 A 10.0000 10.0000 -90 0 0 290.0000 -220.0000 L 280.0000 -220.0000 L 270.0000 -220.0000 A 10.0000 10.0000 -180 0 0 260.0000 -210.0000 A 10.0000 10.0000 -270 0 1 250.0000 -200.0000 A 10.0000 10.0000 -180 0 1 240.0000 -210.0000 L 240.0000 -220.0000 L 240.0000 -230.0000 L 240.0000 -240.0000 L 240.0000 -250.0000 A 10.0000 10.0000 -90 0 1 250.0000 -260.0000 A 10.0000 10.0000 0 0 1 260.0000 -250.0000 A 10.0000 10.0000 90 0 0 270.0000 -240.0000 L 280.0000 -240.0000 L 290.0000 -240.0000 A 10.0000 10.0000 0 0 0 300.0000 -250.0000 A 10.0000 10.0000 -90 0 0 290.0000 -260.0000 A 10.0000 10.0000 -180 0 1 280.0000 -270.0000 A 10.0000 10.0000 -90 0 1 290.0000 -280.0000 A 10.0000 10.0000 0 0 0 300.0000 -290.0000 A 10.0000 10.0000 -90 0 0 290.0000 -300.0000 L 280.0000 -300.0000 L 270.0000 -300.0000 A 10.0000 10.0000 -180 0 0 260.0000 -290.0000 A 10.0000 10.0000 -270 0 1 250.0000 -280.0000 A 10.0000 10.0000 -180 0 1 240.0000 -290.0000 A 10.0000 10.0000 -90 0 0 230.0000 -300.0000 L 220.0000 -300.0000 L 210.0000 -300.0000 A 10.0000 10.0000 -180 0 0 200.0000 -290.0000 A 10.0000 10.0000 -270 0 0 210.0000 -280.0000 A 10.0000 10.0000 -360 0 1 220.0000 -270.0000 L 220.0000 -260.0000 L 220.0000 -250.0000 A 10.0000 10.0000 -270 0 1 210.0000 -240.0000 A 10.0000 10.0000 -180 0 1 200.0000 -250.0000 A 10.0000 10.0000 -90 0 0 190.0000 -260.0000 A 10.0000 10.0000 -180 0 0 180.0000 -250.0000 A 10.0000 10.0000 -270 0 1 170.0000 -240.0000 A 10.0000 10.0000 -180 0 1 160.0000 -250.0000 L 160.0000 -260.0000 L 160.0000 -270.0000 A 10.0000 10.0000 -90 0 1 170.0000 -280.0000 A 10.0000 10.0000 0 0 0 180.0000 -290.0000 A 10.0000 10.0000 -90 0 0 170.0000 -300.0000 L 160.0000 -300.0000 L 150.0000 -300.0000 A 10.0000 10.0000 -180 0 0 140.0000 -290.0000 A 10.0000 10.0000 -270 0 1 130.0000 -280.0000 A 10.0000 10.0000 -180 0 1 120.0000 -290.0000 A 10.0000 10.0000 -90 0 0 110.0000 -300.0000 L 100.0000 -300.0000 L 90.0000 -300.0000 A 10.0000 10.0000 -180 0 0 80.0000 -290.0000 A 10.0000 10.0000 -270 0 0 90.0000 -280.0000 A 10.0000 10.0000 -360 0 1 100.0000 -270.0000 A 10.0000 10.0000 -270 0 1 90.0000 -260.0000 A 10.0000 10.0000 -180 0 0 80.0000 -250.0000 A 10.0000 10.0000 -270 0 0 90.0000 -240.0000 L 100.0000 -240.0000 L 110.0000 -240.0000 A 10.0000 10.0000 -360 0 0 120.0000 -250.0000 A 10.0000 10.0000 -450 0 1 130.0000 -260.0000 A 10.0000 10.0000 -360 0 1 140.0000 -250.0000 L 140.0000 -240.0000 L 140.0000 -230.0000 A 10.0000 10.0000 -270 0 1 130.0000 -220.0000 A 10.0000 10.0000 -180 0 0 120.0000 -210.0000 A 10.0000 10.0000 -270 0 0 130.0000 -200.0000 A 10.0000 10.0000 -360 0 1 140.0000 -190.0000 L 140.0000 -180.0000 L 140.0000 -170.0000 A 10.0000 10.0000 -270 0 1 130.0000 -160.0000 A 10.0000 10.0000 -180 0 1 120.0000 -170.0000 A 10.0000 10.0000 -90 0 0 110.0000 -180.0000 A 10.0000 10.0000 -180 0 0 100.0000 -170.0000 A 10.0000 10.0000 -270 0 1 90.0000 -160.0000 A 10.0000 10.0000 -180 0 1 80.0000 -170.0000 L 80.0000 -180.0000 L 80.0000 -190.0000 A 10.0000 10.0000 -90 0 1 90.0000 -200.0000 A 10.0000 10.0000 0 0 0 100.0000 -210.0000 A 10.0000 10.0000 -90 0 0 90.0000 -220.0000 L 80.0000 -220.0000 L 70.0000 -220.0000 L 60.0000 -220.0000 L 50.0000 -220.0000 A 10.0000 10.0000 -180 0 0 40.0000 -210.0000 A 10.0000 10.0000 -270 0 0 50.0000 -200.0000 A 10.0000 10.0000 -360 0 1 60.0000 -190.0000 L 60.0000 -180.0000 L 60.0000 -170.0000 A 10.0000 10.0000 -270 0 1 50.0000 -160.0000 A 10.0000 10.0000 -180 0 1 40.0000 -170.0000 A 10.0000 10.0000 -90 0 0 30.0000 -180.0000 A 10.0000 10.0000 -180 0 0 20.0000 -170.0000 A 10.0000 10.0000 -270 0 1 10.0000 -160.0000 A 10.0000 10.0000 -180 0 1 -0.0000 -170.0000 L -0.0000 -180.0000 L -0.0000 -190.0000 A 10.0000 10.0000 -90 0 1 10.0000 -200.0000 A 10.0000 10.0000 0 0 0 20.0000 -210.0000 A 10.0000 10.0000 -90 0 0 10.0000 -220.0000 A 10.0000 10.0000 -180 0 1 0.0000 -230.0000 L 0.0000 -240.0000 L 0.0000 -250.0000 A 10.0000 10.0000 -90 0 1 10.0000 -260.0000 A 10.0000 10.0000 0 0 1 20.0000 -250.0000 A 10.0000 10.0000 90 0 0 30.0000 -240.0000 L 40.0000 -240.0000 L 50.0000 -240.0000 A 10.0000 10.0000 0 0 0 60.0000 -250.0000 A 10.0000 10.0000 -90 0 0 50.0000 -260.0000 A 10.0000 10.0000 -180 0 1 40.0000 -270.0000 A 10.0000 10.0000 -90 0 1 50.0000 -280.0000 A 10.0000 10.0000 0 0 0 60.0000 -290.0000 A 10.0000 10.0000 -90 0 0 50.0000 -300.0000 L 40.0000 -300.0000 L 30.0000 -300.0000 A 10.0000 10.0000 -180 0 0 20.0000 -290.0000 A 10.0000 10.0000 -270 0 1 10.0000 -280.0000 A 10.0000 10.0000 -180 0 1 -0.0000 -290.0000 L -0.0000 -300.0000 L -0.0000 -310.0000 A 10.0000 10.0000 -90 0 1 10.0000 -320.0000 A 10.0000 10.0000 0 0 0 20.0000 -330.0000 A 10.0000 10.0000 -90 0 0 10.0000 -340.0000 A 10.0000 10.0000 -180 0 1 0.0000 -350.0000 L 0.0000 -360.0000 L 0.0000 -370.0000 A 10.0000 10.0000 -90 0 1 10.0000 -380.0000 A 10.0000 10.0000 0 0 1 20.0000 -370.0000 A 10.0000 10.0000 90 0 0 30.0000 -360.0000 A 10.0000 10.0000 0 0 0 40.0000 -370.0000 A 10.0000 10.0000 -90 0 1 50.0000 -380.0000 A 10.0000 10.0000 0 0 1 60.0000 -370.0000 L 60.0000 -360.0000 L 60.0000 -350.0000 A 10.0000 10.0000 90 0 1 50.0000 -340.0000 A 10.0000 10.0000 180 0 0 40.0000 -330.0000 A 10.0000 10.0000 90 0 0 50.0000 -320.0000 L 60.0000 -320.0000 L 70.0000 -320.0000 A 10.0000 10.0000 0 0 0 80.0000 -330.0000 A 10.0000 10.0000 -90 0 1 90.0000 -340.0000 A 10.0000 10.0000 0 0 1 100.0000 -330.0000 A 10.0000 10.0000 90 0 0 110.0000 -320.0000 L 120.0000 -320.0000 L 130.0000 -320.0000 A 10.0000 10.0000 0 0 0 140.0000 -330.0000 A 10.0000 10.0000 -90 0 0 130.0000 -340.0000 A 10.0000 10.0000 -180 0 1 120.0000 -350.0000 A 10.0000 10.0000 -90 0 1 130.0000 -360.0000 A 10.0000 10.0000 0 0 0 140.0000 -370.0000 A 10.0000 10.0000 -90 0 0 130.0000 -380.0000 L 120.0000 -380.0000 L 110.0000 -380.0000 A 10.0000 10.0000 -180 0 0 100.0000 -370.0000 A 10.0000 10.0000 -270 0 1 90.0000 -360.0000 A 10.0000 10.0000 -180 0 1 80.0000 -370.0000 L 80.0000 -380.0000 L 80.0000 -390.0000 L 80.0000 -400.0000 L 80.0000 -410.0000 A 10.0000 10.0000 -90 0 1 90.0000 -420.0000 A 10.0000 10.0000 0 0 1 100.0000 -410.0000 A 10.0000 10.0000 90 0 0 110.0000 -400.0000 L 120.0000 -400.0000 L 130.0000 -400.0000 A 10.0000 10.0000 0 0 0 140.0000 -410.0000 A 10.0000 10.0000 -90 0 0 130.0000 -420.0000 A 10.0000 10.0000 -180 0 1 120.0000 -430.0000 A 10.0000 10.0000 -90 0 1 130.0000 -440.0000 A 10.0000 10.0000 0 0 0 140.0000 -450.0000 A 10.0000 10.0000 -90 0 0 130.0000 -460.0000 L 120.0000 -460.0000 L 110.0000 -460.0000 A 10.0000 10.0000 -180 0 0 100.0000 -450.0000 A 10.0000 10.0000 -270 0 1 90.0000 -440.0000 A 10.0000 10.0000 -180 0 1 80.0000 -450.0000 A 10.0000 10.0000 -90 0 0 70.0000 -460.0000 L 60.0000 -460.0000 L 50.0000 -460.0000 A 10.0000 10.0000 -180 0 0 40.0000 -450.0000 A 10.0000 10.0000 -270 0 0 50.0000 -440.0000 A 10.0000 10.0000 -360 0 1 60.0000 -430.0000 L 60.0000 -420.0000 L 60.0000 -410.0000 A 10.0000 10.0000 -270 0 1 50.0000 -400.0000 A 10.0000 10.0000 -180 0 1 40.0000 -410.0000 A 10.0000 10.0000 -90 0 0 30.0000 -420.0000 A 10.0000 10.0000 -180 0 0 20.0000 -410.0000 A 10.0000 10.0000 -270 0 1 10.0000 -400.0000 A 10.0000 10.0000 -180 0 1 -0.0000 -410.0000 L -0.0000 -420.0000 L -0.0000 -430.0000 A 10.0000 10.0000 -90 0 1 10.0000 -440.0000 A 10.0000 10.0000 0 0 0 20.0000 -450.0000 A 10.0000 10.0000 -90 0 0 10.0000 -460.0000 A 10.0000 10.0000 -180 0 1 0.0000 -470.0000 L 0.0000 -480.0000 L 0.0000 -490.0000 A 10.0000 10.0000 -90 0 1 10.0000 -500.0000 A 10.0000 10.0000 0 0 1 20.0000 -490.0000 A 10.0000 10.0000 90 0 0 30.0000 -480.0000 L 40.0000 -480.0000 L 50.0000 -480.0000 A 10.0000 10.0000 0 0 0 60.0000 -490.0000 A 10.0000 10.0000 -90 0 0 50.0000 -500.0000 A 10.0000 10.0000 -180 0 1 40.0000 -510.0000 A 10.0000 10.0000 -90 0 1 50.0000 -520.0000 A 10.0000 10.0000 0 0 0 60.0000 -530.0000 A 10.0000 10.0000 -90 0 0 50.0000 -540.0000 L 40.0000 -540.0000 L 30.0000 -540.0000 A 10.0000 10.0000 -180 0 0 20.0000 -530.0000 A 10.0000 10.0000 -270 0 1 10.0000 -520.0000 A 10.0000 10.0000 -180 0 1 -0.0000 -530.0000 L -0.0000 -540.0000 L -0.0000 -550.0000 A 10.0000 10.0000 -90 0 1 10.0000 -560.0000 A 10.0000 10.0000 0 0 0 20.0000 -570.0000 A 10.0000 10.0000 -90 0 0 10.0000 -580.0000 A 10.0000 10.0000 -180 0 1 0.0000 -590.0000 L 0.0000 -600.0000 L 0.0000 -610.0000 A 10.0000 10.0000 -90 0 1 10.0000 -620.0000 A 10.0000 10.0000 0 0 1 20.0000 -610.0000 A 10.0000 10.0000 90 0 0 30.0000 -600.0000 A 10.0000 10.0000 0 0 0 40.0000 -610.0000 A 10.0000 10.0000 -90 0 1 50.0000 -620.0000 A 10.0000 10.0000 0 0 1 60.0000 -610.0000 L 60.0000 -600.0000 L 60.0000 -590.0000 A 10.0000 10.0000 90 0 1 50.0000 -580.0000 A 10.0000 10.0000 180 0 0 40.0000 -570.0000 A 10.0000 10.0000 90 0 0 50.0000 -560.0000 L 60.0000 -560.0000 L 70.0000 -560.0000 L 80.0000 -560.0000 L 90.0000 -560.0000 A 10.0000 10.0000 0 0 0 100.0000 -570.0000 A 10.0000 10.0000 -90 0 0 90.0000 -580.0000 A 10.0000 10.0000 -180 0 1 80.0000 -590.0000 L 80.0000 -600.0000 L 80.0000 -610.0000 A 10.0000 10.0000 -90 0 1 90.0000 -620.0000 A 10.0000 10.0000 0 0 1 100.0000 -610.0000 A 10.0000 10.0000 90 0 0 110.0000 -600.0000 A 10.0000 10.0000 0 0 0 120.0000 -610.0000 A 10.0000 10.0000 -90 0 1 130.0000 -620.0000 A 10.0000 10.0000 0 0 1 140.0000 -610.0000 L 140.0000 -600.0000 L 140.0000 -590.0000 A 10.0000 10.0000 90 0 1 130.0000 -580.0000 A 10.0000 10.0000 180 0 0 120.0000 -570.0000 A 10.0000 10.0000 90 0 0 130.0000 -560.0000 A 10.0000 10.0000 0 0 1 140.0000 -550.0000 L 140.0000 -540.0000 L 140.0000 -530.0000 A 10.0000 10.0000 90 0 1 130.0000 -520.0000 A 10.0000 10.0000 180 0 1 120.0000 -530.0000 A 10.0000 10.0000 270 0 0 110.0000 -540.0000 L 100.0000 -540.0000 L 90.0000 -540.0000 A 10.0000 10.0000 180 0 0 80.0000 -530.0000 A 10.0000 10.0000 90 0 0 90.0000 -520.0000 A 10.0000 10.0000 0 0 1 100.0000 -510.0000 A 10.0000 10.0000 90 0 1 90.0000 -500.0000 A 10.0000 10.0000 180 0 0 80.0000 -490.0000 A 10.0000 10.0000 90 0 0 90.0000 -480.0000 L 100.0000 -480.0000 L 110.0000 -480.0000 A 10.0000 10.0000 0 0 0 120.0000 -490.0000 A 10.0000 10.0000 -90 0 1 130.0000 -500.0000 A 10.0000 10.0000 0 0 1 140.0000 -490.0000 A 10.0000 10.0000 90 0 0 150.0000 -480.0000 A 10.0000 10.0000 0 0 0 160.0000 -490.0000 A 10.0000 10.0000 -90 0 1 170.0000 -500.0000 A 10.0000 10.0000 0 0 1 180.0000 -490.0000 A 10.0000 10.0000 90 0 0 190.0000 -480.0000 L 200.0000 -480.0000 L 210.0000 -480.0000 A 10.0000 10.0000 0 0 0 220.0000 -490.0000 A 10.0000 10.0000 -90 0 0 210.0000 -500.0000 A 10.0000 10.0000 -180 0 1 200.0000 -510.0000 A 10.0000 10.0000 -90 0 1 210.0000 -520.0000 A 10.0000 10.0000 0 0 0 220.0000 -530.0000 A 10.0000 10.0000 -90 0 0 210.0000 -540.0000 L 200.0000 -540.0000 L 190.0000 -540.0000 A 10.0000 10.0000 -180 0 0 180.0000 -530.0000 A 10.0000 10.0000 -270 0 1 170.0000 -520.0000 A 10.0000 10.0000 -180 0 1 160.0000 -530.0000 L 160.0000 -540.0000 L 160.0000 -550.0000 A 10.0000 10.0000 -90 0 1 170.0000 -560.0000 A 10.0000 10.0000 0 0 0 180.0000 -570.0000 A 10.0000 10.0000 -90 0 0 170.0000 -580.0000 A 10.0000 10.0000 -180 0 1 160.0000 -590.0000 L 160.0000 -600.0000 L 160.0000 -610.0000 A 10.0000 10.0000 -90 0 1 170.0000 -620.0000 A 10.0000 10.0000 0 0 1 180.0000 -610.0000 A 10.0000 10.0000 90 0 0 190.0000 -600.0000 A 10.0000 10.0000 0 0 0 200.0000 -610.0000 A 10.0000 10.0000 -90 0 1 210.0000 -620.0000 A 10.0000 10.0000 0 0 1 220.0000 -610.0000 L 220.0000 -600.0000 L 220.0000 -590.0000 A 10.0000 10.0000 90 0 1 210.0000 -580.0000 A 10.0000 10.0000 180 0 0 200.0000 -570.0000 A 10.0000 10.0000 90 0 0 210.0000 -560.0000 L 220.0000 -560.0000 L 230.0000 -560.0000 L 240.0000 -560.0000 L 250.0000 -560.0000 A 10.0000 10.0000 0 0 0 260.0000 -570.0000 A 10.0000 10.0000 -90 0 0 250.0000 -580.0000 A 10.0000 10.0000 -180 0 1 240.0000 -590.0000 L 240.0000 -600.0000 L 240.0000 -610.0000 A 10.0000 10.0000 -90 0 1 250.0000 -620.0000 A 10.0000 10.0000 0 0 1 260.0000 -610.0000 A 10.0000 10.0000 90 0 0 270.0000 -600.0000 A 10.0000 10.0000 0 0 0 280.0000 -610.0000 A 10.0000 10.0000 -90 0 1 290.0000 -620.0000 A 10.0000 10.0000 0 0 1 300.0000 -610.0000 L 300.0000 -600.0000 L 300.0000 -590.0000 A 10.0000 10.0000 90 0 1 290.0000 -580.0000 A 10.0000 10.0000 180 0 0 280.0000 -570.0000 A 10.0000 10.0000 90 0 0 290.0000 -560.0000 A 10.0000 10.0000 0 0 1 300.0000 -550.0000 L 300.0000 -540.0000 L 300.0000 -530.0000 A 10.0000 10.0000 90 0 1 290.0000 -520.0000 A 10.0000 10.0000 180 0 1 280.0000 -530.0000 A 10.0000 10.0000 270 0 0 270.0000 -540.0000 L 260.0000 -540.0000 L 250.0000 -540.0000 A 10.0000 10.0000 180 0 0 240.0000 -530.0000 A 10.0000 10.0000 90 0 0 250.0000 -520.0000 A 10.0000 10.0000 0 0 1 260.0000 -510.0000 A 10.0000 10.0000 90 0 1 250.0000 -500.0000 A 10.0000 10.0000 180 0 0 240.0000 -490.0000 A 10.0000 10.0000 90 0 0 250.0000 -480.0000 L 260.0000 -480.0000 L 270.0000 -480.0000 A 10.0000 10.0000 0 0 0 280.0000 -490.0000 A 10.0000 10.0000 -90 0 1 290.0000 -500.0000 A 10.0000 10.0000 0 0 1 300.0000 -490.0000 L 300.0000 -480.0000 L 300.0000 -470.0000 A 10.0000 10.0000 90 0 1 290.0000 -460.0000 A 10.0000 10.0000 180 0 0 280.0000 -450.0000 A 10.0000 10.0000 90 0 0 290.0000 -440.0000 A 10.0000 10.0000 0 0 1 300.0000 -430.0000 L 300.0000 -420.0000 L 300.0000 -410.0000 A 10.0000 10.0000 90 0 1 290.0000 -400.0000 A 10.0000 10.0000 180 0 1 280.0000 -410.0000 A 10.0000 10.0000 270 0 0 270.0000 -420.0000 A 10.0000 10.0000 180 0 0 260.0000 -410.0000 A 10.0000 10.0000 90 0 1 250.0000 -400.0000 A 10.0000 10.0000 180 0 1 240.0000 -410.0000 L 240.0000 -420.0000 L 240.0000 -430.0000 A 10.0000 10.0000 270 0 1 250.0000 -440.0000 A 10.0000 10.0000 360 0 0 260.0000 -450.0000 A 10.0000 10.0000 270 0 0 250.0000 -460.0000 L 240.0000 -460.0000 L 230.0000 -460.0000 A 10.0000 10.0000 180 0 0 220.0000 -450.0000 A 10.0000 10.0000 90 0 1 210.0000 -440.0000 A 10.0000 10.0000 180 0 1 200.0000 -450.0000 A 10.0000 10.0000 270 0 0 190.0000 -460.0000 L 180.0000 -460.0000 L 170.0000 -460.0000 A 10.0000 10.0000 180 0 0 160.0000 -450.0000 A 10.0000 10.0000 90 0 0 170.0000 -440.0000 A 10.0000 10.0000 0 0 1 180.0000 -430.0000 A 10.0000 10.0000 90 0 1 170.0000 -420.0000 A 10.0000 10.0000 180 0 0 160.0000 -410.0000 A 10.0000 10.0000 90 0 0 170.0000 -400.0000 L 180.0000 -400.0000 L 190.0000 -400.0000 A 10.0000 10.0000 0 0 0 200.0000 -410.0000 A 10.0000 10.0000 -90 0 1 210.0000 -420.0000 A 10.0000 10.0000 0 0 1 220.0000 -410.0000 L 220.0000 -400.0000 L 220.0000 -390.0000 L 220.0000 -380.0000 L 220.0000 -370.0000 A 10.0000 10.0000 90 0 1 210.0000 -360.0000 A 10.0000 10.0000 180 0 1 200.0000 -370.0000 A 10.0000 10.0000 270 0 0 190.0000 -380.0000 L 180.0000 -380.0000 L 170.0000 -380.0000 A 10.0000 10.0000 180 0 0 160.0000 -370.0000 A 10.0000 10.0000 90 0 0 170.0000 -360.0000 A 10.0000 10.0000 0 0 1 180.0000 -350.0000 A 10.0000 10.0000 90 0 1 170.0000 -340.0000 A 10.0000 10.0000 180 0 0 160.0000 -330.0000 A 10.0000 10.0000 90 0 0 170.0000 -320.0000 L 180.0000 -320.0000 L 190.0000 -320.0000 A 10.0000 10.0000 0 0 0 200.0000 -330.0000 A 10.0000 10.0000 -90 0 1 210.0000 -340.0000 A 10.0000 10.0000 0 0 1 220.0000 -330.0000 A 10.0000 10.0000 90 0 0 230.0000 -320.0000 L 240.0000 -320.0000 L 250.0000 -320.0000 A 10.0000 10.0000 0 0 0 260.0000 -330.0000 A 10.0000 10.0000 -90 0 0 250.0000 -340.0000 A 10.0000 10.0000 -180 0 1 240.0000 -350.0000 L 240.0000 -360.0000 L 240.0000 -370.0000 A 10.0000 10.0000 -90 0 1 250.0000 -380.0000 A 10.0000 10.0000 0 0 1 260.0000 -370.0000 A 10.0000 10.0000 90 0 0 270.0000 -360.0000 A 10.0000 10.0000 0 0 0 280.0000 -370.0000 A 10.0000 10.0000 -90 0 1 290.0000 -380.0000 A 10.0000 10.0000 0 0 1 300.0000 -370.0000 L 300.0000 -360.0000 L 300.0000 -350.0000 A 10.0000 10.0000 90 0 1 290.0000 -340.0000 A 10.0000 10.0000 180 0 0 280.0000 -330.0000 A 10.0000 10.0000 90 0 0 290.0000 -320.0000 L 300.0000 -320.0000 L 310.0000 -320.0000 L 320.0000 -320.0000 L 330.0000 -320.0000 A 10.0000 10.0000 0 0 0 340.0000 -330.0000 A 10.0000 10.0000 -90 0 0 330.0000 -340.0000 A 10.0000 10.0000 -180 0 1 320.0000 -350.0000 L 320.0000 -360.0000 L 320.0000 -370.0000 A 10.0000 10.0000 -90 0 1 330.0000 -380.0000 A 10.0000 10.0000 0 0 1 340.0000 -370.0000 A 10.0000 10.0000 90 0 0 350.0000 -360.0000 A 10.0000 10.0000 0 0 0 360.0000 -370.0000 A 10.0000 10.0000 -90 0 1 370.0000 -380.0000 A 10.0000 10.0000 0 0 1 380.0000 -370.0000 L 380.0000 -360.0000 L 380.0000 -350.0000 A 10.0000 10.0000 90 0 1 370.0000 -340.0000 A 10.0000 10.0000 180 0 0 360.0000 -330.0000 A 10.0000 10.0000 90 0 0 370.0000 -320.0000 L 380.0000 -320.0000 L 390.0000 -320.0000 A 10.0000 10.0000 0 0 0 400.0000 -330.0000 A 10.0000 10.0000 -90 0 1 410.0000 -340.0000 A 10.0000 10.0000 0 0 1 420.0000 -330.0000 A 10.0000 10.0000 90 0 0 430.0000 -320.0000 L 440.0000 -320.0000 L 450.0000 -320.0000 A 10.0000 10.0000 0 0 0 460.0000 -330.0000 A 10.0000 10.0000 -90 0 0 450.0000 -340.0000 A 10.0000 10.0000 -180 0 1 440.0000 -350.0000 A 10.0000 10.0000 -90 0 1 450.0000 -360.0000 A 10.0000 10.0000 0 0 0 460.0000 -370.0000 A 10.0000 10.0000 -90 0 0 450.0000 -380.0000 L 440.0000 -380.0000 L 430.0000 -380.0000 A 10.0000 10.0000 -180 0 0 420.0000 -370.0000 A 10.0000 10.0000 -270 0 1 410.0000 -360.0000 A 10.0000 10.0000 -180 0 1 400.0000 -370.0000 L 400.0000 -380.0000 L 400.0000 -390.0000 L 400.0000 -400.0000 L 400.0000 -410.0000 A 10.0000 10.0000 -90 0 1 410.0000 -420.0000 A 10.0000 10.0000 0 0 1 420.0000 -410.0000 A 10.0000 10.0000 90 0 0 430.0000 -400.0000 L 440.0000 -400.0000 L 450.0000 -400.0000 A 10.0000 10.0000 0 0 0 460.0000 -410.0000 A 10.0000 10.0000 -90 0 0 450.0000 -420.0000 A 10.0000 10.0000 -180 0 1 440.0000 -430.0000 A 10.0000 10.0000 -90 0 1 450.0000 -440.0000 A 10.0000 10.0000 0 0 0 460.0000 -450.0000 A 10.0000 10.0000 -90 0 0 450.0000 -460.0000 L 440.0000 -460.0000 L 430.0000 -460.0000 A 10.0000 10.0000 -180 0 0 420.0000 -450.0000 A 10.0000 10.0000 -270 0 1 410.0000 -440.0000 A 10.0000 10.0000 -180 0 1 400.0000 -450.0000 A 10.0000 10.0000 -90 0 0 390.0000 -460.0000 L 380.0000 -460.0000 L 370.0000 -460.0000 A 10.0000 10.0000 -180 0 0 360.0000 -450.0000 A 10.0000 10.0000 -270 0 0 370.0000 -440.0000 A 10.0000 10.0000 -360 0 1 380.0000 -430.0000 L 380.0000 -420.0000 L 380.0000 -410.0000 A 10.0000 10.0000 -270 0 1 370.0000 -400.0000 A 10.0000 10.0000 -180 0 1 360.0000 -410.0000 A 10.0000 10.0000 -90 0 0 350.0000 -420.0000 A 10.0000 10.0000 -180 0 0 340.0000 -410.0000 A 10.0000 10.0000 -270 0 1 330.0000 -400.0000 A 10.0000 10.0000 -180 0 1 320.0000 -410.0000 L 320.0000 -420.0000 L 320.0000 -430.0000 A 10.0000 10.0000 -90 0 1 330.0000 -440.0000 A 10.0000 10.0000 0 0 0 340.0000 -450.0000 A 10.0000 10.0000 -90 0 0 330.0000 -460.0000 A 10.0000 10.0000 -180 0 1 320.0000 -470.0000 L 320.0000 -480.0000 L 320.0000 -490.0000 A 10.0000 10.0000 -90 0 1 330.0000 -500.0000 A 10.0000 10.0000 0 0 1 340.0000 -490.0000 A 10.0000 10.0000 90 0 0 350.0000 -480.0000 L 360.0000 -480.0000 L 370.0000 -480.0000 A 10.0000 10.0000 0 0 0 380.0000 -490.0000 A 10.0000 10.0000 -90 0 0 370.0000 -500.0000 A 10.0000 10.0000 -180 0 1 360.0000 -510.0000 A 10.0000 10.0000 -90 0 1 370.0000 -520.0000 A 10.0000 10.0000 0 0 0 380.0000 -530.0000 A 10.0000 10.0000 -90 0 0 370.0000 -540.0000 L 360.0000 -540.0000 L 350.0000 -540.0000 A 10.0000 10.0000 -180 0 0 340.0000 -530.0000 A 10.0000 10.0000 -270 0 1 330.0000 -520.0000 A 10.0000 10.0000 -180 0 1 320.0000 -530.0000 L 320.0000 -540.0000 L 320.0000 -550.0000 A 10.0000 10.0000 -90 0 1 330.0000 -560.0000 A 10.0000 10.0000 0 0 0 340.0000 -570.0000 A 10.0000 10.0000 -90 0 0 330.0000 -580.0000 A 10.0000 10.0000 -180 0 1 320.0000 -590.0000 L 320.0000 -600.0000 L 320.0000 -610.0000 A 10.0000 10.0000 -90 0 1 330.0000 -620.0000 A 10.0000 10.0000 0 0 1 340.0000 -610.0000 A 10.0000 10.0000 90 0 0 350.0000 -600.0000 A 10.0000 10.0000 0 0 0 360.0000 -610.0000 A 10.0000 10.0000 -90 0 1 370.0000 -620.0000 A 10.0000 10.0000 0 0 1 380.0000 -610.0000 L 380.0000 -600.0000 L 380.0000 -590.0000 A 10.0000 10.0000 90 0 1 370.0000 -580.0000 A 10.0000 10.0000 180 0 0 360.0000 -570.0000 A 10.0000 10.0000 90 0 0 370.0000 -560.0000 L 380.0000 -560.0000 L 390.0000 -560.0000 L 400.0000 -560.0000 L 410.0000 -560.0000 A 10.0000 10.0000 0 0 0 420.0000 -570.0000 A 10.0000 10.0000 -90 0 0 410.0000 -580.0000 A 10.0000 10.0000 -180 0 1 400.0000 -590.0000 L 400.0000 -600.0000 L 400.0000 -610.0000 A 10.0000 10.0000 -90 0 1 410.0000 -620.0000 A 10.0000 10.0000 0 0 1 420.0000 -610.0000 A 10.0000 10.0000 90 0 0 430.0000 -600.0000 A 10.0000 10.0000 0 0 0 440.0000 -610.0000 A 10.0000 10.0000 -90 0 1 450.0000 -620.0000 A 10.0000 10.0000 0 0 1 460.0000 -610.0000 L 460.0000 -600.0000 L 460.0000 -590.0000 A 10.0000 10.0000 90 0 1 450.0000 -580.0000 A 10.0000 10.0000 180 0 0 440.0000 -570.0000 A 10.0000 10.0000 90 0 0 450.0000 -560.0000 A 10.0000 10.0000 0 0 1 460.0000 -550.0000 L 460.0000 -540.0000 L 460.0000 -530.0000 A 10.0000 10.0000 90 0 1 450.0000 -520.0000 A 10.0000 10.0000 180 0 1 440.0000 -530.0000 A 10.0000 10.0000 270 0 0 430.0000 -540.0000 L 420.0000 -540.0000 L 410.0000 -540.0000 A 10.0000 10.0000 180 0 0 400.0000 -530.0000 A 10.0000 10.0000 90 0 0 410.0000 -520.0000 A 10.0000 10.0000 0 0 1 420.0000 -510.0000 A 10.0000 10.0000 90 0 1 410.0000 -500.0000 A 10.0000 10.0000 180 0 0 400.0000 -490.0000 A 10.0000 10.0000 90 0 0 410.0000 -480.0000 L 420.0000 -480.0000 L 430.0000 -480.0000 A 10.0000 10.0000 0 0 0 440.0000 -490.0000 A 10.0000 10.0000 -90 0 1 450.0000 -500.0000 A 10.0000 10.0000 0 0 1 460.0000 -490.0000 A 10.0000 10.0000 90 0 0 470.0000 -480.0000 A 10.0000 10.0000 0 0 0 480.0000 -490.0000 A 10.0000 10.0000 -90 0 1 490.0000 -500.0000 A 10.0000 10.0000 0 0 1 500.0000 -490.0000 A 10.0000 10.0000 90 0 0 510.0000 -480.0000 L 520.0000 -480.0000 L 530.0000 -480.0000 A 10.0000 10.0000 0 0 0 540.0000 -490.0000 A 10.0000 10.0000 -90 0 0 530.0000 -500.0000 A 10.0000 10.0000 -180 0 1 520.0000 -510.0000 A 10.0000 10.0000 -90 0 1 530.0000 -520.0000 A 10.0000 10.0000 0 0 0 540.0000 -530.0000 A 10.0000 10.0000 -90 0 0 530.0000 -540.0000 L 520.0000 -540.0000 L 510.0000 -540.0000 A 10.0000 10.0000 -180 0 0 500.0000 -530.0000 A 10.0000 10.0000 -270 0 1 490.0000 -520.0000 A 10.0000 10.0000 -180 0 1 480.0000 -530.0000 L 480.0000 -540.0000 L 480.0000 -550.0000 A 10.0000 10.0000 -90 0 1 490.0000 -560.0000 A 10.0000 10.0000 0 0 0 500.0000 -570.0000 A 10.0000 10.0000 -90 0 0 490.0000 -580.0000 A 10.0000 10.0000 -180 0 1 480.0000 -590.0000 L 480.0000 -600.0000 L 480.0000 -610.0000 A 10.0000 10.0000 -90 0 1 490.0000 -620.0000 A 10.0000 10.0000 0 0 1 500.0000 -610.0000 A 10.0000 10.0000 90 0 0 510.0000 -600.0000 A 10.0000 10.0000 0 0 0 520.0000 -610.0000 A 10.0000 10.0000 -90 0 1 530.0000 -620.0000 A 10.0000 10.0000 0 0 1 540.0000 -610.0000 L 540.0000 -600.0000 L 540.0000 -590.0000 A 10.0000 10.0000 90 0 1 530.0000 -580.0000 A 10.0000 10.0000 180 0 0 520.0000 -570.0000 A 10.0000 10.0000 90 0 0 530.0000 -560.0000 L 540.0000 -560.0000 L 550.0000 -560.0000 L 560.0000 -560.0000 L 570.0000 -560.0000 A 10.0000 10.0000 0 0 0 580.0000 -570.0000 A 10.0000 10.0000 -90 0 0 570.0000 -580.0000 A 10.0000 10.0000 -180 0 1 560.0000 -590.0000 L 560.0000 -600.0000 L 560.0000 -610.0000 A 10.0000 10.0000 -90 0 1 570.0000 -620.0000 A 10.0000 10.0000 0 0 1 580.0000 -610.0000 A 10.0000 10.0000 90 0 0 590.0000 -600.0000 A 10.0000 10.0000 0 0 0 600.0000 -610.0000 A 10.0000 10.0000 -90 0 1 610.0000 -620.0000 A 10.0000 10.0000 0 0 1 620.0000 -610.0000 L 620.0000 -600.0000 L 620.0000 -590.0000 A 10.0000 10.0000 90 0 1 610.0000 -580.0000 A 10.0000 10.0000 180 0 0 600.0000 -570.0000 A 10.0000 10.0000 90 0 0 610.0000 -560.0000 A 10.0000 10.0000 0 0 1 620.0000 -550.0000 L 620.0000 -540.0000 L 620.0000 -530.0000 A 10.0000 10.0000 90 0 1 610.0000 -520.0000 A 10.0000 10.0000 180 0 1 600.0000 -530.0000 A 10.0000 10.0000 270 0 0 590.0000 -540.0000 L 580.0000 -540.0000 L 570.0000 -540.0000 A 10.0000 10.0000 180 0 0 560.0000 -530.0000 A 10.0000 10.0000 90 0 0 570.0000 -520.0000 A 10.0000 10.0000 0 0 1 580.0000 -510.0000 A 10.0000 10.0000 90 0 1 570.0000 -500.0000 A 10.0000 10.0000 180 0 0 560.0000 -490.0000 A 10.0000 10.0000 90 0 0 570.0000 -480.0000 L 580.0000 -480.0000 L 590.0000 -480.0000 A 10.0000 10.0000 0 0 0 600.0000 -490.0000 A 10.0000 10.0000 -90 0 1 610.0000 -500.0000 A 10.0000 10.0000 0 0 1 620.0000 -490.0000 L 620.0000 -480.0000 L 620.0000 -470.0000 A 10.0000 10.0000 90 0 1 610.0000 -460.0000 A 10.0000 10.0000 180 0 0 600.0000 -450.0000 A 10.0000 10.0000 90 0 0 610.0000 -440.0000 A 10.0000 10.0000 0 0 1 620.0000 -430.0000 L 620.0000 -420.0000 L 620.0000 -410.0000 A 10.0000 10.0000 90 0 1 610.0000 -400.0000 A 10.0000 10.0000 180 0 1 600.0000 -410.0000 A 10.0000 10.0000 270 0 0 590.0000 -420.0000 A 10.0000 10.0000 180 0 0 580.0000 -410.0000 A 10.0000 10.0000 90 0 1 570.0000 -400.0000 A 10.0000 10.0000 180 0 1 560.0000 -410.0000 L 560.0000 -420.0000 L 560.0000 -430.0000 A 10.0000 10.0000 270 0 1 570.0000 -440.0000 A 10.0000 10.0000 360 0 0 580.0000 -450.0000 A 10.0000 10.0000 270 0 0 570.0000 -460.0000 L 560.0000 -460.0000 L 550.0000 -460.0000 A 10.0000 10.0000 180 0 0 540.0000 -450.0000 A 10.0000 10.0000 90 0 1 530.0000 -440.0000 A 10.0000 10.0000 180 0 1 520.0000 -450.0000 A 10.0000 10.0000 270 0 0 510.0000 -460.0000 L 500.0000 -460.0000 L 490.0000 -460.0000 A 10.0000 10.0000 180 0 0 480.0000 -450.0000 A 10.0000 10.0000 90 0 0 490.0000 -440.0000 A 10.0000 10.0000 0 0 1 500.0000 -430.0000 A 10.0000 10.0000 90 0 1 490.0000 -420.0000 A 10.0000 10.0000 180 0 0 480.0000 -410.0000 A 10.0000 10.0000 90 0 0 490.0000 -400.0000 L 500.0000 -400.0000 L 510.0000 -400.0000 A 10.0000 10.0000 0 0 0 520.0000 -410.0000 A 10.0000 10.0000 -90 0 1 530.0000 -420.0000 A 10.0000 10.0000 0 0 1 540.0000 -410.0000 L 540.0000 -400.0000 L 540.0000 -390.0000 L 540.0000 -380.0000 L 540.0000 -370.0000 A 10.0000 10.0000 90 0 1 530.0000 -360.0000 A 10.0000 10.0000 180 0 1 520.0000 -370.0000 A 10.0000 10.0000 270 0 0 510.0000 -380.0000 L 500.0000 -380.0000 L 490.0000 -380.0000 A 10.0000 10.0000 180 0 0 480.0000 -370.0000 A 10.0000 10.0000 90 0 0 490.0000 -360.0000 A 10.0000 10.0000 0 0 1 500.0000 -350.0000 A 10.0000 10.0000 90 0 1 490.0000 -340.0000 A 10.0000 10.0000 180 0 0 480.0000 -330.0000 A 10.0000 10.0000 90 0 0 490.0000 -320.0000 L 500.0000 -320.0000 L 510.0000 -320.0000 A 10.0000 10.0000 0 0 0 520.0000 -330.0000 A 10.0000 10.0000 -90 0 1 530.0000 -340.0000 A 10.0000 10.0000 0 0 1 540.0000 -330.0000 A 10.0000 10.0000 90 0 0 550.0000 -320.0000 L 560.0000 -320.0000 L 570.0000 -320.0000 A 10.0000 10.0000 0 0 0 580.0000 -330.0000 A 10.0000 10.0000 -90 0 0 570.0000 -340.0000 A 10.0000 10.0000 -180 0 1 560.0000 -350.0000 L 560.0000 -360.0000 L 560.0000 -370.0000 A 10.0000 10.0000 -90 0 1 570.0000 -380.0000 A 10.0000 10.0000 0 0 1 580.0000 -370.0000 A 10.0000 10.0000 90 0 0 590.0000 -360.0000 A 10.0000 10.0000 0 0 0 600.0000 -370.0000 A 10.0000 10.0000 -90 0 1 610.0000 -380.0000 A 10.0000 10.0000 0 0 1 620.0000 -370.0000 L 620.0000 -360.0000 L 620.0000 -350.0000 A 10.0000 10.0000 90 0 1 610.0000 -340.0000 A 10.0000 10.0000 180 0 0 600.0000 -330.0000 A 10.0000 10.0000 90 0 0 610.0000 -320.0000 A 10.0000 10.0000 0 0 1 620.0000 -310.0000 L 620.0000 -300.0000 L 620.0000 -290.0000 A 10.0000 10.0000 90 0 1 610.0000 -280.0000 A 10.0000 10.0000 180 0 1 600.0000 -290.0000 A 10.0000 10.0000 270 0 0 590.0000 -300.0000 L 580.0000 -300.0000 L 570.0000 -300.0000 A 10.0000 10.0000 180 0 0 560.0000 -290.0000 A 10.0000 10.0000 90 0 0 570.0000 -280.0000 A 10.0000 10.0000 0 0 1 580.0000 -270.0000 A 10.0000 10.0000 90 0 1 570.0000 -260.0000 A 10.0000 10.0000 180 0 0 560.0000 -250.0000 A 10.0000 10.0000 90 0 0 570.0000 -240.0000 L 580.0000 -240.0000 L 590.0000 -240.0000 A 10.0000 10.0000 0 0 0 600.0000 -250.0000 A 10.0000 10.0000 -90 0 1 610.0000 -260.0000 A 10.0000 10.0000 0 0 1 620.0000 -250.0000 L 620.0000 -240.0000 L 620.0000 -230.0000 A 10.0000 10.0000 90 0 1 610.0000 -220.0000 A 10.0000 10.0000 180 0 0 600.0000 -210.0000 A 10.0000 10.0000 90 0 0 610.0000 -200.0000 A 10.0000 10.0000 0 0 1 620.0000 -190.0000 L 620.0000 -180.0000 L 620.0000 -170.0000 A 10.0000 10.0000 90 0 1 610.0000 -160.0000 A 10.0000 10.0000 180 0 1 600.0000 -170.0000 A 10.0000 10.0000 270 0 0 590.0000 -180.0000 A 10.0000 10.0000 180 0 0 580.0000 -170.0000 A 10.0000 10.0000 90 0 1 570.0000 -160.0000 A 10.0000 10.0000 180 0 1 560.0000 -170.0000 L 560.0000 -180.0000 L 560.0000 -190.0000 A 10.0000 10.0000 270 0 1 570.0000 -200.0000 A 10.0000 10.0000 360 0 0 580.0000 -210.0000 A 10.0000 10.0000 270 0 0 570.0000 -220.0000 L 560.0000 -220.0000 L 550.0000 -220.0000 L 540.0000 -220.0000 L 530.0000 -220.0000 A 10.0000 10.0000 180 0 0 520.0000 -210.0000 A 10.0000 10.0000 90 0 0 530.0000 -200.0000 A 10.0000 10.0000 0 0 1 540.0000 -190.0000 L 540.0000 -180.0000 L 540.0000 -170.0000 A 10.0000 10.0000 90 0 1 530.0000 -160.0000 A 10.0000 10.0000 180 0 1 520.0000 -170.0000 A 10.0000 10.0000 270 0 0 510.0000 -180.0000 A 10.0000 10.0000 180 0 0 500.0000 -170.0000 A 10.0000 10.0000 90 0 1 490.0000 -160.0000 A 10.0000 10.0000 180 0 1 480.0000 -170.0000 L 480.0000 -180.0000 L 480.0000 -190.0000 A 10.0000 10.0000 270 0 1 490.0000 -200.0000 A 10.0000 10.0000 360 0 0 500.0000 -210.0000 A 10.0000 10.0000 270 0 0 490.0000 -220.0000 A 10.0000 10.0000 180 0 1 480.0000 -230.0000 L 480.0000 -240.0000 L 480.0000 -250.0000 A 10.0000 10.0000 270 0 1 490.0000 -260.0000 A 10.0000 10.0000 360 0 1 500.0000 -250.0000 A 10.0000 10.0000 450 0 0 510.0000 -240.0000 L 520.0000 -240.0000 L 530.0000 -240.0000 A 10.0000 10.0000 360 0 0 540.0000 -250.0000 A 10.0000 10.0000 270 0 0 530.0000 -260.0000 A 10.0000 10.0000 180 0 1 520.0000 -270.0000 A 10.0000 10.0000 270 0 1 530.0000 -280.0000 A 10.0000 10.0000 360 0 0 540.0000 -290.0000 A 10.0000 10.0000 270 0 0 530.0000 -300.0000 L 520.0000 -300.0000 L 510.0000 -300.0000 A 10.0000 10.0000 180 0 0 500.0000 -290.0000 A 10.0000 10.0000 90 0 1 490.0000 -280.0000 A 10.0000 10.0000 180 0 1 480.0000 -290.0000 A 10.0000 10.0000 270 0 0 470.0000 -300.0000 L 460.0000 -300.0000 L 450.0000 -300.0000 A 10.0000 10.0000 180 0 0 440.0000 -290.0000 A 10.0000 10.0000 90 0 0 450.0000 -280.0000 A 10.0000 10.0000 0 0 1 460.0000 -270.0000 L 460.0000 -260.0000 L 460.0000 -250.0000 A 10.0000 10.0000 90 0 1 450.0000 -240.0000 A 10.0000 10.0000 180 0 1 440.0000 -250.0000 A 10.0000 10.0000 270 0 0 430.0000 -260.0000 A 10.0000 10.0000 180 0 0 420.0000 -250.0000 A 10.0000 10.0000 90 0 1 410.0000 -240.0000 A 10.0000 10.0000 180 0 1 400.0000 -250.0000 L 400.0000 -260.0000 L 400.0000 -270.0000 A 10.0000 10.0000 270 0 1 410.0000 -280.0000 A 10.0000 10.0000 360 0 0 420.0000 -290.0000 A 10.0000 10.0000 270 0 0 410.0000 -300.0000 L 400.0000 -300.0000 L 390.0000 -300.0000 A 10.0000 10.0000 180 0 0 380.0000 -290.0000 A 10.0000 10.0000 90 0 1 370.0000 -280.0000 A 10.0000 10.0000 180 0 1 360.0000 -290.0000 A 10.0000 10.0000 270 0 0 350.0000 -300.0000 L 340.0000 -300.0000 L 330.0000 -300.0000 A 10.0000 10.0000 180 0 0 320.0000 -290.0000 A 10.0000 10.0000 90 0 0 330.0000 -280.0000 A 10.0000 10.0000 0 0 1 340.0000 -270.0000 A 10.0000 10.0000 90 0 1 330.0000 -260.0000 A 10.0000 10.0000 180 0 0 320.0000 -250.0000 A 10.0000 10.0000 90 0 0 330.0000 -240.0000 L 340.0000 -240.0000 L 350.0000 -240.0000 A 10.0000 10.0000 0 0 0 360.0000 -250.0000 A 10.0000 10.0000 -90 0 1 370.0000 -260.0000 A 10.0000 10.0000 0 0 1 380.0000 -250.0000 L 380.0000 -240.0000 L 380.0000 -230.0000 L 380.0000 -220.0000 L 380.0000 -210.0000 A 10.0000 10.0000 90 0 1 370.0000 -200.0000 A 10.0000 10.0000 180 0 1 360.0000 -210.0000 A 10.0000 10.0000 270 0 0 350.0000 -220.0000 L 340.0000 -220.0000 L 330.0000 -220.0000 A 10.0000 10.0000 180 0 0 320.0000 -210.0000 A 10.0000 10.0000 90 0 0 330.0000 -200.0000 A 10.0000 10.0000 0 0 1 340.0000 -190.0000 A 10.0000 10.0000 90 0 1 330.0000 -180.0000 A 10.0000 10.0000 180 0 0 320.0000 -170.0000 A 10.0000 10.0000 90 0 0 330.0000 -160.0000 L 340.0000 -160.0000 L 350.0000 -160.0000 A 10.0000 10.0000 0 0 0 360.0000 -170.0000 A 10.0000 10.0000 -90 0 1 370.0000 -180.0000 A 10.0000 10.0000 0 0 1 380.0000 -170.0000 A 10.0000 10.0000 90 0 0 390.0000 -160.0000 L 400.0000 -160.0000 L 410.0000 -160.0000 A 10.0000 10.0000 0 0 0 420.0000 -170.0000 A 10.0000 10.0000 -90 0 0 410.0000 -180.0000 A 10.0000 10.0000 -180 0 1 400.0000 -190.0000 L 400.0000 -200.0000 L 400.0000 -210.0000 A 10.0000 10.0000 -90 0 1 410.0000 -220.0000 A 10.0000 10.0000 0 0 1 420.0000 -210.0000 A 10.0000 10.0000 90 0 0 430.0000 -200.0000 A 10.0000 10.0000 0 0 0 440.0000 -210.0000 A 10.0000 10.0000 -90 0 1 450.0000 -220.0000 A 10.0000 10.0000 0 0 1 460.0000 -210.0000 L 460.0000 -200.0000 L 460.0000 -190.0000 A 10.0000 10.0000 90 0 1 450.0000 -180.0000 A 10.0000 10.0000 180 0 0 440.0000 -170.0000 A 10.0000 10.0000 90 0 0 450.0000 -160.0000 A 10.0000 10.0000 0 0 1 460.0000 -150.0000 A 10.0000 10.0000 90 0 1 450.0000 -140.0000 A 10.0000 10.0000 180 0 0 440.0000 -130.0000 A 10.0000 10.0000 90 0 0 450.0000 -120.0000 A 10.0000 10.0000 0 0 1 460.0000 -110.0000 L 460.0000 -100.0000 L 460.0000 -90.0000 A 10.0000 10.0000 90 0 1 450.0000 -80.0000 A 10.0000 10.0000 180 0 1 440.0000 -90.0000 A 10.0000 10.0000 270 0 0 430.0000 -100.0000 A 10.0000 10.0000 180 0 0 420.0000 -90.0000 A 10.0000 10.0000 90 0 1 410.0000 -80.0000 A 10.0000 10.0000 180 0 1 400.0000 -90.0000 L 400.0000 -100.0000 L 400.0000 -110.0000 A 10.0000 10.0000 270 0 1 410.0000 -120.0000 A 10.0000 10.0000 360 0 0 420.0000 -130.0000 A 10.0000 10.0000 270 0 0 410.0000 -140.0000 L 400.0000 -140.0000 L 390.0000 -140.0000 A 10.0000 10.0000 180 0 0 380.0000 -130.0000 A 10.0000 10.0000 90 0 1 370.0000 -120.0000 A 10.0000 10.0000 180 0 1 360.0000 -130.0000 A 10.0000 10.0000 270 0 0 350.0000 -140.0000 L 340.0000 -140.0000 L 330.0000 -140.0000 A 10.0000 10.0000 180 0 0 320.0000 -130.0000 A 10.0000 10.0000 90 0 0 330.0000 -120.0000 A 10.0000 10.0000 0 0 1 340.0000 -110.0000 A 10.0000 10.0000 90 0 1 330.0000 -100.0000 A 10.0000 10.0000 180 0 0 320.0000 -90.0000 A 10.0000 10.0000 90 0 0 330.0000 -80.0000 L 340.0000 -80.0000 L 350.0000 -80.0000 A 10.0000 10.0000 0 0 0 360.0000 -90.0000 A 10.0000 10.0000 -90 0 1 370.0000 -100.0000 A 10.0000 10.0000 0 0 1 380.0000 -90.0000 L 380.0000 -80.0000 L 380.0000 -70.0000 L 380.0000 -60.0000 L 380.0000 -50.0000 A 10.0000 10.0000 90 0 1 370.0000 -40.0000 A 10.0000 10.0000 180 0 1 360.0000 -50.0000 A 10.0000 10.0000 270 0 0 350.0000 -60.0000 L 340.0000 -60.0000 L 330.0000 -60.0000 A 10.0000 10.0000 180 0 0 320.0000 -50.0000 A 10.0000 10.0000 90 0 0 330.0000 -40.0000 A 10.0000 10.0000 0 0 1 340.0000 -30.0000 A 10.0000 10.0000 90 0 1 330.0000 -20.0000 A 10.0000 10.0000 180 0 0 320.0000 -10.0000 A 10.0000 10.0000 90 0 0 330.0000 -0.0000 L 340.0000 -0.0000 L 350.0000 -0.0000 A 10.0000 10.0000 0 0 0 360.0000 -10.0000 A 10.0000 10.0000 -90 0 1 370.0000 -20.0000 A 10.0000 10.0000 0 0 1 380.0000 -10.0000 A 10.0000 10.0000 90 0 0 390.0000 -0.0000 L 400.0000 -0.0000 L 410.0000 -0.0000 A 10.0000 10.0000 0 0 0 420.0000 -10.0000 A 10.0000 10.0000 -90 0 0 410.0000 -20.0000 A 10.0000 10.0000 -180 0 1 400.0000 -30.0000 L 400.0000 -40.0000 L 400.0000 -50.0000 A 10.0000 10.0000 -90 0 1 410.0000 -60.0000 A 10.0000 10.0000 0 0 1 420.0000 -50.0000 A 10.0000 10.0000 90 0 0 430.0000 -40.0000 A 10.0000 10.0000 0 0 0 440.0000 -50.0000 A 10.0000 10.0000 -90 0 1 450.0000 -60.0000 A 10.0000 10.0000 0 0 1 460.0000 -50.0000 L 460.0000 -40.0000 L 460.0000 -30.0000 A 10.0000 10.0000 90 0 1 450.0000 -20.0000 A 10.0000 10.0000 180 0 0 440.0000 -10.0000 A 10.0000 10.0000 90 0 0 450.0000 -0.0000 L 460.0000 -0.0000 L 470.0000 -0.0000 A 10.0000 10.0000 0 0 0 480.0000 -10.0000 A 10.0000 10.0000 -90 0 1 490.0000 -20.0000 A 10.0000 10.0000 0 0 1 500.0000 -10.0000 A 10.0000 10.0000 90 0 0 510.0000 -0.0000 L 520.0000 -0.0000 L 530.0000 -0.0000 A 10.0000 10.0000 0 0 0 540.0000 -10.0000 A 10.0000 10.0000 -90 0 0 530.0000 -20.0000 A 10.0000 10.0000 -180 0 1 520.0000 -30.0000 A 10.0000 10.0000 -90 0 1 530.0000 -40.0000 A 10.0000 10.0000 0 0 0 540.0000 -50.0000 A 10.0000 10.0000 -90 0 0 530.0000 -60.0000 L 520.0000 -60.0000 L 510.0000 -60.0000 A 10.0000 10.0000 -180 0 0 500.0000 -50.0000 A 10.0000 10.0000 -270 0 1 490.0000 -40.0000 A 10.0000 10.0000 -180 0 1 480.0000 -50.0000 L 480.0000 -60.0000 L 480.0000 -70.0000 A 10.0000 10.0000 -90 0 1 490.0000 -80.0000 A 10.0000 10.0000 0 0 0 500.0000 -90.0000 A 10.0000 10.0000 -90 0 0 490.0000 -100.0000 A 10.0000 10.0000 -180 0 1 480.0000 -110.0000 L 480.0000 -120.0000 L 480.0000 -130.0000 A 10.0000 10.0000 -90 0 1 490.0000 -140.0000 A 10.0000 10.0000 0 0 1 500.0000 -130.0000 A 10.0000 10.0000 90 0 0 510.0000 -120.0000 A 10.0000 10.0000 0 0 0 520.0000 -130.0000 A 10.0000 10.0000 -90 0 1 530.0000 -140.0000 A 10.0000 10.0000 0 0 1 540.0000 -130.0000 L 540.0000 -120.0000 L 540.0000 -110.0000 A 10.0000 10.0000 90 0 1 530.0000 -100.0000 A 10.0000 10.0000 180 0 0 520.0000 -90.0000 A 10.0000 10.0000 90 0 0 530.0000 -80.0000 L 540.0000 -80.0000 L 550.0000 -80.0000 L 560.0000 -80.0000 L 570.0000 -80.0000 A 10.0000 10.0000 0 0 0 580.0000 -90.0000 A 10.0000 10.0000 -90 0 0 570.0000 -100.0000 A 10.0000 10.0000 -180 0 1 560.0000 -110.0000 L 560.0000 -120.0000 L 560.0000 -130.0000 A 10.0000 10.0000 -90 0 1 570.0000 -140.0000 A 10.0000 10.0000 0 0 1 580.0000 -130.0000 A 10.0000 10.0000 90 0 0 590.0000 -120.0000 A 10.0000 10.0000 0 0 0 600.0000 -130.0000 A 10.0000 10.0000 -90 0 1 610.0000 -140.0000 A 10.0000 10.0000 0 0 1 620.0000 -130.0000 L 620.0000 -120.0000 L 620.0000 -110.0000 A 10.0000 10.0000 90 0 1 610.0000 -100.0000 A 10.0000 10.0000 180 0 0 600.0000 -90.0000 A 10.0000 10.0000 90 0 0 610.0000 -80.0000 A 10.0000 10.0000 0 0 1 620.0000 -70.0000 L 620.0000 -60.0000 L 620.0000 -50.0000 A 10.0000 10.0000 90 0 1 610.0000 -40.0000 A 10.0000 10.0000 180 0 1 600.0000 -50.0000 A 10.0000 10.0000 270 0 0 590.0000 -60.0000 L 580.0000 -60.0000 L 570.0000 -60.0000 A 10.0000 10.0000 180 0 0 560.0000 -50.0000 A 10.0000 10.0000 90 0 0 570.0000 -40.0000 A 10.0000 10.0000 0 0 1 580.0000 -30.0000 A 10.0000 10.0000 90 0 1 570.0000 -20.0000 A 10.0000 10.0000 180 0 0 560.0000 -10.0000 A 10.0000 10.0000 90 0 0 570.0000 -0.0000 L 580.0000 -0.0000 L 590.0000 -0.0000 A 10.0000 10.0000 0 0 0 600.0000 -10.0000 A 10.0000 10.0000 -90 0 1 610.0000 -20.0000 A 10.0000 10.0000 0 0 1 620.0000 -10.0000 L 620.0000 0.0000 " fill="none" stroke="black" stroke-linecap="round" stroke-linejoin="round" stroke-width="3" /></svg>