<?xml version="1.0" encoding="utf-8" ?>
<svg baseProfile="full" height="1500px" version="1.1" width="1500px" xmlns="http://www.w3.org/2000/svg" xmlns:ev="http://www.w3.org/2001/xml-events" xmlns:xlink="http://www.w3.org/1999/xlink"><defs><clipPath id="border_clip"><rect height="1500" width="1500" x="0" y="0" /></clipPath></defs><polyline clip-path="url(#border_clip)" fill="none" points="623.2485733904576,962.0113298208786 635.3076211353316,967.0063509461102 645.6629601946589,974.9522820760046 653.6088913245535,985.307621135332 661.5548224544481,995.6629601946595 671.9101615137754,1003.6088913245541 683.9692092586494,1008.6039124497856 696.9101615137754,1010.3076211353322 709.8511137689014,1008.6039124497856 721.9101615137755,1003.6088913245542 732.2655005731028,995.6629601946596 740.2114317029974,985.3076211353322 745.206452828229,973.2485733904582 746.9101615137755,960.3076211353322 745.206452828229,947.3666688802061 740.2114317029975,935.3076211353322 732.265500573103,924.9522820760048 721.9101615137756,917.0063509461102 709.8511137689017,912.0113298208787 696.9101615137756,910.307621135332 683.9692092586496,908.6039124497854 671.9101615137756,903.608891324554 661.5548224544483,895.6629601946594 653.6088913245537,885.3076211353319 648.6138701993224,873.248573390458 646.9101615137758,860.3076211353319 648.6138701993224,847.3666688802059 653.608891324554,835.3076211353319 658.6039124497854,823.248573390458 660.307621135332,810.3076211353319 658.6039124497855,797.3666688802059 653.6088913245541,785.3076211353319 645.6629601946595,774.9522820760045 635.3076211353322,767.0063509461099 623.2485733904582,762.0113298208785 610.3076211353322,760.3076211353318 597.3666688802061,762.0113298208784 585.3076211353322,767.0063509461098 574.9522820760047,774.9522820760044 567.0063509461102,785.3076211353317 559.0604198162155,795.662960194659 548.7050807568882,803.6088913245536 536.6460330120142,808.6039124497851" stroke="black" stroke-linecap="round" stroke-width="5" /><polyline clip-path="url(#border_clip)" fill="none" points="536.6460330120142,808.6039124497851 523.705080756888,810.3076211353316 510.76412850176206,808.603912449785 498.7050807568881,803.6088913245534 488.3497416975607,795.6629601946588 480.4038105676662,785.3076211353314 475.40878944243474,773.2485733904574 473.7050807568882,760.3076211353314 475.40878944243485,747.3666688802053 480.40381056766637,735.3076211353314 488.34974169756094,724.952282076004 498.7050807568884,717.0063509461095 510.76412850176234,712.011329820878 523.7050807568884,710.3076211353315 536.6460330120144,708.603912449785 548.7050807568884,703.6088913245535 559.0604198162158,695.662960194659 567.0063509461104,685.3076211353317 572.0013720713418,673.2485733904578 573.7050807568885,660.3076211353317 572.0013720713421,647.3666688802057 567.0063509461106,635.3076211353316 562.0113298208792,623.2485733904576 560.3076211353326,610.3076211353316 562.0113298208793,597.3666688802056 567.0063509461108,585.3076211353316 574.9522820760054,574.9522820760043 585.3076211353327,567.0063509461098 597.3666688802068,562.0113298208784 610.3076211353329,560.3076211353318 623.2485733904589,562.0113298208785 635.3076211353327,567.0063509461099 645.6629601946602,574.9522820760046 653.6088913245546,585.307621135332 661.5548224544492,595.6629601946594 671.9101615137765,603.608891324554 683.9692092586505,608.6039124497855 696.9101615137765,610.3076211353322 709.8511137689026,608.6039124497856 721.9101615137765,603.6088913245542 732.265500573104,595.6629601946597 740.2114317029985,585.3076211353323 745.2064528282301,573.2485733904584" stroke="black" stroke-linecap="round" stroke-width="5" /><polyline clip-path="url(#border_clip)" fill="none" points="745.2064528282301,573.2485733904584 746.9101615137768,560.3076211353324 745.2064528282302,547.3666688802064 740.2114317029988,535.3076211353323 732.2655005731042,524.952282076005 721.9101615137769,517.0063509461104 709.8511137689029,512.0113298208788 696.9101615137769,510.30762113533217 683.9692092586508,508.6039124497855 671.910161513777,503.608891324554 661.5548224544495,495.6629601946594 653.6088913245551,485.307621135332 648.6138701993236,473.24857339045803 646.9101615137771,460.307621135332 648.6138701993237,447.36666888020596 653.6088913245553,435.307621135332 661.5548224544499,424.9522820760047 671.9101615137773,417.00635094611016 683.9692092586513,412.0113298208787 696.9101615137773,410.30762113533217 709.8511137689034,408.60391244978564 721.9101615137773,403.6088913245542 732.2655005731048,395.66296019465966 740.2114317029993,385.30762113533234 745.2064528282309,373.2485733904584 746.9101615137776,360.30762113533234 745.206452828231,347.3666688802063 740.2114317029996,335.30762113533234 735.2164105777681,323.2485733904584 733.5127018922216,310.30762113533234 735.2164105777682,297.3666688802063 740.2114317029998,285.30762113533234 748.1573628328944,274.952282076005 758.5127018922218,267.0063509461105 770.5717496370958,262.0113298208791 783.5127018922218,260.30762113533257 796.4536541473478,262.0113298208792 808.5127018922218,267.00635094611073 818.8680409515491,274.9522820760053 826.8139720814436,285.30762113533274 831.808993206675,297.3666688802067 833.5127018922216,310.30762113533274 831.8089932066749,323.2485733904588" stroke="black" stroke-linecap="round" stroke-width="5" /><polyline clip-path="url(#border_clip)" fill="none" points="831.8089932066749,323.2485733904588 826.8139720814434,335.30762113533274 821.8189509562119,347.3666688802067 820.1152422706652,360.30762113533274 821.8189509562118,373.2485733904588 826.8139720814431,385.30762113533274 834.7599032113377,395.6629601946602 845.115242270665,403.6088913245548 857.1742900155389,408.6039124497863 870.115242270665,410.30762113533297 883.0561945257909,412.0113298208796 895.1152422706649,417.0063509461111 905.4705813299922,424.95228207600576 913.4165124598867,435.3076211353332 918.4115335851181,447.36666888020716 920.1152422706647,460.3076211353332 918.411533585118,473.2485733904592 913.4165124598865,485.30762113533314 905.4705813299919,495.66296019466046 895.1152422706645,503.608891324555 883.0561945257905,508.6039124497863 870.1152422706645,510.30762113533285 857.1742900155384,512.0113298208794 845.1152422706643,517.0063509461107 834.7599032113369,524.9522820760053 826.8139720814423,535.3076211353325 821.8189509562108,547.3666688802065 820.1152422706641,560.3076211353325 821.8189509562106,573.2485733904585 826.813972081442,585.3076211353325 834.7599032113365,595.66296019466 845.1152422706639,603.6088913245546 857.1742900155377,608.6039124497861 870.1152422706638,610.3076211353327 883.0561945257898,608.6039124497863 895.1152422706638,603.6088913245549 905.4705813299912,595.6629601946604 913.4165124598859,585.3076211353331 921.3624435897805,574.9522820760058 931.7177826491079,567.0063509461113 943.776830393982,562.0113298208798 956.7177826491079,560.3076211353334 969.658734904234,562.0113298208801" stroke="black" stroke-linecap="round" stroke-width="5" /><polyline clip-path="url(#border_clip)" fill="none" points="969.658734904234,562.0113298208801 981.7177826491079,567.0063509461115 992.0731217084352,574.9522820760062 1000.0190528383298,585.3076211353336 1005.0140739635611,597.3666688802076 1006.7177826491077,610.3076211353336 1005.0140739635609,623.2485733904597 1000.0190528383293,635.3076211353336 995.0240317130978,647.3666688802075 993.3203230275511,660.3076211353335 995.0240317130977,673.2485733904596 1000.019052838329,685.3076211353336 1007.9649839682236,695.6629601946611 1018.3203230275508,703.6088913245557 1030.3793707724249,708.6039124497872 1043.3203230275508,710.3076211353339 1056.2612752826767,712.0113298208806 1068.3203230275508,717.0063509461122 1078.675662086878,724.9522820760068 1086.6215932167725,735.3076211353342 1091.616614342004,747.3666688802082 1093.3203230275503,760.3076211353342 1091.6166143420037,773.2485733904603 1086.621593216772,785.3076211353342 1078.6756620868775,795.6629601946615 1068.32032302755,803.608891324556 1056.261275282676,808.6039124497875 1043.3203230275499,810.3076211353339 1030.379370772424,808.6039124497872 1018.3203230275501,803.6088913245557 1007.9649839682227,795.662960194661 1000.0190528383282,785.3076211353335 992.0731217084337,774.9522820760061 981.7177826491064,767.0063509461115 969.6587349042325,762.01132982088 956.7177826491064,760.3076211353332 943.7768303939804,762.0113298208797 931.7177826491063,767.0063509461111 921.3624435897789,774.9522820760055 913.4165124598843,785.3076211353329 908.4214913346527,797.3666688802068 906.7177826491061,810.3076211353329 908.4214913346525,823.2485733904589" stroke="black" stroke-linecap="round" stroke-width="5" /><polyline clip-path="url(#border_clip)" fill="none" points="908.4214913346525,823.2485733904589 913.4165124598838,835.307621135333 918.4115335851152,847.3666688802069 920.1152422706617,860.307621135333 918.411533585115,873.248573390459 913.4165124598835,885.307621135333 905.4705813299888,895.6629601946603 895.1152422706614,903.6088913245547 883.0561945257873,908.6039124497861 870.1152422706613,910.3076211353326 857.1742900155352,912.011329820879 845.1152422706612,917.0063509461104 834.7599032113337,924.9522820760048 826.813972081439,935.3076211353323 821.8189509562075,947.3666688802061 820.1152422706608,960.3076211353322 821.8189509562072,973.2485733904582 826.8139720814386,985.3076211353323 834.7599032113332,995.6629601946597 845.1152422706605,1003.6088913245544 857.1742900155343,1008.603912449786 870.1152422706604,1010.3076211353327 883.0561945257864,1008.6039124497862 895.1152422706605,1003.6088913245549 905.4705813299879,995.6629601946604 913.4165124598826,985.3076211353331 921.3624435897773,974.9522820760058 931.7177826491047,967.0063509461113 943.7768303939787,962.0113298208798 956.7177826491047,960.3076211353334 969.6587349042309,962.0113298208801 981.7177826491047,967.0063509461118 992.073121708432,974.9522820760064 1000.0190528383265,985.3076211353339 1007.9649839682211,995.6629601946613 1018.3203230275483,1003.608891324556 1030.3793707724221,1008.6039124497876 1043.3203230275483,1010.3076211353343 1056.2612752826744,1008.6039124497878 1068.3203230275485,1003.6088913245565 1078.675662086876,995.662960194662 1086.6215932167706,985.3076211353347 1091.6166143420023,973.2485733904607" stroke="black" stroke-linecap="round" stroke-width="5" /><polyline clip-path="url(#border_clip)" fill="none" points="1091.6166143420023,973.2485733904607 1093.320323027549,960.3076211353347 1091.6166143420023,947.3666688802086 1086.621593216771,935.3076211353346 1081.6265720915399,923.2485733904606 1079.9228634059932,910.3076211353346 1081.6265720915399,897.3666688802084 1086.6215932167715,885.3076211353346 1094.5675243466662,874.9522820760072 1104.9228634059937,867.0063509461128 1116.9819111508677,862.0113298208814 1129.922863405994,860.3076211353349 1142.86381566112,862.0113298208817 1154.922863405994,867.0063509461132 1165.278202465321,874.9522820760079 1173.2241335952156,885.3076211353354 1178.219154720447,897.3666688802094 1179.9228634059934,910.3076211353355 1178.2191547204468,923.2485733904616 1173.224133595215,935.3076211353355 1168.2291124699834,947.3666688802094 1166.5254037844368,960.3076211353355 1168.2291124699832,973.2485733904616 1173.2241335952147,985.3076211353356 1181.1700647251091,995.6629601946631 1191.5254037844363,1003.6088913245578 1203.5844515293102,1008.6039124497894 1216.5254037844363,1010.3076211353361 1266.5254037844365,1010.3076211353366" stroke="black" stroke-linecap="round" stroke-width="5" /><polyline clip-path="url(#border_clip)" fill="none" points="300.5,1010.3076211353318 350.5,1010.3076211353318 363.44095225512604,1008.6039124497852 375.5,1003.6088913245537 385.8553390593274,995.6629601946591 393.80127018922195,985.3076211353318 398.7962913144534,973.2485733904578 400.5,960.3076211353318 398.7962913144534,947.3666688802057 393.80127018922195,935.3076211353318 388.8062490639905,923.2485733904578 387.1025403784439,910.3076211353318 388.8062490639905,897.3666688802057 393.80127018922195,885.3076211353318 401.7472013191165,874.9522820760044 412.1025403784439,867.0063509461098 424.16158812331787,862.0113298208784 437.1025403784439,860.3076211353318 450.04349263356994,862.0113298208784 462.1025403784439,867.0063509461099 472.4578794377713,874.9522820760044 480.40381056766586,885.3076211353318 485.3988316928973,897.3666688802058 487.1025403784439,910.3076211353318 485.3988316928973,923.2485733904579 480.4038105676658,935.3076211353318 475.4087894424343,947.3666688802058 473.7050807568877,960.3076211353318 475.4087894424343,973.2485733904579 480.40381056766574,985.3076211353318 488.34974169756026,995.6629601946593 498.70508075688764,1003.6088913245537 510.7641285017616,1008.6039124497853 523.7050807568876,1010.3076211353318 536.6460330120137,1008.6039124497853 548.7050807568876,1003.6088913245538 559.060419816215,995.6629601946593 567.0063509461096,985.3076211353319 574.9522820760042,974.9522820760045 585.3076211353316,967.0063509461099 597.3666688802056,962.0113298208785 610.3076211353316,960.3076211353319 623.2485733904576,962.0113298208786" stroke="black" stroke-linecap="round" stroke-width="5" /></svg>