<?xml version="1.0" encoding="utf-8" ?>
<svg baseProfile="full" height="1000" version="1.1" viewBox="-100.0 -849.9999999999999 1166.0254037844381 950.0" width="1000" xmlns="http://www.w3.org/2000/svg" xmlns:ev="http://www.w3.org/2001/xml-events" xmlns:xlink="http://www.w3.org/1999/xlink"><defs /><path d="M 0 0 L 50.0000 0.0000 A 50.0000 50.0000 0 0 0 93.3013 -25.0000 A 50.0000 50.0000 -60 0 0 93.3013 -75.0000 A 50.0000 50.0000 -120 0 1 93.3013 -125.0000 A 50.0000 50.0000 -60 0 1 136.6025 -150.0000 A 50.0000 50.0000 0 0 1 179.9038 -125.0000 A 50.0000 50.0000 60 0 1 179.9038 -75.0000 A 50.0000 50.0000 120 0 0 179.9038 -25.0000 A 50.0000 50.0000 60 0 0 223.2051 0.0000 A 50.0000 50.0000 0 0 0 266.5064 -25.0000 A 50.0000 50.0000 -60 0 1 309.8076 -50.0000 A 50.0000 50.0000 0 0 1 353.1089 -25.0000 A 50.0000 50.0000 60 0 0 396.4102 0.0000 A 50.0000 50.0000 0 0 0 439.7114 -25.0000 A 50.0000 50.0000 -60 0 0 439.7114 -75.0000 A 50.0000 50.0000 -120 0 0 396.4102 -100.0000 A 50.0000 50.0000 -180 0 1 353.1089 -125.0000 A 50.0000 50.0000 -120 0 1 353.1089 -175.0000 A 50.0000 50.0000 -60 0 0 353.1089 -225.0000 A 50.0000 50.0000 -120 0 0 309.8076 -250.0000 A 50.0000 50.0000 -180 0 0 266.5064 -225.0000 A 50.0000 50.0000 -240 0 1 223.2051 -200.0000 A 50.0000 50.0000 -180 0 1 179.9038 -225.0000 A 50.0000 50.0000 -120 0 1 179.9038 -275.0000 A 50.0000 50.0000 -60 0 1 223.2051 -300.0000 A 50.0000 50.0000 0 0 0 266.5064 -325.0000 A 50.0000 50.0000 -60 0 0 266.5064 -375.0000 A 50.0000 50.0000 -120 0 1 266.5064 -425.0000 A 50.0000 50.0000 -60 0 1 309.8076 -450.0000 A 50.0000 50.0000 0 0 1 353.1089 -425.0000 A 50.0000 50.0000 60 0 0 396.4102 -400.0000 A 50.0000 50.0000 0 0 0 439.7114 -425.0000 A 50.0000 50.0000 -60 0 0 439.7114 -475.0000 A 50.0000 50.0000 -120 0 0 396.4102 -500.0000 A 50.0000 50.0000 -180 0 1 353.1089 -525.0000 A 50.0000 50.0000 -120 0 1 353.1089 -575.0000 A 50.0000 50.0000 -60 0 1 396.4102 -600.0000 A 50.0000 50.0000 0 0 0 439.7114 -625.0000 A 50.0000 50.0000 -60 0 0 439.7114 -675.0000 A 50.0000 50.0000 -120 0 1 439.7114 -725.0000 A 50.0000 50.0000 -60 0 1 483.0127 -750.0000 A 50.0000 50.0000 0 0 1 526.3140 -725.0000 A 50.0000 50.0000 60 0 1 526.3140 -675.0000 A 50.0000 50.0000 120 0 0 526.3140 -625.0000 A 50.0000 50.0000 60 0 0 569.6152 -600.0000 A 50.0000 50.0000 0 0 1 612.9165 -575.0000 A 50.0000 50.0000 60 0 1 612.9165 -525.0000 A 50.0000 50.0000 120 0 1 569.6152 -500.0000 A 50.0000 50.0000 180 0 0 526.3140 -475.0000 A 50.0000 50.0000 120 0 0 526.3140 -425.0000 A 50.0000 50.0000 60 0 0 569.6152 -400.0000 A 50.0000 50.0000 0 0 0 612.9165 -425.0000 A 50.0000 50.0000 -60 0 1 656.2178 -450.0000 A 50.0000 50.0000 0 0 1 699.5191 -425.0000 A 50.0000 50.0000 60 0 1 699.5191 -375.0000 A 50.0000 50.0000 120 0 0 699.5191 -325.0000 A 50.0000 50.0000 60 0 0 742.8203 -300.0000 A 50.0000 50.0000 0 0 1 786.1216 -275.0000 A 50.0000 50.0000 60 0 1 786.1216 -225.0000 A 50.0000 50.0000 120 0 1 742.8203 -200.0000 A 50.0000 50.0000 180 0 1 699.5191 -225.0000 A 50.0000 50.0000 240 0 0 656.2178 -250.0000 A 50.0000 50.0000 180 0 0 612.9165 -225.0000 A 50.0000 50.0000 120 0 0 612.9165 -175.0000 A 50.0000 50.0000 60 0 1 612.9165 -125.0000 A 50.0000 50.0000 120 0 1 569.6152 -100.0000 A 50.0000 50.0000 180 0 0 526.3140 -75.0000 A 50.0000 50.0000 120 0 0 526.3140 -25.0000 A 50.0000 50.0000 60 0 0 569.6152 0.0000 A 50.0000 50.0000 0 0 0 612.9165 -25.0000 A 50.0000 50.0000 -60 0 1 656.2178 -50.0000 A 50.0000 50.0000 0 0 1 699.5191 -25.0000 A 50.0000 50.0000 60 0 0 742.8203 0.0000 A 50.0000 50.0000 0 0 0 786.1216 -25.0000 A 50.0000 50.0000 -60 0 0 786.1216 -75.0000 A 50.0000 50.0000 -120 0 1 786.1216 -125.0000 A 50.0000 50.0000 -60 0 1 829.4229 -150.0000 A 50.0000 50.0000 0 0 1 872.7241 -125.0000 A 50.0000 50.0000 60 0 1 872.7241 -75.0000 A 50.0000 50.0000 120 0 0 872.7241 -25.0000 A 50.0000 50.0000 60 0 0 916.0254 0.0000 L 966.0254 0.0000" fill="none" stroke="black" stroke-linecap="round" stroke-linejoin="round" stroke-width="5" /></svg>