<?xml version="1.0" encoding="utf-8" ?>
<svg baseProfile="full" height="1000" version="1.1" viewBox="-100.0 -3250.0 3937.306695894653 3350.0" width="1000" xmlns="http://www.w3.org/2000/svg" xmlns:ev="http://www.w3.org/2001/xml-events" xmlns:xlink="http://www.w3.org/1999/xlink"><defs /><path d="M 0 0 L 50.0000 0.0000 A 50.0000 50.0000 0 0 0 93.3013 -25.0000 A 50.0000 50.0000 -60 0 0 93.3013 -75.0000 A 50.0000 50.0000 -120 0 1 93.3013 -125.0000 A 50.0000 50.0000 -60 0 1 136.6025 -150.0000 A 50.0000 50.0000 0 0 1 179.9038 -125.0000 A 50.0000 50.0000 60 0 1 179.9038 -75.0000 A 50.0000 50.0000 120 0 0 179.9038 -25.0000 A 50.0000 50.0000 60 0 0 223.2051 0.0000 A 50.0000 50.0000 0 0 0 266.5064 -25.0000 A 50.0000 50.0000 -60 0 1 309.8076 -50.0000 A 50.0000 50.0000 0 0 1 353.1089 -25.0000 A 50.0000 50.0000 60 0 0 396.4102 0.0000 A 50.0000 50.0000 0 0 0 439.7114 -25.0000 A 50.0000 50.0000 -60 0 0 439.7114 -75.0000 A 50.0000 50.0000 -120 0 0 396.4102 -100.0000 A 50.0000 50.0000 -180 0 1 353.1089 -125.0000 A 50.0000 50.0000 -120 0 1 353.1089 -175.0000 A 50.0000 50.0000 -60 0 0 353.1089 -225.0000 A 50.0000 50.0000 -120 0 0 309.8076 -250.0000 A 50.0000 50.0000 -180 0 0 266.5064 -225.0000 A 50.0000 50.0000 -240 0 1 223.2051 -200.0000 A 50.0000 50.0000 -180 0 1 179.9038 -225.0000 A 50.0000 50.0000 -120 0 1 179.9038 -275.0000 A 50.0000 50.0000 -60 0 1 223.2051 -300.0000 A 50.0000 50.0000 0 0 0 266.5064 -325.0000 A 50.0000 50.0000 -60 0 0 266.5064 -375.0000 A 50.0000 50.0000 -120 0 1 266.5064 -425.0000 A 50.0000 50.0000 -60 0 1 309.8076 -450.0000 A 50.0000 50.0000 0 0 1 353.1089 -425.0000 A 50.0000 50.0000 60 0 0 396.4102 -400.0000 A 50.0000 50.0000 0 0 0 439.7114 -425.0000 A 50.0000 50.0000 -60 0 0 439.7114 -475.0000 A 50.0000 50.0000 -120 0 0 396.4102 -500.0000 A 50.0000 50.0000 -180 0 1 353.1089 -525.0000 A 50.0000 50.0000 -120 0 1 353.1089 -575.0000 A 50.0000 50.0000 -60 0 1 396.4102 -600.0000 A 50.0000 50.0000 0 0 0 439.7114 -625.0000 A 50.0000 50.0000 -60 0 0 439.7114 -675.0000 A 50.0000 50.0000 -120 0 1 439.7114 -725.0000 A 50.0000 50.0000 -60 0 1 483.0127 -750.0000 A 50.0000 50.0000 0 0 1 526.3140 -725.0000 A 50.0000 50.0000 60 0 1 526.3140 -675.0000 A 50.0000 50.0000 120 0 0 526.3140 -625.0000 A 50.0000 50.0000 60 0 0 569.6152 -600.0000 A 50.0000 50.0000 0 0 1 612.9165 -575.0000 A 50.0000 50.0000 60 0 1 612.9165 -525.0000 A 50.0000 50.0000 120 0 1 569.6152 -500.0000 A 50.0000 50.0000 180 0 0 526.3140 -475.0000 A 50.0000 50.0000 120 0 0 526.3140 -425.0000 A 50.0000 50.0000 60 0 0 569.6152 -400.0000 A 50.0000 50.0000 0 0 0 612.9165 -425.0000 A 50.0000 50.0000 -60 0 1 656.2178 -450.0000 A 50.0000 50.0000 0 0 1 699.5191 -425.0000 A 50.0000 50.0000 60 0 1 699.5191 -375.0000 A 50.0000 50.0000 120 0 0 699.5191 -325.0000 A 50.0000 50.0000 60 0 0 742.8203 -300.0000 A 50.0000 50.0000 0 0 1 786.1216 -275.0000 A 50.0000 50.0000 60 0 1 786.1216 -225.0000 A 50.0000 50.0000 120 0 1 742.8203 -200.0000 A 50.0000 50.0000 180 0 1 699.5191 -225.0000 A 50.0000 50.0000 240 0 0 656.2178 -250.0000 A 50.0000 50.0000 180 0 0 612.9165 -225.0000 A 50.0000 50.0000 120 0 0 612.9165 -175.0000 A 50.0000 50.0000 60 0 1 612.9165 -125.0000 A 50.0000 50.0000 120 0 1 569.6152 -100.0000 A 50.0000 50.0000 180 0 0 526.3140 -75.0000 A 50.0000 50.0000 120 0 0 526.3140 -25.0000 A 50.0000 50.0000 60 0 0 569.6152 0.0000 A 50.0000 50.0000 0 0 0 612.9165 -25.0000 A 50.0000 50.0000 -60 0 1 656.2178 -50.0000 A 50.0000 50.0000 0 0 1 699.5191 -25.0000 A 50.0000 50.0000 60 0 0 742.8203 0.0000 A 50.0000 50.0000 0 0 0 786.1216 -25.0000 A 50.0000 50.0000 -60 0 0 786.1216 -75.0000 A 50.0000 50.0000 -120 0 1 786.1216 -125.0000 A 50.0000 50.0000 -60 0 1 829.4229 -150.0000 A 50.0000 50.0000 0 0 1 872.7241 -125.0000 A 50.0000 50.0000 60 0 1 872.7241 -75.0000 A 50.0000 50.0000 120 0 0 872.7241 -25.0000 A 50.0000 50.0000 60 0 0 916.0254 0.0000 A 50.0000 50.0000 0 0 0 959.3267 -25.0000 A 50.0000 50.0000 -60 0 1 1002.6279 -50.0000 A 50.0000 50.0000 0 0 1 1045.9292 -25.0000 A 50.0000 50.0000 60 0 0 1089.2305 0.0000 A 50.0000 50.0000 0 0 0 1132.5318 -25.0000 A 50.0000 50.0000 -60 0 0 1132.5318 -75.0000 A 50.0000 50.0000 -120 0 0 1089.2305 -100.0000 A 50.0000 50.0000 -180 0 1 1045.9292 -125.0000 A 50.0000 50.0000 -120 0 1 1045.9292 -175.0000 A 50.0000 50.0000 -60 0 1 1089.2305 -200.0000 A 50.0000 50.0000 0 0 0 1132.5318 -225.0000 A 50.0000 50.0000 -60 0 0 1132.5318 -275.0000 A 50.0000 50.0000 -120 0 1 1132.5318 -325.0000 A 50.0000 50.0000 -60 0 1 1175.8330 -350.0000 A 50.0000 50.0000 0 0 1 1219.1343 -325.0000 A 50.0000 50.0000 60 0 1 1219.1343 -275.0000 A 50.0000 50.0000 120 0 0 1219.1343 -225.0000 A 50.0000 50.0000 60 0 0 1262.4356 -200.0000 A 50.0000 50.0000 0 0 1 1305.7368 -175.0000 A 50.0000 50.0000 60 0 1 1305.7368 -125.0000 A 50.0000 50.0000 120 0 1 1262.4356 -100.0000 A 50.0000 50.0000 180 0 0 1219.1343 -75.0000 A 50.0000 50.0000 120 0 0 1219.1343 -25.0000 A 50.0000 50.0000 60 0 0 1262.4356 0.0000 A 50.0000 50.0000 0 0 0 1305.7368 -25.0000 A 50.0000 50.0000 -60 0 1 1349.0381 -50.0000 A 50.0000 50.0000 0 0 1 1392.3394 -25.0000 A 50.0000 50.0000 60 0 0 1435.6406 0.0000 A 50.0000 50.0000 0 0 0 1478.9419 -25.0000 A 50.0000 50.0000 -60 0 0 1478.9419 -75.0000 A 50.0000 50.0000 -120 0 1 1478.9419 -125.0000 A 50.0000 50.0000 -60 0 1 1522.2432 -150.0000 A 50.0000 50.0000 0 0 1 1565.5445 -125.0000 A 50.0000 50.0000 60 0 1 1565.5445 -75.0000 A 50.0000 50.0000 120 0 0 1565.5445 -25.0000 A 50.0000 50.0000 60 0 0 1608.8457 0.0000 A 50.0000 50.0000 0 0 0 1652.1470 -25.0000 A 50.0000 50.0000 -60 0 1 1695.4483 -50.0000 A 50.0000 50.0000 0 0 1 1738.7495 -25.0000 A 50.0000 50.0000 60 0 0 1782.0508 0.0000 A 50.0000 50.0000 0 0 0 1825.3521 -25.0000 A 50.0000 50.0000 -60 0 0 1825.3521 -75.0000 A 50.0000 50.0000 -120 0 0 1782.0508 -100.0000 A 50.0000 50.0000 -180 0 1 1738.7495 -125.0000 A 50.0000 50.0000 -120 0 1 1738.7495 -175.0000 A 50.0000 50.0000 -60 0 0 1738.7495 -225.0000 A 50.0000 50.0000 -120 0 0 1695.4483 -250.0000 A 50.0000 50.0000 -180 0 0 1652.1470 -225.0000 A 50.0000 50.0000 -240 0 1 1608.8457 -200.0000 A 50.0000 50.0000 -180 0 1 1565.5445 -225.0000 A 50.0000 50.0000 -120 0 1 1565.5445 -275.0000 A 50.0000 50.0000 -60 0 1 1608.8457 -300.0000 A 50.0000 50.0000 0 0 0 1652.1470 -325.0000 A 50.0000 50.0000 -60 0 0 1652.1470 -375.0000 A 50.0000 50.0000 -120 0 0 1608.8457 -400.0000 A 50.0000 50.0000 -180 0 1 1565.5445 -425.0000 A 50.0000 50.0000 -120 0 1 1565.5445 -475.0000 A 50.0000 50.0000 -60 0 0 1565.5445 -525.0000 A 50.0000 50.0000 -120 0 0 1522.2432 -550.0000 A 50.0000 50.0000 -180 0 0 1478.9419 -525.0000 A 50.0000 50.0000 -240 0 0 1478.9419 -475.0000 A 50.0000 50.0000 -300 0 1 1478.9419 -425.0000 A 50.0000 50.0000 -240 0 1 1435.6406 -400.0000 A 50.0000 50.0000 -180 0 1 1392.3394 -425.0000 A 50.0000 50.0000 -120 0 0 1349.0381 -450.0000 A 50.0000 50.0000 -180 0 0 1305.7368 -425.0000 A 50.0000 50.0000 -240 0 1 1262.4356 -400.0000 A 50.0000 50.0000 -180 0 1 1219.1343 -425.0000 A 50.0000 50.0000 -120 0 1 1219.1343 -475.0000 A 50.0000 50.0000 -60 0 1 1262.4356 -500.0000 A 50.0000 50.0000 0 0 0 1305.7368 -525.0000 A 50.0000 50.0000 -60 0 0 1305.7368 -575.0000 A 50.0000 50.0000 -120 0 1 1305.7368 -625.0000 A 50.0000 50.0000 -60 0 1 1349.0381 -650.0000 A 50.0000 50.0000 0 0 1 1392.3394 -625.0000 A 50.0000 50.0000 60 0 0 1435.6406 -600.0000 A 50.0000 50.0000 0 0 0 1478.9419 -625.0000 A 50.0000 50.0000 -60 0 0 1478.9419 -675.0000 A 50.0000 50.0000 -120 0 0 1435.6406 -700.0000 A 50.0000 50.0000 -180 0 1 1392.3394 -725.0000 A 50.0000 50.0000 -120 0 1 1392.3394 -775.0000 A 50.0000 50.0000 -60 0 0 1392.3394 -825.0000 A 50.0000 50.0000 -120 0 0 1349.0381 -850.0000 A 50.0000 50.0000 -180 0 0 1305.7368 -825.0000 A 50.0000 50.0000 -240 0 1 1262.4356 -800.0000 A 50.0000 50.0000 -180 0 1 1219.1343 -825.0000 A 50.0000 50.0000 -120 0 1 1219.1343 -875.0000 A 50.0000 50.0000 -60 0 1 1262.4356 -900.0000 A 50.0000 50.0000 0 0 0 1305.7368 -925.0000 A 50.0000 50.0000 -60 0 0 1305.7368 -975.0000 A 50.0000 50.0000 -120 0 0 1262.4356 -1000.0000 A 50.0000 50.0000 -180 0 1 1219.1343 -1025.0000 A 50.0000 50.0000 -120 0 1 1219.1343 -1075.0000 A 50.0000 50.0000 -60 0 0 1219.1343 -1125.0000 A 50.0000 50.0000 -120 0 0 1175.8330 -1150.0000 A 50.0000 50.0000 -180 0 0 1132.5318 -1125.0000 A 50.0000 50.0000 -240 0 0 1132.5318 -1075.0000 A 50.0000 50.0000 -300 0 1 1132.5318 -1025.0000 A 50.0000 50.0000 -240 0 1 1089.2305 -1000.0000 A 50.0000 50.0000 -180 0 0 1045.9292 -975.0000 A 50.0000 50.0000 -240 0 0 1045.9292 -925.0000 A 50.0000 50.0000 -300 0 0 1089.2305 -900.0000 A 50.0000 50.0000 -360 0 1 1132.5318 -875.0000 A 50.0000 50.0000 -300 0 1 1132.5318 -825.0000 A 50.0000 50.0000 -240 0 1 1089.2305 -800.0000 A 50.0000 50.0000 -180 0 1 1045.9292 -825.0000 A 50.0000 50.0000 -120 0 0 1002.6279 -850.0000 A 50.0000 50.0000 -180 0 0 959.3267 -825.0000 A 50.0000 50.0000 -240 0 1 916.0254 -800.0000 A 50.0000 50.0000 -180 0 1 872.7241 -825.0000 A 50.0000 50.0000 -120 0 1 872.7241 -875.0000 A 50.0000 50.0000 -60 0 0 872.7241 -925.0000 A 50.0000 50.0000 -120 0 0 829.4229 -950.0000 A 50.0000 50.0000 -180 0 0 786.1216 -925.0000 A 50.0000 50.0000 -240 0 0 786.1216 -875.0000 A 50.0000 50.0000 -300 0 1 786.1216 -825.0000 A 50.0000 50.0000 -240 0 1 742.8203 -800.0000 A 50.0000 50.0000 -180 0 1 699.5191 -825.0000 A 50.0000 50.0000 -120 0 0 656.2178 -850.0000 A 50.0000 50.0000 -180 0 0 612.9165 -825.0000 A 50.0000 50.0000 -240 0 1 569.6152 -800.0000 A 50.0000 50.0000 -180 0 1 526.3140 -825.0000 A 50.0000 50.0000 -120 0 1 526.3140 -875.0000 A 50.0000 50.0000 -60 0 1 569.6152 -900.0000 A 50.0000 50.0000 0 0 0 612.9165 -925.0000 A 50.0000 50.0000 -60 0 0 612.9165 -975.0000 A 50.0000 50.0000 -120 0 1 612.9165 -1025.0000 A 50.0000 50.0000 -60 0 1 656.2178 -1050.0000 A 50.0000 50.0000 0 0 1 699.5191 -1025.0000 A 50.0000 50.0000 60 0 0 742.8203 -1000.0000 A 50.0000 50.0000 0 0 0 786.1216 -1025.0000 A 50.0000 50.0000 -60 0 0 786.1216 -1075.0000 A 50.0000 50.0000 -120 0 0 742.8203 -1100.0000 A 50.0000 50.0000 -180 0 1 699.5191 -1125.0000 A 50.0000 50.0000 -120 0 1 699.5191 -1175.0000 A 50.0000 50.0000 -60 0 1 742.8203 -1200.0000 A 50.0000 50.0000 0 0 0 786.1216 -1225.0000 A 50.0000 50.0000 -60 0 0 786.1216 -1275.0000 A 50.0000 50.0000 -120 0 1 786.1216 -1325.0000 A 50.0000 50.0000 -60 0 1 829.4229 -1350.0000 A 50.0000 50.0000 0 0 1 872.7241 -1325.0000 A 50.0000 50.0000 60 0 1 872.7241 -1275.0000 A 50.0000 50.0000 120 0 0 872.7241 -1225.0000 A 50.0000 50.0000 60 0 0 916.0254 -1200.0000 A 50.0000 50.0000 0 0 0 959.3267 -1225.0000 A 50.0000 50.0000 -60 0 1 1002.6279 -1250.0000 A 50.0000 50.0000 0 0 1 1045.9292 -1225.0000 A 50.0000 50.0000 60 0 0 1089.2305 -1200.0000 A 50.0000 50.0000 0 0 0 1132.5318 -1225.0000 A 50.0000 50.0000 -60 0 0 1132.5318 -1275.0000 A 50.0000 50.0000 -120 0 0 1089.2305 -1300.0000 A 50.0000 50.0000 -180 0 1 1045.9292 -1325.0000 A 50.0000 50.0000 -120 0 1 1045.9292 -1375.0000 A 50.0000 50.0000 -60 0 0 1045.9292 -1425.0000 A 50.0000 50.0000 -120 0 0 1002.6279 -1450.0000 A 50.0000 50.0000 -180 0 0 959.3267 -1425.0000 A 50.0000 50.0000 -240 0 1 916.0254 -1400.0000 A 50.0000 50.0000 -180 0 1 872.7241 -1425.0000 A 50.0000 50.0000 -120 0 1 872.7241 -1475.0000 A 50.0000 50.0000 -60 0 1 916.0254 -1500.0000 A 50.0000 50.0000 0 0 0 959.3267 -1525.0000 A 50.0000 50.0000 -60 0 0 959.3267 -1575.0000 A 50.0000 50.0000 -120 0 1 959.3267 -1625.0000 A 50.0000 50.0000 -60 0 1 1002.6279 -1650.0000 A 50.0000 50.0000 0 0 1 1045.9292 -1625.0000 A 50.0000 50.0000 60 0 0 1089.2305 -1600.0000 A 50.0000 50.0000 0 0 0 1132.5318 -1625.0000 A 50.0000 50.0000 -60 0 0 1132.5318 -1675.0000 A 50.0000 50.0000 -120 0 0 1089.2305 -1700.0000 A 50.0000 50.0000 -180 0 1 1045.9292 -1725.0000 A 50.0000 50.0000 -120 0 1 1045.9292 -1775.0000 A 50.0000 50.0000 -60 0 1 1089.2305 -1800.0000 A 50.0000 50.0000 0 0 0 1132.5318 -1825.0000 A 50.0000 50.0000 -60 0 0 1132.5318 -1875.0000 A 50.0000 50.0000 -120 0 1 1132.5318 -1925.0000 A 50.0000 50.0000 -60 0 1 1175.8330 -1950.0000 A 50.0000 50.0000 0 0 1 1219.1343 -1925.0000 A 50.0000 50.0000 60 0 1 1219.1343 -1875.0000 A 50.0000 50.0000 120 0 0 1219.1343 -1825.0000 A 50.0000 50.0000 60 0 0 1262.4356 -1800.0000 A 50.0000 50.0000 0 0 1 1305.7368 -1775.0000 A 50.0000 50.0000 60 0 1 1305.7368 -1725.0000 A 50.0000 50.0000 120 0 1 1262.4356 -1700.0000 A 50.0000 50.0000 180 0 0 1219.1343 -1675.0000 A 50.0000 50.0000 120 0 0 1219.1343 -1625.0000 A 50.0000 50.0000 60 0 0 1262.4356 -1600.0000 A 50.0000 50.0000 0 0 0 1305.7368 -1625.0000 A 50.0000 50.0000 -60 0 1 1349.0381 -1650.0000 A 50.0000 50.0000 0 0 1 1392.3394 -1625.0000 A 50.0000 50.0000 60 0 0 1435.6406 -1600.0000 A 50.0000 50.0000 0 0 0 1478.9419 -1625.0000 A 50.0000 50.0000 -60 0 0 1478.9419 -1675.0000 A 50.0000 50.0000 -120 0 1 1478.9419 -1725.0000 A 50.0000 50.0000 -60 0 1 1522.2432 -1750.0000 A 50.0000 50.0000 0 0 1 1565.5445 -1725.0000 A 50.0000 50.0000 60 0 1 1565.5445 -1675.0000 A 50.0000 50.0000 120 0 0 1565.5445 -1625.0000 A 50.0000 50.0000 60 0 0 1608.8457 -1600.0000 A 50.0000 50.0000 0 0 0 1652.1470 -1625.0000 A 50.0000 50.0000 -60 0 1 1695.4483 -1650.0000 A 50.0000 50.0000 0 0 1 1738.7495 -1625.0000 A 50.0000 50.0000 60 0 0 1782.0508 -1600.0000 A 50.0000 50.0000 0 0 0 1825.3521 -1625.0000 A 50.0000 50.0000 -60 0 0 1825.3521 -1675.0000 A 50.0000 50.0000 -120 0 0 1782.0508 -1700.0000 A 50.0000 50.0000 -180 0 1 1738.7495 -1725.0000 A 50.0000 50.0000 -120 0 1 1738.7495 -1775.0000 A 50.0000 50.0000 -60 0 0 1738.7495 -1825.0000 A 50.0000 50.0000 -120 0 0 1695.4483 -1850.0000 A 50.0000 50.0000 -180 0 0 1652.1470 -1825.0000 A 50.0000 50.0000 -240 0 1 1608.8457 -1800.0000 A 50.0000 50.0000 -180 0 1 1565.5445 -1825.0000 A 50.0000 50.0000 -120 0 1 1565.5445 -1875.0000 A 50.0000 50.0000 -60 0 1 1608.8457 -1900.0000 A 50.0000 50.0000 0 0 0 1652.1470 -1925.0000 A 50.0000 50.0000 -60 0 0 1652.1470 -1975.0000 A 50.0000 50.0000 -120 0 0 1608.8457 -2000.0000 A 50.0000 50.0000 -180 0 1 1565.5445 -2025.0000 A 50.0000 50.0000 -120 0 1 1565.5445 -2075.0000 A 50.0000 50.0000 -60 0 0 1565.5445 -2125.0000 A 50.0000 50.0000 -120 0 0 1522.2432 -2150.0000 A 50.0000 50.0000 -180 0 0 1478.9419 -2125.0000 A 50.0000 50.0000 -240 0 0 1478.9419 -2075.0000 A 50.0000 50.0000 -300 0 1 1478.9419 -2025.0000 A 50.0000 50.0000 -240 0 1 1435.6406 -2000.0000 A 50.0000 50.0000 -180 0 1 1392.3394 -2025.0000 A 50.0000 50.0000 -120 0 0 1349.0381 -2050.0000 A 50.0000 50.0000 -180 0 0 1305.7368 -2025.0000 A 50.0000 50.0000 -240 0 1 1262.4356 -2000.0000 A 50.0000 50.0000 -180 0 1 1219.1343 -2025.0000 A 50.0000 50.0000 -120 0 1 1219.1343 -2075.0000 A 50.0000 50.0000 -60 0 1 1262.4356 -2100.0000 A 50.0000 50.0000 0 0 0 1305.7368 -2125.0000 A 50.0000 50.0000 -60 0 0 1305.7368 -2175.0000 A 50.0000 50.0000 -120 0 1 1305.7368 -2225.0000 A 50.0000 50.0000 -60 0 1 1349.0381 -2250.0000 A 50.0000 50.0000 0 0 1 1392.3394 -2225.0000 A 50.0000 50.0000 60 0 0 1435.6406 -2200.0000 A 50.0000 50.0000 0 0 0 1478.9419 -2225.0000 A 50.0000 50.0000 -60 0 0 1478.9419 -2275.0000 A 50.0000 50.0000 -120 0 0 1435.6406 -2300.0000 A 50.0000 50.0000 -180 0 1 1392.3394 -2325.0000 A 50.0000 50.0000 -120 0 1 1392.3394 -2375.0000 A 50.0000 50.0000 -60 0 1 1435.6406 -2400.0000 A 50.0000 50.0000 0 0 0 1478.9419 -2425.0000 A 50.0000 50.0000 -60 0 0 1478.9419 -2475.0000 A 50.0000 50.0000 -120 0 1 1478.9419 -2525.0000 A 50.0000 50.0000 -60 0 1 1522.2432 -2550.0000 A 50.0000 50.0000 0 0 1 1565.5445 -2525.0000 A 50.0000 50.0000 60 0 1 1565.5445 -2475.0000 A 50.0000 50.0000 120 0 0 1565.5445 -2425.0000 A 50.0000 50.0000 60 0 0 1608.8457 -2400.0000 A 50.0000 50.0000 0 0 0 1652.1470 -2425.0000 A 50.0000 50.0000 -60 0 1 1695.4483 -2450.0000 A 50.0000 50.0000 0 0 1 1738.7495 -2425.0000 A 50.0000 50.0000 60 0 0 1782.0508 -2400.0000 A 50.0000 50.0000 0 0 0 1825.3521 -2425.0000 A 50.0000 50.0000 -60 0 0 1825.3521 -2475.0000 A 50.0000 50.0000 -120 0 0 1782.0508 -2500.0000 A 50.0000 50.0000 -180 0 1 1738.7495 -2525.0000 A 50.0000 50.0000 -120 0 1 1738.7495 -2575.0000 A 50.0000 50.0000 -60 0 0 1738.7495 -2625.0000 A 50.0000 50.0000 -120 0 0 1695.4483 -2650.0000 A 50.0000 50.0000 -180 0 0 1652.1470 -2625.0000 A 50.0000 50.0000 -240 0 1 1608.8457 -2600.0000 A 50.0000 50.0000 -180 0 1 1565.5445 -2625.0000 A 50.0000 50.0000 -120 0 1 1565.5445 -2675.0000 A 50.0000 50.0000 -60 0 1 1608.8457 -2700.0000 A 50.0000 50.0000 0 0 0 1652.1470 -2725.0000 A 50.0000 50.0000 -60 0 0 1652.1470 -2775.0000 A 50.0000 50.0000 -120 0 1 1652.1470 -2825.0000 A 50.0000 50.0000 -60 0 1 1695.4483 -2850.0000 A 50.0000 50.0000 0 0 1 1738.7495 -2825.0000 A 50.0000 50.0000 60 0 0 1782.0508 -2800.0000 A 50.0000 50.0000 0 0 0 1825.3521 -2825.0000 A 50.0000 50.0000 -60 0 0 1825.3521 -2875.0000 A 50.0000 50.0000 -120 0 0 1782.0508 -2900.0000 A 50.0000 50.0000 -180 0 1 1738.7495 -2925.0000 A 50.0000 50.0000 -120 0 1 1738.7495 -2975.0000 A 50.0000 50.0000 -60 0 1 1782.0508 -3000.0000 A 50.0000 50.0000 0 0 0 1825.3521 -3025.0000 A 50.0000 50.0000 -60 0 0 1825.3521 -3075.0000 A 50.0000 50.0000 -120 0 1 1825.3521 -3125.0000 A 50.0000 50.0000 -60 0 1 1868.6533 -3150.0000 A 50.0000 50.0000 0 0 1 1911.9546 -3125.0000 A 50.0000 50.0000 60 0 1 1911.9546 -3075.0000 A 50.0000 50.0000 120 0 0 1911.9546 -3025.0000 A 50.0000 50.0000 60 0 0 1955.2559 -3000.0000 A 50.0000 50.0000 0 0 1 1998.5572 -2975.0000 A 50.0000 50.0000 60 0 1 1998.5572 -2925.0000 A 50.0000 50.0000 120 0 1 1955.2559 -2900.0000 A 50.0000 50.0000 180 0 0 1911.9546 -2875.0000 A 50.0000 50.0000 120 0 0 1911.9546 -2825.0000 A 50.0000 50.0000 60 0 0 1955.2559 -2800.0000 A 50.0000 50.0000 0 0 0 1998.5572 -2825.0000 A 50.0000 50.0000 -60 0 1 2041.8584 -2850.0000 A 50.0000 50.0000 0 0 1 2085.1597 -2825.0000 A 50.0000 50.0000 60 0 1 2085.1597 -2775.0000 A 50.0000 50.0000 120 0 0 2085.1597 -2725.0000 A 50.0000 50.0000 60 0 0 2128.4610 -2700.0000 A 50.0000 50.0000 0 0 1 2171.7622 -2675.0000 A 50.0000 50.0000 60 0 1 2171.7622 -2625.0000 A 50.0000 50.0000 120 0 1 2128.4610 -2600.0000 A 50.0000 50.0000 180 0 1 2085.1597 -2625.0000 A 50.0000 50.0000 240 0 0 2041.8584 -2650.0000 A 50.0000 50.0000 180 0 0 1998.5572 -2625.0000 A 50.0000 50.0000 120 0 0 1998.5572 -2575.0000 A 50.0000 50.0000 60 0 1 1998.5572 -2525.0000 A 50.0000 50.0000 120 0 1 1955.2559 -2500.0000 A 50.0000 50.0000 180 0 0 1911.9546 -2475.0000 A 50.0000 50.0000 120 0 0 1911.9546 -2425.0000 A 50.0000 50.0000 60 0 0 1955.2559 -2400.0000 A 50.0000 50.0000 0 0 0 1998.5572 -2425.0000 A 50.0000 50.0000 -60 0 1 2041.8584 -2450.0000 A 50.0000 50.0000 0 0 1 2085.1597 -2425.0000 A 50.0000 50.0000 60 0 0 2128.4610 -2400.0000 A 50.0000 50.0000 0 0 0 2171.7622 -2425.0000 A 50.0000 50.0000 -60 0 0 2171.7622 -2475.0000 A 50.0000 50.0000 -120 0 1 2171.7622 -2525.0000 A 50.0000 50.0000 -60 0 1 2215.0635 -2550.0000 A 50.0000 50.0000 0 0 1 2258.3648 -2525.0000 A 50.0000 50.0000 60 0 1 2258.3648 -2475.0000 A 50.0000 50.0000 120 0 0 2258.3648 -2425.0000 A 50.0000 50.0000 60 0 0 2301.6660 -2400.0000 A 50.0000 50.0000 0 0 1 2344.9673 -2375.0000 A 50.0000 50.0000 60 0 1 2344.9673 -2325.0000 A 50.0000 50.0000 120 0 1 2301.6660 -2300.0000 A 50.0000 50.0000 180 0 0 2258.3648 -2275.0000 A 50.0000 50.0000 120 0 0 2258.3648 -2225.0000 A 50.0000 50.0000 60 0 0 2301.6660 -2200.0000 A 50.0000 50.0000 0 0 0 2344.9673 -2225.0000 A 50.0000 50.0000 -60 0 1 2388.2686 -2250.0000 A 50.0000 50.0000 0 0 1 2431.5699 -2225.0000 A 50.0000 50.0000 60 0 1 2431.5699 -2175.0000 A 50.0000 50.0000 120 0 0 2431.5699 -2125.0000 A 50.0000 50.0000 60 0 0 2474.8711 -2100.0000 A 50.0000 50.0000 0 0 1 2518.1724 -2075.0000 A 50.0000 50.0000 60 0 1 2518.1724 -2025.0000 A 50.0000 50.0000 120 0 1 2474.8711 -2000.0000 A 50.0000 50.0000 180 0 1 2431.5699 -2025.0000 A 50.0000 50.0000 240 0 0 2388.2686 -2050.0000 A 50.0000 50.0000 180 0 0 2344.9673 -2025.0000 A 50.0000 50.0000 120 0 1 2301.6660 -2000.0000 A 50.0000 50.0000 180 0 1 2258.3648 -2025.0000 A 50.0000 50.0000 240 0 1 2258.3648 -2075.0000 A 50.0000 50.0000 300 0 0 2258.3648 -2125.0000 A 50.0000 50.0000 240 0 0 2215.0635 -2150.0000 A 50.0000 50.0000 180 0 0 2171.7622 -2125.0000 A 50.0000 50.0000 120 0 0 2171.7622 -2075.0000 A 50.0000 50.0000 60 0 1 2171.7622 -2025.0000 A 50.0000 50.0000 120 0 1 2128.4610 -2000.0000 A 50.0000 50.0000 180 0 0 2085.1597 -1975.0000 A 50.0000 50.0000 120 0 0 2085.1597 -1925.0000 A 50.0000 50.0000 60 0 0 2128.4610 -1900.0000 A 50.0000 50.0000 0 0 1 2171.7622 -1875.0000 A 50.0000 50.0000 60 0 1 2171.7622 -1825.0000 A 50.0000 50.0000 120 0 1 2128.4610 -1800.0000 A 50.0000 50.0000 180 0 1 2085.1597 -1825.0000 A 50.0000 50.0000 240 0 0 2041.8584 -1850.0000 A 50.0000 50.0000 180 0 0 1998.5572 -1825.0000 A 50.0000 50.0000 120 0 0 1998.5572 -1775.0000 A 50.0000 50.0000 60 0 1 1998.5572 -1725.0000 A 50.0000 50.0000 120 0 1 1955.2559 -1700.0000 A 50.0000 50.0000 180 0 0 1911.9546 -1675.0000 A 50.0000 50.0000 120 0 0 1911.9546 -1625.0000 A 50.0000 50.0000 60 0 0 1955.2559 -1600.0000 A 50.0000 50.0000 0 0 0 1998.5572 -1625.0000 A 50.0000 50.0000 -60 0 1 2041.8584 -1650.0000 A 50.0000 50.0000 0 0 1 2085.1597 -1625.0000 A 50.0000 50.0000 60 0 0 2128.4610 -1600.0000 A 50.0000 50.0000 0 0 0 2171.7622 -1625.0000 A 50.0000 50.0000 -60 0 0 2171.7622 -1675.0000 A 50.0000 50.0000 -120 0 1 2171.7622 -1725.0000 A 50.0000 50.0000 -60 0 1 2215.0635 -1750.0000 A 50.0000 50.0000 0 0 1 2258.3648 -1725.0000 A 50.0000 50.0000 60 0 1 2258.3648 -1675.0000 A 50.0000 50.0000 120 0 0 2258.3648 -1625.0000 A 50.0000 50.0000 60 0 0 2301.6660 -1600.0000 A 50.0000 50.0000 0 0 0 2344.9673 -1625.0000 A 50.0000 50.0000 -60 0 1 2388.2686 -1650.0000 A 50.0000 50.0000 0 0 1 2431.5699 -1625.0000 A 50.0000 50.0000 60 0 0 2474.8711 -1600.0000 A 50.0000 50.0000 0 0 0 2518.1724 -1625.0000 A 50.0000 50.0000 -60 0 0 2518.1724 -1675.0000 A 50.0000 50.0000 -120 0 0 2474.8711 -1700.0000 A 50.0000 50.0000 -180 0 1 2431.5699 -1725.0000 A 50.0000 50.0000 -120 0 1 2431.5699 -1775.0000 A 50.0000 50.0000 -60 0 1 2474.8711 -1800.0000 A 50.0000 50.0000 0 0 0 2518.1724 -1825.0000 A 50.0000 50.0000 -60 0 0 2518.1724 -1875.0000 A 50.0000 50.0000 -120 0 1 2518.1724 -1925.0000 A 50.0000 50.0000 -60 0 1 2561.4737 -1950.0000 A 50.0000 50.0000 0 0 1 2604.7749 -1925.0000 A 50.0000 50.0000 60 0 1 2604.7749 -1875.0000 A 50.0000 50.0000 120 0 0 2604.7749 -1825.0000 A 50.0000 50.0000 60 0 0 2648.0762 -1800.0000 A 50.0000 50.0000 0 0 1 2691.3775 -1775.0000 A 50.0000 50.0000 60 0 1 2691.3775 -1725.0000 A 50.0000 50.0000 120 0 1 2648.0762 -1700.0000 A 50.0000 50.0000 180 0 0 2604.7749 -1675.0000 A 50.0000 50.0000 120 0 0 2604.7749 -1625.0000 A 50.0000 50.0000 60 0 0 2648.0762 -1600.0000 A 50.0000 50.0000 0 0 0 2691.3775 -1625.0000 A 50.0000 50.0000 -60 0 1 2734.6788 -1650.0000 A 50.0000 50.0000 0 0 1 2777.9800 -1625.0000 A 50.0000 50.0000 60 0 1 2777.9800 -1575.0000 A 50.0000 50.0000 120 0 0 2777.9800 -1525.0000 A 50.0000 50.0000 60 0 0 2821.2813 -1500.0000 A 50.0000 50.0000 0 0 1 2864.5826 -1475.0000 A 50.0000 50.0000 60 0 1 2864.5826 -1425.0000 A 50.0000 50.0000 120 0 1 2821.2813 -1400.0000 A 50.0000 50.0000 180 0 1 2777.9800 -1425.0000 A 50.0000 50.0000 240 0 0 2734.6788 -1450.0000 A 50.0000 50.0000 180 0 0 2691.3775 -1425.0000 A 50.0000 50.0000 120 0 0 2691.3775 -1375.0000 A 50.0000 50.0000 60 0 1 2691.3775 -1325.0000 A 50.0000 50.0000 120 0 1 2648.0762 -1300.0000 A 50.0000 50.0000 180 0 0 2604.7749 -1275.0000 A 50.0000 50.0000 120 0 0 2604.7749 -1225.0000 A 50.0000 50.0000 60 0 0 2648.0762 -1200.0000 A 50.0000 50.0000 0 0 0 2691.3775 -1225.0000 A 50.0000 50.0000 -60 0 1 2734.6788 -1250.0000 A 50.0000 50.0000 0 0 1 2777.9800 -1225.0000 A 50.0000 50.0000 60 0 0 2821.2813 -1200.0000 A 50.0000 50.0000 0 0 0 2864.5826 -1225.0000 A 50.0000 50.0000 -60 0 0 2864.5826 -1275.0000 A 50.0000 50.0000 -120 0 1 2864.5826 -1325.0000 A 50.0000 50.0000 -60 0 1 2907.8838 -1350.0000 A 50.0000 50.0000 0 0 1 2951.1851 -1325.0000 A 50.0000 50.0000 60 0 1 2951.1851 -1275.0000 A 50.0000 50.0000 120 0 0 2951.1851 -1225.0000 A 50.0000 50.0000 60 0 0 2994.4864 -1200.0000 A 50.0000 50.0000 0 0 1 3037.7876 -1175.0000 A 50.0000 50.0000 60 0 1 3037.7876 -1125.0000 A 50.0000 50.0000 120 0 1 2994.4864 -1100.0000 A 50.0000 50.0000 180 0 0 2951.1851 -1075.0000 A 50.0000 50.0000 120 0 0 2951.1851 -1025.0000 A 50.0000 50.0000 60 0 0 2994.4864 -1000.0000 A 50.0000 50.0000 0 0 0 3037.7876 -1025.0000 A 50.0000 50.0000 -60 0 1 3081.0889 -1050.0000 A 50.0000 50.0000 0 0 1 3124.3902 -1025.0000 A 50.0000 50.0000 60 0 1 3124.3902 -975.0000 A 50.0000 50.0000 120 0 0 3124.3902 -925.0000 A 50.0000 50.0000 60 0 0 3167.6915 -900.0000 A 50.0000 50.0000 0 0 1 3210.9927 -875.0000 A 50.0000 50.0000 60 0 1 3210.9927 -825.0000 A 50.0000 50.0000 120 0 1 3167.6915 -800.0000 A 50.0000 50.0000 180 0 1 3124.3902 -825.0000 A 50.0000 50.0000 240 0 0 3081.0889 -850.0000 A 50.0000 50.0000 180 0 0 3037.7876 -825.0000 A 50.0000 50.0000 120 0 1 2994.4864 -800.0000 A 50.0000 50.0000 180 0 1 2951.1851 -825.0000 A 50.0000 50.0000 240 0 1 2951.1851 -875.0000 A 50.0000 50.0000 300 0 0 2951.1851 -925.0000 A 50.0000 50.0000 240 0 0 2907.8838 -950.0000 A 50.0000 50.0000 180 0 0 2864.5826 -925.0000 A 50.0000 50.0000 120 0 0 2864.5826 -875.0000 A 50.0000 50.0000 60 0 1 2864.5826 -825.0000 A 50.0000 50.0000 120 0 1 2821.2813 -800.0000 A 50.0000 50.0000 180 0 1 2777.9800 -825.0000 A 50.0000 50.0000 240 0 0 2734.6788 -850.0000 A 50.0000 50.0000 180 0 0 2691.3775 -825.0000 A 50.0000 50.0000 120 0 1 2648.0762 -800.0000 A 50.0000 50.0000 180 0 1 2604.7749 -825.0000 A 50.0000 50.0000 240 0 1 2604.7749 -875.0000 A 50.0000 50.0000 300 0 1 2648.0762 -900.0000 A 50.0000 50.0000 360 0 0 2691.3775 -925.0000 A 50.0000 50.0000 300 0 0 2691.3775 -975.0000 A 50.0000 50.0000 240 0 0 2648.0762 -1000.0000 A 50.0000 50.0000 180 0 1 2604.7749 -1025.0000 A 50.0000 50.0000 240 0 1 2604.7749 -1075.0000 A 50.0000 50.0000 300 0 0 2604.7749 -1125.0000 A 50.0000 50.0000 240 0 0 2561.4737 -1150.0000 A 50.0000 50.0000 180 0 0 2518.1724 -1125.0000 A 50.0000 50.0000 120 0 0 2518.1724 -1075.0000 A 50.0000 50.0000 60 0 1 2518.1724 -1025.0000 A 50.0000 50.0000 120 0 1 2474.8711 -1000.0000 A 50.0000 50.0000 180 0 0 2431.5699 -975.0000 A 50.0000 50.0000 120 0 0 2431.5699 -925.0000 A 50.0000 50.0000 60 0 0 2474.8711 -900.0000 A 50.0000 50.0000 0 0 1 2518.1724 -875.0000 A 50.0000 50.0000 60 0 1 2518.1724 -825.0000 A 50.0000 50.0000 120 0 1 2474.8711 -800.0000 A 50.0000 50.0000 180 0 1 2431.5699 -825.0000 A 50.0000 50.0000 240 0 0 2388.2686 -850.0000 A 50.0000 50.0000 180 0 0 2344.9673 -825.0000 A 50.0000 50.0000 120 0 0 2344.9673 -775.0000 A 50.0000 50.0000 60 0 1 2344.9673 -725.0000 A 50.0000 50.0000 120 0 1 2301.6660 -700.0000 A 50.0000 50.0000 180 0 0 2258.3648 -675.0000 A 50.0000 50.0000 120 0 0 2258.3648 -625.0000 A 50.0000 50.0000 60 0 0 2301.6660 -600.0000 A 50.0000 50.0000 0 0 0 2344.9673 -625.0000 A 50.0000 50.0000 -60 0 1 2388.2686 -650.0000 A 50.0000 50.0000 0 0 1 2431.5699 -625.0000 A 50.0000 50.0000 60 0 1 2431.5699 -575.0000 A 50.0000 50.0000 120 0 0 2431.5699 -525.0000 A 50.0000 50.0000 60 0 0 2474.8711 -500.0000 A 50.0000 50.0000 0 0 1 2518.1724 -475.0000 A 50.0000 50.0000 60 0 1 2518.1724 -425.0000 A 50.0000 50.0000 120 0 1 2474.8711 -400.0000 A 50.0000 50.0000 180 0 1 2431.5699 -425.0000 A 50.0000 50.0000 240 0 0 2388.2686 -450.0000 A 50.0000 50.0000 180 0 0 2344.9673 -425.0000 A 50.0000 50.0000 120 0 1 2301.6660 -400.0000 A 50.0000 50.0000 180 0 1 2258.3648 -425.0000 A 50.0000 50.0000 240 0 1 2258.3648 -475.0000 A 50.0000 50.0000 300 0 0 2258.3648 -525.0000 A 50.0000 50.0000 240 0 0 2215.0635 -550.0000 A 50.0000 50.0000 180 0 0 2171.7622 -525.0000 A 50.0000 50.0000 120 0 0 2171.7622 -475.0000 A 50.0000 50.0000 60 0 1 2171.7622 -425.0000 A 50.0000 50.0000 120 0 1 2128.4610 -400.0000 A 50.0000 50.0000 180 0 0 2085.1597 -375.0000 A 50.0000 50.0000 120 0 0 2085.1597 -325.0000 A 50.0000 50.0000 60 0 0 2128.4610 -300.0000 A 50.0000 50.0000 0 0 1 2171.7622 -275.0000 A 50.0000 50.0000 60 0 1 2171.7622 -225.0000 A 50.0000 50.0000 120 0 1 2128.4610 -200.0000 A 50.0000 50.0000 180 0 1 2085.1597 -225.0000 A 50.0000 50.0000 240 0 0 2041.8584 -250.0000 A 50.0000 50.0000 180 0 0 1998.5572 -225.0000 A 50.0000 50.0000 120 0 0 1998.5572 -175.0000 A 50.0000 50.0000 60 0 1 1998.5572 -125.0000 A 50.0000 50.0000 120 0 1 1955.2559 -100.0000 A 50.0000 50.0000 180 0 0 1911.9546 -75.0000 A 50.0000 50.0000 120 0 0 1911.9546 -25.0000 A 50.0000 50.0000 60 0 0 1955.2559 -0.0000 A 50.0000 50.0000 0 0 0 1998.5572 -25.0000 A 50.0000 50.0000 -60 0 1 2041.8584 -50.0000 A 50.0000 50.0000 0 0 1 2085.1597 -25.0000 A 50.0000 50.0000 60 0 0 2128.4610 -0.0000 A 50.0000 50.0000 0 0 0 2171.7622 -25.0000 A 50.0000 50.0000 -60 0 0 2171.7622 -75.0000 A 50.0000 50.0000 -120 0 1 2171.7622 -125.0000 A 50.0000 50.0000 -60 0 1 2215.0635 -150.0000 A 50.0000 50.0000 0 0 1 2258.3648 -125.0000 A 50.0000 50.0000 60 0 1 2258.3648 -75.0000 A 50.0000 50.0000 120 0 0 2258.3648 -25.0000 A 50.0000 50.0000 60 0 0 2301.6660 -0.0000 A 50.0000 50.0000 0 0 0 2344.9673 -25.0000 A 50.0000 50.0000 -60 0 1 2388.2686 -50.0000 A 50.0000 50.0000 0 0 1 2431.5699 -25.0000 A 50.0000 50.0000 60 0 0 2474.8711 -0.0000 A 50.0000 50.0000 0 0 0 2518.1724 -25.0000 A 50.0000 50.0000 -60 0 0 2518.1724 -75.0000 A 50.0000 50.0000 -120 0 0 2474.8711 -100.0000 A 50.0000 50.0000 -180 0 1 2431.5699 -125.0000 A 50.0000 50.0000 -120 0 1 2431.5699 -175.0000 A 50.0000 50.0000 -60 0 1 2474.8711 -200.0000 A 50.0000 50.0000 0 0 0 2518.1724 -225.0000 A 50.0000 50.0000 -60 0 0 2518.1724 -275.0000 A 50.0000 50.0000 -120 0 1 2518.1724 -325.0000 A 50.0000 50.0000 -60 0 1 2561.4737 -350.0000 A 50.0000 50.0000 0 0 1 2604.7749 -325.0000 A 50.0000 50.0000 60 0 1 2604.7749 -275.0000 A 50.0000 50.0000 120 0 0 2604.7749 -225.0000 A 50.0000 50.0000 60 0 0 2648.0762 -200.0000 A 50.0000 50.0000 0 0 1 2691.3775 -175.0000 A 50.0000 50.0000 60 0 1 2691.3775 -125.0000 A 50.0000 50.0000 120 0 1 2648.0762 -100.0000 A 50.0000 50.0000 180 0 0 2604.7749 -75.0000 A 50.0000 50.0000 120 0 0 2604.7749 -25.0000 A 50.0000 50.0000 60 0 0 2648.0762 0.0000 A 50.0000 50.0000 0 0 0 2691.3775 -25.0000 A 50.0000 50.0000 -60 0 1 2734.6788 -50.0000 A 50.0000 50.0000 0 0 1 2777.9800 -25.0000 A 50.0000 50.0000 60 0 0 2821.2813 0.0000 A 50.0000 50.0000 0 0 0 2864.5826 -25.0000 A 50.0000 50.0000 -60 0 0 2864.5826 -75.0000 A 50.0000 50.0000 -120 0 1 2864.5826 -125.0000 A 50.0000 50.0000 -60 0 1 2907.8838 -150.0000 A 50.0000 50.0000 0 0 1 2951.1851 -125.0000 A 50.0000 50.0000 60 0 1 2951.1851 -75.0000 A 50.0000 50.0000 120 0 0 2951.1851 -25.0000 A 50.0000 50.0000 60 0 0 2994.4864 0.0000 A 50.0000 50.0000 0 0 0 3037.7876 -25.0000 A 50.0000 50.0000 -60 0 1 3081.0889 -50.0000 A 50.0000 50.0000 0 0 1 3124.3902 -25.0000 A 50.0000 50.0000 60 0 0 3167.6915 0.0000 A 50.0000 50.0000 0 0 0 3210.9927 -25.0000 A 50.0000 50.0000 -60 0 0 3210.9927 -75.0000 A 50.0000 50.0000 -120 0 0 3167.6915 -100.0000 A 50.0000 50.0000 -180 0 1 3124.3902 -125.0000 A 50.0000 50.0000 -120 0 1 3124.3902 -175.0000 A 50.0000 50.0000 -60 0 0 3124.3902 -225.0000 A 50.0000 50.0000 -120 0 0 3081.0889 -250.0000 A 50.0000 50.0000 -180 0 0 3037.7876 -225.0000 A 50.0000 50.0000 -240 0 1 2994.4864 -200.0000 A 50.0000 50.0000 -180 0 1 2951.1851 -225.0000 A 50.0000 50.0000 -120 0 1 2951.1851 -275.0000 A 50.0000 50.0000 -60 0 1 2994.4864 -300.0000 A 50.0000 50.0000 0 0 0 3037.7876 -325.0000 A 50.0000 50.0000 -60 0 0 3037.7876 -375.0000 A 50.0000 50.0000 -120 0 1 3037.7876 -425.0000 A 50.0000 50.0000 -60 0 1 3081.0889 -450.0000 A 50.0000 50.0000 0 0 1 3124.3902 -425.0000 A 50.0000 50.0000 60 0 0 3167.6915 -400.0000 A 50.0000 50.0000 0 0 0 3210.9927 -425.0000 A 50.0000 50.0000 -60 0 0 3210.9927 -475.0000 A 50.0000 50.0000 -120 0 0 3167.6915 -500.0000 A 50.0000 50.0000 -180 0 1 3124.3902 -525.0000 A 50.0000 50.0000 -120 0 1 3124.3902 -575.0000 A 50.0000 50.0000 -60 0 1 3167.6915 -600.0000 A 50.0000 50.0000 0 0 0 3210.9927 -625.0000 A 50.0000 50.0000 -60 0 0 3210.9927 -675.0000 A 50.0000 50.0000 -120 0 1 3210.9927 -725.0000 A 50.0000 50.0000 -60 0 1 3254.2940 -750.0000 A 50.0000 50.0000 0 0 1 3297.5953 -725.0000 A 50.0000 50.0000 60 0 1 3297.5953 -675.0000 A 50.0000 50.0000 120 0 0 3297.5953 -625.0000 A 50.0000 50.0000 60 0 0 3340.8965 -600.0000 A 50.0000 50.0000 0 0 1 3384.1978 -575.0000 A 50.0000 50.0000 60 0 1 3384.1978 -525.0000 A 50.0000 50.0000 120 0 1 3340.8965 -500.0000 A 50.0000 50.0000 180 0 0 3297.5953 -475.0000 A 50.0000 50.0000 120 0 0 3297.5953 -425.0000 A 50.0000 50.0000 60 0 0 3340.8965 -400.0000 A 50.0000 50.0000 0 0 0 3384.1978 -425.0000 A 50.0000 50.0000 -60 0 1 3427.4991 -450.0000 A 50.0000 50.0000 0 0 1 3470.8003 -425.0000 A 50.0000 50.0000 60 0 1 3470.8003 -375.0000 A 50.0000 50.0000 120 0 0 3470.8003 -325.0000 A 50.0000 50.0000 60 0 0 3514.1016 -300.0000 A 50.0000 50.0000 0 0 1 3557.4029 -275.0000 A 50.0000 50.0000 60 0 1 3557.4029 -225.0000 A 50.0000 50.0000 120 0 1 3514.1016 -200.0000 A 50.0000 50.0000 180 0 1 3470.8003 -225.0000 A 50.0000 50.0000 240 0 0 3427.4991 -250.0000 A 50.0000 50.0000 180 0 0 3384.1978 -225.0000 A 50.0000 50.0000 120 0 0 3384.1978 -175.0000 A 50.0000 50.0000 60 0 1 3384.1978 -125.0000 A 50.0000 50.0000 120 0 1 3340.8965 -100.0000 A 50.0000 50.0000 180 0 0 3297.5953 -75.0000 A 50.0000 50.0000 120 0 0 3297.5953 -25.0000 A 50.0000 50.0000 60 0 0 3340.8965 0.0000 A 50.0000 50.0000 0 0 0 3384.1978 -25.0000 A 50.0000 50.0000 -60 0 1 3427.4991 -50.0000 A 50.0000 50.0000 0 0 1 3470.8003 -25.0000 A 50.0000 50.0000 60 0 0 3514.1016 0.0000 A 50.0000 50.0000 0 0 0 3557.4029 -25.0000 A 50.0000 50.0000 -60 0 0 3557.4029 -75.0000 A 50.0000 50.0000 -120 0 1 3557.4029 -125.0000 A 50.0000 50.0000 -60 0 1 3600.7042 -150.0000 A 50.0000 50.0000 0 0 1 3644.0054 -125.0000 A 50.0000 50.0000 60 0 1 3644.0054 -75.0000 A 50.0000 50.0000 120 0 0 3644.0054 -25.0000 A 50.0000 50.0000 60 0 0 3687.3067 0.0000 L 3737.3067 0.0000" fill="none" stroke="black" stroke-linecap="round" stroke-linejoin="round" stroke-width="5" /></svg>